<svg xmlns="http://www.w3.org/2000/svg" xmlns:xlink="http://www.w3.org/1999/xlink" width="1024" height="400">\n<path  d="M 0 0
L 1024 0
L 1024 400
L 0 400
L 0 0" style="stroke-width:0;stroke:rgba(255,255,255,1.0);fill:rgba(255,255,255,1.0)"/><path  d="M 38 11
L 957 11
L 957 351
L 38 351
L 38 11" style="stroke-width:0;stroke:rgba(255,255,255,1.0);fill:rgba(255,255,255,1.0)"/><path  d="M 38 351
L 957 351" style="stroke-width:2;stroke:rgba(85,85,85,1.0);fill:none"/><path  d="M 38 351
L 38 356" style="stroke-width:2;stroke:rgba(85,85,85,1.0);fill:none"/><text x="5" y="373" style="stroke-width:0;stroke:none;fill:rgba(51,51,51,1.0);font-size:12.8px;font-family:'Roboto Medium',sans-serif">2019-08-01</text><path  d="M 153 351
L 153 356" style="stroke-width:2;stroke:rgba(85,85,85,1.0);fill:none"/><text x="120" y="373" style="stroke-width:0;stroke:none;fill:rgba(51,51,51,1.0);font-size:12.8px;font-family:'Roboto Medium',sans-serif">2019-08-30</text><path  d="M 268 351
L 268 356" style="stroke-width:2;stroke:rgba(85,85,85,1.0);fill:none"/><text x="235" y="373" style="stroke-width:0;stroke:none;fill:rgba(51,51,51,1.0);font-size:12.8px;font-family:'Roboto Medium',sans-serif">2019-09-28</text><path  d="M 383 351
L 383 356" style="stroke-width:2;stroke:rgba(85,85,85,1.0);fill:none"/><text x="350" y="373" style="stroke-width:0;stroke:none;fill:rgba(51,51,51,1.0);font-size:12.8px;font-family:'Roboto Medium',sans-serif">2019-10-27</text><path  d="M 498 351
L 498 356" style="stroke-width:2;stroke:rgba(85,85,85,1.0);fill:none"/><text x="465" y="373" style="stroke-width:0;stroke:none;fill:rgba(51,51,51,1.0);font-size:12.8px;font-family:'Roboto Medium',sans-serif">2019-11-26</text><path  d="M 613 351
L 613 356" style="stroke-width:2;stroke:rgba(85,85,85,1.0);fill:none"/><text x="580" y="373" style="stroke-width:0;stroke:none;fill:rgba(51,51,51,1.0);font-size:12.8px;font-family:'Roboto Medium',sans-serif">2019-12-25</text><path  d="M 728 351
L 728 356" style="stroke-width:2;stroke:rgba(85,85,85,1.0);fill:none"/><text x="695" y="373" style="stroke-width:0;stroke:none;fill:rgba(51,51,51,1.0);font-size:12.8px;font-family:'Roboto Medium',sans-serif">2020-01-23</text><path  d="M 843 351
L 843 356" style="stroke-width:2;stroke:rgba(85,85,85,1.0);fill:none"/><text x="810" y="373" style="stroke-width:0;stroke:none;fill:rgba(51,51,51,1.0);font-size:12.8px;font-family:'Roboto Medium',sans-serif">2020-02-21</text><path  d="M 957 351
L 957 356" style="stroke-width:2;stroke:rgba(85,85,85,1.0);fill:none"/><text x="924" y="373" style="stroke-width:0;stroke:none;fill:rgba(51,51,51,1.0);font-size:12.8px;font-family:'Roboto Medium',sans-serif">2020-03-21</text><text x="483" y="395" style="stroke-width:0;stroke:none;fill:rgba(51,51,51,1.0);font-size:12.8px;font-family:'Roboto Medium',sans-serif">Time</text><path  d="M 959 351
L 959 11" style="stroke-width:2;stroke:rgba(85,85,85,1.0);fill:none"/><path  d="M 959 351
L 964 351" style="stroke-width:2;stroke:rgba(85,85,85,1.0);fill:none"/><text x="969" y="357" style="stroke-width:0;stroke:none;fill:rgba(51,51,51,1.0);font-size:12.8px;font-family:'Roboto Medium',sans-serif">0</text><path  d="M 959 307
L 964 307" style="stroke-width:2;stroke:rgba(85,85,85,1.0);fill:none"/><text x="969" y="313" style="stroke-width:0;stroke:none;fill:rgba(51,51,51,1.0);font-size:12.8px;font-family:'Roboto Medium',sans-serif">420</text><path  d="M 959 265
L 964 265" style="stroke-width:2;stroke:rgba(85,85,85,1.0);fill:none"/><text x="969" y="271" style="stroke-width:0;stroke:none;fill:rgba(51,51,51,1.0);font-size:12.8px;font-family:'Roboto Medium',sans-serif">830</text><path  d="M 959 223
L 964 223" style="stroke-width:2;stroke:rgba(85,85,85,1.0);fill:none"/><text x="969" y="229" style="stroke-width:0;stroke:none;fill:rgba(51,51,51,1.0);font-size:12.8px;font-family:'Roboto Medium',sans-serif">1240</text><path  d="M 959 181
L 964 181" style="stroke-width:2;stroke:rgba(85,85,85,1.0);fill:none"/><text x="969" y="187" style="stroke-width:0;stroke:none;fill:rgba(51,51,51,1.0);font-size:12.8px;font-family:'Roboto Medium',sans-serif">1650</text><path  d="M 959 137
L 964 137" style="stroke-width:2;stroke:rgba(85,85,85,1.0);fill:none"/><text x="969" y="143" style="stroke-width:0;stroke:none;fill:rgba(51,51,51,1.0);font-size:12.8px;font-family:'Roboto Medium',sans-serif">2070</text><path  d="M 959 95
L 964 95" style="stroke-width:2;stroke:rgba(85,85,85,1.0);fill:none"/><text x="969" y="101" style="stroke-width:0;stroke:none;fill:rgba(51,51,51,1.0);font-size:12.8px;font-family:'Roboto Medium',sans-serif">2480</text><path  d="M 959 53
L 964 53" style="stroke-width:2;stroke:rgba(85,85,85,1.0);fill:none"/><text x="969" y="59" style="stroke-width:0;stroke:none;fill:rgba(51,51,51,1.0);font-size:12.8px;font-family:'Roboto Medium',sans-serif">2890</text><path  d="M 959 11
L 964 11" style="stroke-width:2;stroke:rgba(85,85,85,1.0);fill:none"/><text x="969" y="17" style="stroke-width:0;stroke:none;fill:rgba(51,51,51,1.0);font-size:12.8px;font-family:'Roboto Medium',sans-serif">3300</text><text x="1009" y="150" style="stroke-width:0;stroke:none;fill:rgba(51,51,51,1.0);font-size:12.8px;font-family:'Roboto Medium',sans-serif" transform="rotate(90.00,1009,150)">Stargazers</text><path  d="M 38 351
L 71 350
L 75 350
L 77 350
L 81 350
L 82 350
L 86 350
L 87 350
L 89 350
L 89 350
L 90 349
L 93 349
L 93 349
L 94 349
L 94 349
L 101 349
L 101 349
L 104 349
L 109 349
L 110 349
L 112 348
L 112 348
L 113 348
L 113 348
L 114 348
L 114 348
L 114 348
L 114 348
L 116 348
L 116 348
L 116 347
L 116 347
L 116 347
L 116 347
L 116 347
L 116 347
L 116 347
L 116 347
L 116 347
L 117 346
L 117 346
L 117 346
L 117 346
L 117 346
L 117 346
L 117 346
L 117 346
L 117 346
L 117 346
L 117 345
L 118 345
L 118 345
L 118 345
L 118 345
L 120 345
L 120 345
L 120 345
L 120 345
L 120 345
L 120 344
L 121 344
L 121 344
L 121 344
L 121 344
L 121 344
L 121 344
L 121 344
L 121 344
L 122 343
L 124 343
L 124 343
L 124 343
L 124 343
L 124 343
L 124 343
L 124 343
L 124 343
L 125 343
L 125 342
L 125 342
L 125 342
L 125 342
L 125 342
L 126 342
L 126 342
L 132 342
L 132 342
L 133 342
L 133 341
L 133 341
L 134 341
L 136 341
L 136 341
L 136 341
L 136 341
L 136 341
L 137 341
L 137 341
L 137 340
L 137 340
L 137 340
L 137 340
L 137 340
L 137 340
L 140 340
L 140 340
L 140 340
L 140 339
L 140 339
L 140 339
L 140 339
L 141 339
L 141 339
L 141 339
L 141 339
L 141 339
L 141 339
L 141 338
L 141 338
L 141 338
L 141 338
L 141 338
L 143 338
L 144 338
L 144 338
L 144 338
L 145 338
L 145 337
L 145 337
L 146 337
L 148 337
L 148 337
L 148 337
L 149 337
L 149 337
L 149 337
L 152 336
L 152 336
L 153 336
L 153 336
L 156 336
L 157 336
L 157 336
L 160 336
L 161 336
L 161 336
L 163 335
L 163 335
L 164 335
L 164 335
L 165 335
L 165 335
L 165 335
L 165 335
L 165 335
L 167 335
L 167 334
L 167 334
L 168 334
L 168 334
L 168 334
L 168 334
L 168 334
L 168 334
L 168 334
L 168 334
L 169 333
L 169 333
L 169 333
L 169 333
L 169 333
L 169 333
L 171 333
L 171 333
L 171 333
L 171 332
L 171 332
L 172 332
L 172 332
L 172 332
L 172 332
L 172 332
L 172 332
L 173 332
L 175 332
L 176 331
L 176 331
L 176 331
L 176 331
L 176 331
L 179 331
L 180 331
L 180 331
L 180 331
L 180 331
L 180 330
L 180 330
L 181 330
L 181 330
L 181 330
L 183 330
L 184 330
L 184 330
L 184 330
L 185 329
L 191 329
L 191 329
L 192 329
L 192 329
L 193 329
L 193 329
L 195 329
L 197 329
L 199 329
L 199 328
L 200 328
L 200 328
L 200 328
L 201 328
L 203 328
L 203 328
L 203 328
L 203 328
L 204 328
L 204 327
L 204 327
L 204 327
L 204 327
L 204 327
L 204 327
L 207 327
L 207 327
L 209 327
L 209 326
L 211 326
L 212 326
L 213 326
L 213 326
L 214 326
L 215 326
L 216 326
L 216 326
L 216 326
L 218 325
L 218 325
L 219 325
L 219 325
L 219 325
L 219 325
L 219 325
L 219 325
L 219 325
L 219 325
L 220 324
L 220 324
L 220 324
L 220 324
L 220 324
L 221 324
L 221 324
L 223 324
L 223 324
L 223 324
L 224 323
L 224 323
L 224 323
L 227 323
L 227 323
L 227 323
L 227 323
L 227 323
L 228 323
L 228 322
L 228 322
L 231 322
L 231 322
L 231 322
L 231 322
L 231 322
L 231 322
L 231 322
L 232 322
L 232 321
L 232 321
L 234 321
L 234 321
L 235 321
L 235 321
L 235 321
L 235 321
L 239 321
L 239 321
L 243 320
L 243 320
L 246 320
L 246 320
L 246 320
L 246 320
L 246 320
L 246 320
L 246 320
L 246 319
L 246 319
L 246 319
L 246 319
L 246 319
L 248 319
L 248 319
L 248 319
L 248 319
L 250 319
L 250 318
L 250 318
L 250 318
L 250 318
L 250 318
L 250 318
L 250 318
L 250 318
L 250 318
L 251 318
L 251 317
L 251 317
L 251 317
L 252 317
L 254 317
L 254 317
L 254 317
L 254 317
L 254 317
L 254 317
L 255 316
L 255 316
L 255 316
L 255 316
L 255 316
L 255 316
L 255 316
L 255 316
L 255 316
L 255 315
L 255 315
L 256 315
L 256 315
L 256 315
L 258 315
L 258 315
L 258 315
L 258 315
L 258 315
L 258 314
L 258 314
L 258 314
L 258 314
L 259 314
L 259 314
L 259 314
L 259 314
L 259 314
L 259 314
L 260 313
L 262 313
L 262 313
L 262 313
L 262 313
L 263 313
L 263 313
L 263 313
L 263 313
L 263 312
L 263 312
L 263 312
L 263 312
L 263 312
L 263 312
L 263 312
L 263 312
L 263 312
L 263 312
L 263 311
L 263 311
L 264 311
L 267 311
L 267 311
L 268 311
L 270 311
L 270 311
L 270 311
L 270 311
L 270 310
L 271 310
L 271 310
L 271 310
L 271 310
L 271 310
L 272 310
L 272 310
L 274 310
L 274 309
L 274 309
L 274 309
L 274 309
L 274 309
L 275 309
L 275 309
L 275 309
L 279 309
L 286 309
L 293 308
L 296 308
L 296 308
L 296 308
L 298 308
L 300 308
L 301 308
L 303 308
L 305 308
L 305 308
L 305 307
L 306 307
L 306 307
L 306 307
L 306 307
L 306 307
L 306 307
L 306 307
L 306 307
L 306 307
L 306 306
L 306 306
L 306 306
L 306 306
L 306 306
L 306 306
L 306 306
L 306 306
L 306 306
L 306 305
L 306 305
L 307 305
L 307 305
L 307 305
L 307 305
L 309 305
L 309 305
L 309 305
L 309 305
L 309 304
L 309 304
L 309 304
L 309 304
L 309 304
L 310 304
L 310 304
L 310 304
L 310 304
L 310 304
L 310 303
L 310 303
L 310 303
L 310 303
L 310 303
L 310 303
L 310 303
L 310 303
L 310 303
L 311 302
L 313 302
L 313 302
L 313 302
L 313 302
L 313 302
L 313 302
L 314 302
L 314 302
L 314 302
L 314 301
L 314 301
L 315 301
L 315 301
L 317 301
L 317 301
L 317 301
L 317 301
L 317 301
L 317 301
L 318 300
L 318 300
L 318 300
L 318 300
L 318 300
L 318 300
L 318 300
L 319 300
L 319 300
L 319 300
L 319 299
L 321 299
L 321 299
L 321 299
L 321 299
L 321 299
L 322 299
L 322 299
L 322 299
L 322 298
L 322 298
L 322 298
L 322 298
L 322 298
L 322 298
L 322 298
L 322 298
L 323 298
L 323 298
L 323 297
L 324 297
L 326 297
L 326 297
L 327 297
L 329 297
L 329 297
L 330 297
L 330 297
L 330 297
L 330 296
L 330 296
L 330 296
L 330 296
L 333 296
L 333 296
L 333 296
L 333 296
L 333 296
L 333 295
L 334 295
L 334 295
L 334 295
L 334 295
L 334 295
L 335 295
L 337 295
L 337 295
L 337 295
L 337 294
L 337 294
L 337 294
L 338 294
L 338 294
L 338 294
L 338 294
L 338 294
L 338 294
L 338 294
L 338 293
L 338 293
L 338 293
L 338 293
L 339 293
L 339 293
L 340 293
L 340 293
L 341 293
L 341 292
L 341 292
L 341 292
L 341 292
L 341 292
L 341 292
L 341 292
L 341 292
L 341 292
L 341 292
L 341 291
L 342 291
L 342 291
L 342 291
L 342 291
L 342 291
L 342 291
L 342 291
L 342 291
L 342 291
L 345 290
L 345 290
L 345 290
L 345 290
L 345 290
L 345 290
L 345 290
L 345 290
L 346 290
L 346 290
L 346 289
L 346 289
L 346 289
L 346 289
L 346 289
L 346 289
L 346 289
L 349 289
L 349 289
L 349 288
L 350 288
L 350 288
L 351 288
L 352 288
L 352 288
L 353 288
L 353 288
L 353 288
L 353 288
L 353 287
L 354 287
L 354 287
L 354 287
L 354 287
L 355 287
L 355 287
L 355 287
L 356 287
L 356 287
L 356 286
L 356 286
L 357 286
L 357 286
L 357 286
L 357 286
L 357 286
L 357 286
L 357 286
L 357 285
L 357 285
L 357 285
L 357 285
L 357 285
L 357 285
L 357 285
L 357 285
L 357 285
L 357 285
L 358 284
L 358 284
L 358 284
L 358 284
L 358 284
L 358 284
L 358 284
L 358 284
L 358 284
L 358 284
L 358 283
L 360 283
L 360 283
L 360 283
L 360 283
L 360 283
L 360 283
L 360 283
L 360 283
L 360 283
L 361 282
L 361 282
L 361 282
L 361 282
L 361 282
L 361 282
L 361 282
L 361 282
L 361 282
L 361 281
L 361 281
L 361 281
L 361 281
L 361 281
L 362 281
L 362 281
L 362 281
L 364 281
L 364 281
L 364 280
L 364 280
L 364 280
L 364 280
L 364 280
L 365 280
L 365 280
L 365 280
L 365 280
L 365 280
L 365 279
L 365 279
L 365 279
L 365 279
L 366 279
L 366 279
L 366 279
L 366 279
L 366 279
L 366 278
L 366 278
L 367 278
L 368 278
L 368 278
L 368 278
L 368 278
L 368 278
L 368 278
L 368 278
L 369 277
L 369 277
L 369 277
L 369 277
L 369 277
L 369 277
L 369 277
L 369 277
L 369 277
L 369 277
L 369 276
L 369 276
L 369 276
L 369 276
L 369 276
L 369 276
L 370 276
L 372 276
L 372 276
L 372 275
L 372 275
L 372 275
L 373 275
L 373 275
L 373 275
L 373 275
L 373 275
L 373 275
L 373 275
L 373 274
L 373 274
L 373 274
L 373 274
L 373 274
L 373 274
L 373 274
L 374 274
L 374 274
L 374 274
L 374 273
L 374 273
L 376 273
L 376 273
L 377 273
L 377 273
L 377 273
L 377 273
L 378 273
L 380 273
L 380 272
L 380 272
L 381 272
L 381 272
L 381 272
L 382 272
L 382 272
L 382 272
L 382 272
L 382 271
L 384 271
L 384 271
L 384 271
L 384 271
L 384 271
L 384 271
L 385 271
L 385 271
L 385 271
L 385 270
L 385 270
L 385 270
L 385 270
L 385 270
L 385 270
L 385 270
L 385 270
L 385 270
L 385 270
L 386 269
L 386 269
L 386 269
L 386 269
L 386 269
L 388 269
L 388 269
L 388 269
L 388 269
L 388 268
L 388 268
L 388 268
L 389 268
L 389 268
L 389 268
L 389 268
L 389 268
L 389 268
L 390 268
L 390 267
L 390 267
L 390 267
L 392 267
L 392 267
L 392 267
L 392 267
L 392 267
L 392 267
L 392 267
L 392 266
L 392 266
L 393 266
L 393 266
L 393 266
L 393 266
L 393 266
L 393 266
L 393 266
L 393 266
L 393 265
L 393 265
L 393 265
L 393 265
L 394 265
L 394 265
L 394 265
L 396 265
L 396 265
L 396 264
L 396 264
L 396 264
L 396 264
L 397 264
L 397 264
L 397 264
L 397 264
L 397 264
L 397 264
L 397 263
L 397 263
L 397 263
L 398 263
L 398 263
L 398 263
L 398 263
L 400 263
L 400 263
L 400 263
L 400 262
L 400 262
L 400 262
L 400 262
L 400 262
L 400 262
L 401 262
L 401 262
L 401 262
L 401 261
L 401 261
L 401 261
L 401 261
L 401 261
L 401 261
L 401 261
L 401 261
L 401 261
L 401 261
L 401 260
L 401 260
L 402 260
L 404 260
L 404 260
L 404 260
L 404 260
L 404 260
L 405 260
L 405 260
L 405 259
L 406 259
L 408 259
L 408 259
L 409 259
L 409 259
L 409 259
L 410 259
L 410 259
L 411 258
L 411 258
L 411 258
L 412 258
L 412 258
L 412 258
L 412 258
L 412 258
L 412 258
L 412 258
L 412 257
L 412 257
L 412 257
L 412 257
L 412 257
L 412 257
L 412 257
L 412 257
L 413 257
L 413 257
L 413 256
L 413 256
L 413 256
L 413 256
L 413 256
L 413 256
L 413 256
L 414 256
L 414 256
L 414 256
L 415 255
L 415 255
L 416 255
L 416 255
L 416 255
L 416 255
L 416 255
L 416 255
L 416 255
L 416 254
L 416 254
L 416 254
L 417 254
L 417 254
L 417 254
L 417 254
L 417 254
L 417 254
L 417 254
L 417 253
L 417 253
L 417 253
L 417 253
L 417 253
L 417 253
L 418 253
L 419 253
L 419 253
L 419 253
L 419 252
L 419 252
L 419 252
L 419 252
L 419 252
L 420 252
L 420 252
L 420 252
L 420 252
L 420 251
L 420 251
L 420 251
L 420 251
L 420 251
L 420 251
L 420 251
L 420 251
L 420 251
L 420 251
L 420 250
L 421 250
L 421 250
L 421 250
L 421 250
L 421 250
L 421 250
L 421 250
L 421 250
L 421 250
L 421 249
L 423 249
L 423 249
L 423 249
L 423 249
L 423 249
L 424 249
L 424 249
L 424 249
L 424 249
L 424 248
L 424 248
L 424 248
L 424 248
L 424 248
L 424 248
L 424 248
L 424 248
L 424 248
L 424 247
L 424 247
L 424 247
L 425 247
L 425 247
L 425 247
L 425 247
L 425 247
L 426 247
L 426 247
L 427 246
L 427 246
L 427 246
L 428 246
L 428 246
L 428 246
L 428 246
L 428 246
L 428 246
L 428 246
L 428 245
L 428 245
L 428 245
L 429 245
L 429 245
L 429 245
L 429 245
L 431 245
L 431 245
L 431 244
L 432 244
L 435 244
L 435 244
L 436 244
L 437 244
L 439 244
L 439 244
L 439 244
L 439 244
L 440 243
L 440 243
L 440 243
L 440 243
L 440 243
L 440 243
L 440 243
L 440 243
L 440 243
L 440 243
L 440 242
L 440 242
L 440 242
L 440 242
L 441 242
L 441 242
L 443 242
L 443 242
L 443 242
L 443 241
L 443 241
L 443 241
L 443 241
L 443 241
L 443 241
L 444 241
L 444 241
L 444 241
L 444 241
L 444 240
L 444 240
L 444 240
L 444 240
L 444 240
L 444 240
L 444 240
L 444 240
L 444 240
L 444 240
L 444 239
L 444 239
L 444 239
L 445 239
L 445 239
L 445 239
L 445 239
L 445 239
L 445 239
L 447 239
L 447 238
L 447 238
L 447 238
L 447 238
L 447 238
L 447 238
L 447 238
L 447 238
L 447 238
L 448 237
L 448 237
L 448 237
L 448 237
L 448 237
L 448 237
L 448 237
L 448 237
L 448 237
L 448 237
L 448 236
L 448 236
L 448 236
L 448 236
L 449 236
L 449 236
L 451 236
L 451 236
L 451 236
L 451 236
L 451 235
L 451 235
L 451 235
L 451 235
L 451 235
L 451 235
L 451 235
L 451 235
L 451 235
L 451 234
L 451 234
L 451 234
L 451 234
L 452 234
L 452 234
L 452 234
L 452 234
L 452 234
L 452 234
L 452 233
L 452 233
L 452 233
L 452 233
L 452 233
L 452 233
L 452 233
L 453 233
L 453 233
L 453 233
L 454 232
L 455 232
L 455 232
L 455 232
L 455 232
L 455 232
L 455 232
L 455 232
L 455 232
L 455 232
L 456 231
L 456 231
L 456 231
L 456 231
L 456 231
L 456 231
L 456 231
L 456 231
L 456 231
L 456 230
L 456 230
L 456 230
L 456 230
L 456 230
L 456 230
L 456 230
L 456 230
L 456 230
L 456 230
L 456 229
L 456 229
L 457 229
L 457 229
L 457 229
L 458 229
L 459 229
L 459 229
L 459 229
L 459 229
L 459 228
L 460 228
L 460 228
L 460 228
L 460 228
L 460 228
L 460 228
L 460 228
L 460 228
L 460 227
L 460 227
L 461 227
L 461 227
L 463 227
L 464 227
L 464 227
L 465 227
L 465 227
L 465 227
L 467 226
L 467 226
L 467 226
L 467 226
L 467 226
L 467 226
L 467 226
L 467 226
L 467 226
L 467 226
L 467 225
L 467 225
L 467 225
L 467 225
L 467 225
L 468 225
L 468 225
L 468 225
L 468 225
L 468 224
L 468 224
L 468 224
L 468 224
L 468 224
L 468 224
L 468 224
L 468 224
L 469 224
L 469 224
L 471 223
L 471 223
L 471 223
L 471 223
L 471 223
L 471 223
L 471 223
L 471 223
L 471 223
L 471 223
L 471 222
L 471 222
L 471 222
L 472 222
L 472 222
L 472 222
L 472 222
L 472 222
L 472 222
L 473 222
L 474 221
L 474 221
L 474 221
L 475 221
L 475 221
L 475 221
L 475 221
L 475 221
L 475 221
L 475 220
L 475 220
L 475 220
L 475 220
L 475 220
L 475 220
L 475 220
L 475 220
L 475 220
L 476 220
L 476 219
L 476 219
L 476 219
L 476 219
L 476 219
L 476 219
L 476 219
L 476 219
L 476 219
L 476 219
L 476 218
L 476 218
L 477 218
L 477 218
L 478 218
L 478 218
L 478 218
L 478 218
L 478 218
L 478 217
L 478 217
L 478 217
L 479 217
L 479 217
L 479 217
L 479 217
L 479 217
L 479 217
L 479 217
L 479 216
L 479 216
L 479 216
L 479 216
L 480 216
L 480 216
L 480 216
L 480 216
L 480 216
L 480 216
L 480 215
L 480 215
L 480 215
L 481 215
L 481 215
L 481 215
L 482 215
L 482 215
L 482 215
L 483 215
L 483 214
L 483 214
L 483 214
L 483 214
L 483 214
L 483 214
L 483 214
L 483 214
L 483 214
L 484 213
L 484 213
L 484 213
L 484 213
L 484 213
L 484 213
L 484 213
L 484 213
L 485 213
L 486 213
L 486 212
L 487 212
L 487 212
L 487 212
L 487 212
L 488 212
L 488 212
L 491 212
L 491 212
L 491 212
L 492 211
L 492 211
L 493 211
L 494 211
L 494 211
L 494 211
L 494 211
L 495 211
L 495 211
L 495 210
L 495 210
L 495 210
L 495 210
L 495 210
L 495 210
L 495 210
L 495 210
L 495 210
L 495 210
L 495 209
L 496 209
L 496 209
L 496 209
L 496 209
L 496 209
L 497 209
L 498 209
L 498 209
L 498 209
L 498 208
L 498 208
L 498 208
L 498 208
L 499 208
L 499 208
L 499 208
L 499 208
L 499 208
L 499 207
L 499 207
L 499 207
L 499 207
L 499 207
L 499 207
L 500 207
L 500 207
L 500 207
L 500 207
L 501 206
L 502 206
L 502 206
L 502 206
L 502 206
L 502 206
L 502 206
L 502 206
L 502 206
L 502 206
L 502 205
L 502 205
L 502 205
L 502 205
L 502 205
L 502 205
L 502 205
L 502 205
L 502 205
L 503 205
L 503 204
L 503 204
L 503 204
L 503 204
L 503 204
L 503 204
L 503 204
L 503 204
L 503 204
L 503 203
L 503 203
L 503 203
L 503 203
L 503 203
L 503 203
L 503 203
L 503 203
L 504 203
L 504 203
L 504 202
L 504 202
L 504 202
L 504 202
L 504 202
L 505 202
L 506 202
L 506 202
L 506 202
L 506 202
L 506 201
L 506 201
L 506 201
L 506 201
L 506 201
L 507 201
L 507 201
L 507 201
L 507 201
L 507 200
L 507 200
L 507 200
L 507 200
L 507 200
L 507 200
L 507 200
L 507 200
L 508 200
L 508 200
L 508 199
L 508 199
L 508 199
L 510 199
L 510 199
L 510 199
L 510 199
L 510 199
L 510 199
L 510 199
L 510 198
L 510 198
L 510 198
L 510 198
L 510 198
L 511 198
L 511 198
L 511 198
L 511 198
L 511 198
L 511 197
L 511 197
L 511 197
L 511 197
L 511 197
L 511 197
L 511 197
L 511 197
L 512 197
L 512 196
L 514 196
L 515 196
L 515 196
L 516 196
L 517 196
L 518 196
L 518 196
L 518 196
L 518 196
L 518 195
L 519 195
L 519 195
L 519 195
L 520 195
L 520 195
L 520 195
L 520 195
L 521 195
L 522 195
L 522 194
L 522 194
L 522 194
L 522 194
L 522 194
L 522 194
L 522 194
L 522 194
L 523 194
L 523 193
L 523 193
L 523 193
L 523 193
L 523 193
L 523 193
L 523 193
L 523 193
L 523 193
L 523 193
L 523 192
L 524 192
L 524 192
L 524 192
L 525 192
L 526 192
L 526 192
L 526 192
L 526 192
L 526 192
L 526 191
L 527 191
L 527 191
L 527 191
L 527 191
L 527 191
L 527 191
L 527 191
L 527 191
L 527 190
L 527 190
L 527 190
L 527 190
L 527 190
L 527 190
L 527 190
L 527 190
L 527 190
L 527 190
L 527 189
L 527 189
L 528 189
L 528 189
L 528 189
L 530 189
L 530 189
L 530 189
L 530 189
L 530 189
L 530 188
L 530 188
L 530 188
L 530 188
L 530 188
L 530 188
L 530 188
L 530 188
L 530 188
L 530 188
L 530 187
L 530 187
L 530 187
L 531 187
L 531 187
L 531 187
L 531 187
L 531 187
L 531 187
L 531 186
L 531 186
L 532 186
L 532 186
L 532 186
L 533 186
L 534 186
L 534 186
L 534 186
L 534 186
L 534 185
L 534 185
L 534 185
L 534 185
L 534 185
L 534 185
L 534 185
L 534 185
L 534 185
L 534 185
L 534 184
L 534 184
L 535 184
L 535 184
L 535 184
L 535 184
L 535 184
L 535 184
L 535 184
L 535 183
L 536 183
L 537 183
L 538 183
L 538 183
L 538 183
L 538 183
L 538 183
L 538 183
L 538 183
L 538 182
L 538 182
L 538 182
L 538 182
L 538 182
L 538 182
L 538 182
L 538 182
L 538 182
L 538 182
L 538 181
L 538 181
L 539 181
L 540 181
L 541 181
L 542 181
L 542 181
L 542 181
L 542 181
L 543 181
L 543 180
L 543 180
L 545 180
L 546 180
L 546 180
L 546 180
L 546 180
L 546 180
L 547 180
L 547 179
L 547 179
L 548 179
L 548 179
L 549 179
L 549 179
L 549 179
L 550 179
L 550 179
L 550 179
L 550 178
L 550 178
L 550 178
L 550 178
L 550 178
L 550 178
L 550 178
L 550 178
L 550 178
L 551 178
L 551 177
L 551 177
L 551 177
L 551 177
L 552 177
L 553 177
L 553 177
L 553 177
L 553 177
L 553 176
L 554 176
L 554 176
L 554 176
L 554 176
L 554 176
L 554 176
L 554 176
L 554 176
L 554 176
L 554 175
L 554 175
L 555 175
L 555 175
L 555 175
L 555 175
L 557 175
L 557 175
L 557 175
L 557 175
L 557 174
L 557 174
L 557 174
L 557 174
L 558 174
L 558 174
L 558 174
L 558 174
L 558 174
L 558 173
L 558 173
L 558 173
L 558 173
L 558 173
L 558 173
L 558 173
L 558 173
L 558 173
L 559 173
L 559 172
L 559 172
L 559 172
L 559 172
L 559 172
L 559 172
L 560 172
L 561 172
L 561 172
L 561 172
L 561 171
L 561 171
L 561 171
L 561 171
L 561 171
L 562 171
L 562 171
L 562 171
L 562 171
L 562 171
L 562 170
L 562 170
L 562 170
L 562 170
L 562 170
L 563 170
L 563 170
L 563 170
L 563 170
L 563 169
L 563 169
L 565 169
L 565 169
L 565 169
L 565 169
L 565 169
L 565 169
L 565 169
L 565 169
L 565 168
L 565 168
L 566 168
L 566 168
L 566 168
L 566 168
L 566 168
L 566 168
L 566 168
L 566 168
L 566 167
L 566 167
L 566 167
L 566 167
L 566 167
L 567 167
L 567 167
L 569 167
L 569 167
L 570 166
L 570 166
L 570 166
L 571 166
L 573 166
L 573 166
L 573 166
L 573 166
L 573 166
L 574 166
L 575 165
L 575 165
L 575 165
L 577 165
L 577 165
L 577 165
L 577 165
L 577 165
L 577 165
L 577 165
L 577 164
L 577 164
L 578 164
L 578 164
L 578 164
L 578 164
L 578 164
L 578 164
L 578 164
L 578 163
L 578 163
L 578 163
L 578 163
L 578 163
L 578 163
L 578 163
L 579 163
L 579 163
L 579 163
L 581 162
L 581 162
L 581 162
L 581 162
L 581 162
L 581 162
L 581 162
L 581 162
L 581 162
L 581 162
L 581 161
L 581 161
L 581 161
L 581 161
L 581 161
L 581 161
L 581 161
L 581 161
L 582 161
L 582 161
L 582 160
L 582 160
L 582 160
L 582 160
L 582 160
L 582 160
L 582 160
L 582 160
L 582 160
L 582 159
L 582 159
L 582 159
L 582 159
L 583 159
L 584 159
L 584 159
L 585 159
L 585 159
L 585 159
L 585 158
L 585 158
L 585 158
L 585 158
L 585 158
L 585 158
L 585 158
L 585 158
L 585 158
L 585 158
L 586 157
L 586 157
L 586 157
L 586 157
L 586 157
L 586 157
L 586 157
L 586 157
L 586 157
L 586 156
L 586 156
L 586 156
L 586 156
L 586 156
L 586 156
L 586 156
L 586 156
L 586 156
L 587 156
L 587 155
L 587 155
L 587 155
L 587 155
L 589 155
L 589 155
L 589 155
L 589 155
L 589 155
L 589 155
L 589 154
L 589 154
L 590 154
L 590 154
L 590 154
L 590 154
L 590 154
L 590 154
L 590 154
L 590 154
L 590 153
L 590 153
L 590 153
L 590 153
L 590 153
L 590 153
L 591 153
L 591 153
L 591 153
L 592 152
L 593 152
L 593 152
L 593 152
L 593 152
L 593 152
L 593 152
L 593 152
L 593 152
L 593 152
L 593 151
L 593 151
L 594 151
L 594 151
L 594 151
L 594 151
L 594 151
L 594 151
L 594 151
L 594 151
L 594 150
L 595 150
L 597 150
L 597 150
L 597 150
L 597 150
L 597 150
L 597 150
L 598 150
L 598 149
L 598 149
L 599 149
L 600 149
L 600 149
L 601 149
L 601 149
L 602 149
L 602 149
L 602 149
L 602 148
L 602 148
L 603 148
L 603 148
L 604 148
L 604 148
L 605 148
L 605 148
L 605 148
L 605 148
L 605 147
L 605 147
L 605 147
L 605 147
L 605 147
L 605 147
L 605 147
L 605 147
L 605 147
L 605 147
L 605 146
L 605 146
L 605 146
L 606 146
L 606 146
L 606 146
L 606 146
L 606 146
L 606 146
L 606 145
L 606 145
L 606 145
L 607 145
L 607 145
L 607 145
L 608 145
L 608 145
L 608 145
L 608 145
L 609 144
L 609 144
L 609 144
L 609 144
L 609 144
L 609 144
L 609 144
L 609 144
L 609 144
L 609 144
L 609 143
L 609 143
L 609 143
L 609 143
L 609 143
L 609 143
L 609 143
L 609 143
L 610 143
L 610 142
L 610 142
L 610 142
L 610 142
L 610 142
L 610 142
L 610 142
L 611 142
L 612 142
L 612 142
L 612 141
L 612 141
L 612 141
L 612 141
L 612 141
L 612 141
L 612 141
L 613 141
L 613 141
L 613 141
L 613 140
L 613 140
L 613 140
L 613 140
L 613 140
L 613 140
L 613 140
L 613 140
L 613 140
L 613 139
L 613 139
L 613 139
L 613 139
L 613 139
L 613 139
L 613 139
L 613 139
L 614 139
L 614 139
L 614 138
L 614 138
L 614 138
L 614 138
L 614 138
L 614 138
L 614 138
L 616 138
L 616 138
L 616 138
L 616 137
L 616 137
L 616 137
L 616 137
L 617 137
L 617 137
L 617 137
L 617 137
L 617 137
L 617 137
L 617 136
L 617 136
L 617 136
L 617 136
L 617 136
L 617 136
L 617 136
L 617 136
L 617 136
L 617 135
L 617 135
L 618 135
L 618 135
L 618 135
L 618 135
L 618 135
L 618 135
L 618 135
L 618 135
L 618 134
L 620 134
L 620 134
L 620 134
L 620 134
L 620 134
L 620 134
L 620 134
L 620 134
L 620 134
L 621 133
L 621 133
L 621 133
L 621 133
L 621 133
L 621 133
L 621 133
L 621 133
L 621 133
L 621 132
L 621 132
L 621 132
L 621 132
L 621 132
L 621 132
L 621 132
L 624 132
L 625 132
L 625 132
L 625 131
L 625 131
L 625 131
L 626 131
L 628 131
L 629 131
L 629 131
L 629 131
L 629 131
L 629 131
L 629 130
L 632 130
L 632 130
L 632 130
L 632 130
L 632 130
L 632 130
L 632 130
L 632 130
L 632 130
L 632 129
L 632 129
L 633 129
L 633 129
L 633 129
L 633 129
L 633 129
L 633 129
L 633 129
L 633 128
L 633 128
L 633 128
L 633 128
L 634 128
L 634 128
L 634 128
L 634 128
L 634 128
L 634 128
L 636 127
L 636 127
L 636 127
L 636 127
L 636 127
L 636 127
L 636 127
L 636 127
L 636 127
L 636 127
L 636 126
L 636 126
L 636 126
L 636 126
L 637 126
L 637 126
L 637 126
L 637 126
L 637 126
L 637 125
L 637 125
L 637 125
L 637 125
L 637 125
L 637 125
L 638 125
L 638 125
L 640 125
L 641 125
L 641 124
L 641 124
L 642 124
L 642 124
L 644 124
L 644 124
L 645 124
L 645 124
L 645 124
L 645 124
L 645 123
L 645 123
L 645 123
L 645 123
L 645 123
L 645 123
L 645 123
L 645 123
L 645 123
L 646 122
L 646 122
L 646 122
L 647 122
L 648 122
L 648 122
L 648 122
L 648 122
L 648 122
L 648 122
L 648 121
L 648 121
L 648 121
L 648 121
L 648 121
L 648 121
L 648 121
L 648 121
L 649 121
L 649 121
L 649 120
L 649 120
L 649 120
L 649 120
L 649 120
L 649 120
L 649 120
L 649 120
L 650 120
L 651 120
L 652 119
L 652 119
L 652 119
L 652 119
L 653 119
L 653 119
L 654 119
L 654 119
L 654 119
L 654 118
L 656 118
L 656 118
L 656 118
L 656 118
L 657 118
L 657 118
L 657 118
L 658 118
L 659 118
L 660 117
L 660 117
L 660 117
L 660 117
L 660 117
L 660 117
L 660 117
L 660 117
L 661 117
L 661 117
L 661 116
L 661 116
L 661 116
L 661 116
L 661 116
L 661 116
L 661 116
L 661 116
L 661 116
L 661 115
L 661 115
L 663 115
L 664 115
L 664 115
L 664 115
L 664 115
L 664 115
L 664 115
L 664 115
L 664 114
L 664 114
L 664 114
L 664 114
L 664 114
L 664 114
L 665 114
L 665 114
L 665 114
L 665 114
L 665 113
L 665 113
L 665 113
L 665 113
L 665 113
L 665 113
L 665 113
L 665 113
L 665 113
L 665 113
L 665 112
L 666 112
L 667 112
L 667 112
L 668 112
L 668 112
L 668 112
L 668 112
L 668 112
L 668 111
L 668 111
L 668 111
L 668 111
L 668 111
L 668 111
L 668 111
L 668 111
L 669 111
L 669 111
L 669 110
L 669 110
L 669 110
L 669 110
L 669 110
L 671 110
L 671 110
L 672 110
L 672 110
L 672 110
L 672 109
L 672 109
L 672 109
L 672 109
L 672 109
L 672 109
L 672 109
L 672 109
L 672 109
L 672 108
L 672 108
L 672 108
L 672 108
L 672 108
L 672 108
L 672 108
L 672 108
L 672 108
L 673 108
L 673 107
L 673 107
L 673 107
L 673 107
L 673 107
L 673 107
L 674 107
L 675 107
L 675 107
L 675 107
L 675 106
L 675 106
L 676 106
L 676 106
L 676 106
L 676 106
L 676 106
L 676 106
L 676 106
L 676 105
L 676 105
L 676 105
L 676 105
L 676 105
L 677 105
L 677 105
L 679 105
L 680 105
L 680 105
L 680 104
L 681 104
L 682 104
L 683 104
L 684 104
L 684 104
L 684 104
L 685 104
L 685 104
L 687 104
L 687 103
L 687 103
L 687 103
L 687 103
L 687 103
L 687 103
L 687 103
L 687 103
L 688 103
L 688 103
L 688 102
L 688 102
L 688 102
L 688 102
L 688 102
L 688 102
L 688 102
L 688 102
L 688 102
L 688 101
L 688 101
L 689 101
L 689 101
L 689 101
L 689 101
L 689 101
L 689 101
L 691 101
L 691 101
L 691 100
L 691 100
L 691 100
L 691 100
L 692 100
L 692 100
L 692 100
L 692 100
L 692 100
L 692 100
L 692 99
L 692 99
L 692 99
L 695 99
L 695 99
L 695 99
L 695 99
L 695 99
L 695 99
L 695 98
L 695 98
L 695 98
L 695 98
L 695 98
L 695 98
L 695 98
L 695 98
L 695 98
L 696 98
L 696 97
L 696 97
L 696 97
L 696 97
L 696 97
L 696 97
L 696 97
L 696 97
L 696 97
L 696 97
L 696 96
L 696 96
L 696 96
L 696 96
L 696 96
L 696 96
L 696 96
L 696 96
L 697 96
L 697 96
L 697 95
L 698 95
L 699 95
L 699 95
L 699 95
L 699 95
L 699 95
L 699 95
L 699 95
L 699 94
L 700 94
L 700 94
L 700 94
L 700 94
L 700 94
L 700 94
L 700 94
L 700 94
L 700 94
L 700 93
L 700 93
L 700 93
L 701 93
L 701 93
L 703 93
L 703 93
L 703 93
L 703 93
L 703 93
L 703 92
L 703 92
L 703 92
L 703 92
L 703 92
L 704 92
L 704 92
L 704 92
L 704 92
L 704 91
L 704 91
L 704 91
L 704 91
L 704 91
L 704 91
L 704 91
L 705 91
L 705 91
L 705 91
L 705 90
L 706 90
L 707 90
L 707 90
L 707 90
L 707 90
L 708 90
L 709 90
L 709 90
L 711 90
L 711 89
L 711 89
L 711 89
L 711 89
L 711 89
L 712 89
L 712 89
L 712 89
L 712 89
L 715 88
L 715 88
L 715 88
L 715 88
L 715 88
L 715 88
L 715 88
L 715 88
L 715 88
L 715 88
L 715 87
L 715 87
L 716 87
L 716 87
L 716 87
L 716 87
L 716 87
L 716 87
L 717 87
L 719 87
L 719 86
L 719 86
L 719 86
L 719 86
L 719 86
L 719 86
L 719 86
L 719 86
L 719 86
L 720 86
L 720 85
L 720 85
L 720 85
L 720 85
L 720 85
L 720 85
L 720 85
L 720 85
L 721 85
L 721 84
L 723 84
L 723 84
L 723 84
L 723 84
L 723 84
L 723 84
L 724 84
L 724 84
L 724 84
L 725 83
L 725 83
L 726 83
L 727 83
L 727 83
L 727 83
L 728 83
L 728 83
L 729 83
L 733 83
L 734 82
L 736 82
L 736 82
L 737 82
L 740 82
L 741 82
L 743 82
L 746 82
L 747 82
L 747 81
L 747 81
L 747 81
L 748 81
L 748 81
L 750 81
L 751 81
L 751 81
L 752 81
L 754 81
L 755 80
L 755 80
L 756 80
L 756 80
L 758 80
L 758 80
L 758 80
L 759 80
L 759 80
L 759 80
L 760 79
L 760 79
L 760 79
L 760 79
L 760 79
L 760 79
L 762 79
L 762 79
L 763 79
L 763 79
L 763 78
L 764 78
L 764 78
L 764 78
L 764 78
L 764 78
L 765 78
L 766 78
L 766 78
L 766 77
L 766 77
L 767 77
L 768 77
L 770 77
L 770 77
L 771 77
L 771 77
L 771 77
L 771 77
L 772 76
L 772 76
L 774 76
L 774 76
L 774 76
L 774 76
L 775 76
L 775 76
L 775 76
L 775 76
L 776 75
L 776 75
L 776 75
L 776 75
L 776 75
L 778 75
L 778 75
L 779 75
L 779 75
L 779 74
L 780 74
L 780 74
L 782 74
L 782 74
L 782 74
L 782 74
L 782 74
L 783 74
L 783 74
L 783 73
L 783 73
L 783 73
L 783 73
L 784 73
L 784 73
L 786 73
L 786 73
L 786 73
L 787 73
L 787 72
L 787 72
L 787 72
L 788 72
L 790 72
L 790 72
L 790 72
L 790 72
L 790 72
L 790 71
L 790 71
L 791 71
L 791 71
L 792 71
L 792 71
L 792 71
L 794 71
L 794 71
L 794 71
L 797 70
L 797 70
L 797 70
L 798 70
L 798 70
L 798 70
L 798 70
L 798 70
L 799 70
L 800 70
L 801 69
L 802 69
L 802 69
L 802 69
L 802 69
L 802 69
L 805 69
L 805 69
L 805 69
L 806 69
L 806 68
L 806 68
L 806 68
L 806 68
L 806 68
L 806 68
L 807 68
L 807 68
L 807 68
L 807 67
L 809 67
L 809 67
L 809 67
L 809 67
L 810 67
L 811 67
L 812 67
L 812 67
L 813 67
L 813 66
L 813 66
L 814 66
L 814 66
L 814 66
L 814 66
L 815 66
L 815 66
L 816 66
L 816 66
L 818 65
L 818 65
L 819 65
L 822 65
L 822 65
L 822 65
L 822 65
L 822 65
L 823 65
L 824 64
L 825 64
L 826 64
L 826 64
L 826 64
L 826 64
L 826 64
L 826 64
L 826 64
L 826 64
L 826 63
L 827 63
L 827 63
L 827 63
L 829 63
L 829 63
L 829 63
L 830 63
L 830 63
L 830 63
L 830 62
L 830 62
L 831 62
L 831 62
L 833 62
L 834 62
L 834 62
L 834 62
L 836 62
L 837 62
L 837 61
L 837 61
L 837 61
L 838 61
L 838 61
L 838 61
L 838 61
L 838 61
L 838 61
L 839 60
L 841 60
L 841 60
L 841 60
L 842 60
L 842 60
L 842 60
L 842 60
L 842 60
L 843 60
L 845 59
L 845 59
L 846 59
L 846 59
L 846 59
L 846 59
L 846 59
L 847 59
L 847 59
L 849 59
L 849 58
L 849 58
L 849 58
L 849 58
L 850 58
L 850 58
L 850 58
L 850 58
L 851 58
L 851 57
L 853 57
L 853 57
L 853 57
L 853 57
L 853 57
L 853 57
L 853 57
L 853 57
L 854 57
L 854 56
L 854 56
L 854 56
L 854 56
L 854 56
L 854 56
L 857 56
L 857 56
L 857 56
L 857 56
L 857 55
L 857 55
L 858 55
L 858 55
L 858 55
L 859 55
L 860 55
L 860 55
L 861 55
L 861 54
L 861 54
L 861 54
L 861 54
L 862 54
L 862 54
L 862 54
L 862 54
L 863 54
L 864 54
L 864 53
L 864 53
L 865 53
L 865 53
L 865 53
L 865 53
L 865 53
L 865 53
L 865 53
L 865 53
L 865 52
L 865 52
L 865 52
L 866 52
L 866 52
L 866 52
L 866 52
L 866 52
L 868 52
L 868 52
L 868 51
L 869 51
L 869 51
L 869 51
L 869 51
L 869 51
L 870 51
L 870 51
L 870 51
L 871 50
L 872 50
L 872 50
L 873 50
L 873 50
L 874 50
L 874 50
L 874 50
L 874 50
L 874 50
L 875 49
L 877 49
L 877 49
L 877 49
L 878 49
L 878 49
L 878 49
L 879 49
L 880 49
L 880 49
L 880 48
L 881 48
L 881 48
L 881 48
L 881 48
L 882 48
L 882 48
L 884 48
L 884 48
L 884 47
L 884 47
L 884 47
L 884 47
L 885 47
L 885 47
L 885 47
L 885 47
L 885 47
L 885 47
L 885 46
L 886 46
L 886 46
L 886 46
L 886 46
L 886 46
L 886 46
L 887 46
L 887 46
L 888 46
L 888 45
L 888 45
L 888 45
L 888 45
L 888 45
L 888 45
L 889 45
L 889 45
L 889 45
L 889 45
L 889 44
L 889 44
L 889 44
L 889 44
L 889 44
L 889 44
L 890 44
L 890 44
L 892 44
L 892 43
L 892 43
L 892 43
L 892 43
L 892 43
L 893 43
L 893 43
L 893 43
L 893 43
L 893 43
L 893 42
L 893 42
L 893 42
L 893 42
L 893 42
L 893 42
L 894 42
L 896 42
L 896 42
L 896 42
L 897 41
L 897 41
L 897 41
L 897 41
L 897 41
L 897 41
L 897 41
L 897 41
L 897 41
L 897 40
L 897 40
L 897 40
L 898 40
L 898 40
L 898 40
L 898 40
L 900 40
L 900 40
L 900 40
L 900 39
L 901 39
L 904 39
L 904 39
L 904 39
L 904 39
L 905 39
L 905 39
L 905 39
L 905 39
L 906 38
L 906 38
L 908 38
L 908 38
L 908 38
L 908 38
L 908 38
L 908 38
L 909 38
L 909 37
L 909 37
L 909 37
L 909 37
L 909 37
L 909 37
L 909 37
L 910 37
L 912 37
L 912 37
L 913 36
L 913 36
L 913 36
L 913 36
L 913 36
L 913 36
L 913 36
L 913 36
L 915 36
L 916 36
L 916 35
L 916 35
L 916 35
L 916 35
L 916 35
L 916 35
L 916 35
L 917 35
L 917 35
L 917 35
L 917 34
L 917 34
L 918 34
L 918 34
L 919 34
L 920 34
L 920 34
L 920 34
L 920 34
L 920 33
L 920 33
L 920 33
L 920 33
L 921 33
L 921 33
L 921 33
L 921 33
L 921 33
L 921 33
L 922 32
L 922 32
L 923 32
L 924 32
L 924 32
L 924 32
L 924 32
L 924 32
L 924 32
L 924 32
L 925 31
L 925 31
L 925 31
L 925 31
L 926 31
L 926 31
L 927 31
L 928 31
L 928 31
L 928 30
L 929 30
L 929 30
L 929 30
L 929 30
L 931 30
L 931 30
L 931 30
L 931 30
L 932 30
L 932 29
L 932 29
L 932 29
L 933 29
L 933 29
L 933 29
L 933 29
L 933 29
L 933 29
L 933 29
L 935 28
L 935 28
L 936 28
L 936 28
L 936 28
L 936 28
L 936 28
L 936 28
L 936 28
L 936 28
L 936 27
L 937 27
L 937 27
L 937 27
L 937 27
L 937 27
L 937 27
L 937 27
L 939 27
L 939 26
L 939 26
L 939 26
L 940 26
L 940 26
L 940 26
L 940 26
L 940 26
L 940 26
L 940 26
L 940 25
L 940 25
L 941 25
L 941 25
L 941 25
L 942 25
L 943 25
L 943 25
L 943 25
L 944 25
L 944 24
L 944 24
L 944 24
L 944 24
L 944 24
L 944 24
L 944 24
L 944 24
L 944 24
L 944 23
L 944 23
L 944 23
L 944 23
L 944 23
L 944 23
L 944 23
L 944 23
L 945 23
L 945 23
L 945 22
L 945 22
L 945 22
L 947 22
L 947 22
L 947 22
L 947 22
L 947 22
L 947 22
L 947 22
L 948 21
L 948 21
L 948 21
L 948 21
L 948 21
L 948 21
L 948 21
L 948 21
L 949 21
L 949 20
L 949 20
L 949 20
L 951 20
L 951 20
L 951 20
L 951 20
L 951 20
L 952 20
L 952 20
L 952 19
L 952 19
L 952 19
L 952 19
L 953 19
L 953 19
L 954 19
L 955 19
L 956 19
L 956 19
L 956 18
L 956 18
L 957 18
L 957 18
L 957 18
L 957 18" style="stroke-width:2;stroke:rgba(129,199,239,1.0);fill:none"/></svg>