<?xml version="1.0" encoding="utf-8"?>
<!-- Generator: Adobe Illustrator 19.2.1, SVG Export Plug-In . SVG Version: 6.00 Build 0)  -->
<svg version="1.1" xmlns="http://www.w3.org/2000/svg" xmlns:xlink="http://www.w3.org/1999/xlink" x="0px" y="0px"
	 viewBox="0 0 394 440.4" style="enable-background:new 0 0 394 440.4;" xml:space="preserve">
<style type="text/css">
	.st0{fill:#FFFFFF;stroke:#326DE6;stroke-width:2;stroke-linecap:round;stroke-linejoin:round;stroke-miterlimit:10;}
	.st1{opacity:0.71;fill:#326CE6;}
	.st2{opacity:0.45;fill:#FFFFFF;}
	.st3{fill:#FFFFFF;stroke:#006DE9;stroke-width:2;stroke-linecap:round;stroke-linejoin:round;stroke-miterlimit:10;}
	.st4{fill:#006DE9;}
	.st5{fill:#A0CAEA;}
	.st6{fill:#FFFFFF;}
	.st7{opacity:0.13;}
	.st8{fill:url(#SVGID_1_);}
	.st9{fill:url(#SVGID_2_);}
	.st10{fill:#FFFFFF;stroke:#006DE9;stroke-linecap:round;stroke-linejoin:round;stroke-miterlimit:10;}
	.st11{fill:#FFFFFF;stroke:#006DE9;stroke-width:6;stroke-linecap:round;stroke-linejoin:round;stroke-miterlimit:10;}
	.st12{fill:#FFFFFF;stroke:#326DE6;stroke-width:3.2;stroke-linecap:round;stroke-linejoin:round;stroke-miterlimit:10;}
	.st13{fill:#326DE6;}
	.st14{fill:none;stroke:#326DE6;stroke-width:2.4;stroke-miterlimit:10;}
	.st15{fill:#A0CAE9;}
	.st16{fill:#FFFFFF;stroke:#326DE6;stroke-width:1.6;stroke-linecap:round;stroke-linejoin:round;stroke-miterlimit:10;}
	.st17{fill:#FFFFFF;stroke:#326DE6;stroke-width:1.6;stroke-miterlimit:10;}
	.st18{fill:none;stroke:#06F7C9;stroke-width:2;stroke-miterlimit:10;}
	.st19{fill:none;stroke:#06F7C9;stroke-width:2;stroke-miterlimit:10;stroke-dasharray:2.3749,1.5832;}
	.st20{fill:none;stroke:#06F7C9;stroke-width:2;stroke-miterlimit:10;stroke-dasharray:2.4006,1.6004;}
	.st21{fill:none;stroke:#EEF406;stroke-width:2;stroke-miterlimit:10;stroke-dasharray:2.4,1.6;}
	.st22{fill:none;stroke:#EEF406;stroke-width:2;stroke-miterlimit:10;}
	.st23{fill:none;stroke:#EEF406;stroke-width:2;stroke-miterlimit:10;stroke-dasharray:2.3975,1.5984;}
	.st24{fill:none;stroke:#EEF406;stroke-width:2;stroke-miterlimit:10;stroke-dasharray:2.395,1.5966;}
	.st25{fill:none;stroke:#EEF406;stroke-width:2;stroke-miterlimit:10;stroke-dasharray:2.3963,1.5976;}
	.st26{opacity:0.1;fill:#EEF406;}
	.st27{opacity:2.000000e-02;fill:#EEF406;}
	.st28{opacity:0.1;fill:#06F7C9;}
	.st29{fill:none;stroke:#006DE9;stroke-width:0.8;stroke-miterlimit:10;}
	.st30{opacity:0.1;fill:url(#SVGID_3_);}
	.st31{opacity:0.1;fill:url(#SVGID_4_);}
	.st32{opacity:0.1;fill:url(#SVGID_5_);}
	.st33{opacity:0.1;fill:url(#SVGID_6_);}
	.st34{fill:none;stroke:#326DE6;stroke-width:1.2;stroke-miterlimit:10;}
	.st35{opacity:0.1;fill:url(#SVGID_7_);}
	.st36{opacity:0.1;fill:url(#SVGID_8_);}
	.st37{opacity:0.1;fill:url(#SVGID_9_);}
	.st38{opacity:0.1;fill:url(#SVGID_10_);}
	.st39{fill:none;stroke:#326DE6;stroke-width:2;stroke-miterlimit:10;}
	.st40{opacity:0.4;fill:none;stroke:#EEF406;stroke-width:2;stroke-miterlimit:10;}
	.st41{fill:none;stroke:#EEF406;stroke-width:2.4596;stroke-miterlimit:10;}
	.st42{fill:#011F38;}
	.st43{opacity:0.4;}
	.st44{opacity:0.1;}
	.st45{fill:#326DE6;stroke:#EEF406;stroke-width:2;stroke-miterlimit:10;}
	.st46{fill:none;stroke:#FFFFFF;stroke-width:1.2;stroke-linecap:round;stroke-linejoin:round;}
	.st47{fill:#06F7C9;stroke:#FFFFFF;stroke-width:0.3;stroke-linecap:round;stroke-linejoin:round;stroke-miterlimit:10;}
	.st48{fill:none;stroke:#011F38;stroke-width:1.2;stroke-linecap:round;stroke-linejoin:round;}
	.st49{fill:#326DE6;stroke:#06F7C9;stroke-width:2;stroke-miterlimit:10;}
	.st50{fill:#06F7C9;stroke:#011F38;stroke-width:0.8;stroke-linecap:round;stroke-linejoin:round;stroke-miterlimit:10;}
	.st51{fill:#8115FF;stroke:#011F38;stroke-width:0.8;stroke-linecap:round;stroke-linejoin:round;stroke-miterlimit:10;}
	.st52{opacity:0.3;}
	.st53{opacity:0.2;fill:#6D6E71;}
	.st54{fill:#EEF406;}
	.st55{fill:#06F7C9;}
	.st56{fill:#FFFFFF;stroke:#06F7C9;stroke-width:2;stroke-miterlimit:10;stroke-dasharray:2.4,1.6;}
	.st57{fill:#FFFFFF;stroke:#EEF406;stroke-width:1.6;stroke-miterlimit:10;stroke-dasharray:2.4,1.6;}
	.st58{fill:none;stroke:#06F7C9;stroke-width:2;stroke-miterlimit:10;stroke-dasharray:2.4938,1.6626;}
	.st59{fill:none;stroke:#06F7C9;stroke-width:2;stroke-miterlimit:10;stroke-dasharray:2.0084,1.3389;}
	.st60{fill:none;stroke:#06F7C9;stroke-width:2;stroke-miterlimit:10;stroke-dasharray:2.724,1.816;}
	.st61{fill:#011F38;stroke:#414042;stroke-width:0.3;stroke-linecap:round;stroke-linejoin:round;stroke-miterlimit:10;}
	.st62{fill:none;stroke:#011F38;stroke-width:0.3;stroke-linecap:round;stroke-linejoin:round;stroke-miterlimit:10;}
	.st63{fill:none;stroke:#011F38;stroke-width:0.2813;stroke-linecap:round;stroke-linejoin:round;stroke-miterlimit:10;}
</style>
<symbol  id="node_high_level" viewBox="-81 -93 162 186.1">
	<polygon class="st0" points="-80,-46 -80,46 0,92 80,46 80,-46 0,-92 	"/>
	<g id="Isolation_Mode_3_">
	</g>
</symbol>
<symbol  id="node_x5F_empty" viewBox="-87.5 -100.6 175.1 201.1">
	
		<use xlink:href="#node_high_level"  width="162" height="186.1" id="XMLID_201_" x="-81" y="-93" transform="matrix(1.0808 0 0 1.0808 -3.292006e-05 -3.749943e-05)" style="overflow:visible;"/>
	<g>
		<polygon class="st1" points="76.8,-28.1 -14,-80.3 0,-88.3 76.7,-44.4 		"/>
		<polygon class="st2" points="76.8,-28.1 32.1,-53.8 38.8,-66.1 76.7,-44.4 		"/>
	</g>
</symbol>
<symbol  id="node_x5F_new" viewBox="-87.6 -101 175.2 202">
	<polygon class="st3" points="0,-100 -86.6,-50 -86.6,50 0,100 86.6,50 86.6,-50 	"/>
	<polygon class="st4" points="-86.6,-20.2 -86.6,-50 0,-100 25.8,-85.1 	"/>
	<polygon class="st5" points="-40.8,-70.7 -32.9,-57 15.7,-85.1 0,-94.3 	"/>
	
		<text transform="matrix(0.866 -0.5 -0.5 -0.866 -33.9256 -70.7388)" class="st6" style="font-family:'RobotoSlab-Regular'; font-size:11.3632px;">Docker</text>
	
		<text transform="matrix(0.866 -0.5 -0.5 -0.866 -76.0668 -46.4087)" class="st6" style="font-family:'RobotoSlab-Regular'; font-size:11.3632px;">Kubelt</text>
</symbol>
<g id="CLUSTER">
</g>
<g id="master">
	<g id="master_x5F_level1">
	</g>
	<polygon class="st12" points="130.9,265.9 106.7,235.6 115.3,197.8 150.2,181 185.1,197.8 193.8,235.6 169.6,265.9 	"/>
</g>
<g id="Node">
	<g id="Node_x5F_level3_x5F_1">
		<g id="Isolation_Mode">
		</g>
	</g>
	<g>
		<polygon class="st17" points="213.8,179.8 155.7,146.2 155.7,79.1 213.8,45.6 271.9,79.1 271.9,146.2 		"/>
	</g>
	<g>
		<polygon class="st17" points="86.6,179.7 28.6,146.1 28.6,79.1 86.6,45.5 144.7,79.1 144.7,146.1 		"/>
	</g>
	<g>
		<polygon class="st17" points="86.6,401.4 28.6,367.9 28.6,300.8 86.6,267.2 144.7,300.8 144.7,367.9 		"/>
	</g>
</g>
<g id="service">
	<g>
		<g>
			<path class="st18" d="M85.4,154.7c0.4,0,0.8,0,1.2,0h1.2"/>
			<line class="st19" x1="89.4" y1="154.7" x2="235.1" y2="154.7"/>
			<path class="st18" d="M235.9,154.7h1.2c0.4,0,0.8,0,1.2,0"/>
			<path class="st20" d="M239.9,154.7c24.1-1.5,43.3-21.5,43.3-46c0-25.4-20.7-46.1-46.1-46.1H86.6c-25.4,0-46.1,20.7-46.1,46.1
				c0,24.8,19.6,45,44.1,46.1"/>
		</g>
	</g>
	<path class="st21" d="M86,384.5c-25.4,0-46.1-20.7-46.1-46.1c0-25.4,20.7-46.1,46.1-46.1s46.1,20.7,46.1,46.1
		C132.1,363.8,111.4,384.5,86,384.5z"/>
</g>
<g id="pods">
	<circle class="st26" cx="86" cy="338.3" r="34.1"/>
	<circle class="st22" cx="86" cy="338.3" r="34.1"/>
	<circle class="st28" cx="190.6" cy="108.6" r="20.5"/>
	<circle class="st28" cx="237.1" cy="108.6" r="20.5"/>
	<circle class="st28" cx="86.6" cy="108.6" r="34.1"/>
	<circle class="st18" cx="190.6" cy="108.6" r="20.5"/>
	<circle class="st18" cx="237.1" cy="108.6" r="20.5"/>
	<circle class="st18" cx="86.6" cy="108.6" r="34.1"/>
</g>
<g id="IP">
	<g>
		<path class="st42" d="M171.6,95.3l0.5-0.8l-3.4-2.6l-0.5,0.9l-0.2-0.2l0.6-1.3l3.8,2.9l0.6-0.7l0.2,0.2l-1.4,1.8L171.6,95.3z"/>
		<path class="st42" d="M174.5,89.6c0.5,0.5,0.7,0.9,0.8,1.4s-0.1,0.8-0.5,1.2c-0.4,0.3-0.8,0.5-1.2,0.4s-0.9-0.3-1.4-0.8l-0.8-0.8
			c-0.5-0.5-0.7-0.9-0.8-1.4c0-0.5,0.1-0.9,0.5-1.2c0.4-0.3,0.8-0.5,1.2-0.4s0.9,0.3,1.4,0.8L174.5,89.6z M173.3,89
			c-0.4-0.4-0.7-0.6-1.1-0.7c-0.3-0.1-0.6,0-0.9,0.3c-0.3,0.3-0.4,0.6-0.3,0.9s0.3,0.7,0.6,1.1l0.9,0.9c0.4,0.4,0.7,0.6,1.1,0.7
			c0.3,0.1,0.7,0,0.9-0.3c0.3-0.3,0.4-0.6,0.3-0.9c-0.1-0.3-0.3-0.7-0.6-1.1L173.3,89z"/>
		<path class="st42" d="M176.9,90.3l-0.4,0.3l-0.3-0.5l0.4-0.3L176.9,90.3z"/>
		<path class="st42" d="M177.5,89.4l0.8-0.5l-2.3-3.7l-0.8,0.7l-0.2-0.3l1.1-1l2.5,4.1l0.8-0.4l0.2,0.3l-1.9,1.2L177.5,89.4z"/>
		<path class="st42" d="M182.1,85.2c0.3,0.6,0.3,1.1,0.2,1.6s-0.4,0.8-0.9,1c-0.5,0.2-0.9,0.2-1.3,0s-0.7-0.6-1-1.2l-0.5-1
			c-0.3-0.6-0.3-1.1-0.2-1.6c0.1-0.4,0.4-0.8,0.9-1c0.5-0.2,0.9-0.2,1.3,0c0.4,0.2,0.7,0.6,1,1.2L182.1,85.2z M181.3,84.2
			c-0.2-0.5-0.5-0.8-0.8-1c-0.3-0.2-0.6-0.2-1,0c-0.3,0.2-0.6,0.4-0.6,0.7c-0.1,0.3,0,0.7,0.2,1.2l0.5,1.2c0.2,0.5,0.5,0.8,0.8,1
			c0.3,0.2,0.6,0.2,1,0c0.3-0.2,0.6-0.4,0.6-0.7c0.1-0.3,0-0.8-0.2-1.2L181.3,84.2z"/>
		<path class="st42" d="M184.2,86.6l-0.5,0.1l-0.2-0.6l0.5-0.1L184.2,86.6z"/>
		<path class="st42" d="M185,86.1l0.9-0.2l-0.8-4.2l-1,0.3l-0.1-0.3l1.3-0.6l0.9,4.7l0.9-0.1l0.1,0.3l-2.2,0.4L185,86.1z"/>
		<path class="st42" d="M190.9,83.7c0,0.7-0.1,1.2-0.3,1.5c-0.3,0.4-0.6,0.6-1.1,0.6c-0.5,0-0.9-0.1-1.2-0.5
			c-0.3-0.3-0.5-0.8-0.5-1.5l-0.1-1.1c0-0.7,0.1-1.2,0.3-1.5c0.3-0.4,0.6-0.6,1.1-0.6c0.5,0,0.9,0.1,1.2,0.5s0.5,0.8,0.5,1.5
			L190.9,83.7z M190.4,82.5c0-0.5-0.1-0.9-0.4-1.2c-0.2-0.3-0.5-0.4-0.9-0.4c-0.4,0-0.7,0.2-0.8,0.5c-0.2,0.3-0.3,0.7-0.2,1.2
			l0.1,1.3c0,0.5,0.1,0.9,0.4,1.2s0.5,0.4,0.9,0.4c0.4,0,0.7-0.2,0.8-0.5c0.2-0.3,0.3-0.7,0.2-1.2L190.4,82.5z"/>
		<path class="st42" d="M192.3,85.8l-0.5,0l0-0.6l0.5,0L192.3,85.8z"/>
		<path class="st42" d="M196.1,84.7l0.8,0.1l-0.1,0.3l-0.8-0.1l-0.2,0.9l0.6,0.2l-0.1,0.3l-1.5-0.3l0.1-0.3l0.6,0.1l0.2-0.9
			l-2.4-0.4l0-0.2l3-3.1l0.5,0.1L196.1,84.7z M193.9,84.3l1.9,0.4l0.5-2.9l0,0l-0.2,0.3L193.9,84.3z"/>
	</g>
	<g>
		<path class="st42" d="M218.1,95.3l0.5-0.8l-3.4-2.6l-0.5,0.9l-0.2-0.2l0.6-1.3l3.8,2.9l0.6-0.7l0.2,0.2l-1.4,1.8L218.1,95.3z"/>
		<path class="st42" d="M221,89.6c0.5,0.5,0.7,0.9,0.8,1.4s-0.1,0.8-0.5,1.2c-0.4,0.3-0.8,0.5-1.2,0.4s-0.9-0.3-1.4-0.8l-0.8-0.8
			c-0.5-0.5-0.7-0.9-0.8-1.4c0-0.5,0.1-0.9,0.5-1.2c0.4-0.3,0.8-0.5,1.2-0.4s0.9,0.3,1.4,0.8L221,89.6z M219.8,89
			c-0.4-0.4-0.7-0.6-1.1-0.7c-0.3-0.1-0.6,0-0.9,0.3c-0.3,0.3-0.4,0.6-0.3,0.9s0.3,0.7,0.6,1.1l0.9,0.9c0.4,0.4,0.7,0.6,1.1,0.7
			c0.3,0.1,0.7,0,0.9-0.3c0.3-0.3,0.4-0.6,0.3-0.9c-0.1-0.3-0.3-0.7-0.6-1.1L219.8,89z"/>
		<path class="st42" d="M223.4,90.3l-0.4,0.3l-0.3-0.5l0.4-0.3L223.4,90.3z"/>
		<path class="st42" d="M224,89.4l0.8-0.5l-2.3-3.7l-0.8,0.7l-0.2-0.3l1.1-1l2.5,4.1l0.8-0.4l0.2,0.3l-1.9,1.2L224,89.4z"/>
		<path class="st42" d="M228.6,85.2c0.3,0.6,0.3,1.1,0.2,1.6s-0.4,0.8-0.9,1c-0.5,0.2-0.9,0.2-1.3,0s-0.7-0.6-1-1.2l-0.5-1
			c-0.3-0.6-0.3-1.1-0.2-1.6c0.1-0.4,0.4-0.8,0.9-1c0.5-0.2,0.9-0.2,1.3,0c0.4,0.2,0.7,0.6,1,1.2L228.6,85.2z M227.8,84.2
			c-0.2-0.5-0.5-0.8-0.8-1c-0.3-0.2-0.6-0.2-1,0c-0.3,0.2-0.6,0.4-0.6,0.7c-0.1,0.3,0,0.7,0.2,1.2l0.5,1.2c0.2,0.5,0.5,0.8,0.8,1
			c0.3,0.2,0.6,0.2,1,0c0.3-0.2,0.6-0.4,0.6-0.7c0.1-0.3,0-0.8-0.2-1.2L227.8,84.2z"/>
		<path class="st42" d="M230.7,86.6l-0.5,0.1l-0.2-0.6l0.5-0.1L230.7,86.6z"/>
		<path class="st42" d="M231.6,86.1l0.9-0.2l-0.8-4.2l-1,0.3l-0.1-0.3l1.3-0.6l0.9,4.7l0.9-0.1l0.1,0.3l-2.2,0.4L231.6,86.1z"/>
		<path class="st42" d="M237.4,83.7c0,0.7-0.1,1.2-0.3,1.5c-0.3,0.4-0.6,0.6-1.1,0.6c-0.5,0-0.9-0.1-1.2-0.5
			c-0.3-0.3-0.5-0.8-0.5-1.5l-0.1-1.1c0-0.7,0.1-1.2,0.3-1.5c0.3-0.4,0.6-0.6,1.1-0.6c0.5,0,0.9,0.1,1.2,0.5s0.5,0.8,0.5,1.5
			L237.4,83.7z M236.9,82.5c0-0.5-0.1-0.9-0.4-1.2c-0.2-0.3-0.5-0.4-0.9-0.4c-0.4,0-0.7,0.2-0.8,0.5c-0.2,0.3-0.3,0.7-0.2,1.2
			l0.1,1.3c0,0.5,0.1,0.9,0.4,1.2s0.5,0.4,0.9,0.4c0.4,0,0.7-0.2,0.8-0.5c0.2-0.3,0.3-0.7,0.2-1.2L236.9,82.5z"/>
		<path class="st42" d="M238.8,85.8l-0.5,0l0-0.6l0.5,0L238.8,85.8z"/>
		<path class="st42" d="M241.1,83.2l0.5,0.1c0.4,0.1,0.7,0,0.9-0.1s0.4-0.4,0.4-0.7c0.1-0.3,0-0.6-0.1-0.8c-0.1-0.2-0.4-0.4-0.7-0.4
			c-0.3-0.1-0.6,0-0.8,0.1s-0.4,0.4-0.4,0.7l-0.4-0.1l0,0c0.1-0.4,0.3-0.7,0.6-0.9c0.3-0.2,0.7-0.3,1.2-0.2c0.4,0.1,0.8,0.3,1,0.6
			c0.2,0.3,0.3,0.7,0.2,1.1c0,0.2-0.2,0.4-0.3,0.6c-0.2,0.2-0.4,0.3-0.7,0.4c0.3,0.1,0.5,0.3,0.6,0.6c0.1,0.2,0.1,0.5,0.1,0.8
			c-0.1,0.4-0.3,0.8-0.6,1c-0.3,0.2-0.7,0.3-1.2,0.2c-0.4-0.1-0.8-0.3-1.1-0.6c-0.3-0.3-0.4-0.7-0.3-1.1l0,0l0.4,0.1
			c-0.1,0.3,0,0.6,0.2,0.8c0.2,0.2,0.5,0.4,0.8,0.5c0.4,0.1,0.7,0,0.9-0.1c0.2-0.1,0.4-0.4,0.4-0.7c0.1-0.4,0-0.6-0.2-0.8
			c-0.2-0.2-0.5-0.3-0.9-0.4l-0.5-0.1L241.1,83.2z"/>
	</g>
	<g>
		<path class="st42" d="M53.2,93.2l0.4-0.8l-3.9-1.9l-0.3,1l-0.3-0.1l0.4-1.4l4.3,2.1l0.5-0.8l0.3,0.1l-1,2L53.2,93.2z"/>
		<path class="st42" d="M54.7,87c0.6,0.3,0.9,0.7,1.1,1.2c0.2,0.4,0.1,0.9-0.2,1.3c-0.3,0.4-0.6,0.7-1.1,0.7c-0.5,0.1-1-0.1-1.5-0.4
			l-1-0.6c-0.6-0.3-0.9-0.7-1.1-1.2c-0.2-0.4-0.1-0.9,0.2-1.3c0.3-0.4,0.6-0.7,1.1-0.7c0.5-0.1,1,0.1,1.5,0.4L54.7,87z M53.5,86.7
			c-0.4-0.3-0.8-0.4-1.2-0.4c-0.3,0-0.6,0.2-0.8,0.5c-0.2,0.3-0.2,0.6-0.1,1c0.1,0.3,0.4,0.6,0.9,0.9l1.1,0.7
			c0.4,0.3,0.8,0.4,1.2,0.4c0.4,0,0.6-0.2,0.8-0.5c0.2-0.3,0.2-0.6,0.1-1c-0.1-0.3-0.4-0.6-0.9-0.9L53.5,86.7z"/>
		<path class="st42" d="M57.2,87l-0.3,0.4L56.5,87l0.3-0.4L57.2,87z"/>
		<path class="st42" d="M57.6,86l0.5-0.7l-3.3-2.7l-0.5,0.9L54,83.2l0.7-1.3l3.7,3l0.6-0.7l0.2,0.2l-1.4,1.7L57.6,86z"/>
		<path class="st42" d="M60.5,80.3c0.5,0.5,0.7,0.9,0.8,1.4c0.1,0.4-0.1,0.9-0.4,1.2c-0.3,0.4-0.8,0.5-1.2,0.5
			c-0.5-0.1-0.9-0.3-1.4-0.8l-0.8-0.8c-0.5-0.5-0.7-0.9-0.8-1.4c-0.1-0.5,0.1-0.9,0.4-1.2c0.4-0.4,0.8-0.5,1.2-0.5
			c0.5,0.1,0.9,0.3,1.4,0.8L60.5,80.3z M59.3,79.8c-0.4-0.4-0.7-0.6-1.1-0.6c-0.3-0.1-0.6,0.1-0.9,0.3C57,79.7,56.9,80,57,80.4
			c0.1,0.3,0.3,0.7,0.6,1.1l0.9,0.9c0.4,0.4,0.7,0.6,1.1,0.6c0.3,0.1,0.7,0,0.9-0.3c0.3-0.3,0.4-0.6,0.3-0.9
			c-0.1-0.3-0.3-0.7-0.6-1.1L59.3,79.8z"/>
		<path class="st42" d="M62.9,80.9l-0.4,0.3l-0.4-0.4l0.4-0.3L62.9,80.9z"/>
		<path class="st42" d="M63.5,80l0.7-0.6L61.5,76l-0.7,0.7l-0.2-0.2l0.9-1.1l2.9,3.8l0.8-0.5l0.2,0.2l-1.8,1.4L63.5,80z"/>
		<path class="st42" d="M67.5,75.1c0.4,0.6,0.5,1.1,0.5,1.5c0,0.5-0.3,0.8-0.7,1.1C66.9,78,66.4,78,66,77.9
			c-0.4-0.2-0.8-0.5-1.2-1.1l-0.6-1c-0.4-0.6-0.5-1.1-0.5-1.5s0.3-0.8,0.7-1.1c0.4-0.3,0.8-0.3,1.3-0.2c0.4,0.2,0.8,0.5,1.2,1.1
			L67.5,75.1z M66.5,74.3c-0.3-0.4-0.6-0.7-0.9-0.9c-0.3-0.1-0.6-0.1-1,0.1c-0.3,0.2-0.5,0.5-0.5,0.8c0,0.3,0.1,0.7,0.4,1.2l0.7,1.1
			c0.3,0.4,0.6,0.7,0.9,0.9c0.3,0.1,0.6,0.1,1-0.1c0.3-0.2,0.5-0.5,0.5-0.8c0-0.3-0.1-0.7-0.4-1.2L66.5,74.3z"/>
		<path class="st42" d="M69.8,76.2l-0.4,0.2l-0.3-0.5l0.4-0.2L69.8,76.2z"/>
		<path class="st42" d="M70.6,75.7l-0.1-0.3l0.8-2.4c0.1-0.4,0.2-0.8,0.3-1.1c0-0.3,0-0.5-0.1-0.7c-0.1-0.3-0.3-0.5-0.6-0.6
			c-0.2-0.1-0.5-0.1-0.8,0c-0.4,0.2-0.6,0.4-0.7,0.7c-0.1,0.3-0.1,0.6,0.1,0.9l-0.4,0.2l0,0c-0.2-0.4-0.2-0.8-0.1-1.2
			c0.1-0.4,0.4-0.7,0.9-0.9c0.4-0.2,0.8-0.2,1.1-0.1s0.6,0.4,0.8,0.8c0.1,0.3,0.1,0.6,0.1,0.9c0,0.3-0.1,0.7-0.3,1.2l-0.7,2l0,0
			l2-0.9l-0.3-0.7l0.3-0.1l0.4,1L70.6,75.7z"/>
	</g>
	<g>
		<path class="st42" d="M52.5,322.9l0.4-0.8l-3.9-1.9l-0.3,1l-0.3-0.1l0.4-1.4l4.3,2.1l0.5-0.8l0.3,0.1l-1,2L52.5,322.9z"/>
		<path class="st42" d="M54.1,316.7c0.6,0.3,0.9,0.7,1.1,1.2s0.1,0.9-0.2,1.3c-0.3,0.4-0.6,0.7-1.1,0.7c-0.5,0.1-1-0.1-1.5-0.4
			l-1-0.6c-0.6-0.3-0.9-0.7-1.1-1.2c-0.2-0.4-0.1-0.9,0.2-1.3c0.3-0.4,0.6-0.7,1.1-0.7c0.5-0.1,1,0.1,1.5,0.4L54.1,316.7z
			 M52.8,316.5c-0.4-0.3-0.8-0.4-1.2-0.4s-0.6,0.2-0.8,0.5c-0.2,0.3-0.2,0.6-0.1,1c0.1,0.3,0.4,0.6,0.9,0.9l1.1,0.7
			c0.4,0.3,0.8,0.4,1.2,0.4c0.4,0,0.6-0.2,0.8-0.5c0.2-0.3,0.2-0.6,0.1-1c-0.1-0.3-0.4-0.6-0.9-0.9L52.8,316.5z"/>
		<path class="st42" d="M56.6,316.7l-0.3,0.4l-0.5-0.3l0.3-0.4L56.6,316.7z"/>
		<path class="st42" d="M56.9,315.7l0.5-0.7l-3.3-2.7l-0.5,0.9l-0.2-0.2l0.7-1.3l3.7,3l0.6-0.7l0.2,0.2l-1.4,1.7L56.9,315.7z"/>
		<path class="st42" d="M59.8,310.1c0.5,0.5,0.7,0.9,0.8,1.4c0.1,0.5-0.1,0.9-0.4,1.2c-0.3,0.4-0.8,0.5-1.2,0.5
			c-0.5-0.1-0.9-0.3-1.4-0.8l-0.8-0.8c-0.5-0.5-0.7-0.9-0.8-1.4c-0.1-0.5,0.1-0.9,0.4-1.2c0.4-0.4,0.8-0.5,1.2-0.5
			c0.5,0.1,0.9,0.3,1.4,0.8L59.8,310.1z M58.7,309.5c-0.4-0.4-0.7-0.6-1.1-0.6c-0.3-0.1-0.6,0-0.9,0.3c-0.3,0.3-0.4,0.6-0.3,0.9
			c0.1,0.3,0.3,0.7,0.6,1.1l0.9,0.9c0.4,0.4,0.7,0.6,1.1,0.6c0.3,0.1,0.7,0,0.9-0.3c0.3-0.3,0.4-0.6,0.3-0.9s-0.3-0.7-0.6-1.1
			L58.7,309.5z"/>
		<path class="st42" d="M62.3,310.6l-0.4,0.3l-0.4-0.4l0.4-0.3L62.3,310.6z"/>
		<path class="st42" d="M62.8,309.7l0.7-0.6l-2.6-3.4l-0.7,0.7l-0.2-0.2l0.9-1.1l2.9,3.8l0.8-0.5l0.2,0.2L63,310L62.8,309.7z"/>
		<path class="st42" d="M66.9,304.9c0.4,0.6,0.5,1.1,0.5,1.5c0,0.5-0.3,0.8-0.7,1.1c-0.4,0.3-0.8,0.3-1.3,0.2
			c-0.4-0.2-0.8-0.5-1.2-1.1l-0.6-1c-0.4-0.6-0.5-1.1-0.5-1.5c0-0.5,0.3-0.8,0.7-1.1c0.4-0.3,0.8-0.3,1.3-0.2
			c0.4,0.2,0.8,0.5,1.2,1.1L66.9,304.9z M65.9,304.1c-0.3-0.4-0.6-0.7-0.9-0.9c-0.3-0.1-0.6-0.1-1,0.1c-0.3,0.2-0.5,0.5-0.5,0.8
			c0,0.3,0.1,0.7,0.4,1.2l0.7,1.1c0.3,0.4,0.6,0.7,0.9,0.9s0.6,0.1,1-0.1c0.3-0.2,0.5-0.5,0.5-0.8c0-0.3-0.1-0.7-0.4-1.2L65.9,304.1
			z"/>
		<path class="st42" d="M69.2,305.9l-0.4,0.2l-0.3-0.5l0.4-0.2L69.2,305.9z"/>
		<path class="st42" d="M69.9,305.2l0.8-0.4l-1.8-3.9l-0.9,0.5l-0.1-0.3l1.2-0.9l2,4.4l0.9-0.3l0.1,0.3l-2.1,0.9L69.9,305.2z"/>
	</g>
	<g>
		<path class="st42" d="M38.2,313.2l-0.4,0.9l-0.9-0.2c-0.1,0.1-0.3,0.2-0.4,0.4c-0.1,0.2-0.3,0.4-0.4,0.6c-0.2,0.3-0.2,0.6-0.2,0.9
			c0.1,0.3,0.2,0.4,0.4,0.5c0.2,0.1,0.4,0.1,0.7,0s0.5-0.4,0.9-0.8c0.5-0.6,1-1,1.5-1.2s1-0.2,1.5,0c0.5,0.2,0.8,0.7,1,1.2
			c0.1,0.6,0,1.2-0.3,1.9c-0.2,0.5-0.5,0.9-0.9,1.2s-0.7,0.5-1.1,0.7l-1.3-0.6l0.5-1l0.9,0.3c0.2-0.1,0.3-0.2,0.5-0.4
			s0.3-0.4,0.4-0.7c0.2-0.3,0.2-0.6,0.2-0.9c-0.1-0.2-0.2-0.4-0.4-0.5c-0.2-0.1-0.5-0.1-0.7,0c-0.2,0.1-0.5,0.3-0.8,0.7
			c-0.6,0.6-1.1,1.1-1.5,1.3s-1,0.2-1.5,0c-0.5-0.2-0.8-0.6-0.9-1.2c-0.1-0.6,0-1.2,0.3-1.8c0.2-0.5,0.5-0.9,0.8-1.2
			c0.3-0.3,0.7-0.6,1-0.7L38.2,313.2z"/>
		<path class="st42" d="M44,312.7c-0.4,0.6-0.9,1-1.5,1.1c-0.6,0.1-1.2,0-1.9-0.4l-0.2-0.1c-0.6-0.4-1.1-0.9-1.3-1.5
			c-0.2-0.6-0.1-1.2,0.2-1.8c0.4-0.6,0.8-0.9,1.4-1s1.1,0,1.7,0.4l0.6,0.4l-1.6,2.6l0,0c0.3,0.2,0.6,0.2,0.9,0.1s0.5-0.2,0.7-0.5
			c0.2-0.3,0.3-0.5,0.3-0.7s0.1-0.4,0.1-0.7l0.9,0.1c0,0.3,0,0.6-0.1,0.9C44.4,312,44.2,312.3,44,312.7z M40.3,310.6
			c-0.1,0.2-0.2,0.4-0.1,0.7s0.3,0.4,0.5,0.6l0,0l0.9-1.4l-0.1-0.1c-0.2-0.2-0.5-0.2-0.7-0.2C40.7,310.2,40.5,310.4,40.3,310.6z"/>
		<path class="st42" d="M44.7,309.9l0.3-0.6l-2.5-1.9l-0.5,0.5l-0.7-0.5l1.2-1.6l0.6,0.4c-0.1-0.3-0.2-0.5-0.2-0.7s0.1-0.5,0.2-0.7
			c0-0.1,0.1-0.1,0.1-0.2c0.1-0.1,0.1-0.1,0.2-0.1l0.9,0.9l-0.3,0.4c-0.1,0.2-0.2,0.3-0.2,0.5c0,0.2,0,0.3,0.1,0.4l2,1.5l0.5-0.4
			l0.7,0.5l-1.6,2.2L44.7,309.9z"/>
		<path class="st42" d="M45.9,302.8l-0.3,0.4l2.1,1l0.4,0.3l0,0l-0.3-0.4l-1.2-2l-0.4,0.3l-0.6-0.6l1.5-1.7l0.6,0.5l-0.2,0.4
			l2.1,3.9l-0.9,1l-4.1-1.7l-0.3,0.3l-0.6-0.6l1.5-1.7L45.9,302.8z"/>
		<path class="st42" d="M48.4,297.4l-1,0.9l-0.7-0.7l1-0.9L48.4,297.4z M50.6,302.8l0.4-0.6l-2.2-2.3l-0.6,0.4l-0.6-0.6l1.5-1.4
			l2.8,3l0.6-0.3l0.6,0.6l-2,1.8L50.6,302.8z"/>
		<path class="st42" d="M54.7,299c0.2-0.2,0.3-0.3,0.3-0.5c0-0.2,0-0.4-0.2-0.6l1-0.8l0,0c0.3,0.4,0.5,0.8,0.4,1.4
			c-0.1,0.5-0.4,1-0.8,1.3c-0.6,0.5-1.2,0.7-1.8,0.5c-0.6-0.1-1.2-0.5-1.6-1.1l-0.1-0.1c-0.5-0.6-0.7-1.2-0.7-1.8
			c0-0.6,0.3-1.2,0.9-1.7c0.3-0.3,0.6-0.4,1-0.5c0.3-0.1,0.6-0.1,1-0.1l0.9,1l-0.9,0.7l-0.7-0.5c-0.1,0-0.2,0-0.3,0
			s-0.2,0.1-0.3,0.2c-0.3,0.2-0.4,0.5-0.4,0.8c0.1,0.3,0.2,0.7,0.5,1l0.1,0.1c0.3,0.4,0.6,0.6,0.9,0.7
			C54.1,299.3,54.4,299.3,54.7,299z"/>
		<path class="st42" d="M59.3,297c-0.6,0.4-1.2,0.5-1.9,0.4s-1.1-0.5-1.5-1.1l-0.1-0.2c-0.4-0.6-0.6-1.3-0.5-1.9s0.4-1.1,1-1.5
			c0.6-0.4,1.1-0.5,1.7-0.4c0.5,0.1,1,0.5,1.4,1.1l0.4,0.6l-2.5,1.7l0,0c0.2,0.3,0.4,0.4,0.7,0.5s0.6,0,0.9-0.2
			c0.3-0.2,0.4-0.3,0.6-0.5c0.1-0.2,0.3-0.4,0.4-0.6l0.8,0.5c-0.1,0.3-0.2,0.5-0.5,0.8C59.9,296.5,59.6,296.8,59.3,297z M56.9,293.5
			c-0.2,0.1-0.3,0.3-0.3,0.6c0,0.2,0,0.5,0.2,0.8l0,0l1.4-0.9l-0.1-0.1c-0.2-0.2-0.3-0.4-0.6-0.5C57.3,293.4,57.1,293.4,56.9,293.5z
			"/>
		<path class="st42" d="M62.9,293.7l0.4-0.3l-0.5-6.3l1.3-0.6l4.3,4.6l0.5-0.1l0.3,0.8l-2.1,0.9l-0.3-0.8l0.4-0.3l-0.7-0.7l-2,0.9
			l0.1,1l0.5-0.1l0.3,0.8l-2.1,0.9L62.9,293.7z M64.3,290.9l1.4-0.6l-1.7-1.9l0,0L64.3,290.9z"/>
		<path class="st42" d="M73.7,289.7l1.1-0.4l-1-4.5l-1.1,0.2l-0.2-0.8l2.4-1l1.2,5.7l1.2-0.1l0.2,0.8l-3.6,0.8L73.7,289.7z"/>
		<path class="st42" d="M82.3,286.4c0.1,0.9,0,1.6-0.4,2.1c-0.4,0.5-0.9,0.8-1.6,0.9c-0.7,0.1-1.3-0.1-1.8-0.5
			c-0.5-0.4-0.8-1.1-0.9-2l-0.2-1.5c-0.1-0.9,0-1.6,0.4-2.1c0.4-0.5,0.9-0.8,1.6-0.9c0.7-0.1,1.3,0.1,1.8,0.5c0.5,0.4,0.8,1.1,0.9,2
			L82.3,286.4z M80.8,284.9c-0.1-0.5-0.2-0.9-0.4-1.2s-0.4-0.3-0.7-0.3c-0.3,0-0.5,0.2-0.7,0.5s-0.2,0.7-0.1,1.2l0.2,1.8
			c0.1,0.5,0.2,0.9,0.4,1.2c0.2,0.2,0.4,0.3,0.7,0.3c0.3,0,0.5-0.2,0.7-0.5s0.2-0.7,0.1-1.2L80.8,284.9z"/>
		<path class="st42" d="M84.9,289l-1.4,0.1l0-1.2l1.4-0.1L84.9,289z"/>
		<path class="st42" d="M85.6,288.2l1.2-0.1l0.1-4.6l-1.2,0l0-0.8l2.5-0.4l-0.2,5.9l1.1,0.2l0,0.8l-3.7-0.1L85.6,288.2z"/>
		<path class="st42" d="M94.7,287c-0.1,0.9-0.4,1.6-0.9,2c-0.5,0.4-1.1,0.6-1.8,0.5c-0.7-0.1-1.2-0.4-1.6-0.9s-0.5-1.2-0.4-2.1
			l0.2-1.5c0.1-0.9,0.4-1.5,0.9-2c0.5-0.4,1.1-0.6,1.8-0.5c0.7,0.1,1.2,0.4,1.6,0.9c0.4,0.5,0.5,1.2,0.4,2.1L94.7,287z M93.6,285.2
			c0.1-0.5,0-0.9-0.1-1.2c-0.1-0.3-0.3-0.4-0.7-0.5c-0.3,0-0.6,0.1-0.7,0.3c-0.2,0.2-0.3,0.6-0.4,1.2l-0.2,1.8c-0.1,0.5,0,1,0.1,1.2
			c0.1,0.3,0.3,0.4,0.7,0.5c0.3,0,0.5-0.1,0.7-0.3c0.2-0.2,0.3-0.6,0.4-1.2L93.6,285.2z"/>
		<path class="st42" d="M96.6,290.1l-1.3-0.3l0.2-1.2l1.3,0.3L96.6,290.1z"/>
		<path class="st42" d="M99.5,289.9c0.4,0.1,0.7,0,1-0.2s0.5-0.6,0.7-1.1l0-0.1c-0.2,0.1-0.4,0.2-0.7,0.3c-0.2,0-0.5,0-0.7,0
			c-0.6-0.2-1-0.5-1.3-1c-0.2-0.5-0.2-1.1,0-1.8c0.2-0.7,0.6-1.2,1.1-1.5c0.5-0.3,1.1-0.4,1.8-0.2c0.7,0.2,1.1,0.6,1.4,1.2
			c0.3,0.6,0.3,1.3,0.1,2.1l-0.4,1.4c-0.2,0.9-0.7,1.4-1.3,1.8c-0.6,0.3-1.3,0.4-2,0.2c-0.2-0.1-0.5-0.2-0.7-0.3
			c-0.2-0.1-0.4-0.2-0.6-0.4l0.4-0.9c0.2,0.1,0.4,0.2,0.5,0.3C99,289.7,99.2,289.8,99.5,289.9z M100.3,287.8c0.2,0.1,0.4,0.1,0.6,0
			c0.2,0,0.3-0.1,0.5-0.2l0.2-0.7c0.1-0.5,0.2-0.9,0.1-1.2c-0.1-0.3-0.3-0.5-0.6-0.6c-0.3-0.1-0.5,0-0.8,0.2
			c-0.2,0.2-0.4,0.5-0.5,0.9c-0.1,0.4-0.1,0.7,0,1C99.8,287.6,100,287.8,100.3,287.8z"/>
		<path class="st42" d="M103.8,292.3l-1.3-0.5l0.4-1.1l1.3,0.5L103.8,292.3z"/>
		<path class="st42" d="M104.8,291.8l1.1,0.3l1.9-4.2l-1.1-0.5l0.3-0.7l2.5,0.6l-2.4,5.4l1,0.6l-0.3,0.7l-3.3-1.5L104.8,291.8z"/>
	</g>
	<g>
		<path class="st42" d="M115,54.6h-1l-0.2-0.9c-0.1-0.1-0.3-0.1-0.5-0.2c-0.2-0.1-0.5-0.1-0.7-0.1c-0.4,0-0.7,0.1-0.9,0.2
			c-0.2,0.2-0.3,0.4-0.3,0.6c0,0.2,0.1,0.4,0.3,0.6s0.6,0.3,1.1,0.5c0.8,0.2,1.3,0.5,1.7,0.8c0.4,0.3,0.6,0.8,0.6,1.4
			c0,0.6-0.2,1-0.7,1.4s-1.1,0.5-1.8,0.5c-0.5,0-1-0.1-1.5-0.3s-0.8-0.4-1.1-0.7V57h1.1l0.1,1c0.1,0.1,0.3,0.2,0.6,0.3
			c0.2,0.1,0.5,0.1,0.8,0.1c0.4,0,0.7-0.1,0.9-0.2c0.2-0.2,0.3-0.4,0.3-0.6c0-0.3-0.1-0.5-0.3-0.6c-0.2-0.2-0.5-0.3-1-0.5
			c-0.8-0.2-1.4-0.5-1.8-0.8c-0.4-0.3-0.6-0.8-0.6-1.3c0-0.6,0.2-1,0.7-1.4s1.1-0.5,1.8-0.5c0.5,0,1,0.1,1.4,0.2s0.8,0.4,1.1,0.6
			V54.6z"/>
		<path class="st42" d="M118.1,59.4c-0.7,0-1.3-0.2-1.8-0.7s-0.7-1.1-0.7-1.8v-0.2c0-0.8,0.2-1.4,0.6-1.9c0.4-0.5,1-0.7,1.7-0.7
			c0.7,0,1.2,0.2,1.6,0.6s0.6,1,0.6,1.7v0.7h-3l0,0c0,0.3,0.1,0.6,0.3,0.8c0.2,0.2,0.5,0.3,0.8,0.3c0.3,0,0.6,0,0.8-0.1
			c0.2-0.1,0.4-0.2,0.7-0.3l0.4,0.8c-0.2,0.2-0.5,0.3-0.8,0.4S118.5,59.4,118.1,59.4z M118,55.2c-0.3,0-0.5,0.1-0.6,0.3
			c-0.1,0.2-0.2,0.4-0.3,0.8l0,0h1.7v-0.1c0-0.3-0.1-0.5-0.2-0.7C118.5,55.3,118.3,55.2,118,55.2z"/>
		<path class="st42" d="M120.9,58.5l0.7-0.1v-3.1l-0.7-0.1v-0.8h2l0.1,0.7c0.1-0.3,0.3-0.5,0.5-0.6s0.4-0.2,0.7-0.2
			c0.1,0,0.1,0,0.2,0c0.1,0,0.1,0,0.2,0l-0.1,1.2l-0.6,0c-0.2,0-0.4,0-0.5,0.1c-0.1,0.1-0.2,0.2-0.3,0.3v2.5l0.7,0.1v0.8h-2.7V58.5z
			"/>
		<path class="st42" d="M127.1,55l-0.5,0.1l0.7,2.3l0.1,0.5h0l0.1-0.5l0.7-2.3l-0.5-0.1v-0.8h2.3V55l-0.4,0.1l-1.5,4.2h-1.3
			l-1.5-4.2l-0.4-0.1v-0.8h2.3V55z"/>
		<path class="st42" d="M130.4,58.5l0.7-0.1v-3.1l-0.7-0.1v-0.8h2.1v4.1l0.7,0.1v0.8h-2.7V58.5z M132.4,53H131v-1h1.4V53z"/>
		<path class="st42" d="M135.9,58.3c0.2,0,0.4-0.1,0.6-0.2c0.1-0.1,0.2-0.3,0.2-0.6h1.2l0,0c0,0.5-0.2,0.9-0.6,1.3
			c-0.4,0.3-0.9,0.5-1.5,0.5c-0.8,0-1.3-0.2-1.7-0.7c-0.4-0.5-0.6-1.1-0.6-1.8v-0.1c0-0.7,0.2-1.4,0.6-1.8c0.4-0.5,1-0.7,1.8-0.7
			c0.4,0,0.8,0.1,1.1,0.2c0.3,0.1,0.6,0.3,0.8,0.5l0,1.4h-1.1l-0.2-0.8c-0.1-0.1-0.2-0.1-0.3-0.1c-0.1,0-0.2-0.1-0.3-0.1
			c-0.4,0-0.7,0.1-0.8,0.4s-0.2,0.6-0.2,1.1v0.1c0,0.5,0.1,0.8,0.2,1.1C135.3,58.2,135.5,58.3,135.9,58.3z"/>
		<path class="st42" d="M141,59.4c-0.7,0-1.3-0.2-1.8-0.7s-0.7-1.1-0.7-1.8v-0.2c0-0.8,0.2-1.4,0.6-1.9c0.4-0.5,1-0.7,1.7-0.7
			c0.7,0,1.2,0.2,1.6,0.6s0.6,1,0.6,1.7v0.7h-3l0,0c0,0.3,0.1,0.6,0.3,0.8c0.2,0.2,0.5,0.3,0.8,0.3c0.3,0,0.6,0,0.8-0.1
			c0.2-0.1,0.4-0.2,0.7-0.3l0.4,0.8c-0.2,0.2-0.5,0.3-0.8,0.4S141.4,59.4,141,59.4z M140.9,55.2c-0.3,0-0.5,0.1-0.6,0.3
			c-0.1,0.2-0.2,0.4-0.3,0.8l0,0h1.7v-0.1c0-0.3-0.1-0.5-0.2-0.7C141.4,55.3,141.1,55.2,140.9,55.2z"/>
		<path class="st42" d="M149,52.5c0.8,0,1.4,0.2,1.9,0.5s0.7,0.8,0.7,1.4c0,0.3-0.1,0.6-0.2,0.8c-0.2,0.2-0.4,0.4-0.7,0.6
			c0.4,0.1,0.7,0.3,0.9,0.6c0.2,0.3,0.3,0.6,0.3,1c0,0.7-0.2,1.1-0.6,1.5c-0.4,0.3-1,0.5-1.8,0.5H146v-0.8l0.7-0.1v-4.9l-0.7-0.1
			v-0.8h0.7H149z M148.1,55.3h1c0.4,0,0.6-0.1,0.8-0.2c0.2-0.2,0.3-0.4,0.3-0.7c0-0.3-0.1-0.5-0.3-0.7s-0.5-0.2-0.9-0.2h-0.9V55.3z
			 M148.1,56.3v2h1.3c0.4,0,0.6-0.1,0.8-0.2s0.3-0.4,0.3-0.7c0-0.3-0.1-0.6-0.2-0.8c-0.2-0.2-0.4-0.3-0.8-0.3H148.1z"/>
		<path class="st42" d="M154.8,58.5l1.2-0.1v-4.6h-1.2v-0.8l2.5-0.5v5.9l1.2,0.1v0.8h-3.7V58.5z"/>
		<path class="st42" d="M163.8,56.6c0,0.9-0.2,1.6-0.6,2.1c-0.4,0.5-1,0.7-1.7,0.7c-0.7,0-1.3-0.2-1.7-0.7c-0.4-0.5-0.6-1.2-0.6-2.1
			v-1.5c0-0.9,0.2-1.6,0.6-2.1c0.4-0.5,1-0.7,1.7-0.7c0.7,0,1.3,0.2,1.7,0.7c0.4,0.5,0.6,1.2,0.6,2.1V56.6z M162.4,55
			c0-0.5-0.1-0.9-0.2-1.2c-0.2-0.3-0.4-0.4-0.7-0.4c-0.3,0-0.5,0.1-0.7,0.4s-0.2,0.6-0.2,1.2v1.8c0,0.5,0.1,0.9,0.2,1.2
			c0.2,0.2,0.4,0.4,0.7,0.4c0.3,0,0.5-0.1,0.7-0.4s0.2-0.6,0.2-1.2V55z"/>
		<path class="st42" d="M166.1,59.3h-1.4v-1.2h1.4V59.3z"/>
		<path class="st42" d="M166.9,58.5l1.2-0.1v-4.6h-1.2v-0.8l2.5-0.5v5.9l1.2,0.1v0.8h-3.7V58.5z"/>
		<path class="st42" d="M175.9,56.6c0,0.9-0.2,1.6-0.6,2.1c-0.4,0.5-1,0.7-1.7,0.7c-0.7,0-1.3-0.2-1.7-0.7c-0.4-0.5-0.6-1.2-0.6-2.1
			v-1.5c0-0.9,0.2-1.6,0.6-2.1c0.4-0.5,1-0.7,1.7-0.7c0.7,0,1.3,0.2,1.7,0.7c0.4,0.5,0.6,1.2,0.6,2.1V56.6z M174.6,55
			c0-0.5-0.1-0.9-0.2-1.2c-0.2-0.3-0.4-0.4-0.7-0.4c-0.3,0-0.5,0.1-0.7,0.4s-0.2,0.6-0.2,1.2v1.8c0,0.5,0.1,0.9,0.2,1.2
			c0.2,0.2,0.4,0.4,0.7,0.4c0.3,0,0.5-0.1,0.7-0.4s0.2-0.6,0.2-1.2V55z"/>
		<path class="st42" d="M178.3,59.3H177v-1.2h1.4V59.3z"/>
		<path class="st42" d="M181.2,58.3c0.4,0,0.7-0.1,0.9-0.4s0.3-0.7,0.3-1.3v-0.1c-0.2,0.2-0.3,0.3-0.5,0.4s-0.4,0.2-0.7,0.2
			c-0.6,0-1.1-0.2-1.5-0.6c-0.4-0.4-0.5-1-0.5-1.7c0-0.7,0.2-1.3,0.6-1.7s1-0.7,1.6-0.7c0.7,0,1.3,0.2,1.7,0.7
			c0.4,0.5,0.7,1.2,0.7,2v1.5c0,0.9-0.2,1.6-0.7,2.1c-0.5,0.5-1.1,0.7-1.9,0.7c-0.2,0-0.5,0-0.7-0.1c-0.3,0-0.5-0.1-0.7-0.2l0.2-1
			c0.2,0.1,0.4,0.1,0.6,0.2C180.7,58.3,180.9,58.3,181.2,58.3z M181.4,56.2c0.2,0,0.4,0,0.6-0.1c0.2-0.1,0.3-0.2,0.4-0.3V55
			c0-0.5-0.1-0.9-0.3-1.1c-0.2-0.3-0.4-0.4-0.7-0.4c-0.3,0-0.5,0.1-0.7,0.4c-0.2,0.3-0.3,0.6-0.3,1c0,0.4,0.1,0.7,0.2,1
			C180.9,56,181.1,56.2,181.4,56.2z"/>
		<path class="st42" d="M186.1,59.3h-1.4v-1.2h1.4V59.3z"/>
		<path class="st42" d="M187,59.3v-0.9l2.2-2.4c0.3-0.4,0.5-0.7,0.7-0.9c0.1-0.3,0.2-0.5,0.2-0.7c0-0.3-0.1-0.5-0.2-0.7
			c-0.2-0.2-0.4-0.3-0.7-0.3c-0.3,0-0.6,0.1-0.7,0.3c-0.2,0.2-0.2,0.5-0.2,0.9h-1.3l0,0c0-0.6,0.2-1.1,0.6-1.6
			c0.4-0.4,1-0.6,1.7-0.6c0.7,0,1.3,0.2,1.7,0.5s0.6,0.9,0.6,1.5c0,0.4-0.1,0.8-0.3,1.1c-0.2,0.3-0.6,0.8-1.1,1.4l-1.2,1.3l0,0h1.8
			l0.1-0.7h1v1.7H187z"/>
	</g>
</g>
<g id="deployments">
	<g>
		<g>
			<circle class="st45" cx="140.6" cy="241.8" r="14.1"/>
			<g>
				<g>
					<path class="st46" d="M145,233.5c3,1.6,5,4.7,5,8.3c0,5.2-4.2,9.4-9.4,9.4s-9.4-4.2-9.4-9.4c0-4.1,2.6-7.6,6.3-8.9"/>
					<g>
						<polygon class="st6" points="146.4,236.4 145.4,233.7 148,232.6 146.5,231.9 143.8,233 144.8,235.6 						"/>
					</g>
				</g>
			</g>
			<g>
				<path class="st6" d="M135.4,245.5l0.8-0.1l3.3-9.5h2.2l3.3,9.5l0.8,0.1v1.3h-3.7v-1.3l0.8-0.1l-0.5-1.5h-3.5l-0.5,1.5l0.8,0.1
					v1.3h-3.7V245.5z M139.4,242.3h2.5l-1.2-3.8h0L139.4,242.3z"/>
			</g>
		</g>
		<g>
			<circle class="st49" cx="159.9" cy="211.5" r="14.1"/>
			<g>
				<g>
					<path class="st46" d="M164.3,203.2c3,1.6,5,4.7,5,8.3c0,5.2-4.2,9.4-9.4,9.4s-9.4-4.2-9.4-9.4c0-4.1,2.6-7.6,6.3-8.9"/>
					<g>
						<polygon class="st6" points="165.7,206.1 164.6,203.4 167.3,202.4 165.7,201.7 163,202.7 164.1,205.4 						"/>
					</g>
				</g>
			</g>
			<g>
				<path class="st6" d="M160.1,205.8c1.3,0,2.3,0.2,3,0.7s1.1,1.2,1.1,2.2c0,0.5-0.1,1-0.4,1.3c-0.3,0.4-0.7,0.7-1.2,0.9
					c0.7,0.1,1.1,0.4,1.5,0.9s0.5,1,0.5,1.6c0,1-0.3,1.8-1,2.4c-0.7,0.5-1.7,0.8-2.9,0.8h-5.3v-1.3l1.2-0.2v-7.8l-1.2-0.2v-1.3h1.2
					H160.1z M158.6,210.3h1.6c0.6,0,1-0.1,1.3-0.4c0.3-0.2,0.5-0.6,0.5-1c0-0.5-0.2-0.9-0.5-1.1c-0.3-0.2-0.8-0.4-1.4-0.4h-1.5
					V210.3z M158.6,211.8v3.1h2c0.6,0,1-0.1,1.3-0.4c0.3-0.3,0.5-0.6,0.5-1.1c0-0.5-0.1-0.9-0.4-1.2c-0.3-0.3-0.7-0.4-1.2-0.4H158.6
					z"/>
			</g>
		</g>
	</g>
</g>
<g id="containers_x2F_volumes">
	<g>
		<polygon class="st51" points="74.8,101.8 86.6,94.9 98.5,101.8 86.6,108.6 		"/>
		<polygon class="st51" points="74.8,115.4 74.8,101.8 86.6,108.6 86.6,122.3 		"/>
		<polygon class="st51" points="86.6,122.3 86.6,108.6 98.5,101.8 98.5,115.4 		"/>
	</g>
	<g>
		<polygon class="st51" points="74.2,331.5 86,324.6 97.9,331.5 86,338.3 		"/>
		<polygon class="st51" points="74.2,345.2 74.2,331.5 86,338.3 86,352 		"/>
		<polygon class="st51" points="86,352 86,338.3 97.9,331.5 97.9,345.2 		"/>
	</g>
	<g>
		<polygon class="st51" points="178.7,101.8 190.6,94.9 202.4,101.8 190.6,108.6 		"/>
		<polygon class="st51" points="178.7,115.4 178.7,101.8 190.6,108.6 190.6,122.3 		"/>
		<polygon class="st51" points="190.6,122.3 190.6,108.6 202.4,101.8 202.4,115.4 		"/>
	</g>
	<g>
		<polygon class="st51" points="225.2,101.8 237.1,94.9 248.9,101.8 237.1,108.6 		"/>
		<polygon class="st51" points="225.2,115.4 225.2,101.8 237.1,108.6 237.1,122.3 		"/>
		<polygon class="st51" points="237.1,122.3 237.1,108.6 248.9,101.8 248.9,115.4 		"/>
	</g>
</g>
<g id="labels_x2F_selectors">
	<polygon class="st53" points="145.5,335.5 110.8,335.5 105.4,326.6 110.8,317.7 145.5,317.7 	"/>
	<polygon class="st54" points="144,334 109.3,334 103.9,325.1 109.3,316.2 144,316.2 	"/>
	<g>
		<g>
			<path class="st42" d="M114.7,328.5c0-0.1-0.1-0.3-0.1-0.4s0-0.2,0-0.3c-0.2,0.2-0.4,0.4-0.7,0.6c-0.3,0.2-0.6,0.2-0.9,0.2
				c-0.5,0-1-0.1-1.3-0.4c-0.3-0.3-0.4-0.6-0.4-1.1c0-0.5,0.2-0.9,0.6-1.2c0.4-0.3,1-0.4,1.7-0.4h1v-0.6c0-0.3-0.1-0.6-0.3-0.7
				c-0.2-0.2-0.5-0.3-0.8-0.3c-0.2,0-0.5,0-0.6,0.1c-0.2,0.1-0.3,0.1-0.4,0.3l-0.1,0.6h-0.7v-1c0.2-0.2,0.5-0.3,0.9-0.5
				c0.3-0.1,0.7-0.2,1.1-0.2c0.6,0,1.1,0.2,1.5,0.5s0.6,0.7,0.6,1.3v2.5c0,0.1,0,0.1,0,0.2c0,0.1,0,0.1,0,0.2l0.4,0.1v0.6H114.7z
				 M113.2,327.8c0.3,0,0.6-0.1,0.9-0.2s0.5-0.3,0.6-0.6v-0.9h-1c-0.4,0-0.7,0.1-0.9,0.3c-0.2,0.2-0.3,0.4-0.3,0.7
				c0,0.2,0.1,0.4,0.2,0.5C112.7,327.7,112.9,327.8,113.2,327.8z"/>
			<path class="st42" d="M116.7,329.9l0.8-0.1V324l-0.8-0.1v-0.6h1.6l0.1,0.6c0.2-0.2,0.4-0.4,0.6-0.6c0.3-0.1,0.5-0.2,0.9-0.2
				c0.7,0,1.2,0.3,1.5,0.8c0.4,0.5,0.5,1.2,0.5,2.1v0.1c0,0.8-0.2,1.4-0.5,1.8c-0.4,0.5-0.9,0.7-1.5,0.7c-0.3,0-0.6-0.1-0.9-0.2
				c-0.2-0.1-0.5-0.3-0.6-0.5v1.8l0.8,0.1v0.6h-2.6V329.9z M121,325.9c0-0.6-0.1-1.1-0.4-1.5s-0.6-0.6-1-0.6c-0.3,0-0.5,0.1-0.7,0.2
				s-0.4,0.3-0.5,0.5v2.6c0.1,0.2,0.3,0.4,0.5,0.5c0.2,0.1,0.4,0.2,0.7,0.2c0.5,0,0.8-0.2,1-0.5s0.4-0.8,0.4-1.3V325.9z"/>
			<path class="st42" d="M122.7,329.9l0.8-0.1V324l-0.8-0.1v-0.6h1.6l0.1,0.6c0.2-0.2,0.4-0.4,0.6-0.6c0.3-0.1,0.5-0.2,0.9-0.2
				c0.7,0,1.2,0.3,1.5,0.8c0.4,0.5,0.5,1.2,0.5,2.1v0.1c0,0.8-0.2,1.4-0.5,1.8c-0.4,0.5-0.9,0.7-1.5,0.7c-0.3,0-0.6-0.1-0.9-0.2
				c-0.2-0.1-0.5-0.3-0.6-0.5v1.8l0.8,0.1v0.6h-2.6V329.9z M127.1,325.9c0-0.6-0.1-1.1-0.4-1.5s-0.6-0.6-1-0.6
				c-0.3,0-0.5,0.1-0.7,0.2s-0.4,0.3-0.5,0.5v2.6c0.1,0.2,0.3,0.4,0.5,0.5c0.2,0.1,0.4,0.2,0.7,0.2c0.5,0,0.8-0.2,1-0.5
				s0.4-0.8,0.4-1.3V325.9z"/>
			<path class="st42" d="M133.3,324.5h-4.1v-0.8h4.1V324.5z M133.3,326.5h-4.1v-0.8h4.1V326.5z"/>
			<path class="st42" d="M134.3,327.9l0.5-0.1l2.5-6.4h0.8l2.4,6.4l0.5,0.1v0.6h-2v-0.6l0.5-0.1l-0.5-1.3h-2.8l-0.5,1.3l0.5,0.1v0.6
				h-2V327.9z M136.5,325.7h2.3l-1.1-3.1h0L136.5,325.7z"/>
		</g>
	</g>
	<polygon class="st53" points="147,132 112.3,132 106.9,123 112.3,114.1 147,114.1 	"/>
	<polygon class="st55" points="145.5,130.5 110.8,130.5 105.4,121.5 110.8,112.6 145.5,112.6 	"/>
	<g>
		<g>
			<path class="st42" d="M116.2,124.9c0-0.1-0.1-0.3-0.1-0.4c0-0.1,0-0.2,0-0.3c-0.2,0.2-0.4,0.4-0.7,0.6c-0.3,0.2-0.6,0.2-0.9,0.2
				c-0.5,0-1-0.1-1.3-0.4s-0.4-0.6-0.4-1.1c0-0.5,0.2-0.9,0.6-1.2c0.4-0.3,1-0.4,1.7-0.4h1v-0.6c0-0.3-0.1-0.6-0.3-0.7
				s-0.5-0.3-0.8-0.3c-0.2,0-0.5,0-0.6,0.1c-0.2,0.1-0.3,0.1-0.4,0.3l-0.1,0.6h-0.7v-1c0.2-0.2,0.5-0.3,0.9-0.5
				c0.3-0.1,0.7-0.2,1.1-0.2c0.6,0,1.1,0.2,1.5,0.5c0.4,0.3,0.6,0.7,0.6,1.3v2.5c0,0.1,0,0.1,0,0.2c0,0.1,0,0.1,0,0.2l0.4,0.1v0.6
				H116.2z M114.7,124.2c0.3,0,0.6-0.1,0.9-0.2c0.3-0.2,0.5-0.3,0.6-0.6v-0.9h-1c-0.4,0-0.7,0.1-0.9,0.3c-0.2,0.2-0.3,0.4-0.3,0.7
				c0,0.2,0.1,0.4,0.2,0.5S114.4,124.2,114.7,124.2z"/>
			<path class="st42" d="M118.2,126.3l0.8-0.1v-5.8l-0.8-0.1v-0.6h1.6l0.1,0.6c0.2-0.2,0.4-0.4,0.6-0.6c0.3-0.1,0.5-0.2,0.9-0.2
				c0.7,0,1.2,0.3,1.5,0.8c0.4,0.5,0.5,1.2,0.5,2.1v0.1c0,0.8-0.2,1.4-0.5,1.8c-0.4,0.5-0.9,0.7-1.5,0.7c-0.3,0-0.6-0.1-0.9-0.2
				c-0.2-0.1-0.5-0.3-0.6-0.5v1.8l0.8,0.1v0.6h-2.6V126.3z M122.5,122.4c0-0.6-0.1-1.1-0.4-1.5c-0.2-0.4-0.6-0.6-1-0.6
				c-0.3,0-0.5,0.1-0.7,0.2c-0.2,0.1-0.4,0.3-0.5,0.5v2.6c0.1,0.2,0.3,0.4,0.5,0.5c0.2,0.1,0.4,0.2,0.7,0.2c0.5,0,0.8-0.2,1-0.5
				s0.4-0.8,0.4-1.3V122.4z"/>
			<path class="st42" d="M124.2,126.3l0.8-0.1v-5.8l-0.8-0.1v-0.6h1.6l0.1,0.6c0.2-0.2,0.4-0.4,0.6-0.6c0.3-0.1,0.5-0.2,0.9-0.2
				c0.7,0,1.2,0.3,1.5,0.8c0.4,0.5,0.5,1.2,0.5,2.1v0.1c0,0.8-0.2,1.4-0.5,1.8c-0.4,0.5-0.9,0.7-1.5,0.7c-0.3,0-0.6-0.1-0.9-0.2
				c-0.2-0.1-0.5-0.3-0.6-0.5v1.8l0.8,0.1v0.6h-2.6V126.3z M128.5,122.4c0-0.6-0.1-1.1-0.4-1.5c-0.2-0.4-0.6-0.6-1-0.6
				c-0.3,0-0.5,0.1-0.7,0.2c-0.2,0.1-0.4,0.3-0.5,0.5v2.6c0.1,0.2,0.3,0.4,0.5,0.5c0.2,0.1,0.4,0.2,0.7,0.2c0.5,0,0.8-0.2,1-0.5
				s0.4-0.8,0.4-1.3V122.4z"/>
			<path class="st42" d="M134.7,120.9h-4.1v-0.8h4.1V120.9z M134.7,122.9h-4.1v-0.8h4.1V122.9z"/>
			<path class="st42" d="M138.9,117.8c0.7,0,1.3,0.2,1.7,0.5c0.4,0.3,0.6,0.8,0.6,1.4c0,0.3-0.1,0.6-0.3,0.8
				c-0.2,0.2-0.5,0.4-0.8,0.6c0.4,0.1,0.8,0.3,1,0.6c0.2,0.3,0.4,0.7,0.4,1.1c0,0.7-0.2,1.1-0.6,1.5c-0.4,0.3-1,0.5-1.7,0.5h-3.4
				v-0.6l0.8-0.1v-5.6l-0.8-0.1v-0.6h0.8H138.9z M137.6,120.8h1.6c0.3,0,0.6-0.1,0.8-0.3c0.2-0.2,0.3-0.5,0.3-0.8
				c0-0.4-0.1-0.7-0.4-0.9s-0.6-0.3-1-0.3h-1.4V120.8z M137.6,121.6v2.6h1.7c0.4,0,0.8-0.1,1-0.3c0.2-0.2,0.4-0.5,0.4-0.9
				c0-0.4-0.1-0.7-0.3-1c-0.2-0.2-0.5-0.4-0.9-0.4H137.6z"/>
		</g>
	</g>
	<polygon class="st53" points="241.2,132 206.5,132 201.1,123 206.5,114.1 241.2,114.1 	"/>
	<polygon class="st55" points="239.7,130.5 205,130.5 199.6,121.5 205,112.6 239.7,112.6 	"/>
	<g>
		<g>
			<path class="st42" d="M210.4,124.9c0-0.1-0.1-0.3-0.1-0.4c0-0.1,0-0.2,0-0.3c-0.2,0.2-0.4,0.4-0.7,0.6c-0.3,0.2-0.6,0.2-0.9,0.2
				c-0.5,0-1-0.1-1.3-0.4s-0.4-0.6-0.4-1.1c0-0.5,0.2-0.9,0.6-1.2c0.4-0.3,1-0.4,1.7-0.4h1v-0.6c0-0.3-0.1-0.6-0.3-0.7
				s-0.5-0.3-0.8-0.3c-0.2,0-0.5,0-0.6,0.1c-0.2,0.1-0.3,0.1-0.4,0.3l-0.1,0.6h-0.7v-1c0.2-0.2,0.5-0.3,0.9-0.5
				c0.3-0.1,0.7-0.2,1.1-0.2c0.6,0,1.1,0.2,1.5,0.5c0.4,0.3,0.6,0.7,0.6,1.3v2.5c0,0.1,0,0.1,0,0.2c0,0.1,0,0.1,0,0.2l0.4,0.1v0.6
				H210.4z M208.9,124.2c0.3,0,0.6-0.1,0.9-0.2c0.3-0.2,0.5-0.3,0.6-0.6v-0.9h-1c-0.4,0-0.7,0.1-0.9,0.3c-0.2,0.2-0.3,0.4-0.3,0.7
				c0,0.2,0.1,0.4,0.2,0.5S208.6,124.2,208.9,124.2z"/>
			<path class="st42" d="M212.4,126.3l0.8-0.1v-5.8l-0.8-0.1v-0.6h1.6l0.1,0.6c0.2-0.2,0.4-0.4,0.6-0.6c0.3-0.1,0.5-0.2,0.9-0.2
				c0.7,0,1.2,0.3,1.5,0.8c0.4,0.5,0.5,1.2,0.5,2.1v0.1c0,0.8-0.2,1.4-0.5,1.8c-0.4,0.5-0.9,0.7-1.5,0.7c-0.3,0-0.6-0.1-0.9-0.2
				c-0.2-0.1-0.5-0.3-0.6-0.5v1.8l0.8,0.1v0.6h-2.6V126.3z M216.7,122.4c0-0.6-0.1-1.1-0.4-1.5c-0.2-0.4-0.6-0.6-1-0.6
				c-0.3,0-0.5,0.1-0.7,0.2c-0.2,0.1-0.4,0.3-0.5,0.5v2.6c0.1,0.2,0.3,0.4,0.5,0.5c0.2,0.1,0.4,0.2,0.7,0.2c0.5,0,0.8-0.2,1-0.5
				s0.4-0.8,0.4-1.3V122.4z"/>
			<path class="st42" d="M218.4,126.3l0.8-0.1v-5.8l-0.8-0.1v-0.6h1.6l0.1,0.6c0.2-0.2,0.4-0.4,0.6-0.6c0.3-0.1,0.5-0.2,0.9-0.2
				c0.7,0,1.2,0.3,1.5,0.8c0.4,0.5,0.5,1.2,0.5,2.1v0.1c0,0.8-0.2,1.4-0.5,1.8c-0.4,0.5-0.9,0.7-1.5,0.7c-0.3,0-0.6-0.1-0.9-0.2
				c-0.2-0.1-0.5-0.3-0.6-0.5v1.8l0.8,0.1v0.6h-2.6V126.3z M222.7,122.4c0-0.6-0.1-1.1-0.4-1.5c-0.2-0.4-0.6-0.6-1-0.6
				c-0.3,0-0.5,0.1-0.7,0.2c-0.2,0.1-0.4,0.3-0.5,0.5v2.6c0.1,0.2,0.3,0.4,0.5,0.5c0.2,0.1,0.4,0.2,0.7,0.2c0.5,0,0.8-0.2,1-0.5
				s0.4-0.8,0.4-1.3V122.4z"/>
			<path class="st42" d="M228.9,120.9h-4.1v-0.8h4.1V120.9z M228.9,122.9h-4.1v-0.8h4.1V122.9z"/>
			<path class="st42" d="M233.1,117.8c0.7,0,1.3,0.2,1.7,0.5c0.4,0.3,0.6,0.8,0.6,1.4c0,0.3-0.1,0.6-0.3,0.8
				c-0.2,0.2-0.5,0.4-0.8,0.6c0.4,0.1,0.8,0.3,1,0.6c0.2,0.3,0.4,0.7,0.4,1.1c0,0.7-0.2,1.1-0.6,1.5c-0.4,0.3-1,0.5-1.7,0.5H230
				v-0.6l0.8-0.1v-5.6l-0.8-0.1v-0.6h0.8H233.1z M231.8,120.8h1.6c0.3,0,0.6-0.1,0.8-0.3c0.2-0.2,0.3-0.5,0.3-0.8
				c0-0.4-0.1-0.7-0.4-0.9s-0.6-0.3-1-0.3h-1.4V120.8z M231.8,121.6v2.6h1.7c0.4,0,0.8-0.1,1-0.3c0.2-0.2,0.4-0.5,0.4-0.9
				c0-0.4-0.1-0.7-0.3-1c-0.2-0.2-0.5-0.4-0.9-0.4H231.8z"/>
		</g>
	</g>
	<polygon class="st53" points="284.6,107.5 249.9,107.5 244.5,98.5 249.9,89.6 284.6,89.6 	"/>
	<polygon class="st55" points="283.1,106 248.4,106 243,97 248.4,88.1 283.1,88.1 	"/>
	<g>
		<g>
			<path class="st42" d="M253.8,100.4c0-0.1-0.1-0.3-0.1-0.4c0-0.1,0-0.2,0-0.3c-0.2,0.2-0.4,0.4-0.7,0.6c-0.3,0.2-0.6,0.2-0.9,0.2
				c-0.5,0-1-0.1-1.3-0.4s-0.4-0.6-0.4-1.1c0-0.5,0.2-0.9,0.6-1.2c0.4-0.3,1-0.4,1.7-0.4h1v-0.6c0-0.3-0.1-0.6-0.3-0.7
				s-0.5-0.3-0.8-0.3c-0.2,0-0.5,0-0.6,0.1c-0.2,0.1-0.3,0.1-0.4,0.3l-0.1,0.6h-0.7v-1c0.2-0.2,0.5-0.3,0.9-0.5
				c0.3-0.1,0.7-0.2,1.1-0.2c0.6,0,1.1,0.2,1.5,0.5c0.4,0.3,0.6,0.7,0.6,1.3v2.5c0,0.1,0,0.1,0,0.2c0,0.1,0,0.1,0,0.2l0.4,0.1v0.6
				H253.8z M252.3,99.7c0.3,0,0.6-0.1,0.9-0.2c0.3-0.2,0.5-0.3,0.6-0.6v-0.9h-1c-0.4,0-0.7,0.1-0.9,0.3c-0.2,0.2-0.3,0.4-0.3,0.7
				c0,0.2,0.1,0.4,0.2,0.5S252,99.7,252.3,99.7z"/>
			<path class="st42" d="M255.8,101.8l0.8-0.1v-5.8l-0.8-0.1v-0.6h1.6l0.1,0.6c0.2-0.2,0.4-0.4,0.6-0.6c0.3-0.1,0.5-0.2,0.9-0.2
				c0.7,0,1.2,0.3,1.5,0.8c0.4,0.5,0.5,1.2,0.5,2.1V98c0,0.8-0.2,1.4-0.5,1.8c-0.4,0.5-0.9,0.7-1.5,0.7c-0.3,0-0.6-0.1-0.9-0.2
				c-0.2-0.1-0.5-0.3-0.6-0.5v1.8l0.8,0.1v0.6h-2.6V101.8z M260.1,97.9c0-0.6-0.1-1.1-0.4-1.5c-0.2-0.4-0.6-0.6-1-0.6
				c-0.3,0-0.5,0.1-0.7,0.2c-0.2,0.1-0.4,0.3-0.5,0.5v2.6c0.1,0.2,0.3,0.4,0.5,0.5c0.2,0.1,0.4,0.2,0.7,0.2c0.5,0,0.8-0.2,1-0.5
				s0.4-0.8,0.4-1.3V97.9z"/>
			<path class="st42" d="M261.8,101.8l0.8-0.1v-5.8l-0.8-0.1v-0.6h1.6l0.1,0.6c0.2-0.2,0.4-0.4,0.6-0.6c0.3-0.1,0.5-0.2,0.9-0.2
				c0.7,0,1.2,0.3,1.5,0.8c0.4,0.5,0.5,1.2,0.5,2.1V98c0,0.8-0.2,1.4-0.5,1.8c-0.4,0.5-0.9,0.7-1.5,0.7c-0.3,0-0.6-0.1-0.9-0.2
				c-0.2-0.1-0.5-0.3-0.6-0.5v1.8l0.8,0.1v0.6h-2.6V101.8z M266.2,97.9c0-0.6-0.1-1.1-0.4-1.5c-0.2-0.4-0.6-0.6-1-0.6
				c-0.3,0-0.5,0.1-0.7,0.2c-0.2,0.1-0.4,0.3-0.5,0.5v2.6c0.1,0.2,0.3,0.4,0.5,0.5c0.2,0.1,0.4,0.2,0.7,0.2c0.5,0,0.8-0.2,1-0.5
				s0.4-0.8,0.4-1.3V97.9z"/>
			<path class="st42" d="M272.4,96.4h-4.1v-0.8h4.1V96.4z M272.4,98.4h-4.1v-0.8h4.1V98.4z"/>
			<path class="st42" d="M276.5,93.3c0.7,0,1.3,0.2,1.7,0.5c0.4,0.3,0.6,0.8,0.6,1.4c0,0.3-0.1,0.6-0.3,0.8
				c-0.2,0.2-0.5,0.4-0.8,0.6c0.4,0.1,0.8,0.3,1,0.6c0.2,0.3,0.4,0.7,0.4,1.1c0,0.7-0.2,1.1-0.6,1.5c-0.4,0.3-1,0.5-1.7,0.5h-3.4
				v-0.6l0.8-0.1v-5.6l-0.8-0.1v-0.6h0.8H276.5z M275.2,96.3h1.6c0.3,0,0.6-0.1,0.8-0.3c0.2-0.2,0.3-0.5,0.3-0.8
				c0-0.4-0.1-0.7-0.4-0.9s-0.6-0.3-1-0.3h-1.4V96.3z M275.2,97.1v2.6h1.7c0.4,0,0.8-0.1,1-0.3c0.2-0.2,0.4-0.5,0.4-0.9
				c0-0.4-0.1-0.7-0.3-1c-0.2-0.2-0.5-0.4-0.9-0.4H275.2z"/>
		</g>
	</g>
	<polygon class="st53" points="212.9,229.9 171.4,229.9 166,221 171.4,212 212.9,212 	"/>
	<polygon class="st56" points="211.4,228.4 169.9,228.4 164.5,219.5 169.9,210.5 211.4,210.5 	"/>
	<g>
		<path class="st42" d="M175.6,219.2h-0.7l-0.2-0.6c-0.1-0.1-0.3-0.2-0.4-0.3c-0.2-0.1-0.4-0.1-0.6-0.1c-0.3,0-0.6,0.1-0.8,0.2
			s-0.2,0.3-0.2,0.5c0,0.2,0.1,0.4,0.2,0.5s0.4,0.2,0.9,0.3c0.7,0.1,1.2,0.3,1.5,0.6s0.5,0.6,0.5,1c0,0.5-0.2,0.8-0.6,1.1
			c-0.4,0.3-0.9,0.4-1.5,0.4c-0.4,0-0.8,0-1.1-0.1s-0.6-0.2-0.9-0.4l0-1.2h0.7l0.2,0.7c0.1,0.1,0.3,0.2,0.5,0.2
			c0.2,0,0.4,0.1,0.6,0.1c0.3,0,0.6-0.1,0.8-0.2c0.2-0.1,0.3-0.3,0.3-0.5c0-0.2-0.1-0.4-0.2-0.5c-0.2-0.1-0.5-0.3-0.9-0.4
			c-0.6-0.1-1.1-0.3-1.5-0.6s-0.5-0.6-0.5-1c0-0.4,0.2-0.8,0.5-1.1c0.4-0.3,0.8-0.5,1.4-0.5c0.4,0,0.8,0.1,1.1,0.2s0.6,0.2,0.8,0.4
			L175.6,219.2z"/>
		<path class="st42" d="M177.8,218.5h-1v-1h1V218.5z M177.8,222.8h-1v-1h1V222.8z"/>
		<path class="st42" d="M182.1,222.8c0-0.1-0.1-0.3-0.1-0.4s0-0.2,0-0.3c-0.2,0.2-0.4,0.4-0.7,0.6c-0.3,0.2-0.6,0.2-0.9,0.2
			c-0.5,0-1-0.1-1.3-0.4s-0.4-0.6-0.4-1.1c0-0.5,0.2-0.9,0.6-1.2c0.4-0.3,1-0.4,1.7-0.4h1v-0.6c0-0.3-0.1-0.6-0.3-0.7
			s-0.5-0.3-0.8-0.3c-0.2,0-0.5,0-0.6,0.1c-0.2,0.1-0.3,0.1-0.4,0.3l-0.1,0.6H179v-1c0.2-0.2,0.5-0.3,0.9-0.5s0.7-0.2,1.1-0.2
			c0.6,0,1.1,0.2,1.5,0.5s0.6,0.7,0.6,1.3v2.5c0,0.1,0,0.1,0,0.2c0,0.1,0,0.1,0,0.2l0.4,0.1v0.6H182.1z M180.6,222.1
			c0.3,0,0.6-0.1,0.9-0.2s0.5-0.3,0.6-0.6v-0.9h-1c-0.4,0-0.7,0.1-0.9,0.3c-0.2,0.2-0.3,0.4-0.3,0.7c0,0.2,0.1,0.4,0.2,0.5
			S180.3,222.1,180.6,222.1z"/>
		<path class="st42" d="M184,224.2l0.8-0.1v-5.8l-0.8-0.1v-0.6h1.6l0.1,0.6c0.2-0.2,0.4-0.4,0.6-0.6c0.3-0.1,0.5-0.2,0.9-0.2
			c0.7,0,1.2,0.3,1.5,0.8c0.4,0.5,0.5,1.2,0.5,2.1v0.1c0,0.8-0.2,1.4-0.5,1.8s-0.9,0.7-1.5,0.7c-0.3,0-0.6-0.1-0.9-0.2
			c-0.2-0.1-0.5-0.3-0.6-0.5v1.8l0.8,0.1v0.6H184V224.2z M188.4,220.3c0-0.6-0.1-1.1-0.4-1.5s-0.6-0.6-1-0.6c-0.3,0-0.5,0.1-0.7,0.2
			s-0.4,0.3-0.5,0.5v2.6c0.1,0.2,0.3,0.4,0.5,0.5c0.2,0.1,0.4,0.2,0.7,0.2c0.5,0,0.8-0.2,1-0.5s0.4-0.8,0.4-1.3V220.3z"/>
		<path class="st42" d="M190.1,224.2l0.8-0.1v-5.8l-0.8-0.1v-0.6h1.6l0.1,0.6c0.2-0.2,0.4-0.4,0.6-0.6c0.3-0.1,0.5-0.2,0.9-0.2
			c0.7,0,1.2,0.3,1.5,0.8c0.4,0.5,0.5,1.2,0.5,2.1v0.1c0,0.8-0.2,1.4-0.5,1.8s-0.9,0.7-1.5,0.7c-0.3,0-0.6-0.1-0.9-0.2
			c-0.2-0.1-0.5-0.3-0.6-0.5v1.8l0.8,0.1v0.6h-2.6V224.2z M194.4,220.3c0-0.6-0.1-1.1-0.4-1.5s-0.6-0.6-1-0.6
			c-0.3,0-0.5,0.1-0.7,0.2s-0.4,0.3-0.5,0.5v2.6c0.1,0.2,0.3,0.4,0.5,0.5c0.2,0.1,0.4,0.2,0.7,0.2c0.5,0,0.8-0.2,1-0.5
			s0.4-0.8,0.4-1.3V220.3z"/>
		<path class="st42" d="M200.6,218.8h-4.1V218h4.1V218.8z M200.6,220.8h-4.1V220h4.1V220.8z"/>
		<path class="st42" d="M204.8,215.7c0.7,0,1.3,0.2,1.7,0.5c0.4,0.3,0.6,0.8,0.6,1.4c0,0.3-0.1,0.6-0.3,0.8
			c-0.2,0.2-0.5,0.4-0.8,0.6c0.4,0.1,0.8,0.3,1,0.6s0.4,0.7,0.4,1.1c0,0.7-0.2,1.1-0.6,1.5s-1,0.5-1.7,0.5h-3.4v-0.6l0.8-0.1v-5.6
			l-0.8-0.1v-0.6h0.8H204.8z M203.4,218.7h1.6c0.3,0,0.6-0.1,0.8-0.3c0.2-0.2,0.3-0.5,0.3-0.8c0-0.4-0.1-0.7-0.4-0.9s-0.6-0.3-1-0.3
			h-1.4V218.7z M203.4,219.5v2.6h1.7c0.4,0,0.8-0.1,1-0.3c0.2-0.2,0.4-0.5,0.4-0.9c0-0.4-0.1-0.7-0.3-1c-0.2-0.2-0.5-0.4-0.9-0.4
			H203.4z"/>
	</g>
	<polygon class="st53" points="194.3,258.7 152.8,258.7 147.4,249.8 152.8,240.8 194.3,240.8 	"/>
	<polygon class="st57" points="192.8,257.2 151.3,257.2 145.9,248.3 151.3,239.3 192.8,239.3 	"/>
	<g>
		<path class="st42" d="M156.9,248h-0.7l-0.2-0.6c-0.1-0.1-0.3-0.2-0.4-0.3c-0.2-0.1-0.4-0.1-0.6-0.1c-0.3,0-0.6,0.1-0.8,0.2
			s-0.2,0.3-0.2,0.5c0,0.2,0.1,0.4,0.2,0.5s0.4,0.2,0.9,0.3c0.7,0.1,1.2,0.3,1.5,0.6s0.5,0.6,0.5,1c0,0.5-0.2,0.8-0.6,1.1
			c-0.4,0.3-0.9,0.4-1.5,0.4c-0.4,0-0.8,0-1.1-0.1s-0.6-0.2-0.9-0.4l0-1.2h0.7l0.2,0.7c0.1,0.1,0.3,0.2,0.5,0.2
			c0.2,0,0.4,0.1,0.6,0.1c0.3,0,0.6-0.1,0.8-0.2c0.2-0.1,0.3-0.3,0.3-0.5c0-0.2-0.1-0.4-0.2-0.5c-0.2-0.1-0.5-0.3-0.9-0.4
			c-0.6-0.1-1.1-0.3-1.5-0.6s-0.5-0.6-0.5-1c0-0.4,0.2-0.8,0.5-1.1c0.4-0.3,0.8-0.5,1.4-0.5c0.4,0,0.8,0.1,1.1,0.2s0.6,0.2,0.8,0.4
			L156.9,248z"/>
		<path class="st42" d="M159.2,247.3h-1v-1h1V247.3z M159.2,251.6h-1v-1h1V251.6z"/>
		<path class="st42" d="M163.5,251.6c0-0.1-0.1-0.3-0.1-0.4s0-0.2,0-0.3c-0.2,0.2-0.4,0.4-0.7,0.6c-0.3,0.2-0.6,0.2-0.9,0.2
			c-0.5,0-1-0.1-1.3-0.4s-0.4-0.6-0.4-1.1c0-0.5,0.2-0.9,0.6-1.2c0.4-0.3,1-0.4,1.7-0.4h1V248c0-0.3-0.1-0.6-0.3-0.7
			s-0.5-0.3-0.8-0.3c-0.2,0-0.5,0-0.6,0.1c-0.2,0.1-0.3,0.1-0.4,0.3l-0.1,0.6h-0.7v-1c0.2-0.2,0.5-0.3,0.9-0.5s0.7-0.2,1.1-0.2
			c0.6,0,1.1,0.2,1.5,0.5s0.6,0.7,0.6,1.3v2.5c0,0.1,0,0.1,0,0.2c0,0.1,0,0.1,0,0.2l0.4,0.1v0.6H163.5z M161.9,250.9
			c0.3,0,0.6-0.1,0.9-0.2s0.5-0.3,0.6-0.6v-0.9h-1c-0.4,0-0.7,0.1-0.9,0.3c-0.2,0.2-0.3,0.4-0.3,0.7c0,0.2,0.1,0.4,0.2,0.5
			S161.6,250.9,161.9,250.9z"/>
		<path class="st42" d="M165.4,253l0.8-0.1v-5.8l-0.8-0.1v-0.6h1.6l0.1,0.6c0.2-0.2,0.4-0.4,0.6-0.6c0.3-0.1,0.5-0.2,0.9-0.2
			c0.7,0,1.2,0.3,1.5,0.8c0.4,0.5,0.5,1.2,0.5,2.1v0.1c0,0.8-0.2,1.4-0.5,1.8s-0.9,0.7-1.5,0.7c-0.3,0-0.6-0.1-0.9-0.2
			c-0.2-0.1-0.5-0.3-0.6-0.5v1.8l0.8,0.1v0.6h-2.6V253z M169.8,249.1c0-0.6-0.1-1.1-0.4-1.5s-0.6-0.6-1-0.6c-0.3,0-0.5,0.1-0.7,0.2
			s-0.4,0.3-0.5,0.5v2.6c0.1,0.2,0.3,0.4,0.5,0.5c0.2,0.1,0.4,0.2,0.7,0.2c0.5,0,0.8-0.2,1-0.5s0.4-0.8,0.4-1.3V249.1z"/>
		<path class="st42" d="M171.5,253l0.8-0.1v-5.8l-0.8-0.1v-0.6h1.6l0.1,0.6c0.2-0.2,0.4-0.4,0.6-0.6c0.3-0.1,0.5-0.2,0.9-0.2
			c0.7,0,1.2,0.3,1.5,0.8c0.4,0.5,0.5,1.2,0.5,2.1v0.1c0,0.8-0.2,1.4-0.5,1.8s-0.9,0.7-1.5,0.7c-0.3,0-0.6-0.1-0.9-0.2
			c-0.2-0.1-0.5-0.3-0.6-0.5v1.8l0.8,0.1v0.6h-2.6V253z M175.8,249.1c0-0.6-0.1-1.1-0.4-1.5s-0.6-0.6-1-0.6c-0.3,0-0.5,0.1-0.7,0.2
			s-0.4,0.3-0.5,0.5v2.6c0.1,0.2,0.3,0.4,0.5,0.5c0.2,0.1,0.4,0.2,0.7,0.2c0.5,0,0.8-0.2,1-0.5s0.4-0.8,0.4-1.3V249.1z"/>
		<path class="st42" d="M182,247.6h-4.1v-0.8h4.1V247.6z M182,249.6h-4.1v-0.8h4.1V249.6z"/>
		<path class="st42" d="M183,251l0.5-0.1l2.5-6.4h0.8l2.4,6.4l0.5,0.1v0.6h-2V251l0.5-0.1l-0.5-1.3H185l-0.5,1.3l0.5,0.1v0.6h-2V251
			z M185.3,248.8h2.3l-1.1-3.1h0L185.3,248.8z"/>
	</g>
	<polygon class="st53" points="162.4,376.4 120.9,376.4 115.5,367.5 120.9,358.6 162.4,358.6 	"/>
	<polygon class="st57" points="160.9,374.9 119.4,374.9 114,366 119.4,357.1 160.9,357.1 	"/>
	<g>
		<path class="st42" d="M125,365.8h-0.7l-0.2-0.6c-0.1-0.1-0.3-0.2-0.4-0.3c-0.2-0.1-0.4-0.1-0.6-0.1c-0.3,0-0.6,0.1-0.8,0.2
			s-0.2,0.3-0.2,0.5c0,0.2,0.1,0.4,0.2,0.5s0.4,0.2,0.9,0.3c0.7,0.1,1.2,0.3,1.5,0.6c0.3,0.2,0.5,0.6,0.5,1c0,0.5-0.2,0.8-0.6,1.1
			c-0.4,0.3-0.9,0.4-1.5,0.4c-0.4,0-0.8,0-1.1-0.1c-0.3-0.1-0.6-0.2-0.9-0.4l0-1.2h0.7l0.2,0.7c0.1,0.1,0.3,0.2,0.5,0.2
			c0.2,0,0.4,0.1,0.6,0.1c0.3,0,0.6-0.1,0.8-0.2c0.2-0.1,0.3-0.3,0.3-0.5c0-0.2-0.1-0.4-0.2-0.5c-0.2-0.1-0.5-0.3-0.9-0.4
			c-0.6-0.1-1.1-0.3-1.5-0.6s-0.5-0.6-0.5-1c0-0.4,0.2-0.8,0.5-1.1c0.4-0.3,0.8-0.5,1.4-0.5c0.4,0,0.8,0.1,1.1,0.2s0.6,0.2,0.8,0.4
			L125,365.8z"/>
		<path class="st42" d="M127.3,365.1h-1v-1h1V365.1z M127.3,369.4h-1v-1h1V369.4z"/>
		<path class="st42" d="M131.5,369.4c0-0.1-0.1-0.3-0.1-0.4s0-0.2,0-0.3c-0.2,0.2-0.4,0.4-0.7,0.6c-0.3,0.2-0.6,0.2-0.9,0.2
			c-0.5,0-1-0.1-1.3-0.4c-0.3-0.3-0.4-0.6-0.4-1.1c0-0.5,0.2-0.9,0.6-1.2c0.4-0.3,1-0.4,1.7-0.4h1v-0.6c0-0.3-0.1-0.6-0.3-0.7
			c-0.2-0.2-0.5-0.3-0.8-0.3c-0.2,0-0.5,0-0.6,0.1c-0.2,0.1-0.3,0.1-0.4,0.3l-0.1,0.6h-0.7v-1c0.2-0.2,0.5-0.3,0.9-0.5
			c0.3-0.1,0.7-0.2,1.1-0.2c0.6,0,1.1,0.2,1.5,0.5s0.6,0.7,0.6,1.3v2.5c0,0.1,0,0.1,0,0.2c0,0.1,0,0.1,0,0.2l0.4,0.1v0.6H131.5z
			 M130,368.7c0.3,0,0.6-0.1,0.9-0.2s0.5-0.3,0.6-0.6V367h-1c-0.4,0-0.7,0.1-0.9,0.3c-0.2,0.2-0.3,0.4-0.3,0.7
			c0,0.2,0.1,0.4,0.2,0.5C129.5,368.6,129.7,368.7,130,368.7z"/>
		<path class="st42" d="M133.5,370.8l0.8-0.1v-5.8l-0.8-0.1v-0.6h1.6l0.1,0.6c0.2-0.2,0.4-0.4,0.6-0.6c0.3-0.1,0.5-0.2,0.9-0.2
			c0.7,0,1.2,0.3,1.5,0.8c0.4,0.5,0.5,1.2,0.5,2.1v0.1c0,0.8-0.2,1.4-0.5,1.8c-0.4,0.5-0.9,0.7-1.5,0.7c-0.3,0-0.6-0.1-0.9-0.2
			c-0.2-0.1-0.5-0.3-0.6-0.5v1.8l0.8,0.1v0.6h-2.6V370.8z M137.8,366.9c0-0.6-0.1-1.1-0.4-1.5s-0.6-0.6-1-0.6
			c-0.3,0-0.5,0.1-0.7,0.2s-0.4,0.3-0.5,0.5v2.6c0.1,0.2,0.3,0.4,0.5,0.5c0.2,0.1,0.4,0.2,0.7,0.2c0.5,0,0.8-0.2,1-0.5
			s0.4-0.8,0.4-1.3V366.9z"/>
		<path class="st42" d="M139.5,370.8l0.8-0.1v-5.8l-0.8-0.1v-0.6h1.6l0.1,0.6c0.2-0.2,0.4-0.4,0.6-0.6c0.3-0.1,0.5-0.2,0.9-0.2
			c0.7,0,1.2,0.3,1.5,0.8c0.4,0.5,0.5,1.2,0.5,2.1v0.1c0,0.8-0.2,1.4-0.5,1.8c-0.4,0.5-0.9,0.7-1.5,0.7c-0.3,0-0.6-0.1-0.9-0.2
			c-0.2-0.1-0.5-0.3-0.6-0.5v1.8l0.8,0.1v0.6h-2.6V370.8z M143.9,366.9c0-0.6-0.1-1.1-0.4-1.5s-0.6-0.6-1-0.6
			c-0.3,0-0.5,0.1-0.7,0.2s-0.4,0.3-0.5,0.5v2.6c0.1,0.2,0.3,0.4,0.5,0.5c0.2,0.1,0.4,0.2,0.7,0.2c0.5,0,0.8-0.2,1-0.5
			s0.4-0.8,0.4-1.3V366.9z"/>
		<path class="st42" d="M150.1,365.4H146v-0.8h4.1V365.4z M150.1,367.4H146v-0.8h4.1V367.4z"/>
		<path class="st42" d="M151,368.8l0.5-0.1l2.5-6.4h0.8l2.4,6.4l0.5,0.1v0.6h-2v-0.6l0.5-0.1l-0.5-1.3H153l-0.5,1.3l0.5,0.1v0.6h-2
			V368.8z M153.3,366.6h2.3l-1.1-3.1h0L153.3,366.6z"/>
	</g>
	<polygon class="st53" points="304.3,157.7 262.8,157.7 257.4,148.7 262.8,139.8 304.3,139.8 	"/>
	<g>
		<polygon class="st6" points="302.8,156.2 261.3,156.2 255.9,147.2 261.3,138.3 302.8,138.3 		"/>
		<g>
			<polyline class="st18" points="302.8,155 302.8,156.2 301.6,156.2 			"/>
			<line class="st58" x1="299.9" y1="156.2" x2="263.3" y2="156.2"/>
			<polyline class="st18" points="262.5,156.2 261.3,156.2 260.7,155.1 			"/>
			<line class="st59" x1="260" y1="154" x2="256.9" y2="148.8"/>
			<polyline class="st18" points="256.5,148.3 255.9,147.2 256.5,146.2 			"/>
			<line class="st59" x1="257.2" y1="145.1" x2="260.3" y2="139.9"/>
			<polyline class="st18" points="260.7,139.3 261.3,138.3 262.5,138.3 			"/>
			<line class="st58" x1="264.2" y1="138.3" x2="300.7" y2="138.3"/>
			<polyline class="st18" points="301.6,138.3 302.8,138.3 302.8,139.5 			"/>
			<line class="st60" x1="302.8" y1="141.3" x2="302.8" y2="154"/>
		</g>
	</g>
	<g>
		<path class="st42" d="M266.9,147h-0.7l-0.2-0.6c-0.1-0.1-0.3-0.2-0.4-0.3c-0.2-0.1-0.4-0.1-0.6-0.1c-0.3,0-0.6,0.1-0.8,0.2
			s-0.2,0.3-0.2,0.5c0,0.2,0.1,0.4,0.2,0.5s0.4,0.2,0.9,0.3c0.7,0.1,1.2,0.3,1.5,0.6s0.5,0.6,0.5,1c0,0.5-0.2,0.8-0.6,1.1
			c-0.4,0.3-0.9,0.4-1.5,0.4c-0.4,0-0.8,0-1.1-0.1s-0.6-0.2-0.9-0.4l0-1.2h0.7l0.2,0.7c0.1,0.1,0.3,0.2,0.5,0.2
			c0.2,0,0.4,0.1,0.6,0.1c0.3,0,0.6-0.1,0.8-0.2c0.2-0.1,0.3-0.3,0.3-0.5c0-0.2-0.1-0.4-0.2-0.5c-0.2-0.1-0.5-0.3-0.9-0.4
			c-0.6-0.1-1.1-0.3-1.5-0.6s-0.5-0.6-0.5-1c0-0.4,0.2-0.8,0.5-1.1c0.4-0.3,0.8-0.5,1.4-0.5c0.4,0,0.8,0.1,1.1,0.2s0.6,0.2,0.8,0.4
			L266.9,147z"/>
		<path class="st42" d="M269.2,146.3h-1v-1h1V146.3z M269.2,150.6h-1v-1h1V150.6z"/>
		<path class="st42" d="M273.5,150.6c0-0.1-0.1-0.3-0.1-0.4s0-0.2,0-0.3c-0.2,0.2-0.4,0.4-0.7,0.6c-0.3,0.2-0.6,0.2-0.9,0.2
			c-0.5,0-1-0.1-1.3-0.4s-0.4-0.6-0.4-1.1c0-0.5,0.2-0.9,0.6-1.2c0.4-0.3,1-0.4,1.7-0.4h1V147c0-0.3-0.1-0.6-0.3-0.7
			s-0.5-0.3-0.8-0.3c-0.2,0-0.5,0-0.6,0.1c-0.2,0.1-0.3,0.1-0.4,0.3l-0.1,0.6h-0.7v-1c0.2-0.2,0.5-0.3,0.9-0.5s0.7-0.2,1.1-0.2
			c0.6,0,1.1,0.2,1.5,0.5s0.6,0.7,0.6,1.3v2.5c0,0.1,0,0.1,0,0.2c0,0.1,0,0.1,0,0.2l0.4,0.1v0.6H273.5z M271.9,149.9
			c0.3,0,0.6-0.1,0.9-0.2s0.5-0.3,0.6-0.6v-0.9h-1c-0.4,0-0.7,0.1-0.9,0.3c-0.2,0.2-0.3,0.4-0.3,0.7c0,0.2,0.1,0.4,0.2,0.5
			S271.6,149.9,271.9,149.9z"/>
		<path class="st42" d="M275.4,152l0.8-0.1v-5.8l-0.8-0.1v-0.6h1.6l0.1,0.6c0.2-0.2,0.4-0.4,0.6-0.6c0.3-0.1,0.5-0.2,0.9-0.2
			c0.7,0,1.2,0.3,1.5,0.8c0.4,0.5,0.5,1.2,0.5,2.1v0.1c0,0.8-0.2,1.4-0.5,1.8s-0.9,0.7-1.5,0.7c-0.3,0-0.6-0.1-0.9-0.2
			c-0.2-0.1-0.5-0.3-0.6-0.5v1.8l0.8,0.1v0.6h-2.6V152z M279.7,148.1c0-0.6-0.1-1.1-0.4-1.5s-0.6-0.6-1-0.6c-0.3,0-0.5,0.1-0.7,0.2
			s-0.4,0.3-0.5,0.5v2.6c0.1,0.2,0.3,0.4,0.5,0.5c0.2,0.1,0.4,0.2,0.7,0.2c0.5,0,0.8-0.2,1-0.5s0.4-0.8,0.4-1.3V148.1z"/>
		<path class="st42" d="M281.5,152l0.8-0.1v-5.8l-0.8-0.1v-0.6h1.6l0.1,0.6c0.2-0.2,0.4-0.4,0.6-0.6c0.3-0.1,0.5-0.2,0.9-0.2
			c0.7,0,1.2,0.3,1.5,0.8c0.4,0.5,0.5,1.2,0.5,2.1v0.1c0,0.8-0.2,1.4-0.5,1.8s-0.9,0.7-1.5,0.7c-0.3,0-0.6-0.1-0.9-0.2
			c-0.2-0.1-0.5-0.3-0.6-0.5v1.8l0.8,0.1v0.6h-2.6V152z M285.8,148.1c0-0.6-0.1-1.1-0.4-1.5s-0.6-0.6-1-0.6c-0.3,0-0.5,0.1-0.7,0.2
			s-0.4,0.3-0.5,0.5v2.6c0.1,0.2,0.3,0.4,0.5,0.5c0.2,0.1,0.4,0.2,0.7,0.2c0.5,0,0.8-0.2,1-0.5s0.4-0.8,0.4-1.3V148.1z"/>
		<path class="st42" d="M292,146.6h-4.1v-0.8h4.1V146.6z M292,148.6h-4.1v-0.8h4.1V148.6z"/>
		<path class="st42" d="M296.2,143.5c0.7,0,1.3,0.2,1.7,0.5c0.4,0.3,0.6,0.8,0.6,1.4c0,0.3-0.1,0.6-0.3,0.8
			c-0.2,0.2-0.5,0.4-0.8,0.6c0.4,0.1,0.8,0.3,1,0.6s0.4,0.7,0.4,1.1c0,0.7-0.2,1.1-0.6,1.5s-1,0.5-1.7,0.5H293V150l0.8-0.1v-5.6
			l-0.8-0.1v-0.6h0.8H296.2z M294.8,146.5h1.6c0.3,0,0.6-0.1,0.8-0.3c0.2-0.2,0.3-0.5,0.3-0.8c0-0.4-0.1-0.7-0.4-0.9s-0.6-0.3-1-0.3
			h-1.4V146.5z M294.8,147.3v2.6h1.7c0.4,0,0.8-0.1,1-0.3c0.2-0.2,0.4-0.5,0.4-0.9c0-0.4-0.1-0.7-0.3-1c-0.2-0.2-0.5-0.4-0.9-0.4
			H294.8z"/>
	</g>
</g>
<g id="description">
	<g>
		<path class="st42" d="M260.8,256.6v-0.7l1-0.2V249l-1-0.2v-0.7h1h1.2h1v0.7l-1,0.2v6.7h3l0.1-1h1v1.9H260.8z"/>
		<path class="st42" d="M272.1,256.6c0-0.2-0.1-0.3-0.1-0.5s0-0.3,0-0.4c-0.2,0.3-0.5,0.5-0.8,0.7s-0.7,0.3-1.1,0.3
			c-0.7,0-1.2-0.2-1.5-0.5s-0.5-0.8-0.5-1.4c0-0.6,0.2-1.1,0.7-1.4s1.2-0.5,2-0.5h1.2v-0.7c0-0.4-0.1-0.7-0.4-0.9s-0.6-0.3-1-0.3
			c-0.3,0-0.5,0-0.8,0.1s-0.4,0.2-0.5,0.3l-0.1,0.7h-0.9v-1.2c0.3-0.2,0.6-0.4,1-0.6s0.9-0.2,1.3-0.2c0.7,0,1.3,0.2,1.7,0.6
			s0.7,0.9,0.7,1.6v3.1c0,0.1,0,0.2,0,0.2s0,0.2,0,0.2l0.5,0.1v0.7H272.1z M270.3,255.8c0.4,0,0.7-0.1,1-0.3s0.5-0.4,0.7-0.7v-1
			h-1.2c-0.5,0-0.8,0.1-1.1,0.3s-0.4,0.5-0.4,0.8c0,0.3,0.1,0.5,0.3,0.6S269.9,255.8,270.3,255.8z"/>
		<path class="st42" d="M280.4,253.7c0,0.9-0.2,1.7-0.7,2.2s-1,0.8-1.8,0.8c-0.4,0-0.8-0.1-1.1-0.2s-0.6-0.4-0.8-0.7l-0.1,0.8h-1
			v-8.2l-1-0.2v-0.7h2.1v3.6c0.2-0.3,0.4-0.5,0.7-0.6s0.6-0.2,1-0.2c0.8,0,1.4,0.3,1.8,0.9s0.7,1.4,0.7,2.5V253.7z M279.2,253.6
			c0-0.7-0.1-1.3-0.4-1.8s-0.7-0.7-1.2-0.7c-0.4,0-0.7,0.1-0.9,0.3s-0.4,0.4-0.6,0.7v2.8c0.1,0.3,0.3,0.5,0.6,0.7s0.5,0.3,0.9,0.3
			c0.5,0,0.9-0.2,1.2-0.6s0.4-0.9,0.4-1.5V253.6z"/>
		<path class="st42" d="M284.4,256.7c-0.9,0-1.6-0.3-2.1-0.9s-0.8-1.4-0.8-2.3v-0.3c0-0.9,0.3-1.7,0.8-2.3s1.2-0.9,1.9-0.9
			c0.9,0,1.5,0.3,1.9,0.8s0.7,1.2,0.7,2.1v0.7h-4.1l0,0c0,0.6,0.2,1.1,0.5,1.5s0.7,0.6,1.2,0.6c0.4,0,0.7-0.1,1-0.2s0.5-0.3,0.8-0.5
			l0.5,0.8c-0.2,0.2-0.5,0.4-0.9,0.6S285,256.7,284.4,256.7z M284.3,251.1c-0.4,0-0.7,0.2-1,0.5s-0.4,0.7-0.5,1.2l0,0h2.9v-0.2
			c0-0.5-0.1-0.8-0.4-1.1S284.7,251.1,284.3,251.1z"/>
		<path class="st42" d="M287.8,248.2v-0.7h2.1v8.2l1,0.2v0.7h-3.1v-0.7l1-0.2v-7.3L287.8,248.2z"/>
		<path class="st42" d="M300.8,250.6h-0.9l-0.2-1.2c-0.2-0.1-0.4-0.3-0.7-0.4s-0.6-0.1-1-0.1c-0.6,0-1.1,0.1-1.4,0.4s-0.5,0.6-0.5,1
			c0,0.4,0.2,0.7,0.5,0.9s0.9,0.5,1.6,0.7c0.9,0.2,1.6,0.6,2,1s0.7,1,0.7,1.6c0,0.7-0.3,1.2-0.8,1.7s-1.3,0.6-2.2,0.6
			c-0.7,0-1.2-0.1-1.7-0.3s-0.9-0.5-1.2-0.8V254h0.9l0.2,1.2c0.2,0.2,0.5,0.3,0.8,0.5s0.7,0.2,1.1,0.2c0.6,0,1-0.1,1.4-0.4
			s0.5-0.6,0.5-1c0-0.4-0.1-0.7-0.4-1s-0.8-0.5-1.6-0.7c-0.9-0.2-1.6-0.5-2.1-0.9s-0.8-0.9-0.8-1.6c0-0.7,0.3-1.2,0.8-1.7
			s1.3-0.7,2.2-0.7c0.6,0,1.1,0.1,1.6,0.3s0.9,0.5,1.2,0.7V250.6z"/>
		<path class="st42" d="M305,256.7c-0.9,0-1.6-0.3-2.1-0.9s-0.8-1.4-0.8-2.3v-0.3c0-0.9,0.3-1.7,0.8-2.3s1.2-0.9,1.9-0.9
			c0.9,0,1.5,0.3,1.9,0.8s0.7,1.2,0.7,2.1v0.7h-4.1l0,0c0,0.6,0.2,1.1,0.5,1.5s0.7,0.6,1.2,0.6c0.4,0,0.7-0.1,1-0.2s0.5-0.3,0.8-0.5
			l0.5,0.8c-0.2,0.2-0.5,0.4-0.9,0.6S305.5,256.7,305,256.7z M304.8,251.1c-0.4,0-0.7,0.2-1,0.5s-0.4,0.7-0.5,1.2l0,0h2.9v-0.2
			c0-0.5-0.1-0.8-0.4-1.1S305.3,251.1,304.8,251.1z"/>
		<path class="st42" d="M308.4,248.2v-0.7h2.1v8.2l1,0.2v0.7h-3.1v-0.7l1-0.2v-7.3L308.4,248.2z"/>
		<path class="st42" d="M315.2,256.7c-0.9,0-1.6-0.3-2.1-0.9s-0.8-1.4-0.8-2.3v-0.3c0-0.9,0.3-1.7,0.8-2.3s1.2-0.9,1.9-0.9
			c0.9,0,1.5,0.3,1.9,0.8s0.7,1.2,0.7,2.1v0.7h-4.1l0,0c0,0.6,0.2,1.1,0.5,1.5s0.7,0.6,1.2,0.6c0.4,0,0.7-0.1,1-0.2s0.5-0.3,0.8-0.5
			l0.5,0.8c-0.2,0.2-0.5,0.4-0.9,0.6S315.7,256.7,315.2,256.7z M315,251.1c-0.4,0-0.7,0.2-1,0.5s-0.4,0.7-0.5,1.2l0,0h2.9v-0.2
			c0-0.5-0.1-0.8-0.4-1.1S315.5,251.1,315,251.1z"/>
		<path class="st42" d="M321.6,255.8c0.4,0,0.7-0.1,1-0.4s0.4-0.5,0.4-0.9h1l0,0c0,0.5-0.2,1-0.7,1.5s-1.1,0.6-1.8,0.6
			c-0.9,0-1.6-0.3-2.1-0.9s-0.7-1.4-0.7-2.3v-0.2c0-0.9,0.2-1.7,0.7-2.3s1.2-0.9,2.1-0.9c0.5,0,1,0.1,1.4,0.3s0.7,0.4,1,0.7l0.1,1.4
			h-0.9l-0.3-1c-0.1-0.1-0.3-0.2-0.5-0.3s-0.5-0.1-0.7-0.1c-0.6,0-1,0.2-1.3,0.7s-0.4,1-0.4,1.6v0.2c0,0.6,0.1,1.2,0.4,1.6
			S321,255.8,321.6,255.8z"/>
		<path class="st42" d="M327.2,248.7v1.5h1.2v0.9h-1.2v3.8c0,0.3,0.1,0.5,0.2,0.6s0.3,0.2,0.5,0.2c0.1,0,0.2,0,0.3,0s0.2,0,0.3-0.1
			l0.2,0.8c-0.1,0.1-0.3,0.1-0.5,0.2s-0.4,0.1-0.6,0.1c-0.5,0-0.8-0.1-1.1-0.4s-0.4-0.7-0.4-1.3v-3.8h-1v-0.9h1v-1.5H327.2z"/>
		<path class="st42" d="M329.5,253.4c0-0.9,0.3-1.7,0.8-2.3s1.2-0.9,2.1-0.9c0.9,0,1.6,0.3,2.1,0.9s0.8,1.4,0.8,2.3v0.1
			c0,0.9-0.3,1.7-0.8,2.3s-1.2,0.9-2.1,0.9c-0.9,0-1.6-0.3-2.1-0.9s-0.8-1.4-0.8-2.3V253.4z M330.6,253.5c0,0.7,0.1,1.2,0.4,1.7
			s0.7,0.7,1.3,0.7c0.5,0,1-0.2,1.2-0.7s0.4-1,0.4-1.7v-0.1c0-0.7-0.1-1.2-0.4-1.7s-0.7-0.7-1.3-0.7s-1,0.2-1.3,0.7s-0.4,1-0.4,1.7
			V253.5z"/>
		<path class="st42" d="M336.2,251v-0.7h2l0.1,0.9c0.2-0.3,0.4-0.6,0.7-0.8s0.6-0.3,0.9-0.3c0.1,0,0.2,0,0.3,0s0.2,0,0.2,0l-0.2,1.1
			l-0.7,0c-0.3,0-0.6,0.1-0.8,0.2s-0.4,0.3-0.5,0.6v3.6l1,0.2v0.7h-3.1v-0.7l1-0.2v-4.5L336.2,251z"/>
	</g>
	<line class="st63" x1="258.9" y1="254.2" x2="189.5" y2="254.2"/>
	<g>
		<path class="st42" d="M309.7,105.4v-0.7l1-0.2v-6.7l-1-0.2v-0.7h1h1.2h1v0.7l-1,0.2v6.7h3l0.1-1h1v1.9H309.7z"/>
		<path class="st42" d="M321,105.4c0-0.2-0.1-0.3-0.1-0.5s0-0.3,0-0.4c-0.2,0.3-0.5,0.5-0.8,0.7s-0.7,0.3-1.1,0.3
			c-0.7,0-1.2-0.2-1.5-0.5s-0.5-0.8-0.5-1.4c0-0.6,0.2-1.1,0.7-1.4s1.2-0.5,2-0.5h1.2V101c0-0.4-0.1-0.7-0.4-0.9s-0.6-0.3-1-0.3
			c-0.3,0-0.5,0-0.8,0.1s-0.4,0.2-0.5,0.3l-0.1,0.7h-0.9v-1.2c0.3-0.2,0.6-0.4,1-0.6s0.9-0.2,1.3-0.2c0.7,0,1.3,0.2,1.7,0.6
			s0.7,0.9,0.7,1.6v3.1c0,0.1,0,0.2,0,0.2s0,0.2,0,0.2l0.5,0.1v0.7H321z M319.2,104.5c0.4,0,0.7-0.1,1-0.3s0.5-0.4,0.7-0.7v-1h-1.2
			c-0.5,0-0.8,0.1-1.1,0.3s-0.4,0.5-0.4,0.8c0,0.3,0.1,0.5,0.3,0.6S318.8,104.5,319.2,104.5z"/>
		<path class="st42" d="M329.3,102.4c0,0.9-0.2,1.7-0.7,2.2s-1,0.8-1.8,0.8c-0.4,0-0.8-0.1-1.1-0.2s-0.6-0.4-0.8-0.7l-0.1,0.8h-1
			v-8.2l-1-0.2v-0.7h2.1v3.6c0.2-0.3,0.4-0.5,0.7-0.6s0.6-0.2,1-0.2c0.8,0,1.4,0.3,1.8,0.9s0.7,1.4,0.7,2.5V102.4z M328.1,102.3
			c0-0.7-0.1-1.3-0.4-1.8s-0.7-0.7-1.2-0.7c-0.4,0-0.7,0.1-0.9,0.3s-0.4,0.4-0.6,0.7v2.8c0.1,0.3,0.3,0.5,0.6,0.7s0.5,0.3,0.9,0.3
			c0.5,0,0.9-0.2,1.2-0.6s0.4-0.9,0.4-1.5V102.3z"/>
		<path class="st42" d="M333.3,105.5c-0.9,0-1.6-0.3-2.1-0.9s-0.8-1.4-0.8-2.3V102c0-0.9,0.3-1.7,0.8-2.3s1.2-0.9,1.9-0.9
			c0.9,0,1.5,0.3,1.9,0.8s0.7,1.2,0.7,2.1v0.7h-4.1l0,0c0,0.6,0.2,1.1,0.5,1.5s0.7,0.6,1.2,0.6c0.4,0,0.7-0.1,1-0.2s0.5-0.3,0.8-0.5
			l0.5,0.8c-0.2,0.2-0.5,0.4-0.9,0.6S333.9,105.5,333.3,105.5z M333.2,99.8c-0.4,0-0.7,0.2-1,0.5s-0.4,0.7-0.5,1.2l0,0h2.9v-0.2
			c0-0.5-0.1-0.8-0.4-1.1S333.6,99.8,333.2,99.8z"/>
		<path class="st42" d="M336.7,97v-0.7h2.1v8.2l1,0.2v0.7h-3.1v-0.7l1-0.2v-7.3L336.7,97z"/>
	</g>
	<line class="st62" x1="307.3" y1="103" x2="278" y2="103"/>
</g>
<g id="Layer_14">
</g>
</svg>
