<svg viewBox="0 0 1200 900" xmlns="http://www.w3.org/2000/svg"><style>.sans-serif{font-family:-apple-system,BlinkMacSystemFont,'avenir next', avenir,'helvetica neue',helvetica,ubuntu,roboto,noto,'segoe ui',arial,sans-serif}</style><g fill="none" fill-rule="evenodd"><g transform="translate(276.000000, 212.000000)"><g transform="translate(0.000000, 43.399999)" fill-rule="nonzero"><path d="M280 7v28H0V7a7 7 0 0 1 7-7h266a7 7 0 0 1 7 7z" fill="#353535"></path><path fill="#A3A3A3" d="M9.8 8.4h5.6V14H9.8zm8.4 0h5.6V14h-5.6zm8.4 0h5.6V14h-5.6z"></path></g><text font-size="28" font-weight="bold" fill="#4A4A4A" class="sans-serif"><tspan x="0" y="25">Ingress</tspan></text><g transform="translate(0.000000, 237.999996)" fill-rule="nonzero"><path d="M280 7v28H0V7a7 7 0 0 1 7-7h266a7 7 0 0 1 7 7z" fill="#D2D2D2"></path><path fill="#A3A3A3" d="M9.8 8.4h5.6V14H9.8zm8.4 0h5.6V14h-5.6zm8.4 0h5.6V14h-5.6z"></path></g><g transform="translate(132.999998, 79.799999)" fill-rule="nonzero"><path fill="#9EEBCF" d="M9.8-1.4v159.6H5.6V-1.4z"></path><circle stroke="#9EEBCF" stroke-width="4.2" fill="#FFF" cx="7.7" cy="-2.1" r="9.1"></circle><path fill="#9EEBCF" d="M7.7 163.8L0 152.6h15.4z"></path></g><g transform="translate(0.000000, 272.999995)"><g transform="translate(132.999998, 0.000000)" fill-rule="nonzero"><path fill="#9EEBCF" d="M9.8-1.4V119H5.6V-1.4z"></path><circle stroke="#9EEBCF" stroke-width="4.2" fill="#FFF" cx="7.7" cy="-2.1" r="9.1"></circle><path fill="#9EEBCF" d="M7.7 124.6L0 113.4h15.4z"></path></g><g transform="translate(0.000000, 118.999998)"><path d="M280 236.695c0 1.494-.877 2.705-1.959 2.705H1.96c-1.083 0-1.96-1.21-1.96-2.705V7a7 7 0 0 1 7-7h266a7 7 0 0 1 7 7v229.695z" fill="#FF003C"></path><path d="M7 0h266a7 7 0 0 1 7 7v25.2H0V7a7 7 0 0 1 7-7z" fill="#CCC"></path><path d="M23.8 17.5a6.3 6.3 0 0 1-6.3 6.3 6.3 6.3 0 0 1-6.3-6.3 6.3 6.3 0 0 1 6.3-6.3 6.3 6.3 0 0 1 6.3 6.3" fill="#E74C3C"></path><path d="M46.2 17.5a6.3 6.3 0 0 1-6.3 6.3 6.3 6.3 0 0 1-6.3-6.3 6.3 6.3 0 0 1 6.3-6.3 6.3 6.3 0 0 1 6.3 6.3" fill="#F1C40F"></path><path d="M67.2 17.5a6.3 6.3 0 0 1-6.3 6.3 6.3 6.3 0 0 1-6.3-6.3 6.3 6.3 0 0 1 6.3-6.3 6.3 6.3 0 0 1 6.3 6.3" fill="#2ECC71"></path></g><text font-size="28" font-weight="bold" fill="#4A4A4A" class="sans-serif"><tspan x="0" y="99.2">Pod 5</tspan></text></g><text font-size="28" font-weight="bold" fill="#4A4A4A" class="sans-serif"><tspan x="0" y="218.2">Service</tspan></text></g><g transform="translate(326.000000, 56.000000)"><g transform="translate(65.099999, 119.699998)" fill="#B8E986"><path d="M25.2 91.7L0 46.2h50.4z"></path><path d="M18.2 0h14v79.1h-14z"></path></g><g fill-rule="nonzero"><path d="M0 119.7l.027-49.267a1.96 1.96 0 0 1 1.959-1.959h37.951c.784-.309.504-.505.392-.7-2.435-4.032-4.03-8.37-4.646-13.073-1.37-10.778 1.68-20.155 9.012-28.19.42-.447.84-.867 1.288-1.287.364-.364.364-.364.028-.7-1.148-1.091-2.183-2.295-3.05-3.639-1.96-3.107-3.051-6.494-3.135-10.189-.028-.924.167-1.036 1.007-.616.896.448 1.82.84 2.799 1.148.112-1.624-.084-2.967-.112-4.34 0-.503-.028-.979 0-1.483 0-.7.252-.867.867-.504.98.56 1.96 1.064 2.995 1.484.616.252.616.252.56-.42-.168-1.763-.196-3.527 0-5.29.168-.672.476-.784.7-.588.167.14.28.336.42.504 2.154 2.687 4.561 5.094 7.444 7.026 2.519 1.68 5.233 2.603 8.256 2.631 2.267.028 4.45-.448 6.549-1.26 1.96-.755 3.918-1.54 5.961-1.987 2.071-.448 4.17-.644 6.241-.14 3.527.868 5.906 3.135 7.389 6.382.56 1.232.867 2.52 1.063 3.863.084.504.084.504.616.476 3.079-.224 6.045.252 8.732 1.848 3.219 1.931 5.01 4.842 5.71 8.454.503 2.659.363 5.29-.057 7.95-.335 2.071-.895 4.114-1.567 6.102-.168.504-.28.476.336.7 3.135 1.063 5.094 3.219 5.653 6.466.784 4.451-2.07 8.398-6.213 9.378-.755.168-1.539.28-2.323.196-.336-.056-.447.112-.531.42a35.284 35.284 0 0 1-2.38 6.186 33.942 33.942 0 0 1-8.06 10.385c-.755.532-.811.84-.643 1.26.392 1.092.727 2.211 1.091 3.303 2.267 7.054 4.562 14.08 6.801 21.135.168.504.392.7.896.783 2.21.476 3.61 1.848 4.198 4.031.112.476.196.98.28 1.456.531-.308.755-.616 1.091-.896.952-.783 2.015-.951 3.163-.56 1.175.42 1.875 1.288 2.043 2.52.056.42.168.532.587.588 1.96.308 3.107 2.24 2.463 4.143-.168.475-.112.811.224 1.203.868 1.036 1.372 2.24 1.54 3.583.083.588 0 .588.643.588h11.559c0-1.175-.364-2.1-.56-3.107a11.787 11.787 0 0 0-3.079.588c-.503.168-.755.056-.84-.224-.083-.252.113-.448.589-.588.811-.252 1.623-.476 2.434-.728.812-.252.672-.056.672-.951.028-.42-.14-.476-.364-.476h-4.03c-.727-.028-.84-.168-.84-.392.532-.42.672-.392.84-.392h3.974c.364 0 .504-.112.56-.476.14-.952.168-.952-.784-1.232-.783-.252-1.595-.476-2.378-.7-.616-.251-.7-.42-.644-.615.616-.28.783-.224.98-.168.95.28 1.875.56 2.826.867 1.287-1.987 2.379-3.387 3.862-4.45.28-.196.336-.42.336-.728v-8.65c.056-.392.336-.532.672-.336 2.77 2.575 5.205 4.843 7.612 7.082.644.616.448.616 1.176.084a15.093 15.093 0 0 1 17.492 0c.671.476.475.588 1.203-.084l7.36-6.774c.225-.196.42-.532.784-.392.392.14.252.532.252.812v12.569c0 .811 0 .811.756.588.672-.196 1.315-.392 1.987-.588.951.392.896.588.644.671l-1.596.504-1.427.42c-.392.644-.392 1.064-.364 1.456 2.015.168 3.247.168 4.478.168.7.084.84.224.812.42-.504.392-.7.392-.868.392h-3.89c-.56 0-.588 0-.588.531 0 .868-.056.672.672.896.756.252 1.54.448 2.323.7.644.28.727.448.644.672-1.652-.084-2.407-.336-3.191-.56-.448 1.148-.448 1.96-.448 2.8 0 .307.084.475.42.447h12.09c.308 0 .616-.028.924.14v.532c-.7.168-.896.168-1.12.168H0z" fill="#151D38"></path><path d="M32.466 114.8v-.056h31.202c.732 0 .732 0 .732-.724V70.595c-.028-.753-.45-1.199-1.21-1.283-.253-.027-.506 0-.731 0H2.163C1.122 69.34.7 69.786.7 70.79v43.341c0 .641 0 .641.675.641h.479c10.185.028 20.398.028 30.612.028z" fill="#CCD6DA"></path><path d="M52.658 68.467h10.174c1.059 0 1.867.618 2.062 1.573.056.253.056.477.056.73v11.597c0 .646.056.618.557.674 4.098.505 8.14.28 12.125-.758 9.087-2.387 15.972-7.722 20.682-15.866 1.338-2.302 2.341-4.773 3.066-7.357.14-.505.14-.505-.334-.645l-.753-.253c-.474-.197-.613-.365-.53-.646.084-.309.335-.337.837-.168a7.463 7.463 0 0 0 4.07.365c4.124-.815 6.772-5.027 5.685-9.098-1.115-4.156-5.407-6.515-9.42-5.167-.196.056-.363.168-.558.196-.195.028-.335-.084-.418-.252-.084-.197-.028-.365.111-.478a.861.861 0 0 1 .362-.168c.307-.112.586-.197.892-.281.056-.028.14-.056.168-.112.055-.14-.084-.113-.168-.14-.111-.057-.25-.085-.39-.141-2.09-.73-4.097-1.657-5.937-2.892-3.345-2.19-5.937-5.055-7.61-8.733a21.731 21.731 0 0 1-1.616-5.476c-.083-.562-.111-.562-.585-.309a4.19 4.19 0 0 0-.474.281 49.754 49.754 0 0 1-7.693 3.707c-5.77 2.162-11.679 3.032-17.783 1.937-4.237-.758-8.195-2.274-11.651-4.942-.446-.337-.446-.337-.808.028-3.122 3.005-5.603 6.459-7.387 10.39-2.76 6.15-3.595 12.552-2.564 19.207.697 4.52 2.313 8.704 4.71 12.58.28.477.586.673 1.171.673 3.29-.084 6.606-.056 9.95-.056z" fill="#FAE0D6"></path><path d="M65.132 99.408v15.201c0 .337.084.478.448.478.756-.028 1.512 0 2.295 0 2.828 0 5.655-.028 8.454-.028.588 0 .644.084.644.676v2.758c0 .45-.056.507.448.507h10.805c.364 0 .448-.14.476-.45.112-1.014.42-1.999.952-2.872.196-.31.224-.59.084-.957-.588-1.745-1.148-3.519-1.708-5.264-1.371-4.279-2.771-8.557-4.143-12.836a2.778 2.778 0 0 1-.14-.45c-.056-.254.056-.45.308-.507.224-.057.392.056.476.253l.084.253 2.94 9.121a749.92 749.92 0 0 0 2.799 8.586c.168.478.168.506.532.169a7.273 7.273 0 0 1 3.555-1.943c.42-.112.448-.112.336-.535-.224-.929-.476-1.886-.672-2.815-.644-2.815 1.063-5.714 3.835-6.446.168-.056.364-.056.532-.112.196-.029.28-.141.196-.338a1.012 1.012 0 0 0-.112-.31c-2.184-6.812-4.395-13.653-6.579-20.465a199.771 199.771 0 0 0-1.231-3.8c-.084-.282-.224-.394-.448-.14-.084.084-.168.14-.28.196-1.848 1.38-3.835 2.59-5.935 3.547-4.087 1.886-8.398 2.956-12.904 3.125-1.904.084-3.807.056-5.683-.225-.308-.057-.42.056-.392.337v.535c.028 4.926.028 9.853.028 14.75z" fill="#FFF3A2"></path><path d="M154.44 118.943h12.26c.586 0 .586 0 .586-.594V97.634c0-.113.056-.254-.056-.31-.167-.086-.223.084-.335.169-1.508 1.415-3.016 2.802-4.552 4.216-.921.85-1.843 1.727-2.765 2.576-.39.368-.446.34-.865.056-.14-.085-.252-.198-.363-.283-2.206-1.67-4.664-2.66-7.4-2.858-3.659-.283-6.982.736-9.914 3-.643.51-.643.51-1.23-.029a.374.374 0 0 0-.11-.084c-2.207-2.095-4.441-4.189-6.675-6.283-.168-.17-.335-.48-.559-.396-.167.085-.083.396-.083.623v7.329c0 .34-.028.623-.391.849-4.022 2.745-4.971 8.093-2.625 12.225.223.396.474.566.95.566 2.96-.028 5.947 0 8.908-.028.195 0 .474.085.558-.085.084-.17-.195-.311-.335-.453-1.452-1.585-1.899-3.424-1.285-5.462.615-2.037 2.039-3.254 4.05-3.735.418-.113.837-.17 1.256-.113.224.028.363.17.363.424 0 .198-.111.34-.335.368-.251.028-.475.057-.726.085-1.927.255-3.574 1.726-3.965 3.622a4.693 4.693 0 0 0 2.094 4.98 2.6 2.6 0 0 0 1.396.397c4.133-.085 8.155-.057 12.148-.057z" fill="#C27659"></path><path d="M32.517 115.53c-5.71.024-11.42.024-17.13.024H1.097c-.281 0-.422.1-.393.35v1.497c0 .899 0 .899 1.012.899 8.017 0 16.062 0 24.079-.025 12.517 0 25.006-.025 37.524-.025h.534c.394-.025.534-.15.534-.5.029-.648 0-1.272 0-1.921 0-.275-.14-.35-.421-.325h-.479c-2.981 0-5.935.025-8.917.025H32.517zm69.656 3.442h12.29c.25.028.36-.057.333-.342a6.6 6.6 0 0 0-1.274-3.243c-.11-.17-.221-.142-.276.057-.028.085-.056.17-.111.256-.914 1.963-3.184 2.503-4.844 1.138-.305-.256-.499-.313-.859-.142-1.024.426-1.993.284-2.906-.342-.97-.683-1.412-1.65-1.329-2.873.028-.427 0-.455-.36-.342-.858.228-1.66.143-2.436-.313-.194-.113-.36-.113-.581-.113-1.274 0-2.575-.029-3.848 0-2.934.057-5.453 2.133-6.2 5.064a5.568 5.568 0 0 0-.167.939c-.027.199.056.284.25.284h.525c3.959-.028 7.89-.028 11.793-.028z" fill="#CCD6DA"></path><path d="M97.305 111.501h1.531c.203 0 .318-.054.232-.27-.578-1.49-.665-3.086-1.012-4.629-.087-.351.058-.568.318-.622.26-.054.433.108.52.46.087.352.145.73.202 1.083.174.92.318 1.84.52 2.733.29 1.218 1.474 1.922 2.775 1.705 1.271-.243 2.08-1.326 1.878-2.544-.173-1.055-.347-2.084-.607-3.112-.549-2.3-3.005-3.762-5.461-3.33-2.341.407-4.046 2.707-3.641 4.954.202 1.082.549 2.138.809 3.22.057.244.202.352.49.352h1.446zm6.995 2.352c.057.787.315 1.404.944 1.854 1.316.955 3.089.477 3.661-1.04a210.837 210.837 0 0 0 1.573-4.521c.057-.169.086-.337.115-.534.085-1.096-.573-2.079-1.66-2.416-1.058-.309-2.23.14-2.745 1.124-.343.674-.63 1.404-.744 2.163a4.486 4.486 0 0 1-.543 1.572 4.46 4.46 0 0 0-.601 1.798z" fill="#FAE0D6"></path><path d="M70.586 118.3v-.025h5.231c.284-.025.483-.126.483-.404v-2.119c0-.176-.114-.252-.313-.252h-6.936c-1.165 0-2.33.025-3.468.025-.34 0-.483.101-.483.404.028.63 0 1.261 0 1.866 0 .48 0 .505.569.505h4.917z" fill="#CCD6DA"></path><path d="M113.4 112.978c0-1.253-.806-2.151-2.03-2.342-.537-.082-.596-.055-.775.409-.329.871-.627 1.743-.955 2.587-.299.763-.448 1.607-1.045 2.26-.209.219-.03.355.12.491 1.253.954 3.163.545 3.82-.871.298-.654.537-1.335.775-2.016.09-.218.09-.436.09-.518z" fill="#FAE0D6"></path><path d="M40.588 92.543c-.222 3.405-2.33 5.944-5.437 6.67-3.994.949-7.933-1.814-8.488-5.916-.472-3.46 1.747-6.977 5.353-7.814.777-.168.833-.14.944.642.471 2.65 2.246 4.604 4.826 5.19.61.14 1.22.168 1.859.112.832-.084.915 0 .943.837.027.14 0 .28 0 .28z" fill="#151D38"></path><path d="M33.723 98.7a8.85 8.85 0 0 0 1.556-.23c2.518-.688 4.498-3.097 4.611-5.677.029-.574.029-.574-.509-.574-3.367.057-6.309-2.237-7.073-5.563-.17-.746-.254-.574-.707-.43-2.914.975-4.725 4.014-4.215 7.14.48 3.04 3.168 5.362 6.337 5.334z" fill="#FFF"></path><path d="M64.27 42.955h9.22c1.413 0 2.825.057 4.237.085.665.029.83.256.526.823-2.077 3.942-5.123 6.693-9.47 7.63-4.375.935-8.224-.284-11.52-3.376-1.3-1.22-2.297-2.694-3.1-4.31-.083-.171-.167-.313-.222-.483-.11-.34 0-.51.36-.596.139-.028.277-.028.388-.028l8.168.085c.471 0 .914.057 1.385.057.028.057.028.085.028.113z" fill="#151D38"></path><path d="M66.551 43.508h-2.502c-1.04 0-2.052 0-3.092-.054-1.77-.054-3.542-.054-5.313-.054-.393 0-.422.027-.225.351a12.728 12.728 0 0 0 2.699 3.377c3.092 2.702 6.69 3.81 10.794 3.026 3.767-.73 6.522-2.837 8.546-5.917.365-.567.365-.594-.337-.594-3.514-.054-7.056-.108-10.57-.135z" fill="#FFF"></path><path d="M39.9 47.25c0-2.288 1.716-4.522 4.577-4.55C46.984 42.673 49 44.744 49 47.25a4.523 4.523 0 0 1-4.55 4.55c-2.507-.027-4.55-2.043-4.55-4.55zm53.893.714c.11 2.186-1.775 4.509-4.533 4.536-2.512 0-4.533-2.022-4.56-4.536 0-2.568 1.993-4.563 4.56-4.563 2.704-.055 4.67 2.268 4.533 4.563z" fill="#E5384A"></path><path d="M50.735 37.1c1.382 0 2.494 1.082 2.464 2.465 0 1.353-1.082 2.435-2.404 2.435-1.383 0-2.495-1.082-2.495-2.465 0-1.323 1.082-2.405 2.435-2.435zm31.53.7c1.383 0 2.435 1.083 2.435 2.495-.03 1.352-1.112 2.434-2.465 2.404-1.322 0-2.434-1.112-2.434-2.434a2.402 2.402 0 0 1 2.464-2.464zM107.8 50.442c-.028 2.847-2.946 4.853-5.724 3.931-.084-.027-.168-.054-.252-.108-.281-.108-.393-.298-.281-.57.084-.243.337-.27.561-.216.14.027.309.108.449.135 1.936.515 3.956-.678 4.349-2.549.393-1.925-.954-3.741-2.946-4.012-.168-.028-.365-.055-.533-.082-.197-.027-.309-.19-.309-.38 0-.243.14-.352.365-.379.14-.027.309 0 .477 0 2.216.244 3.872 2.06 3.844 4.23zM66.498 36.88c0 .198-.156.312-.338.397a48.08 48.08 0 0 1-1.664.91c-.234.113-.286.227-.052.397.468.341.91.71 1.378 1.052.13.085.234.17.338.284.13.142.13.34.026.511-.104.17-.26.2-.442.142a.533.533 0 0 1-.26-.17c-.702-.54-1.43-1.08-2.132-1.648-.494-.398-.468-.682.078-.995.78-.454 1.586-.88 2.392-1.307.39-.142.702 0 .676.426zM44.8 38.447c.08-2.029 1.407-3.71 3.292-4.086.213-.058.425-.087.638-.03.159.03.265.174.265.348.027.203-.053.377-.239.435a3.815 3.815 0 0 1-.558.116c-1.433.319-2.39 1.478-2.548 3.043-.027.174-.027.318-.027.492-.026.261-.133.435-.398.435-.266 0-.372-.203-.398-.464-.027-.087-.027-.174-.027-.29zm42.7-.015c0 .114 0 .313-.027.483-.055.2-.192.285-.384.285s-.329-.114-.356-.313c-.027-.142 0-.284-.027-.398-.082-1.679-1.15-2.96-2.74-3.272-.081-.029-.164-.029-.246-.057-.274-.057-.465-.2-.41-.512.054-.313.3-.37.547-.342a4.098 4.098 0 0 1 2.41 1.139c.767.825 1.178 1.792 1.233 2.987zm62.062 78.462c-1.05-.03-1.76-.331-2.3-1.053-.226-.27-.312-.27-.539 0-.993 1.173-2.441 1.383-3.605.572-.397-.271-.71-.662-.937-1.113-.113-.24-.142-.541.142-.692.284-.15.454 0 .596.271.085.18.199.36.341.541.937 1.053 2.583.722 3.094-.601.114-.3.142-.481-.227-.571-.51-.15-.823-.572-1.164-.963a1.042 1.042 0 0 1-.255-.57c-.085-.422.057-.692.482-.692a72.06 72.06 0 0 1 3.606 0c.397 0 .54.27.426.691-.17.692-.682 1.053-1.193 1.413-.17.12-.454.09-.51.301-.058.27.113.541.283.782.767 1.112 2.3 1.112 3.094 0 .086-.12.17-.3.256-.421.142-.21.34-.24.54-.15.198.12.255.33.17.54-.17.422-.426.783-.767 1.083-.51.421-1.079.662-1.533.632zm9.338-7.694c1.2 0 2.1.93 2.1 2.1 0 1.2-.96 2.13-2.16 2.1-1.17-.03-2.07-.96-2.04-2.16-.03-1.17.9-2.07 2.1-2.04zm-24.515 4.2c-1.162 0-2.085-.894-2.085-2.085 0-1.192.864-2.085 2.055-2.115 1.222 0 2.145.894 2.145 2.085-.03 1.192-.923 2.115-2.115 2.115z" fill="#151D38"></path></g><text font-size="14" font-weight="bold" fill="#7DA159" class="sans-serif"><tspan x="107.1" y="139.7">Incoming</tspan> <tspan x="107.1" y="155.7">traffic</tspan></text></g><text font-size="39" font-weight="bold" fill="#000" class="sans-serif"><tspan x="616.2" y="658.4">containerPort</tspan></text><text font-size="39" font-weight="bold" fill="#000" class="sans-serif"><tspan x="616.2" y="510">targetPort</tspan></text><text font-size="39" font-weight="bold" fill="#000" class="sans-serif"><tspan x="616.2" y="449.8">port</tspan></text><text font-size="28" font-weight="bold" fill="#D1D1D6" class="sans-serif"><tspan x="616.2" y="245.4">port: 80</tspan></text><rect fill-opacity="0.23" fill="#F5A623" x="192" y="467" width="815" height="224" rx="5"></rect><text font-size="28" font-weight="bold" fill="#995A01" class="sans-serif"><tspan x="1037.39" y="579">SHOULD</tspan> <tspan x="1045.955" y="610">MATCH</tspan></text></g></svg>