<svg width="49" height="49" xmlns="http://www.w3.org/2000/svg">

 <g>
  <title>background</title>
  <rect fill="none" id="canvas_background" height="402" width="582" y="-1" x="-1"/>
 </g>
 <g>
  <title>Layer 1</title>
  <path id="svg_1" fill="rgb(91,130,253)" d="m37.81,26.14c0,0 -5.19,-6.61 -5.19,-6.61c1.84,-1.89 2.96,-4.37 3.14,-7c0,0 8.04,0 8.04,0c0,0 0,0.88 0,0.88c-1.86,0.38 -3.2,2.02 -3.2,3.92c0,2.2 1.79,3.99 4,3.99c2.21,0 4,-1.79 4,-4c0,-1.9 -1.34,-3.53 -3.2,-3.91c0,0 0,-1.68 0,-1.68c0,-0.44 -0.36,-0.8 -0.8,-0.8c0,0 -8.84,0 -8.84,0c-0.15,-2.22 -0.97,-4.34 -2.34,-6.08c0,0 1.11,-1.12 1.11,-1.12c0,0 9.42,0 9.42,0c0.44,1.25 1.81,1.9 3.06,1.46c1.25,-0.44 1.9,-1.81 1.46,-3.06c-0.44,-1.25 -1.81,-1.9 -3.06,-1.46c-0.69,0.24 -1.22,0.78 -1.46,1.46c0,0 -9.75,0 -9.75,0c-0.21,0 -0.41,0.09 -0.56,0.24c0,0 -1.29,1.29 -1.29,1.29c-4.45,-4.28 -11.52,-4.15 -15.8,0.29c-1.82,1.89 -2.91,4.36 -3.09,6.98c0,0 -6.72,0 -6.72,0c0,0 -2.61,-5.88 -2.61,-5.88c1.16,-0.62 1.61,-2.06 1,-3.23c-0.62,-1.17 -2.06,-1.62 -3.23,-1c-1.17,0.61 -1.62,2.06 -1,3.23c0.32,0.61 0.89,1.05 1.57,1.21c0,0 3.02,6.79 3.02,6.79c0.13,0.29 0.41,0.48 0.73,0.48c0,0 7.24,0 7.24,0c0.18,2.6 1.27,5.06 3.08,6.94c0,0 -6.75,6.75 -6.75,6.75c-4.37,-0.66 -8.43,2.35 -9.09,6.72c-0.65,4.36 2.36,8.43 6.72,9.08c0.13,0.02 0.26,0.04 0.4,0.05c0,0 0,4.04 0,4.04c0,0.44 0.36,0.8 0.8,0.8c0,0 7.34,0 7.34,0c0.44,1.25 1.81,1.91 3.06,1.46c1.25,-0.44 1.91,-1.81 1.46,-3.06c-0.44,-1.25 -1.81,-1.9 -3.06,-1.46c-0.68,0.24 -1.22,0.78 -1.46,1.46c0,0 -6.54,0 -6.54,0c0,0 0,-3.24 0,-3.24c4.39,-0.43 7.59,-4.35 7.16,-8.74c-0.3,-2.97 -2.23,-5.53 -5,-6.64c0,0 6.15,-6.15 6.15,-6.15c4.01,3.15 9.66,3.18 13.69,0.05c0,0 4.44,5.65 4.44,5.65c-6.13,0.85 -10.4,6.51 -9.55,12.64c0.86,6.12 6.52,10.4 12.64,9.54c6.13,-0.85 10.4,-6.51 9.54,-12.64c-0.75,-5.38 -5.25,-9.44 -10.68,-9.64zm9.19,-8.81c0,1.32 -1.08,2.39 -2.4,2.39c-1.33,0 -2.4,-1.07 -2.4,-2.39c0,-1.33 1.07,-2.4 2.4,-2.4c1.32,0 2.4,1.07 2.4,2.4zm-0.8,-15.2c0.44,0 0.8,0.36 0.8,0.8c0,0.44 -0.36,0.8 -0.8,0.8c-0.44,0 -0.8,-0.36 -0.8,-0.8c0,-0.44 0.36,-0.8 0.8,-0.8zm-43.18,1.6c-0.44,0 -0.8,-0.36 -0.8,-0.8c0,-0.44 0.36,-0.8 0.8,-0.8c0.44,0 0.8,0.36 0.8,0.8c0,0.44 -0.36,0.8 -0.8,0.8zm15.19,41.58c0.44,0 0.8,0.36 0.8,0.8c0,0.44 -0.36,0.8 -0.8,0.8c-0.44,0 -0.8,-0.36 -0.8,-0.8c0,-0.44 0.36,-0.8 0.8,-0.8zm-6.39,-5.66c-1.98,1.15 -4.43,1.15 -6.4,0c0,0 0,-1.53 0,-1.53c0,-1.77 1.43,-3.2 3.2,-3.2c1.76,0 3.2,1.43 3.2,3.2c0,0 0,1.53 0,1.53zm-4.8,-7.93c0,-0.88 0.71,-1.6 1.6,-1.6c0.88,0 1.6,0.72 1.6,1.6c0,0.88 -0.72,1.6 -1.6,1.6c-0.89,0 -1.6,-0.72 -1.6,-1.6zm6.39,-1.85c1.04,1.17 1.61,2.69 1.6,4.25c0,1.55 -0.57,3.05 -1.6,4.22c0,0 0,-0.22 0,-0.22c0,-1.75 -0.95,-3.36 -2.48,-4.2c1.22,-1.28 1.17,-3.31 -0.11,-4.53c-1.27,-1.22 -3.3,-1.17 -4.52,0.11c-1.18,1.23 -1.18,3.18 0,4.42c-1.53,0.84 -2.48,2.45 -2.48,4.2c0,0 0,0.22 0,0.22c-2.34,-2.65 -2.08,-6.7 0.57,-9.03c2.65,-2.34 6.69,-2.09 9.02,0.56zm16.8,-10.37c-3.34,2.43 -7.86,2.43 -11.2,0c0,0 0,-1.93 0,-1.93c0,-1.46 1.18,-2.64 2.64,-2.64c0,0 1.78,0 1.78,0c0,0 -1.16,2.9 -1.16,2.9c-0.12,0.29 -0.05,0.63 0.17,0.86c0,0 1.6,1.6 1.6,1.6c0.31,0.31 0.82,0.31 1.13,0c0,0 1.6,-1.6 1.6,-1.6c0.23,-0.23 0.3,-0.57 0.18,-0.86c0,0 -1.16,-2.9 -1.16,-2.9c0,0 1.78,0 1.78,0c1.45,0 2.64,1.18 2.64,2.64c0,0 0,1.93 0,1.93c0,0 0,0 0,0zm-5.49,-12.98c-0.03,0.05 -0.05,0.1 -0.07,0.16c-0.4,1.21 -2.59,1.67 -4,1.8c0.22,-2.68 1.48,-3.95 3.96,-3.95c2.27,0 3.52,1.07 3.87,3.31c0,0 -2.66,-1.6 -2.66,-1.6c-0.38,-0.22 -0.87,-0.1 -1.1,0.28zm0.99,1.52c0,0 2.86,1.72 2.86,1.72c-0.32,1.96 -2.73,3.57 -3.96,3.57c-1.78,-0.31 -3.27,-1.54 -3.89,-3.24c1.37,-0.12 3.84,-0.53 4.99,-2.05zm-0.44,9.89c0,0 -0.66,0.66 -0.66,0.66c0,0 -0.66,-0.66 -0.66,-0.66c0,0 0.66,-1.65 0.66,-1.65c0,0 0.66,1.65 0.66,1.65zm2.83,-4.57c1.24,-0.98 2.01,-2.45 2.11,-4.03c0,-5.29 -3.05,-6.4 -5.6,-6.4c-2.55,0 -5.6,1.11 -5.6,6.4c0.09,1.58 0.86,3.05 2.11,4.04c-2.12,0.26 -3.71,2.06 -3.71,4.2c0,0 0,0.48 0,0.48c-3.5,-3.97 -3.12,-10.04 0.85,-13.54c3.98,-3.51 10.04,-3.13 13.54,0.85c3.2,3.62 3.2,9.06 0,12.69c0,0 0,-0.48 0,-0.48c0.01,-2.14 -1.58,-3.95 -3.7,-4.21zm14.9,31.73c-3.34,2.43 -7.86,2.43 -11.2,0c0,0 0,-1.94 0,-1.94c0,-1.45 1.19,-2.63 2.64,-2.63c0,0 1.78,0 1.78,0c0,0 -1.16,2.9 -1.16,2.9c-0.12,0.29 -0.05,0.63 0.18,0.86c0,0 1.59,1.6 1.59,1.6c0.32,0.31 0.82,0.31 1.14,0c0,0 1.59,-1.6 1.59,-1.6c0.23,-0.23 0.3,-0.57 0.18,-0.86c0,0 -1.16,-2.9 -1.16,-2.9c0,0 1.78,0 1.78,0c1.46,0 2.64,1.18 2.64,2.63c0,0 0,1.94 0,1.94zm-4.5,-11.46c0,0 0,0 0,0c0,0 2.86,1.72 2.86,1.72c-0.32,1.96 -2.73,3.57 -3.96,3.57c-1.78,-0.31 -3.27,-1.54 -3.88,-3.24c1.36,-0.12 3.84,-0.53 4.98,-2.05zm-5.05,0.44c0,0 0,0 0,0c0.21,-2.68 1.47,-3.95 3.95,-3.95c2.27,0 3.52,1.07 3.88,3.31c0,0 -2.67,-1.6 -2.67,-1.6c-0.38,-0.22 -0.87,-0.1 -1.09,0.28c-0.03,0.05 -0.06,0.1 -0.08,0.16c-0.4,1.21 -2.59,1.67 -3.99,1.8zm4.61,9.45c0,0 -0.66,0.66 -0.66,0.66c0,0 -0.66,-0.66 -0.66,-0.66c0,0 0.66,-1.65 0.66,-1.65c0,0 0.66,1.65 0.66,1.65zm6.54,0.12c0,0 0,-0.49 0,-0.49c0,-2.13 -1.59,-3.94 -3.71,-4.2c1.25,-0.98 2.02,-2.45 2.11,-4.03c0,-5.29 -3.05,-6.4 -5.6,-6.4c-2.55,0 -5.6,1.11 -5.6,6.4c0.1,1.58 0.87,3.05 2.11,4.03c-2.12,0.27 -3.71,2.07 -3.7,4.2c0,0 0,0.49 0,0.49c-3.5,-3.98 -3.11,-10.04 0.87,-13.53c3.97,-3.5 10.03,-3.11 13.53,0.87c1.54,1.75 2.39,4 2.39,6.34c0,2.33 -0.86,4.58 -2.4,6.32z"/>
  <rect id="svg_2" height="54" width="50" y="0" x="0.5" stroke-width="1.5" stroke="#000" fill="#fff"/>
  <rect id="svg_3" height="82" width="81" y="-7" x="-4.5" stroke-width="1.5" stroke="#000" fill="#939b9b"/>
  <rect id="svg_4" height="1" width="1" y="114" x="164.5" stroke-width="1.5" stroke="#000" fill="#939b9b"/>
  <path stroke="#000" id="svg_5" d="m14.4225,21.489941l5.564943,-5.564941l7.870116,0l5.564943,5.564941l0,7.870115l-5.564943,5.564942l-7.870116,0l-5.564943,-5.564942l0,-7.870115z" stroke-width="1.5" fill="#939b9b"/>
 </g>
</svg>