<?xml version="1.0" encoding="utf-8"?>
<svg xmlns="http://www.w3.org/2000/svg"
	xmlns:xlink="http://www.w3.org/1999/xlink"
	width="49px" height="49px" viewBox="0 0 49 49">
<path fillRule="evenodd" d="M 37.81 26.14C 37.81 26.14 32.62 19.53 32.62 19.53 34.46 17.64 35.58 15.16 35.76 12.53 35.76 12.53 43.8 12.53 43.8 12.53 43.8 12.53 43.8 13.41 43.8 13.41 41.94 13.79 40.6 15.43 40.6 17.33 40.6 19.53 42.39 21.32 44.6 21.32 46.81 21.32 48.6 19.53 48.6 17.32 48.6 15.42 47.26 13.79 45.4 13.41 45.4 13.41 45.4 11.73 45.4 11.73 45.4 11.29 45.04 10.93 44.6 10.93 44.6 10.93 35.76 10.93 35.76 10.93 35.61 8.71 34.79 6.59 33.42 4.85 33.42 4.85 34.53 3.73 34.53 3.73 34.53 3.73 43.95 3.73 43.95 3.73 44.39 4.98 45.76 5.63 47.01 5.19 48.26 4.75 48.91 3.38 48.47 2.13 48.03 0.88 46.66 0.23 45.41 0.67 44.72 0.91 44.19 1.45 43.95 2.13 43.95 2.13 34.2 2.13 34.2 2.13 33.99 2.13 33.79 2.22 33.64 2.37 33.64 2.37 32.35 3.66 32.35 3.66 27.9-0.62 20.83-0.49 16.55 3.95 14.73 5.84 13.64 8.31 13.46 10.93 13.46 10.93 6.74 10.93 6.74 10.93 6.74 10.93 4.13 5.05 4.13 5.05 5.29 4.43 5.74 2.99 5.13 1.82 4.51 0.65 3.07 0.2 1.9 0.82 0.73 1.43 0.28 2.88 0.9 4.05 1.22 4.66 1.79 5.1 2.47 5.26 2.47 5.26 5.49 12.05 5.49 12.05 5.62 12.34 5.9 12.53 6.22 12.53 6.22 12.53 13.46 12.53 13.46 12.53 13.64 15.13 14.73 17.59 16.54 19.47 16.54 19.47 9.79 26.22 9.79 26.22 5.42 25.56 1.36 28.57 0.7 32.94 0.05 37.3 3.06 41.37 7.42 42.02 7.55 42.04 7.68 42.06 7.82 42.07 7.82 42.07 7.82 46.11 7.82 46.11 7.82 46.55 8.18 46.91 8.62 46.91 8.62 46.91 15.96 46.91 15.96 46.91 16.4 48.16 17.77 48.82 19.02 48.37 20.27 47.93 20.93 46.56 20.48 45.31 20.04 44.06 18.67 43.41 17.42 43.85 16.74 44.09 16.2 44.63 15.96 45.31 15.96 45.31 9.42 45.31 9.42 45.31 9.42 45.31 9.42 42.07 9.42 42.07 13.81 41.64 17.01 37.72 16.58 33.33 16.28 30.36 14.35 27.8 11.58 26.69 11.58 26.69 17.73 20.54 17.73 20.54 21.74 23.69 27.39 23.72 31.42 20.59 31.42 20.59 35.86 26.24 35.86 26.24 29.73 27.09 25.46 32.75 26.31 38.88 27.17 45 32.83 49.28 38.95 48.42 45.08 47.57 49.35 41.91 48.49 35.78 47.74 30.4 43.24 26.34 37.81 26.14ZM 47 17.33C 47 18.65 45.92 19.72 44.6 19.72 43.27 19.72 42.2 18.65 42.2 17.33 42.2 16 43.27 14.93 44.6 14.93 45.92 14.93 47 16 47 17.33ZM 46.2 2.13C 46.64 2.13 47 2.49 47 2.93 47 3.37 46.64 3.73 46.2 3.73 45.76 3.73 45.4 3.37 45.4 2.93 45.4 2.49 45.76 2.13 46.2 2.13ZM 3.02 3.73C 2.58 3.73 2.22 3.37 2.22 2.93 2.22 2.49 2.58 2.13 3.02 2.13 3.46 2.13 3.82 2.49 3.82 2.93 3.82 3.37 3.46 3.73 3.02 3.73ZM 18.21 45.31C 18.65 45.31 19.01 45.67 19.01 46.11 19.01 46.55 18.65 46.91 18.21 46.91 17.77 46.91 17.41 46.55 17.41 46.11 17.41 45.67 17.77 45.31 18.21 45.31ZM 11.82 39.65C 9.84 40.8 7.39 40.8 5.42 39.65 5.42 39.65 5.42 38.12 5.42 38.12 5.42 36.35 6.85 34.92 8.62 34.92 10.38 34.92 11.82 36.35 11.82 38.12 11.82 38.12 11.82 39.65 11.82 39.65ZM 7.02 31.72C 7.02 30.84 7.73 30.12 8.62 30.12 9.5 30.12 10.22 30.84 10.22 31.72 10.22 32.6 9.5 33.32 8.62 33.32 7.73 33.32 7.02 32.6 7.02 31.72ZM 13.41 29.87C 14.45 31.04 15.02 32.56 15.01 34.12 15.01 35.67 14.44 37.17 13.41 38.34 13.41 38.34 13.41 38.12 13.41 38.12 13.41 36.37 12.46 34.76 10.93 33.92 12.15 32.64 12.1 30.61 10.82 29.39 9.55 28.17 7.52 28.22 6.3 29.5 5.12 30.73 5.12 32.68 6.3 33.92 4.77 34.76 3.82 36.37 3.82 38.12 3.82 38.12 3.82 38.34 3.82 38.34 1.48 35.69 1.74 31.64 4.39 29.31 7.04 26.97 11.08 27.22 13.41 29.87ZM 30.21 19.5C 26.87 21.93 22.35 21.93 19.01 19.5 19.01 19.5 19.01 17.57 19.01 17.57 19.01 16.11 20.19 14.93 21.65 14.93 21.65 14.93 23.43 14.93 23.43 14.93 23.43 14.93 22.27 17.83 22.27 17.83 22.15 18.12 22.22 18.46 22.44 18.69 22.44 18.69 24.04 20.29 24.04 20.29 24.35 20.6 24.86 20.6 25.17 20.29 25.17 20.29 26.77 18.69 26.77 18.69 27 18.46 27.07 18.12 26.95 17.83 26.95 17.83 25.79 14.93 25.79 14.93 25.79 14.93 27.57 14.93 27.57 14.93 29.02 14.93 30.21 16.11 30.21 17.57 30.21 17.57 30.21 19.5 30.21 19.5 30.21 19.5 30.21 19.5 30.21 19.5ZM 24.72 6.52C 24.69 6.57 24.67 6.62 24.65 6.68 24.25 7.89 22.06 8.35 20.65 8.48 20.87 5.8 22.13 4.53 24.61 4.53 26.88 4.53 28.13 5.6 28.48 7.84 28.48 7.84 25.82 6.24 25.82 6.24 25.44 6.02 24.95 6.14 24.72 6.52ZM 25.71 8.04C 25.71 8.04 28.57 9.76 28.57 9.76 28.25 11.72 25.84 13.33 24.61 13.33 22.83 13.02 21.34 11.79 20.72 10.09 22.09 9.97 24.56 9.56 25.71 8.04ZM 25.27 17.93C 25.27 17.93 24.61 18.59 24.61 18.59 24.61 18.59 23.95 17.93 23.95 17.93 23.95 17.93 24.61 16.28 24.61 16.28 24.61 16.28 25.27 17.93 25.27 17.93ZM 28.1 13.36C 29.34 12.38 30.11 10.91 30.21 9.33 30.21 4.04 27.16 2.93 24.61 2.93 22.06 2.93 19.01 4.04 19.01 9.33 19.1 10.91 19.87 12.38 21.12 13.37 19 13.63 17.41 15.43 17.41 17.57 17.41 17.57 17.41 18.05 17.41 18.05 13.91 14.08 14.29 8.01 18.26 4.51 22.24 1 28.3 1.38 31.8 5.36 35 8.98 35 14.42 31.8 18.05 31.8 18.05 31.8 17.57 31.8 17.57 31.81 15.43 30.22 13.62 28.1 13.36ZM 43 45.09C 39.66 47.52 35.14 47.52 31.8 45.09 31.8 45.09 31.8 43.15 31.8 43.15 31.8 41.7 32.99 40.52 34.44 40.52 34.44 40.52 36.22 40.52 36.22 40.52 36.22 40.52 35.06 43.42 35.06 43.42 34.94 43.71 35.01 44.05 35.24 44.28 35.24 44.28 36.83 45.88 36.83 45.88 37.15 46.19 37.65 46.19 37.97 45.88 37.97 45.88 39.56 44.28 39.56 44.28 39.79 44.05 39.86 43.71 39.74 43.42 39.74 43.42 38.58 40.52 38.58 40.52 38.58 40.52 40.36 40.52 40.36 40.52 41.82 40.52 43 41.7 43 43.15 43 43.15 43 45.09 43 45.09ZM 38.5 33.63C 38.5 33.63 38.5 33.63 38.5 33.63 38.5 33.63 41.36 35.35 41.36 35.35 41.04 37.31 38.63 38.92 37.4 38.92 35.62 38.61 34.13 37.38 33.52 35.68 34.88 35.56 37.36 35.15 38.5 33.63ZM 33.45 34.07C 33.45 34.07 33.45 34.07 33.45 34.07 33.66 31.39 34.92 30.12 37.4 30.12 39.67 30.12 40.92 31.19 41.28 33.43 41.28 33.43 38.61 31.83 38.61 31.83 38.23 31.61 37.74 31.73 37.52 32.11 37.49 32.16 37.46 32.21 37.44 32.27 37.04 33.48 34.85 33.94 33.45 34.07ZM 38.06 43.52C 38.06 43.52 37.4 44.18 37.4 44.18 37.4 44.18 36.74 43.52 36.74 43.52 36.74 43.52 37.4 41.87 37.4 41.87 37.4 41.87 38.06 43.52 38.06 43.52ZM 44.6 43.64C 44.6 43.64 44.6 43.15 44.6 43.15 44.6 41.02 43.01 39.21 40.89 38.95 42.14 37.97 42.91 36.5 43 34.92 43 29.63 39.95 28.52 37.4 28.52 34.85 28.52 31.8 29.63 31.8 34.92 31.9 36.5 32.67 37.97 33.91 38.95 31.79 39.22 30.2 41.02 30.21 43.15 30.21 43.15 30.21 43.64 30.21 43.64 26.71 39.66 27.1 33.6 31.08 30.11 35.05 26.61 41.11 27 44.61 30.98 46.15 32.73 47 34.98 47 37.32 47 39.65 46.14 41.9 44.6 43.64Z" fill="rgb(91,130,253)"/></svg>