<?xml version="1.0" encoding="utf-8"?>
<svg xmlns="http://www.w3.org/2000/svg"
	xmlns:xlink="http://www.w3.org/1999/xlink"
	width="48px" height="47px" viewBox="0 0 48 47">
<path fillRule="evenodd" d="M 47.2 40.01C 47.2 40.01 40.8 40.01 40.8 40.01 40.36 40.01 40 39.65 40 39.21 40 39.21 40 38.29 40 38.29 40 38.29 35.95 37.61 35.95 37.61 35.63 38.6 34.72 39.27 33.68 39.3 33.65 40.61 32.59 41.66 31.28 41.7 31.25 43.01 30.19 44.06 28.88 44.1 28.87 44.73 28.6 45.33 28.15 45.78 27.18 46.75 25.6 46.75 24.63 45.77 24.63 45.77 22.14 43.29 22.14 43.29 22.14 43.29 21.61 44.14 21.61 44.14 21.28 44.67 20.75 45.06 20.13 45.22 18.8 45.57 17.44 44.77 17.09 43.44 16.94 43.47 16.78 43.49 16.62 43.49 15.49 43.49 14.5 42.72 14.22 41.63 12.93 41.92 11.64 41.11 11.35 39.82 10.22 40.07 9.06 39.48 8.61 38.41 8.61 38.41 8 38.41 8 38.41 8 38.41 8 39.21 8 39.21 8 39.65 7.64 40.01 7.2 40.01 7.2 40.01 0.8 40.01 0.8 40.01 0.36 40.01-0 39.65-0 39.21-0 39.21-0 16.82-0 16.82-0 16.38 0.36 16.02 0.8 16.02 0.8 16.02 7.2 16.02 7.2 16.02 7.64 16.02 8 16.38 8 16.82 8 16.82 8 17.62 8 17.62 8 17.62 17.6 17.62 17.6 17.62 17.81 17.62 18.02 17.71 18.17 17.86 18.17 17.86 19.2 18.89 19.2 18.89 19.2 18.89 20.23 17.86 20.23 17.86 20.38 17.71 20.59 17.62 20.8 17.62 20.8 17.62 40 17.62 40 17.62 40 17.62 40 16.82 40 16.82 40 16.38 40.36 16.02 40.8 16.02 40.8 16.02 47.2 16.02 47.2 16.02 47.64 16.02 48 16.38 48 16.82 48 16.82 48 39.21 48 39.21 48 39.65 47.64 40.01 47.2 40.01ZM 6.4 18.42C 6.4 18.42 6.4 17.62 6.4 17.62 6.4 17.62 1.6 17.62 1.6 17.62 1.6 17.62 1.6 38.41 1.6 38.41 1.6 38.41 6.4 38.41 6.4 38.41 6.4 38.41 6.4 18.42 6.4 18.42ZM 25.77 44.64C 26.12 44.99 26.68 44.99 27.03 44.64 27.38 44.29 27.38 43.72 27.03 43.38 27.03 43.38 24 40.35 24 40.35 24 40.35 23.02 41.9 23.02 41.9 23.02 41.9 25.77 44.64 25.77 44.64ZM 19.02 43.56C 19.44 43.82 20 43.7 20.26 43.28 20.26 43.28 22.67 39.45 22.67 39.45 22.67 39.45 22.67 39.45 22.67 39.45 22.76 39.3 22.81 39.14 22.81 38.97 22.81 38.47 22.41 38.07 21.91 38.07 21.85 38.07 21.78 38.08 21.71 38.09 21.48 38.15 21.28 38.29 21.15 38.49 21.15 38.49 18.74 42.32 18.74 42.32 18.48 42.74 18.6 43.29 19.02 43.56ZM 16.15 41.76C 16.57 42.02 17.12 41.9 17.39 41.48 17.39 41.48 19.8 37.65 19.8 37.65 20.06 37.23 19.94 36.67 19.52 36.41 19.1 36.15 18.54 36.27 18.28 36.69 18.28 36.69 15.87 40.52 15.87 40.52 15.6 40.94 15.73 41.49 16.15 41.76ZM 13.28 39.95C 13.7 40.21 14.25 40.09 14.52 39.67 14.52 39.67 16.93 35.84 16.93 35.84 17.19 35.42 17.07 34.87 16.65 34.6 16.23 34.34 15.67 34.47 15.41 34.88 15.41 34.88 13 38.71 13 38.71 12.73 39.13 12.86 39.69 13.28 39.95ZM 10.41 38.14C 10.83 38.41 11.38 38.28 11.65 37.86 11.65 37.86 14.06 34.03 14.06 34.03 14.32 33.61 14.2 33.06 13.78 32.79 13.63 32.7 13.47 32.65 13.3 32.65 12.99 32.65 12.7 32.81 12.54 33.07 12.54 33.07 10.13 36.9 10.13 36.9 9.86 37.32 9.99 37.88 10.41 38.14ZM 17.27 19.22C 17.27 19.22 8 19.22 8 19.22 8 19.22 8 36.81 8 36.81 8 36.81 8.46 36.81 8.46 36.81 8.52 36.54 8.63 36.29 8.77 36.05 8.77 36.05 11.18 32.22 11.18 32.22 11.52 31.68 12.05 31.29 12.67 31.13 14 30.79 15.36 31.59 15.7 32.92 16.99 32.66 18.25 33.45 18.58 34.72 19.86 34.47 21.12 35.26 21.45 36.53 22.77 36.27 24.05 37.11 24.35 38.42 24.35 38.42 24.35 38.43 24.35 38.43 24.35 38.43 24.57 38.64 24.57 38.64 24.57 38.64 28.17 42.24 28.17 42.24 28.52 42.59 29.08 42.59 29.43 42.24 29.78 41.89 29.78 41.32 29.43 40.97 29.43 40.97 25.03 36.58 25.03 36.58 25.03 36.58 26.17 35.45 26.17 35.45 26.17 35.45 30.57 39.84 30.57 39.84 30.92 40.19 31.48 40.19 31.83 39.84 32.18 39.49 32.18 38.93 31.83 38.57 31.83 38.57 27.43 34.18 27.43 34.18 27.43 34.18 28.57 33.05 28.57 33.05 28.57 33.05 32.97 37.44 32.97 37.44 33.32 37.79 33.88 37.79 34.23 37.44 34.23 37.44 34.23 37.45 34.23 37.45 34.23 37.45 34.24 37.45 34.24 37.45 34.59 37.1 34.58 36.53 34.23 36.18 34.23 36.18 22.4 24.35 22.4 24.35 22.4 24.35 20.57 26.18 20.57 26.18 19.37 27.38 17.43 27.38 16.23 26.18 15.04 24.99 15.04 23.05 16.23 21.85 16.23 21.85 18.07 20.02 18.07 20.02 18.07 20.02 17.27 19.22 17.27 19.22ZM 40 19.22C 40 19.22 21.13 19.22 21.13 19.22 21.13 19.22 17.37 22.99 17.37 22.99 16.79 23.56 16.79 24.48 17.37 25.05 17.94 25.61 18.86 25.61 19.43 25.05 19.43 25.05 21.83 22.65 21.83 22.65 22.15 22.34 22.65 22.34 22.97 22.65 22.97 22.65 35.37 35.05 35.37 35.05 35.37 35.05 36.38 36.07 36.38 36.07 36.38 36.07 40 36.67 40 36.67 40 36.67 40 19.22 40 19.22ZM 46.4 17.62C 46.4 17.62 41.6 17.62 41.6 17.62 41.6 17.62 41.6 38.41 41.6 38.41 41.6 38.41 46.4 38.41 46.4 38.41 46.4 38.41 46.4 17.62 46.4 17.62ZM 36.22 10.62C 36.22 10.62 37.75 10.14 37.75 10.14 37.92 10.7 38.06 11.26 38.17 11.83 38.17 11.83 36.59 12.12 36.59 12.12 36.5 11.61 36.38 11.11 36.22 10.62ZM 34.96 7.8C 34.96 7.8 36.32 6.98 36.32 6.98 36.62 7.47 36.9 7.99 37.13 8.51 37.13 8.51 35.67 9.17 35.67 9.17 35.46 8.7 35.22 8.24 34.96 7.8ZM 33.05 5.38C 33.05 5.38 34.18 4.25 34.18 4.25 34.59 4.66 34.98 5.09 35.33 5.55 35.33 5.55 34.08 6.53 34.08 6.53 33.76 6.13 33.42 5.74 33.05 5.38ZM 30.62 3.47C 30.62 3.47 31.45 2.1 31.45 2.1 31.94 2.4 32.42 2.73 32.88 3.09 32.88 3.09 31.89 4.35 31.89 4.35 31.49 4.03 31.06 3.74 30.62 3.47ZM 24 16.02C 20.47 16.02 17.6 13.16 17.6 9.63 17.6 6.09 20.47 3.23 24 3.23 27.53 3.23 30.4 6.09 30.4 9.63 30.4 13.16 27.53 16.02 24 16.02ZM 23.2 4.9C 21.18 5.24 19.61 6.82 19.27 8.83 18.83 11.44 20.59 13.91 23.2 14.35 23.2 14.35 23.2 13.48 23.2 13.48 22.24 13.14 21.6 12.24 21.6 11.22 21.6 11.22 23.2 11.22 23.2 11.22 23.2 11.67 23.56 12.02 24 12.02 24.44 12.02 24.8 11.67 24.8 11.22 24.8 10.78 24.44 10.43 24 10.43 22.98 10.43 22.08 9.79 21.74 8.83 21.3 7.58 21.95 6.21 23.2 5.77 23.2 5.77 23.2 4.9 23.2 4.9ZM 24.8 4.9C 24.8 4.9 24.8 5.77 24.8 5.77 25.76 6.11 26.4 7.01 26.4 8.03 26.4 8.03 24.8 8.03 24.8 8.03 24.8 7.59 24.44 7.23 24 7.23 23.56 7.23 23.2 7.59 23.2 8.03 23.2 8.47 23.56 8.83 24 8.83 25.02 8.82 25.92 9.47 26.26 10.42 26.7 11.67 26.05 13.04 24.8 13.48 24.8 13.48 24.8 14.35 24.8 14.35 26.82 14.01 28.39 12.43 28.73 10.42 29.17 7.81 27.41 5.34 24.8 4.9ZM 27.8 2.2C 27.8 2.2 28.28 0.68 28.28 0.68 28.83 0.85 29.38 1.06 29.91 1.29 29.91 1.29 29.25 2.75 29.25 2.75 28.78 2.54 28.3 2.36 27.8 2.2ZM 24.77 1.66C 24.77 1.66 24.86 0.06 24.86 0.06 25.44 0.09 26.02 0.16 26.59 0.26 26.59 0.26 26.3 1.84 26.3 1.84 25.79 1.75 25.28 1.69 24.77 1.66ZM 21.39 0.26C 21.97 0.16 22.54 0.09 23.12 0.05 23.12 0.05 23.22 1.65 23.22 1.65 22.7 1.68 22.19 1.75 21.68 1.84 21.68 1.84 21.39 0.26 21.39 0.26ZM 18.08 1.3C 18.6 1.06 19.15 0.86 19.7 0.68 19.7 0.68 20.18 2.21 20.18 2.21 19.69 2.36 19.2 2.55 18.73 2.76 18.73 2.76 18.08 1.3 18.08 1.3ZM 15.11 3.1C 15.57 2.74 16.04 2.41 16.54 2.11 16.54 2.11 17.37 3.48 17.37 3.48 16.93 3.74 16.5 4.04 16.1 4.36 16.1 4.36 15.11 3.1 15.11 3.1ZM 12.66 5.56C 13.01 5.1 13.4 4.66 13.81 4.25 13.81 4.25 14.94 5.39 14.94 5.39 14.58 5.75 14.24 6.14 13.92 6.54 13.92 6.54 12.66 5.56 12.66 5.56ZM 12.32 9.18C 12.32 9.18 10.86 8.53 10.86 8.53 11.1 8 11.37 7.48 11.67 6.99 11.67 6.99 13.04 7.82 13.04 7.82 12.77 8.26 12.53 8.71 12.32 9.18ZM 11.4 12.13C 11.4 12.13 9.83 11.85 9.83 11.85 9.93 11.28 10.07 10.71 10.24 10.16 10.24 10.16 11.77 10.63 11.77 10.63 11.62 11.12 11.5 11.63 11.4 12.13Z" fill="rgb(91,130,253)"/></svg>