<?xml version="1.0" encoding="utf-8"?>
<svg xmlns="http://www.w3.org/2000/svg"
	xmlns:xlink="http://www.w3.org/1999/xlink"
	width="49px" height="45px" viewBox="0 0 49 45">
<path fillRule="evenodd" d="M 41.76 29.07C 41.76 29.07 33.59 29.07 33.59 29.07 32.49 32.19 30.49 34.91 27.85 36.9 27.85 36.9 24.65 39.3 24.65 39.3 24.37 39.52 23.98 39.52 23.69 39.3 23.69 39.3 20.49 36.9 20.49 36.9 17.85 34.91 15.86 32.19 14.75 29.07 14.75 29.07 7.56 29.07 7.56 29.07 3.57 29.11 0.29 25.94 0.19 21.95 0.15 16.74 3.99 12.31 9.15 11.59 8.8 9.8 9.01 7.94 9.73 6.26 11.11 2.97 14.18 0.7 17.73 0.33 22.18-0.06 26.31 2.66 27.7 6.91 28.02 6.75 28.35 6.61 28.69 6.49 34.07 4.56 40.01 7.37 41.93 12.76 42.39 14 42.6 15.31 42.55 16.63 45.29 17.32 48.15 18.72 48.15 22.67 48.15 26.2 45.29 29.07 41.76 29.07ZM 21.45 35.62C 21.45 35.62 24.17 37.66 24.17 37.66 24.17 37.66 26.89 35.62 26.89 35.62 30.56 32.86 32.78 28.59 32.96 24 32.96 24 24.17 20.34 24.17 20.34 24.17 20.34 15.39 24 15.39 24 15.56 28.59 17.79 32.86 21.45 35.62ZM 41.54 18.03C 41.14 17.94 40.88 17.57 40.92 17.17 41.05 15.86 40.88 14.54 40.43 13.3 39.34 10.31 36.73 8.14 33.59 7.6 31.52 7.26 29.39 7.68 27.6 8.78 27.52 8.82 27.44 8.86 27.35 8.88 26.92 8.96 26.49 8.69 26.4 8.25 25.57 4.29 21.9 1.57 17.87 1.92 14.91 2.24 12.35 4.14 11.21 6.89 10.49 8.53 10.38 10.37 10.91 12.08 10.93 12.14 10.94 12.21 10.94 12.27 10.96 12.71 10.62 13.08 10.18 13.1 5.48 13.31 1.78 17.18 1.79 21.87 1.85 25.01 4.42 27.51 7.56 27.47 7.56 27.47 14.27 27.47 14.27 27.47 13.95 26.16 13.78 24.82 13.78 23.47 13.78 23.15 13.97 22.86 14.27 22.74 14.27 22.74 23.86 18.74 23.86 18.74 24.06 18.66 24.28 18.66 24.48 18.74 24.48 18.74 34.07 22.74 34.07 22.74 34.37 22.86 34.56 23.15 34.56 23.47 34.56 24.82 34.4 26.16 34.07 27.47 34.07 27.47 41.76 27.47 41.76 27.47 44.41 27.47 46.55 25.32 46.56 22.67 46.56 20.13 45.15 18.83 41.54 18.03ZM 32.97 10.68C 32.97 10.68 32.97 9.08 32.97 9.08 35.61 9.09 37.76 11.23 37.76 13.88 37.76 13.88 36.16 13.88 36.16 13.88 36.16 12.11 34.73 10.68 32.97 10.68ZM 4.19 20.28C 4.19 20.28 5.79 20.28 5.79 20.28 5.79 22.48 7.58 24.27 9.78 24.27 9.78 24.27 12.18 24.27 12.18 24.27 12.18 24.27 12.18 25.87 12.18 25.87 12.18 25.87 9.78 25.87 9.78 25.87 6.69 25.87 4.19 23.37 4.19 20.28ZM 30.85 24.32C 31.16 24.44 31.37 24.74 31.37 25.07 31.36 28.34 29.82 31.42 27.21 33.39 27.21 33.39 24.65 35.31 24.65 35.31 24.37 35.52 23.98 35.52 23.69 35.31 23.69 35.31 21.13 33.39 21.13 33.39 18.52 31.42 16.99 28.34 16.98 25.07 16.98 24.74 17.18 24.44 17.5 24.32 17.5 24.32 23.89 21.93 23.89 21.93 24.07 21.86 24.27 21.86 24.45 21.93 24.45 21.93 30.85 24.32 30.85 24.32ZM 18.59 25.62C 18.76 28.19 20.04 30.56 22.09 32.11 22.09 32.11 24.17 33.67 24.17 33.67 24.17 33.67 26.25 32.11 26.25 32.11 28.31 30.56 29.58 28.19 29.75 25.62 29.75 25.62 24.17 23.53 24.17 23.53 24.17 23.53 18.59 25.62 18.59 25.62ZM 10.28 32.02C 10.28 32.02 8.73 32.44 8.73 32.44 8.59 31.9 8.47 31.35 8.38 30.8 8.38 30.8 9.96 30.55 9.96 30.55 10.04 31.05 10.15 31.54 10.28 32.02ZM 11.36 34.82C 11.36 34.82 9.93 35.55 9.93 35.55 9.68 35.06 9.45 34.55 9.25 34.03 9.25 34.03 10.74 33.45 10.74 33.45 10.92 33.92 11.13 34.38 11.36 34.82ZM 13 37.34C 13 37.34 11.76 38.35 11.76 38.35 11.41 37.92 11.08 37.47 10.77 37 10.77 37 12.11 36.13 12.11 36.13 12.39 36.55 12.68 36.95 13 37.34ZM 15.13 39.46C 15.13 39.46 14.13 40.71 14.13 40.71 13.69 40.36 13.28 39.99 12.88 39.59 12.88 39.59 14.01 38.46 14.01 38.46 14.37 38.81 14.74 39.15 15.13 39.46ZM 17.65 41.1C 17.65 41.1 16.93 42.53 16.93 42.53 16.43 42.27 15.95 42 15.48 41.69 15.48 41.69 16.35 40.35 16.35 40.35 16.77 40.62 17.21 40.87 17.65 41.1ZM 20.46 42.18C 20.46 42.18 20.05 43.72 20.05 43.72 19.51 43.58 18.98 43.41 18.46 43.21 18.46 43.21 19.03 41.71 19.03 41.71 19.5 41.89 19.98 42.05 20.46 42.18ZM 23.43 42.64C 23.43 42.64 23.35 44.24 23.35 44.24 22.79 44.21 22.24 44.15 21.69 44.07 21.69 44.07 21.93 42.48 21.93 42.48 22.43 42.56 22.93 42.61 23.43 42.64ZM 26.68 44.06C 26.13 44.15 25.58 44.21 25.02 44.24 25.02 44.24 24.94 42.64 24.94 42.64 25.44 42.61 25.94 42.56 26.43 42.49 26.43 42.49 26.68 44.06 26.68 44.06ZM 29.91 43.2C 29.39 43.4 28.86 43.57 28.32 43.72 28.32 43.72 27.91 42.17 27.91 42.17 28.39 42.04 28.87 41.89 29.34 41.71 29.34 41.71 29.91 43.2 29.91 43.2ZM 32.89 41.68C 32.42 41.98 31.93 42.26 31.44 42.52 31.44 42.52 30.71 41.09 30.71 41.09 31.16 40.86 31.59 40.61 32.01 40.34 32.01 40.34 32.89 41.68 32.89 41.68ZM 35.48 39.58C 35.08 39.97 34.67 40.34 34.24 40.69 34.24 40.69 33.23 39.45 33.23 39.45 33.62 39.14 33.99 38.8 34.35 38.45 34.35 38.45 35.48 39.58 35.48 39.58ZM 36.24 36.1C 36.24 36.1 37.58 36.98 37.58 36.98 37.28 37.45 36.95 37.9 36.6 38.33 36.6 38.33 35.36 37.33 35.36 37.33 35.67 36.93 35.97 36.53 36.24 36.1ZM 37.61 33.43C 37.61 33.43 39.1 34 39.1 34 38.9 34.53 38.67 35.04 38.42 35.53 38.42 35.53 37 34.8 37 34.8 37.22 34.36 37.43 33.9 37.61 33.43ZM 38.39 30.53C 38.39 30.53 39.97 30.78 39.97 30.78 39.88 31.33 39.76 31.87 39.62 32.41 39.62 32.41 38.07 32 38.07 32 38.2 31.51 38.31 31.02 38.39 30.53Z" fill="rgb(91,130,253)"/></svg>