<?xml version="1.0" encoding="utf-8"?>
<svg xmlns="http://www.w3.org/2000/svg"
	xmlns:xlink="http://www.w3.org/1999/xlink"
	width="49px" height="49px" viewBox="0 0 49 49">
<path fillRule="evenodd" d="M 47.06 11.42C 46.36 15.43 44.77 19.23 42.41 22.54 42.41 22.54 42.81 28.55 42.81 28.55 42.82 28.78 42.74 29.01 42.57 29.17 42.57 29.17 32.4 39.34 32.4 39.34 32.26 39.48 32.08 39.56 31.89 39.57 31.45 39.6 31.07 39.27 31.04 38.83 31.04 38.83 30.6 32.31 30.6 32.31 30.6 32.31 28.64 34.28 28.64 34.28 28.4 34.53 28.03 34.58 27.73 34.42 25.95 37.9 22.38 40.09 18.48 40.11 18.48 40.11 9.69 40.11 9.69 40.11 9.25 40.11 8.89 39.75 8.89 39.31 8.89 39.31 8.89 30.52 8.89 30.52 8.91 26.62 11.1 23.05 14.57 21.27 14.42 20.97 14.48 20.6 14.72 20.36 14.72 20.36 17.16 17.92 17.16 17.92 17.16 17.92 10.97 17.51 10.97 17.51 10.77 17.5 10.59 17.41 10.45 17.28 10.14 16.96 10.14 16.46 10.45 16.15 10.45 16.15 20.63 5.97 20.63 5.97 20.79 5.81 21.02 5.73 21.25 5.74 21.25 5.74 27.13 6.13 27.13 6.13 30.28 4.02 33.84 2.59 37.58 1.94 37.58 1.94 47.92 0.16 47.92 0.16 48.18 0.11 48.44 0.19 48.62 0.38 48.8 0.56 48.89 0.82 48.84 1.08 48.84 1.08 47.06 11.42 47.06 11.42ZM 32.52 36.97C 32.52 36.97 41.19 28.3 41.19 28.3 41.19 28.3 40.93 24.43 40.93 24.43 38.69 27.07 35.96 29.26 32.89 30.88 32.89 30.88 32.14 31.27 32.14 31.27 32.14 31.27 32.52 36.97 32.52 36.97ZM 10.49 30.52C 10.49 30.52 10.49 38.51 10.49 38.51 10.49 38.51 18.48 38.51 18.48 38.51 21.95 38.49 25.09 36.45 26.51 33.28 26.51 33.28 25.13 31.9 25.13 31.9 24.31 33.5 22.67 34.51 20.88 34.51 20.88 34.51 15.28 34.51 15.28 34.51 14.84 34.51 14.48 34.16 14.48 33.71 14.48 33.71 14.48 28.12 14.48 28.12 14.49 26.32 15.5 24.68 17.1 23.87 17.1 23.87 15.72 22.49 15.72 22.49 12.55 23.91 10.5 27.05 10.49 30.52ZM 23.92 30.69C 23.92 30.69 18.31 25.08 18.31 25.08 16.98 25.5 16.08 26.73 16.08 28.12 16.08 28.12 16.08 32.92 16.08 32.92 16.08 32.92 20.88 32.92 20.88 32.92 22.27 32.91 23.5 32.01 23.92 30.69ZM 16.41 20.93C 16.41 20.93 16.47 20.98 16.47 20.98 16.47 20.98 19.12 23.63 19.12 23.63 19.12 23.63 25.37 29.88 25.37 29.88 25.37 29.88 28.02 32.53 28.02 32.53 28.02 32.53 28.07 32.58 28.07 32.58 28.07 32.58 30.14 30.52 30.14 30.52 30.14 30.52 18.48 18.86 18.48 18.86 18.48 18.86 16.41 20.93 16.41 20.93ZM 21.5 7.36C 21.5 7.36 12.83 16.03 12.83 16.03 12.83 16.03 17.98 16.37 17.98 16.37 17.98 16.37 18.12 16.11 18.12 16.11 19.85 12.82 22.23 9.93 25.13 7.6 25.13 7.6 21.5 7.36 21.5 7.36ZM 37.85 3.51C 30.01 4.89 23.25 9.81 19.54 16.85 19.54 16.85 19.26 17.38 19.26 17.38 19.26 17.38 31.62 29.74 31.62 29.74 31.62 29.74 32.15 29.46 32.15 29.46 39.19 25.75 44.11 18.99 45.49 11.15 45.49 11.15 47.08 1.92 47.08 1.92 47.08 1.92 37.85 3.51 37.85 3.51ZM 41.66 12.13C 41.66 12.13 44.06 12.13 44.06 12.13 44.06 12.13 44.06 13.73 44.06 13.73 44.06 13.73 41.66 13.73 41.66 13.73 41.66 13.73 41.66 12.13 41.66 12.13ZM 40.3 7.57C 40.3 7.57 41.9 5.97 41.9 5.97 41.9 5.97 43.03 7.1 43.03 7.1 43.03 7.1 41.43 8.7 41.43 8.7 41.43 8.7 40.3 7.57 40.3 7.57ZM 36.07 17.73C 35.92 17.73 35.77 17.72 35.62 17.7 35.62 17.7 34.23 19.09 34.23 19.09 34.23 19.09 33.43 19.89 33.43 19.89 32.24 21.09 30.3 21.09 29.11 19.89 27.91 18.7 27.91 16.76 29.11 15.56 29.11 15.56 29.91 14.77 29.91 14.77 29.91 14.77 31.29 13.38 31.29 13.38 31.28 13.23 31.27 13.08 31.27 12.93 31.27 10.28 33.42 8.14 36.07 8.14 38.71 8.14 40.86 10.28 40.86 12.93 40.86 15.58 38.71 17.73 36.07 17.73ZM 30.47 16.46C 30.47 16.46 30.24 16.69 30.24 16.69 29.69 17.26 29.69 18.15 30.24 18.72 30.8 19.3 31.72 19.32 32.3 18.76 32.3 18.76 32.54 18.53 32.54 18.53 32.54 18.53 30.47 16.46 30.47 16.46ZM 36.07 9.74C 34.3 9.74 32.87 11.17 32.87 12.93 32.87 13.13 32.89 13.32 32.93 13.51 32.98 13.77 32.9 14.04 32.71 14.22 32.71 14.22 31.6 15.33 31.6 15.33 31.6 15.33 32.07 15.8 32.07 15.8 32.07 15.8 33.77 14.1 33.77 14.1 33.77 14.1 34.51 11.88 34.51 11.88 34.51 11.88 36.03 12.39 36.03 12.39 36.03 12.39 35.73 13.27 35.73 13.27 35.73 13.27 36.61 12.97 36.61 12.97 36.61 12.97 37.12 14.49 37.12 14.49 37.12 14.49 34.9 15.23 34.9 15.23 34.9 15.23 33.2 16.93 33.2 16.93 33.2 16.93 33.67 17.4 33.67 17.4 33.67 17.4 34.78 16.29 34.78 16.29 34.96 16.1 35.23 16.02 35.49 16.07 35.68 16.11 35.87 16.13 36.07 16.13 37.83 16.13 39.26 14.7 39.26 12.93 39.26 11.17 37.83 9.74 36.07 9.74ZM 35.27 4.94C 35.27 4.94 36.87 4.94 36.87 4.94 36.87 4.94 36.87 7.34 36.87 7.34 36.87 7.34 35.27 7.34 35.27 7.34 35.27 7.34 35.27 4.94 35.27 4.94ZM 6.73 37.94C 6.73 37.94 7.86 39.07 7.86 39.07 7.86 39.07 2.26 44.67 2.26 44.67 2.03 44.9 1.69 44.97 1.39 44.84 1.09 44.72 0.9 44.43 0.9 44.11 0.9 44.11 0.9 40.58 0.9 40.58 0.89 37.5 2.11 34.56 4.29 32.39 5.19 31.49 5.7 30.27 5.69 29 5.69 29 5.69 28.92 5.69 28.92 5.69 26.27 3.54 24.13 0.9 24.12 0.9 24.12 0.9 22.52 0.9 22.52 4.43 22.53 7.29 25.39 7.29 28.92 7.29 28.92 7.29 29 7.29 29 7.3 30.7 6.62 32.32 5.42 33.52 3.54 35.39 2.49 37.93 2.49 40.58 2.49 40.58 2.49 42.18 2.49 42.18 2.49 42.18 6.73 37.94 6.73 37.94ZM 3.85 46.27C 3.85 46.27 2.26 47.87 2.26 47.87 2.26 47.87 1.13 46.74 1.13 46.74 1.13 46.74 2.72 45.14 2.72 45.14 2.72 45.14 3.85 46.27 3.85 46.27ZM 13.45 42.27C 13.45 42.27 7.85 47.87 7.85 47.87 7.85 47.87 6.72 46.74 6.72 46.74 6.72 46.74 12.32 41.14 12.32 41.14 12.32 41.14 13.45 42.27 13.45 42.27ZM 19.51 41.94C 19.51 41.94 20.64 43.07 20.64 43.07 20.64 43.07 17.21 46.5 17.21 46.5 19.66 46.49 21.89 45.1 22.98 42.91 23.36 42.15 23.93 41.49 24.63 41.01 26.93 39.42 30.08 39.99 31.68 42.29 32.53 43.52 32.79 45.06 32.4 46.5 32.4 46.5 36.07 46.5 36.07 46.5 36.07 46.5 36.07 48.1 36.07 48.1 36.07 48.1 31.27 48.1 31.27 48.1 31.17 48.1 31.08 48.08 30.99 48.05 30.57 47.9 30.36 47.44 30.52 47.02 30.52 47.02 30.76 46.39 30.76 46.39 31.38 44.73 30.65 42.87 29.06 42.08 27.35 41.22 25.27 41.91 24.41 43.63 23.05 46.38 20.24 48.11 17.17 48.1 17.17 48.1 15.28 48.1 15.28 48.1 15.07 48.1 14.87 48.02 14.72 47.87 14.41 47.56 14.41 47.05 14.72 46.74 14.72 46.74 19.51 41.94 19.51 41.94ZM 39.26 48.1C 39.26 48.1 37.66 48.1 37.66 48.1 37.66 48.1 37.66 46.5 37.66 46.5 37.66 46.5 39.26 46.5 39.26 46.5 39.26 46.5 39.26 48.1 39.26 48.1ZM 42.46 48.1C 42.46 48.1 40.86 48.1 40.86 48.1 40.86 48.1 40.86 46.5 40.86 46.5 40.86 46.5 42.46 46.5 42.46 46.5 42.46 46.5 42.46 48.1 42.46 48.1Z" fill="rgb(91,130,253)"/></svg>