<?xml version="1.0" encoding="utf-8"?>
<svg xmlns="http://www.w3.org/2000/svg"
	xmlns:xlink="http://www.w3.org/1999/xlink"
	width="49px" height="48px" viewBox="0 0 49 48">
<path fillRule="evenodd" d="M 46.17 30.45C 46.94 31.32 47.37 32.44 47.37 33.61 47.36 36.26 45.21 38.41 42.56 38.41 42.56 38.41 42.48 38.41 42.48 38.41 41.02 41.57 37.97 43.7 34.5 43.98 34.12 46.31 32.11 48.01 29.76 48.01 27.55 48.01 25.76 46.22 25.75 44.01 25.75 44.01 25.75 41.61 25.75 41.61 25.75 41.61 24.15 41.61 24.15 41.61 24.15 41.61 24.15 44.01 24.15 44.01 24.15 46.22 22.36 48.01 20.15 48.01 17.8 48.01 15.79 46.31 15.41 43.98 11.94 43.7 8.89 41.57 7.42 38.41 7.4 38.41 7.38 38.41 7.35 38.41 4.7 38.41 2.54 36.26 2.54 33.61 2.54 32.44 2.96 31.32 3.73 30.44 2.26 29.59 1.25 28.1 1 26.41 0.56 23.35 2.68 20.5 5.74 20.06 5.74 20.06 5.74 19.2 5.74 19.2 5.75 15.52 8.52 12.43 12.19 12.04 12.58 5.58 17.73 0.43 24.18 0.04 31.24-0.39 37.3 4.98 37.72 12.04 41.38 12.43 44.16 15.52 44.16 19.2 44.16 19.2 44.16 20.06 44.16 20.06 45.86 20.3 47.34 21.31 48.2 22.79 49.76 25.46 48.85 28.89 46.17 30.45ZM 24.95 1.59C 19.32 1.58 14.56 5.77 13.84 11.36 13.04 17.49 17.38 23.11 23.51 23.9 23.51 23.9 18.08 14.4 18.08 14.4 18.08 14.4 16.15 14.4 16.15 14.4 16.15 14.4 16.15 12.79 16.15 12.79 16.15 12.79 22.06 12.79 22.06 12.79 22.06 12.79 24.24 8.43 24.24 8.43 24.36 8.19 24.6 8.02 24.88 7.99 25.32 7.95 25.71 8.27 25.75 8.71 25.75 8.71 26.27 13.96 26.27 13.96 26.27 13.96 26.64 13.24 26.64 13.24 26.77 12.97 27.05 12.79 27.35 12.79 27.35 12.79 33.76 12.79 33.76 12.79 33.76 12.79 33.76 14.4 33.76 14.4 33.76 14.4 31.82 14.4 31.82 14.4 31.82 14.4 26.39 23.9 26.39 23.9 31.98 23.18 36.17 18.42 36.16 12.78 36.16 6.6 31.14 1.58 24.95 1.59ZM 31.36 35.21C 31.36 35.21 31.36 33.61 31.36 33.61 31.36 33.61 18.55 33.61 18.55 33.61 18.55 33.61 18.55 35.21 18.55 35.21 18.55 35.21 31.36 35.21 31.36 35.21ZM 19.56 36.81C 19.85 37.3 20.38 37.61 20.95 37.61 20.95 37.61 28.96 37.61 28.96 37.61 29.53 37.61 30.05 37.3 30.34 36.81 30.34 36.81 19.56 36.81 19.56 36.81ZM 30.56 32C 30.56 32 30.56 31.2 30.56 31.2 30.56 31.2 19.35 31.2 19.35 31.2 19.35 31.2 19.35 32 19.35 32 19.35 32 30.56 32 30.56 32ZM 31.36 29.6C 31.36 29.6 31.36 28 31.36 28 31.36 28 18.55 28 18.55 28 18.55 28 18.55 29.6 18.55 29.6 18.55 29.6 31.36 29.6 31.36 29.6ZM 19.35 24.29C 19.35 24.29 19.35 26.4 19.35 26.4 19.35 26.4 30.56 26.4 30.56 26.4 30.56 26.4 30.56 24.29 30.56 24.29 27.02 26.04 22.88 26.04 19.35 24.29ZM 29.98 14.4C 29.98 14.4 27.85 14.4 27.85 14.4 27.85 14.4 26.47 17.16 26.47 17.16 26.34 17.4 26.1 17.57 25.83 17.59 25.39 17.64 25 17.32 24.95 16.88 24.95 16.88 24.43 11.62 24.43 11.62 24.43 11.62 23.27 13.95 23.27 13.95 23.13 14.22 22.85 14.4 22.55 14.4 22.55 14.4 19.93 14.4 19.93 14.4 19.93 14.4 24.95 23.19 24.95 23.19 24.95 23.19 29.98 14.4 29.98 14.4ZM 43.36 21.6C 42.92 21.6 42.56 21.24 42.56 20.8 42.56 20.8 42.56 19.2 42.56 19.2 42.56 16.4 40.49 14.03 37.72 13.65 37.46 17.57 35.41 21.16 32.16 23.37 32.16 23.37 32.16 26.4 32.16 26.4 32.6 26.4 32.96 26.76 32.96 27.2 32.96 27.2 32.96 30.4 32.96 30.4 32.96 30.85 32.6 31.2 32.16 31.2 32.16 31.2 32.16 32 32.16 32 32.6 32 32.96 32.36 32.96 32.81 32.96 32.81 32.96 36.01 32.96 36.01 32.96 36.45 32.6 36.81 32.16 36.81 32.16 36.81 32.04 36.81 32.04 36.81 31.68 38.22 30.41 39.2 28.96 39.21 28.96 39.21 20.95 39.21 20.95 39.21 19.49 39.2 18.23 38.22 17.86 36.81 17.86 36.81 17.75 36.81 17.75 36.81 17.31 36.81 16.95 36.45 16.95 36.01 16.95 36.01 16.95 32.81 16.95 32.81 16.95 32.36 17.31 32 17.75 32 17.75 32 17.75 31.2 17.75 31.2 17.31 31.2 16.95 30.85 16.95 30.4 16.95 30.4 16.95 27.2 16.95 27.2 16.95 26.76 17.31 26.4 17.75 26.4 17.75 26.4 17.75 23.37 17.75 23.37 14.5 21.16 12.45 17.58 12.19 13.65 9.42 14.03 7.35 16.4 7.34 19.2 7.34 19.2 7.34 20.8 7.34 20.8 7.34 21.24 6.98 21.6 6.54 21.6 4.76 21.6 3.2 22.79 2.71 24.5 2.1 26.62 3.33 28.84 5.45 29.45 5.64 29.5 5.8 29.63 5.91 29.79 6.14 30.17 6.03 30.66 5.66 30.9 4.71 31.48 4.14 32.51 4.14 33.62 4.14 35.38 5.58 36.81 7.34 36.81 7.49 36.8 7.64 36.79 7.78 36.76 8.16 36.7 8.53 36.91 8.68 37.26 9.87 40.35 12.84 42.4 16.15 42.41 16.59 42.41 16.95 42.77 16.95 43.21 16.95 44.98 18.38 46.41 20.15 46.41 21.48 46.41 22.55 45.34 22.55 44.01 22.55 44.01 22.55 41.61 22.55 41.61 22.55 41.61 20.95 41.61 20.95 41.61 20.95 41.61 20.95 40.01 20.95 40.01 20.95 40.01 29.76 40.01 29.76 40.01 29.76 40.01 29.76 41.61 29.76 41.61 29.76 41.61 27.35 41.61 27.35 41.61 27.35 41.61 27.35 44.01 27.35 44.01 27.35 45.34 28.43 46.41 29.76 46.41 31.52 46.41 32.96 44.98 32.96 43.21 32.96 42.77 33.32 42.41 33.76 42.41 37.07 42.4 40.03 40.35 41.23 37.26 41.36 36.91 41.72 36.7 42.09 36.76 43.41 37 44.74 36.39 45.41 35.22 46.29 33.71 45.77 31.77 44.25 30.9 44.08 30.79 43.96 30.63 43.91 30.44 43.78 30.01 44.03 29.57 44.46 29.45 46.17 28.96 47.35 27.39 47.35 25.61 47.36 23.4 45.57 21.61 43.36 21.6ZM 37.76 22.4C 37.76 22.4 37.76 20.8 37.76 20.8 39.97 20.8 41.76 22.59 41.76 24.8 41.76 24.8 40.16 24.8 40.16 24.8 40.16 23.47 39.09 22.4 37.76 22.4ZM 34.56 31.2C 34.56 31.2 34.56 29.6 34.56 29.6 35.88 29.6 36.96 28.53 36.96 27.2 36.96 27.2 38.56 27.2 38.56 27.2 38.56 29.41 36.77 31.2 34.56 31.2ZM 38.56 38.41C 38.56 38.41 36.96 38.41 36.96 38.41 36.96 37.08 35.88 36.01 34.56 36.01 34.56 36.01 34.56 34.41 34.56 34.41 36.77 34.41 38.56 36.2 38.56 38.41ZM 12.95 38.41C 12.95 38.41 11.34 38.41 11.34 38.41 11.35 36.2 13.14 34.41 15.35 34.41 15.35 34.41 15.35 36.01 15.35 36.01 14.02 36.01 12.95 37.08 12.95 38.41ZM 11.34 27.2C 11.34 27.2 12.95 27.2 12.95 27.2 12.95 28.53 14.02 29.6 15.35 29.6 15.35 29.6 15.35 31.2 15.35 31.2 13.14 31.2 11.35 29.41 11.34 27.2ZM 9.74 24.8C 9.74 24.8 8.14 24.8 8.14 24.8 8.15 22.59 9.94 20.8 12.15 20.8 12.15 20.8 12.15 22.4 12.15 22.4 10.82 22.4 9.74 23.47 9.74 24.8ZM 38.56 6.39C 38.56 6.39 41.76 6.39 41.76 6.39 41.76 6.39 41.76 7.99 41.76 7.99 41.76 7.99 38.56 7.99 38.56 7.99 38.56 7.99 38.56 6.39 38.56 6.39ZM 36.39 3.42C 36.39 3.42 38.8 1.02 38.8 1.02 38.8 1.02 39.93 2.15 39.93 2.15 39.93 2.15 37.53 4.56 37.53 4.56 37.53 4.56 36.39 3.42 36.39 3.42ZM 11.34 7.99C 11.34 7.99 8.14 7.99 8.14 7.99 8.14 7.99 8.14 6.39 8.14 6.39 8.14 6.39 11.34 6.39 11.34 6.39 11.34 6.39 11.34 7.99 11.34 7.99ZM 9.98 2.15C 9.98 2.15 11.11 1.02 11.11 1.02 11.11 1.02 13.51 3.42 13.51 3.42 13.51 3.42 12.38 4.56 12.38 4.56 12.38 4.56 9.98 2.15 9.98 2.15Z" fill="rgb(91,130,253)"/></svg>