<?xml version="1.0" encoding="utf-8"?>
<svg xmlns="http://www.w3.org/2000/svg"
	xmlns:xlink="http://www.w3.org/1999/xlink"
	width="49px" height="48px" viewBox="0 0 49 48">
<path fillRule="evenodd" d="M 47.19 34.19C 47.19 34.19 32.5 46.67 32.5 46.67 31.49 47.53 30.2 48 28.87 48 28.87 48 1.01 48 1.01 48 0.57 48 0.21 47.64 0.21 47.2 0.21 47.2 0.21 28.8 0.21 28.8 0.21 28.36 0.57 28 1.01 28 1.01 28 9.02 28 9.02 28 9.46 28 9.82 28.36 9.82 28.8 9.82 28.8 9.82 30.18 9.82 30.18 9.82 30.18 10.04 30.12 10.04 30.12 9.33 25.9 10.36 21.57 12.9 18.12 12.9 18.12 10.32 15.54 10.32 15.54 9.71 14.93 9.47 14.04 9.7 13.21 10.05 11.93 11.37 11.18 12.65 11.53 12.65 11.53 14.97 12.16 14.97 12.16 14.97 12.16 17.07 7.46 17.07 7.46 17.36 6.79 17.94 6.3 18.64 6.12 18.71 5.01 19.15 3.96 19.9 3.14 21.7 1.2 24.73 1.07 26.67 2.86 28.62 4.66 28.75 7.69 26.95 9.63 26.95 9.63 31.07 6.43 31.07 6.43 31.17 6.35 31.27 6.29 31.38 6.23 32.54 5.58 34 6 34.65 7.16 34.65 7.16 37.15 11.65 37.15 11.65 37.32 11.97 37.69 12.13 38.04 12.04 38.04 12.04 41.43 11.19 41.43 11.19 42.2 11 43.01 11.2 43.6 11.73 44.59 12.61 44.69 14.12 43.81 15.11 43.81 15.11 41.15 18.1 41.15 18.1 43.17 20.82 44.25 24.12 44.25 27.51 44.25 27.68 44.24 27.84 44.24 28.01 44.3 28.01 44.35 28 44.41 28 44.41 28 44.62 28 44.62 28 45.59 28 46.51 28.38 47.19 29.06 48.61 30.48 48.61 32.78 47.19 34.19ZM 8.22 29.6C 8.22 29.6 1.81 29.6 1.81 29.6 1.81 29.6 1.81 46.4 1.81 46.4 1.81 46.4 8.22 46.4 8.22 46.4 8.22 46.4 8.22 29.6 8.22 29.6ZM 23.43 3.2C 21.73 3.21 20.33 4.55 20.25 6.25 20.42 6.32 20.58 6.42 20.74 6.54 20.74 6.54 24.45 9.42 24.45 9.42 25.75 8.99 26.64 7.76 26.63 6.38 26.63 4.62 25.2 3.2 23.43 3.2ZM 39.38 18.41C 39.29 18.3 39.23 18.17 39.21 18.03 39.14 17.59 39.44 17.18 39.88 17.12 39.88 17.12 42.61 14.05 42.61 14.05 42.78 13.85 42.85 13.58 42.79 13.33 42.68 12.9 42.25 12.64 41.82 12.74 41.82 12.74 38.43 13.59 38.43 13.59 37.37 13.85 36.27 13.38 35.75 12.43 35.75 12.43 33.25 7.93 33.25 7.93 33.23 7.9 33.2 7.86 33.18 7.83 32.91 7.48 32.4 7.42 32.06 7.69 32.06 7.69 27.31 11.38 27.31 11.38 26.44 12.05 25.22 12.05 24.36 11.38 24.36 11.38 19.75 7.8 19.75 7.8 19.7 7.76 19.64 7.73 19.58 7.7 19.18 7.52 18.71 7.7 18.53 8.11 18.53 8.11 16.15 13.44 16.15 13.44 15.99 13.8 15.59 13.99 15.21 13.89 15.21 13.89 12.22 13.07 12.22 13.07 11.95 13 11.65 13.07 11.45 13.28 11.14 13.59 11.13 14.1 11.45 14.41 11.45 14.41 14.16 17.12 14.16 17.12 14.31 17.14 14.46 17.2 14.57 17.29 14.92 17.57 14.97 18.07 14.69 18.42 12.58 20.98 11.42 24.19 11.42 27.51 11.43 28.26 11.49 29 11.62 29.73 11.62 29.73 15.98 28.64 15.98 28.64 17.67 28.22 19.41 28 21.15 28 21.15 28 27.18 28 27.18 28 28.82 28 30.22 29.14 30.57 30.73 30.96 32.6 29.77 34.43 27.91 34.83 27.91 34.83 20.09 36.5 20.09 36.5 19.71 36.59 19.43 36.93 19.43 37.32 19.43 37.36 19.43 37.4 19.44 37.44 19.5 37.9 19.92 38.22 20.38 38.15 20.38 38.15 30.58 36.41 30.58 36.41 31.98 36.17 33.3 35.59 34.43 34.72 34.43 34.72 42.2 28.75 42.2 28.75 42.33 28.66 42.47 28.57 42.61 28.49 42.63 28.15 42.65 27.82 42.65 27.51 42.65 24.19 41.49 20.98 39.38 18.41ZM 44.62 29.6C 44.62 29.6 44.41 29.6 44.41 29.6 43.96 29.6 43.53 29.75 43.18 30.02 43.18 30.02 35.4 35.99 35.4 35.99 34.07 37.02 32.5 37.7 30.84 37.99 30.84 37.99 20.62 39.73 20.62 39.73 19.36 39.92 18.16 39.09 17.89 37.84 17.6 36.53 18.44 35.23 19.76 34.94 19.76 34.94 27.57 33.27 27.57 33.27 28.42 33.08 29.03 32.33 29.03 31.46 29.04 30.43 28.21 29.6 27.18 29.6 27.18 29.6 21.15 29.6 21.15 29.6 19.54 29.6 17.94 29.8 16.37 30.19 16.37 30.19 9.82 31.82 9.82 31.82 9.82 31.82 9.82 46.4 9.82 46.4 9.82 46.4 28.87 46.4 28.87 46.4 29.82 46.4 30.74 46.06 31.47 45.45 31.47 45.45 46.11 33.02 46.11 33.02 46.46 32.64 46.66 32.14 46.65 31.63 46.65 30.51 45.74 29.6 44.62 29.6ZM 37.05 17.6C 37.05 17.6 38.65 17.6 38.65 17.6 38.65 17.6 38.65 19.2 38.65 19.2 38.65 19.2 37.05 19.2 37.05 19.2 37.05 19.2 37.05 17.6 37.05 17.6ZM 33.84 17.6C 33.84 17.6 35.44 17.6 35.44 17.6 35.44 17.6 35.44 19.2 35.44 19.2 35.44 19.2 33.84 19.2 33.84 19.2 33.84 19.2 33.84 17.6 33.84 17.6ZM 30.64 17.6C 30.64 17.6 32.24 17.6 32.24 17.6 32.24 17.6 32.24 19.2 32.24 19.2 32.24 19.2 30.64 19.2 30.64 19.2 30.64 19.2 30.64 17.6 30.64 17.6ZM 27.44 18.4C 26.99 18.4 26.64 18.76 26.64 19.2 26.64 19.64 26.99 20 27.44 20 28.45 20 29.36 20.64 29.7 21.6 30.14 22.85 29.49 24.21 28.24 24.65 28.24 24.65 28.24 26.4 28.24 26.4 28.24 26.4 26.64 26.4 26.64 26.4 26.64 26.4 26.64 24.65 26.64 24.65 25.68 24.31 25.04 23.41 25.03 22.4 25.03 22.4 26.64 22.4 26.64 22.4 26.64 22.84 26.99 23.2 27.44 23.2 27.88 23.2 28.24 22.84 28.24 22.4 28.24 21.96 27.88 21.6 27.44 21.6 26.42 21.6 25.51 20.96 25.17 20 24.73 18.75 25.39 17.39 26.64 16.95 26.64 16.95 26.64 15.2 26.64 15.2 26.64 15.2 28.24 15.2 28.24 15.2 28.24 15.2 28.24 16.95 28.24 16.95 29.19 17.28 29.83 18.19 29.84 19.2 29.84 19.2 28.24 19.2 28.24 19.2 28.24 18.76 27.88 18.4 27.44 18.4ZM 22.63 17.6C 22.63 17.6 24.23 17.6 24.23 17.6 24.23 17.6 24.23 19.2 24.23 19.2 24.23 19.2 22.63 19.2 22.63 19.2 22.63 19.2 22.63 17.6 22.63 17.6ZM 19.43 17.6C 19.43 17.6 21.03 17.6 21.03 17.6 21.03 17.6 21.03 19.2 21.03 19.2 21.03 19.2 19.43 19.2 19.43 19.2 19.43 19.2 19.43 17.6 19.43 17.6ZM 16.23 17.6C 16.23 17.6 17.83 17.6 17.83 17.6 17.83 17.6 17.83 19.2 17.83 19.2 17.83 19.2 16.23 19.2 16.23 19.2 16.23 19.2 16.23 17.6 16.23 17.6ZM 39.45 9.6C 36.8 9.6 34.65 7.45 34.64 4.8 34.64 2.15 36.79-0 39.45-0 42.1-0 44.25 2.15 44.25 4.8 44.25 7.45 42.1 9.6 39.45 9.6ZM 39.45 1.6C 37.68 1.6 36.24 3.03 36.24 4.8 36.24 6.57 37.68 8 39.45 8 41.22 8 42.65 6.57 42.65 4.8 42.65 3.03 41.22 1.6 39.45 1.6Z" fill="rgb(91,130,253)"/></svg>