<svg xmlns="http://www.w3.org/2000/svg" xmlns:xlink="http://www.w3.org/1999/xlink" width="1024" height="400">\n<path  d="M 0 0
L 1024 0
L 1024 400
L 0 400
L 0 0" style="stroke-width:0;stroke:rgba(255,255,255,1.0);fill:rgba(255,255,255,1.0)"/><path  d="M 38 11
L 957 11
L 957 351
L 38 351
L 38 11" style="stroke-width:0;stroke:rgba(255,255,255,1.0);fill:rgba(255,255,255,1.0)"/><path  d="M 38 351
L 957 351" style="stroke-width:2;stroke:rgba(85,85,85,1.0);fill:none"/><path  d="M 38 351
L 38 356" style="stroke-width:2;stroke:rgba(85,85,85,1.0);fill:none"/><text x="5" y="373" style="stroke-width:0;stroke:none;fill:rgba(51,51,51,1.0);font-size:12.8px;font-family:'Roboto Medium',sans-serif">2019-08-01</text><path  d="M 153 351
L 153 356" style="stroke-width:2;stroke:rgba(85,85,85,1.0);fill:none"/><text x="120" y="373" style="stroke-width:0;stroke:none;fill:rgba(51,51,51,1.0);font-size:12.8px;font-family:'Roboto Medium',sans-serif">2019-10-16</text><path  d="M 268 351
L 268 356" style="stroke-width:2;stroke:rgba(85,85,85,1.0);fill:none"/><text x="235" y="373" style="stroke-width:0;stroke:none;fill:rgba(51,51,51,1.0);font-size:12.8px;font-family:'Roboto Medium',sans-serif">2020-01-01</text><path  d="M 383 351
L 383 356" style="stroke-width:2;stroke:rgba(85,85,85,1.0);fill:none"/><text x="350" y="373" style="stroke-width:0;stroke:none;fill:rgba(51,51,51,1.0);font-size:12.8px;font-family:'Roboto Medium',sans-serif">2020-03-18</text><path  d="M 498 351
L 498 356" style="stroke-width:2;stroke:rgba(85,85,85,1.0);fill:none"/><text x="465" y="373" style="stroke-width:0;stroke:none;fill:rgba(51,51,51,1.0);font-size:12.8px;font-family:'Roboto Medium',sans-serif">2020-06-02</text><path  d="M 613 351
L 613 356" style="stroke-width:2;stroke:rgba(85,85,85,1.0);fill:none"/><text x="580" y="373" style="stroke-width:0;stroke:none;fill:rgba(51,51,51,1.0);font-size:12.8px;font-family:'Roboto Medium',sans-serif">2020-08-18</text><path  d="M 728 351
L 728 356" style="stroke-width:2;stroke:rgba(85,85,85,1.0);fill:none"/><text x="695" y="373" style="stroke-width:0;stroke:none;fill:rgba(51,51,51,1.0);font-size:12.8px;font-family:'Roboto Medium',sans-serif">2020-11-03</text><path  d="M 843 351
L 843 356" style="stroke-width:2;stroke:rgba(85,85,85,1.0);fill:none"/><text x="810" y="373" style="stroke-width:0;stroke:none;fill:rgba(51,51,51,1.0);font-size:12.8px;font-family:'Roboto Medium',sans-serif">2021-01-18</text><path  d="M 957 351
L 957 356" style="stroke-width:2;stroke:rgba(85,85,85,1.0);fill:none"/><text x="924" y="373" style="stroke-width:0;stroke:none;fill:rgba(51,51,51,1.0);font-size:12.8px;font-family:'Roboto Medium',sans-serif">2021-04-05</text><text x="483" y="395" style="stroke-width:0;stroke:none;fill:rgba(51,51,51,1.0);font-size:12.8px;font-family:'Roboto Medium',sans-serif">Time</text><path  d="M 959 351
L 959 11" style="stroke-width:2;stroke:rgba(85,85,85,1.0);fill:none"/><path  d="M 959 351
L 964 351" style="stroke-width:2;stroke:rgba(85,85,85,1.0);fill:none"/><text x="969" y="357" style="stroke-width:0;stroke:none;fill:rgba(51,51,51,1.0);font-size:12.8px;font-family:'Roboto Medium',sans-serif">0</text><path  d="M 959 308
L 964 308" style="stroke-width:2;stroke:rgba(85,85,85,1.0);fill:none"/><text x="969" y="314" style="stroke-width:0;stroke:none;fill:rgba(51,51,51,1.0);font-size:12.8px;font-family:'Roboto Medium',sans-serif">1170</text><path  d="M 959 265
L 964 265" style="stroke-width:2;stroke:rgba(85,85,85,1.0);fill:none"/><text x="969" y="271" style="stroke-width:0;stroke:none;fill:rgba(51,51,51,1.0);font-size:12.8px;font-family:'Roboto Medium',sans-serif">2330</text><path  d="M 959 223
L 964 223" style="stroke-width:2;stroke:rgba(85,85,85,1.0);fill:none"/><text x="969" y="229" style="stroke-width:0;stroke:none;fill:rgba(51,51,51,1.0);font-size:12.8px;font-family:'Roboto Medium',sans-serif">3490</text><path  d="M 959 181
L 964 181" style="stroke-width:2;stroke:rgba(85,85,85,1.0);fill:none"/><text x="969" y="187" style="stroke-width:0;stroke:none;fill:rgba(51,51,51,1.0);font-size:12.8px;font-family:'Roboto Medium',sans-serif">4650</text><path  d="M 959 138
L 964 138" style="stroke-width:2;stroke:rgba(85,85,85,1.0);fill:none"/><text x="969" y="144" style="stroke-width:0;stroke:none;fill:rgba(51,51,51,1.0);font-size:12.8px;font-family:'Roboto Medium',sans-serif">5820</text><path  d="M 959 95
L 964 95" style="stroke-width:2;stroke:rgba(85,85,85,1.0);fill:none"/><text x="969" y="101" style="stroke-width:0;stroke:none;fill:rgba(51,51,51,1.0);font-size:12.8px;font-family:'Roboto Medium',sans-serif">6980</text><path  d="M 959 53
L 964 53" style="stroke-width:2;stroke:rgba(85,85,85,1.0);fill:none"/><text x="969" y="59" style="stroke-width:0;stroke:none;fill:rgba(51,51,51,1.0);font-size:12.8px;font-family:'Roboto Medium',sans-serif">8140</text><path  d="M 959 11
L 964 11" style="stroke-width:2;stroke:rgba(85,85,85,1.0);fill:none"/><text x="969" y="17" style="stroke-width:0;stroke:none;fill:rgba(51,51,51,1.0);font-size:12.8px;font-family:'Roboto Medium',sans-serif">9300</text><text x="1009" y="150" style="stroke-width:0;stroke:none;fill:rgba(51,51,51,1.0);font-size:12.8px;font-family:'Roboto Medium',sans-serif" transform="rotate(90.00,1009,150)">Stargazers</text><path  d="M 38 351
L 51 350
L 52 350
L 53 350
L 55 350
L 55 350
L 56 350
L 57 350
L 58 350
L 58 350
L 58 350
L 59 350
L 59 350
L 60 350
L 62 350
L 62 350
L 63 350
L 65 350
L 66 350
L 67 350
L 67 350
L 67 350
L 67 350
L 67 350
L 67 350
L 67 350
L 67 350
L 68 350
L 68 349
L 68 349
L 68 349
L 68 349
L 68 349
L 68 349
L 68 349
L 68 349
L 68 349
L 68 349
L 68 349
L 68 349
L 68 349
L 68 349
L 68 349
L 68 349
L 68 349
L 68 349
L 69 349
L 69 349
L 69 349
L 69 349
L 69 349
L 69 349
L 70 349
L 70 349
L 70 349
L 70 348
L 70 348
L 70 348
L 70 348
L 70 348
L 70 348
L 70 348
L 70 348
L 70 348
L 70 348
L 70 348
L 70 348
L 71 348
L 71 348
L 71 348
L 71 348
L 71 348
L 71 348
L 71 348
L 71 348
L 71 348
L 71 348
L 71 348
L 71 348
L 71 348
L 72 348
L 72 348
L 74 348
L 74 347
L 74 347
L 74 347
L 74 347
L 75 347
L 76 347
L 76 347
L 76 347
L 76 347
L 76 347
L 76 347
L 76 347
L 76 347
L 76 347
L 76 347
L 76 347
L 76 347
L 76 347
L 77 347
L 77 347
L 77 347
L 77 347
L 77 347
L 77 347
L 77 347
L 77 347
L 77 347
L 77 346
L 77 346
L 77 346
L 77 346
L 77 346
L 78 346
L 78 346
L 78 346
L 78 346
L 78 346
L 79 346
L 79 346
L 79 346
L 79 346
L 79 346
L 80 346
L 80 346
L 80 346
L 80 346
L 81 346
L 81 346
L 81 346
L 82 346
L 82 346
L 82 346
L 83 346
L 84 346
L 84 345
L 85 345
L 85 345
L 86 345
L 86 345
L 86 345
L 86 345
L 86 345
L 87 345
L 87 345
L 87 345
L 87 345
L 87 345
L 88 345
L 88 345
L 88 345
L 88 345
L 88 345
L 88 345
L 88 345
L 88 345
L 88 345
L 88 345
L 88 345
L 88 345
L 88 345
L 88 345
L 88 345
L 88 344
L 89 344
L 89 344
L 89 344
L 89 344
L 89 344
L 89 344
L 89 344
L 89 344
L 89 344
L 89 344
L 90 344
L 91 344
L 91 344
L 91 344
L 91 344
L 91 344
L 92 344
L 92 344
L 92 344
L 92 344
L 92 344
L 92 344
L 92 344
L 93 344
L 93 344
L 94 344
L 94 343
L 94 343
L 94 343
L 94 343
L 97 343
L 97 343
L 97 343
L 97 343
L 97 343
L 97 343
L 99 343
L 100 343
L 100 343
L 100 343
L 100 343
L 100 343
L 100 343
L 101 343
L 101 343
L 101 343
L 101 343
L 101 343
L 101 343
L 101 343
L 101 343
L 101 343
L 102 343
L 103 342
L 103 342
L 103 342
L 103 342
L 104 342
L 105 342
L 105 342
L 105 342
L 105 342
L 106 342
L 106 342
L 106 342
L 106 342
L 107 342
L 107 342
L 107 342
L 107 342
L 107 342
L 107 342
L 107 342
L 107 342
L 107 342
L 107 342
L 107 342
L 107 342
L 108 342
L 108 342
L 108 342
L 108 341
L 109 341
L 109 341
L 109 341
L 109 341
L 109 341
L 109 341
L 110 341
L 110 341
L 110 341
L 110 341
L 110 341
L 110 341
L 110 341
L 111 341
L 112 341
L 112 341
L 112 341
L 112 341
L 112 341
L 112 341
L 112 341
L 112 341
L 113 341
L 113 341
L 113 341
L 113 341
L 113 340
L 113 340
L 115 340
L 115 340
L 116 340
L 117 340
L 118 340
L 118 340
L 118 340
L 118 340
L 118 340
L 118 340
L 118 340
L 118 340
L 118 340
L 118 340
L 118 340
L 118 340
L 118 340
L 118 340
L 118 340
L 118 340
L 119 340
L 119 340
L 119 340
L 119 340
L 119 340
L 119 339
L 119 339
L 119 339
L 119 339
L 119 339
L 119 339
L 119 339
L 119 339
L 119 339
L 120 339
L 121 339
L 121 339
L 121 339
L 121 339
L 121 339
L 121 339
L 121 339
L 121 339
L 121 339
L 121 339
L 121 339
L 121 339
L 121 339
L 121 339
L 121 339
L 121 339
L 121 339
L 121 339
L 121 338
L 122 338
L 122 338
L 122 338
L 122 338
L 122 338
L 122 338
L 122 338
L 122 338
L 122 338
L 122 338
L 122 338
L 122 338
L 123 338
L 123 338
L 123 338
L 123 338
L 124 338
L 124 338
L 124 338
L 124 338
L 124 338
L 124 338
L 124 338
L 124 338
L 124 338
L 124 338
L 124 337
L 124 337
L 124 337
L 124 337
L 124 337
L 124 337
L 124 337
L 124 337
L 124 337
L 124 337
L 125 337
L 125 337
L 126 337
L 126 337
L 127 337
L 127 337
L 127 337
L 127 337
L 127 337
L 127 337
L 127 337
L 127 337
L 127 337
L 127 337
L 127 337
L 128 337
L 128 337
L 128 336
L 128 336
L 128 336
L 128 336
L 128 336
L 128 336
L 129 336
L 130 336
L 133 336
L 136 336
L 136 336
L 137 336
L 137 336
L 138 336
L 139 336
L 139 336
L 140 336
L 140 336
L 140 336
L 140 336
L 140 336
L 140 336
L 140 336
L 140 336
L 140 336
L 140 336
L 140 336
L 140 336
L 140 335
L 140 335
L 140 335
L 140 335
L 140 335
L 140 335
L 140 335
L 140 335
L 140 335
L 141 335
L 141 335
L 141 335
L 141 335
L 141 335
L 141 335
L 141 335
L 141 335
L 141 335
L 142 335
L 142 335
L 142 335
L 142 335
L 142 335
L 142 335
L 142 335
L 142 335
L 142 335
L 142 334
L 142 334
L 142 334
L 142 334
L 142 334
L 142 334
L 142 334
L 142 334
L 142 334
L 142 334
L 143 334
L 143 334
L 143 334
L 143 334
L 143 334
L 143 334
L 143 334
L 143 334
L 143 334
L 143 334
L 144 334
L 144 334
L 144 334
L 145 334
L 145 334
L 145 334
L 145 334
L 145 334
L 145 333
L 145 333
L 145 333
L 145 333
L 145 333
L 145 333
L 145 333
L 145 333
L 145 333
L 145 333
L 146 333
L 146 333
L 146 333
L 146 333
L 146 333
L 146 333
L 146 333
L 146 333
L 146 333
L 146 333
L 146 333
L 146 333
L 146 333
L 146 333
L 146 333
L 146 333
L 147 333
L 147 332
L 147 332
L 147 332
L 148 332
L 148 332
L 148 332
L 149 332
L 149 332
L 149 332
L 149 332
L 149 332
L 149 332
L 149 332
L 149 332
L 150 332
L 150 332
L 151 332
L 151 332
L 151 332
L 151 332
L 151 332
L 151 332
L 151 332
L 151 332
L 151 332
L 151 332
L 151 332
L 152 331
L 152 331
L 152 331
L 152 331
L 152 331
L 152 331
L 152 331
L 152 331
L 152 331
L 152 331
L 153 331
L 153 331
L 153 331
L 153 331
L 153 331
L 153 331
L 153 331
L 153 331
L 153 331
L 153 331
L 153 331
L 153 331
L 154 331
L 154 331
L 154 331
L 154 331
L 154 331
L 154 331
L 154 330
L 154 330
L 154 330
L 154 330
L 154 330
L 154 330
L 154 330
L 154 330
L 154 330
L 154 330
L 154 330
L 154 330
L 154 330
L 154 330
L 155 330
L 155 330
L 155 330
L 155 330
L 155 330
L 155 330
L 155 330
L 155 330
L 155 330
L 155 330
L 155 330
L 155 330
L 155 330
L 155 329
L 155 329
L 156 329
L 157 329
L 157 329
L 157 329
L 157 329
L 157 329
L 157 329
L 158 329
L 158 329
L 158 329
L 158 329
L 158 329
L 158 329
L 159 329
L 159 329
L 159 329
L 159 329
L 159 329
L 159 329
L 159 329
L 159 329
L 159 329
L 159 329
L 160 329
L 160 329
L 160 328
L 160 328
L 160 328
L 160 328
L 160 328
L 160 328
L 160 328
L 160 328
L 160 328
L 160 328
L 160 328
L 160 328
L 160 328
L 160 328
L 160 328
L 160 328
L 160 328
L 160 328
L 160 328
L 160 328
L 160 328
L 160 328
L 160 328
L 160 328
L 160 328
L 161 328
L 161 328
L 161 328
L 161 327
L 161 327
L 161 327
L 161 327
L 161 327
L 161 327
L 161 327
L 161 327
L 161 327
L 161 327
L 161 327
L 161 327
L 161 327
L 161 327
L 161 327
L 161 327
L 161 327
L 162 327
L 162 327
L 162 327
L 162 327
L 163 327
L 163 327
L 163 327
L 163 327
L 163 327
L 163 327
L 163 326
L 163 326
L 163 326
L 163 326
L 163 326
L 163 326
L 163 326
L 163 326
L 163 326
L 163 326
L 163 326
L 163 326
L 163 326
L 163 326
L 164 326
L 164 326
L 164 326
L 164 326
L 164 326
L 164 326
L 164 326
L 164 326
L 164 326
L 164 326
L 164 326
L 164 326
L 164 326
L 164 325
L 164 325
L 164 325
L 164 325
L 164 325
L 164 325
L 164 325
L 164 325
L 164 325
L 164 325
L 164 325
L 165 325
L 165 325
L 166 325
L 166 325
L 166 325
L 166 325
L 166 325
L 166 325
L 166 325
L 166 325
L 166 325
L 166 325
L 166 325
L 166 325
L 166 325
L 166 325
L 166 325
L 166 324
L 166 324
L 166 324
L 166 324
L 166 324
L 166 324
L 166 324
L 166 324
L 167 324
L 167 324
L 167 324
L 167 324
L 167 324
L 167 324
L 168 324
L 168 324
L 169 324
L 169 324
L 169 324
L 169 324
L 169 324
L 169 324
L 169 324
L 169 324
L 169 324
L 169 324
L 170 324
L 170 323
L 170 323
L 170 323
L 170 323
L 170 323
L 170 323
L 170 323
L 170 323
L 170 323
L 170 323
L 170 323
L 170 323
L 170 323
L 170 323
L 170 323
L 170 323
L 171 323
L 171 323
L 171 323
L 171 323
L 171 323
L 171 323
L 171 323
L 171 323
L 172 323
L 172 323
L 172 323
L 172 322
L 172 322
L 172 322
L 172 322
L 172 322
L 172 322
L 172 322
L 172 322
L 172 322
L 172 322
L 172 322
L 173 322
L 173 322
L 173 322
L 173 322
L 173 322
L 173 322
L 173 322
L 173 322
L 173 322
L 173 322
L 173 322
L 173 322
L 173 322
L 173 322
L 173 322
L 173 322
L 173 322
L 173 321
L 173 321
L 174 321
L 174 321
L 174 321
L 174 321
L 174 321
L 175 321
L 175 321
L 175 321
L 175 321
L 175 321
L 175 321
L 175 321
L 175 321
L 175 321
L 175 321
L 175 321
L 175 321
L 175 321
L 175 321
L 175 321
L 175 321
L 175 321
L 175 321
L 176 321
L 176 321
L 176 320
L 176 320
L 176 320
L 176 320
L 176 320
L 176 320
L 176 320
L 176 320
L 176 320
L 176 320
L 176 320
L 176 320
L 176 320
L 176 320
L 176 320
L 176 320
L 176 320
L 176 320
L 177 320
L 177 320
L 177 320
L 178 320
L 178 320
L 178 320
L 178 320
L 178 320
L 178 320
L 178 319
L 178 319
L 178 319
L 179 319
L 179 319
L 179 319
L 180 319
L 180 319
L 180 319
L 180 319
L 180 319
L 180 319
L 181 319
L 181 319
L 181 319
L 181 319
L 181 319
L 181 319
L 181 319
L 181 319
L 181 319
L 181 319
L 181 319
L 181 319
L 181 319
L 181 319
L 181 319
L 181 319
L 181 318
L 181 318
L 181 318
L 181 318
L 181 318
L 181 318
L 181 318
L 181 318
L 181 318
L 181 318
L 182 318
L 182 318
L 182 318
L 182 318
L 182 318
L 182 318
L 182 318
L 182 318
L 182 318
L 182 318
L 182 318
L 182 318
L 182 318
L 182 318
L 182 318
L 182 318
L 182 318
L 182 317
L 183 317
L 183 317
L 183 317
L 183 317
L 183 317
L 183 317
L 183 317
L 183 317
L 183 317
L 183 317
L 184 317
L 184 317
L 184 317
L 184 317
L 184 317
L 184 317
L 184 317
L 184 317
L 184 317
L 184 317
L 184 317
L 184 317
L 184 317
L 184 317
L 184 317
L 184 317
L 184 317
L 184 316
L 184 316
L 184 316
L 184 316
L 184 316
L 184 316
L 184 316
L 184 316
L 184 316
L 184 316
L 184 316
L 184 316
L 184 316
L 185 316
L 185 316
L 185 316
L 185 316
L 185 316
L 185 316
L 185 316
L 185 316
L 185 316
L 185 316
L 185 316
L 185 316
L 185 316
L 185 316
L 185 315
L 185 315
L 185 315
L 185 315
L 185 315
L 185 315
L 185 315
L 185 315
L 185 315
L 186 315
L 186 315
L 186 315
L 186 315
L 187 315
L 187 315
L 187 315
L 187 315
L 187 315
L 187 315
L 187 315
L 187 315
L 187 315
L 187 315
L 187 315
L 187 315
L 187 315
L 187 315
L 187 314
L 187 314
L 188 314
L 188 314
L 188 314
L 188 314
L 190 314
L 190 314
L 190 314
L 190 314
L 191 314
L 191 314
L 191 314
L 191 314
L 191 314
L 191 314
L 191 314
L 191 314
L 191 314
L 191 314
L 191 314
L 191 314
L 191 314
L 191 314
L 191 314
L 191 314
L 191 314
L 192 314
L 192 313
L 192 313
L 192 313
L 192 313
L 193 313
L 193 313
L 193 313
L 193 313
L 193 313
L 193 313
L 193 313
L 193 313
L 193 313
L 193 313
L 193 313
L 193 313
L 193 313
L 193 313
L 193 313
L 193 313
L 193 313
L 193 313
L 193 313
L 193 313
L 193 313
L 193 313
L 193 313
L 193 312
L 193 312
L 193 312
L 194 312
L 194 312
L 194 312
L 194 312
L 194 312
L 194 312
L 194 312
L 194 312
L 194 312
L 194 312
L 194 312
L 194 312
L 194 312
L 194 312
L 194 312
L 194 312
L 194 312
L 194 312
L 194 312
L 194 312
L 195 312
L 195 312
L 195 312
L 195 312
L 195 311
L 195 311
L 195 311
L 195 311
L 195 311
L 196 311
L 196 311
L 196 311
L 196 311
L 196 311
L 196 311
L 196 311
L 196 311
L 196 311
L 196 311
L 196 311
L 196 311
L 196 311
L 196 311
L 196 311
L 196 311
L 196 311
L 196 311
L 196 311
L 196 311
L 196 311
L 196 311
L 196 311
L 196 310
L 196 310
L 196 310
L 196 310
L 197 310
L 197 310
L 197 310
L 197 310
L 197 310
L 197 310
L 197 310
L 197 310
L 197 310
L 197 310
L 197 310
L 197 310
L 197 310
L 197 310
L 197 310
L 197 310
L 197 310
L 197 310
L 197 310
L 197 310
L 197 310
L 197 310
L 197 310
L 197 309
L 197 309
L 197 309
L 197 309
L 197 309
L 197 309
L 198 309
L 198 309
L 198 309
L 198 309
L 199 309
L 199 309
L 199 309
L 199 309
L 199 309
L 199 309
L 199 309
L 199 309
L 199 309
L 199 309
L 199 309
L 199 309
L 199 309
L 199 309
L 199 309
L 200 309
L 200 309
L 201 308
L 201 308
L 201 308
L 201 308
L 201 308
L 201 308
L 201 308
L 201 308
L 201 308
L 201 308
L 202 308
L 202 308
L 202 308
L 202 308
L 202 308
L 202 308
L 202 308
L 202 308
L 202 308
L 202 308
L 202 308
L 202 308
L 202 308
L 202 308
L 202 308
L 202 308
L 202 308
L 202 308
L 202 307
L 202 307
L 202 307
L 202 307
L 202 307
L 203 307
L 203 307
L 203 307
L 203 307
L 203 307
L 203 307
L 203 307
L 203 307
L 203 307
L 203 307
L 203 307
L 203 307
L 203 307
L 203 307
L 203 307
L 203 307
L 204 307
L 204 307
L 204 307
L 204 307
L 204 307
L 204 307
L 204 306
L 204 306
L 205 306
L 205 306
L 205 306
L 205 306
L 205 306
L 205 306
L 205 306
L 205 306
L 205 306
L 205 306
L 205 306
L 205 306
L 205 306
L 205 306
L 205 306
L 205 306
L 205 306
L 205 306
L 205 306
L 205 306
L 205 306
L 205 306
L 205 306
L 205 306
L 205 306
L 205 305
L 205 305
L 205 305
L 206 305
L 206 305
L 206 305
L 206 305
L 206 305
L 206 305
L 206 305
L 206 305
L 206 305
L 206 305
L 206 305
L 206 305
L 206 305
L 206 305
L 206 305
L 206 305
L 206 305
L 206 305
L 206 305
L 206 305
L 206 305
L 206 305
L 206 305
L 206 305
L 207 305
L 207 304
L 207 304
L 207 304
L 207 304
L 207 304
L 207 304
L 207 304
L 208 304
L 208 304
L 208 304
L 208 304
L 208 304
L 208 304
L 208 304
L 208 304
L 208 304
L 208 304
L 208 304
L 208 304
L 208 304
L 208 304
L 208 304
L 208 304
L 208 304
L 208 304
L 208 304
L 208 304
L 209 303
L 209 303
L 209 303
L 209 303
L 209 303
L 209 303
L 209 303
L 211 303
L 211 303
L 211 303
L 211 303
L 211 303
L 211 303
L 212 303
L 212 303
L 212 303
L 212 303
L 212 303
L 212 303
L 212 303
L 212 303
L 212 303
L 212 303
L 212 303
L 212 303
L 212 303
L 212 303
L 212 302
L 212 302
L 212 302
L 213 302
L 213 302
L 213 302
L 213 302
L 213 302
L 213 302
L 213 302
L 213 302
L 213 302
L 213 302
L 214 302
L 214 302
L 214 302
L 214 302
L 214 302
L 214 302
L 214 302
L 214 302
L 214 302
L 214 302
L 214 302
L 214 302
L 214 302
L 214 302
L 214 302
L 214 301
L 214 301
L 214 301
L 215 301
L 215 301
L 215 301
L 215 301
L 215 301
L 215 301
L 215 301
L 215 301
L 215 301
L 215 301
L 215 301
L 215 301
L 215 301
L 215 301
L 215 301
L 215 301
L 215 301
L 215 301
L 215 301
L 215 301
L 215 301
L 215 301
L 215 301
L 215 301
L 215 300
L 215 300
L 215 300
L 215 300
L 215 300
L 215 300
L 215 300
L 215 300
L 215 300
L 215 300
L 215 300
L 215 300
L 215 300
L 216 300
L 216 300
L 216 300
L 216 300
L 216 300
L 216 300
L 216 300
L 216 300
L 216 300
L 216 300
L 216 300
L 217 300
L 217 300
L 217 300
L 217 300
L 217 299
L 217 299
L 217 299
L 217 299
L 217 299
L 217 299
L 217 299
L 217 299
L 217 299
L 217 299
L 217 299
L 217 299
L 217 299
L 217 299
L 217 299
L 217 299
L 217 299
L 218 299
L 218 299
L 218 299
L 218 299
L 218 299
L 218 299
L 218 299
L 218 299
L 218 299
L 218 299
L 218 298
L 218 298
L 218 298
L 218 298
L 218 298
L 218 298
L 218 298
L 218 298
L 218 298
L 218 298
L 218 298
L 218 298
L 218 298
L 219 298
L 219 298
L 220 298
L 220 298
L 220 298
L 220 298
L 221 298
L 221 298
L 221 298
L 221 298
L 221 298
L 221 298
L 221 298
L 222 298
L 222 297
L 222 297
L 222 297
L 222 297
L 222 297
L 222 297
L 222 297
L 223 297
L 223 297
L 223 297
L 223 297
L 223 297
L 223 297
L 223 297
L 223 297
L 223 297
L 223 297
L 223 297
L 223 297
L 223 297
L 223 297
L 223 297
L 223 297
L 223 297
L 223 297
L 223 297
L 223 297
L 224 297
L 224 296
L 224 296
L 224 296
L 224 296
L 224 296
L 224 296
L 224 296
L 224 296
L 224 296
L 224 296
L 224 296
L 224 296
L 224 296
L 224 296
L 224 296
L 224 296
L 224 296
L 224 296
L 225 296
L 225 296
L 225 296
L 225 296
L 225 296
L 225 296
L 225 296
L 225 296
L 225 296
L 225 295
L 225 295
L 225 295
L 225 295
L 226 295
L 226 295
L 226 295
L 226 295
L 226 295
L 226 295
L 226 295
L 226 295
L 226 295
L 226 295
L 226 295
L 226 295
L 226 295
L 226 295
L 226 295
L 226 295
L 226 295
L 226 295
L 226 295
L 226 295
L 226 295
L 226 295
L 226 295
L 226 294
L 227 294
L 227 294
L 227 294
L 227 294
L 227 294
L 227 294
L 227 294
L 227 294
L 227 294
L 227 294
L 227 294
L 227 294
L 227 294
L 227 294
L 227 294
L 227 294
L 227 294
L 227 294
L 227 294
L 227 294
L 227 294
L 227 294
L 227 294
L 228 294
L 228 294
L 228 294
L 228 294
L 228 293
L 228 293
L 228 293
L 229 293
L 229 293
L 229 293
L 229 293
L 229 293
L 229 293
L 229 293
L 229 293
L 229 293
L 229 293
L 229 293
L 229 293
L 229 293
L 229 293
L 229 293
L 229 293
L 229 293
L 230 293
L 230 293
L 230 293
L 230 293
L 230 293
L 230 293
L 231 293
L 231 292
L 232 292
L 232 292
L 232 292
L 232 292
L 232 292
L 232 292
L 232 292
L 232 292
L 232 292
L 232 292
L 233 292
L 233 292
L 233 292
L 233 292
L 233 292
L 233 292
L 233 292
L 233 292
L 233 292
L 233 292
L 233 292
L 233 292
L 233 292
L 233 292
L 233 292
L 233 292
L 233 291
L 233 291
L 234 291
L 234 291
L 234 291
L 234 291
L 234 291
L 234 291
L 235 291
L 235 291
L 235 291
L 235 291
L 235 291
L 235 291
L 235 291
L 235 291
L 235 291
L 235 291
L 235 291
L 235 291
L 235 291
L 235 291
L 235 291
L 236 291
L 236 291
L 236 291
L 236 291
L 236 291
L 236 290
L 236 290
L 236 290
L 236 290
L 236 290
L 236 290
L 236 290
L 236 290
L 236 290
L 236 290
L 236 290
L 236 290
L 236 290
L 236 290
L 236 290
L 236 290
L 236 290
L 237 290
L 237 290
L 237 290
L 237 290
L 237 290
L 237 290
L 237 290
L 237 290
L 238 290
L 238 290
L 238 289
L 238 289
L 238 289
L 238 289
L 238 289
L 238 289
L 238 289
L 238 289
L 238 289
L 238 289
L 238 289
L 238 289
L 238 289
L 238 289
L 238 289
L 238 289
L 238 289
L 239 289
L 239 289
L 239 289
L 239 289
L 239 289
L 239 289
L 239 289
L 239 289
L 239 289
L 239 289
L 239 288
L 239 288
L 239 288
L 239 288
L 239 288
L 239 288
L 239 288
L 239 288
L 239 288
L 239 288
L 239 288
L 239 288
L 240 288
L 240 288
L 240 288
L 241 288
L 241 288
L 241 288
L 241 288
L 242 288
L 242 288
L 242 288
L 242 288
L 242 288
L 243 288
L 243 288
L 243 288
L 243 288
L 243 287
L 243 287
L 243 287
L 244 287
L 244 287
L 244 287
L 244 287
L 244 287
L 244 287
L 244 287
L 244 287
L 244 287
L 244 287
L 244 287
L 244 287
L 244 287
L 244 287
L 244 287
L 244 287
L 244 287
L 244 287
L 244 287
L 244 287
L 244 287
L 244 287
L 245 287
L 245 287
L 245 286
L 245 286
L 245 286
L 245 286
L 245 286
L 245 286
L 245 286
L 245 286
L 245 286
L 245 286
L 245 286
L 245 286
L 245 286
L 245 286
L 245 286
L 245 286
L 245 286
L 245 286
L 245 286
L 245 286
L 245 286
L 245 286
L 245 286
L 245 286
L 245 286
L 245 286
L 245 286
L 245 285
L 245 285
L 246 285
L 246 285
L 246 285
L 246 285
L 246 285
L 246 285
L 246 285
L 246 285
L 246 285
L 246 285
L 247 285
L 247 285
L 247 285
L 247 285
L 247 285
L 247 285
L 247 285
L 247 285
L 247 285
L 247 285
L 247 285
L 247 285
L 247 285
L 247 285
L 247 285
L 247 285
L 247 284
L 247 284
L 247 284
L 247 284
L 247 284
L 247 284
L 247 284
L 247 284
L 247 284
L 247 284
L 247 284
L 247 284
L 247 284
L 247 284
L 248 284
L 248 284
L 248 284
L 248 284
L 248 284
L 248 284
L 248 284
L 248 284
L 248 284
L 248 284
L 248 284
L 248 284
L 248 284
L 248 283
L 248 283
L 248 283
L 248 283
L 248 283
L 248 283
L 248 283
L 249 283
L 249 283
L 249 283
L 249 283
L 249 283
L 249 283
L 249 283
L 249 283
L 249 283
L 250 283
L 250 283
L 250 283
L 250 283
L 250 283
L 250 283
L 250 283
L 250 283
L 250 283
L 250 283
L 250 283
L 250 283
L 250 282
L 250 282
L 250 282
L 250 282
L 250 282
L 251 282
L 251 282
L 251 282
L 251 282
L 251 282
L 251 282
L 251 282
L 252 282
L 252 282
L 252 282
L 253 282
L 253 282
L 253 282
L 253 282
L 253 282
L 253 282
L 253 282
L 253 282
L 254 282
L 254 282
L 254 282
L 254 282
L 254 281
L 254 281
L 254 281
L 254 281
L 254 281
L 254 281
L 254 281
L 254 281
L 254 281
L 254 281
L 254 281
L 254 281
L 254 281
L 254 281
L 254 281
L 254 281
L 254 281
L 254 281
L 254 281
L 254 281
L 254 281
L 254 281
L 255 281
L 255 281
L 255 281
L 255 281
L 255 281
L 255 280
L 255 280
L 255 280
L 255 280
L 256 280
L 256 280
L 256 280
L 256 280
L 256 280
L 256 280
L 256 280
L 256 280
L 256 280
L 256 280
L 256 280
L 256 280
L 256 280
L 256 280
L 256 280
L 256 280
L 256 280
L 256 280
L 256 280
L 256 280
L 256 280
L 256 280
L 256 280
L 256 280
L 257 279
L 257 279
L 257 279
L 257 279
L 257 279
L 257 279
L 257 279
L 257 279
L 257 279
L 257 279
L 257 279
L 257 279
L 257 279
L 257 279
L 257 279
L 257 279
L 257 279
L 257 279
L 257 279
L 257 279
L 257 279
L 257 279
L 257 279
L 257 279
L 257 279
L 257 279
L 257 279
L 257 278
L 257 278
L 257 278
L 257 278
L 257 278
L 257 278
L 257 278
L 257 278
L 258 278
L 258 278
L 258 278
L 258 278
L 258 278
L 258 278
L 258 278
L 259 278
L 259 278
L 259 278
L 259 278
L 259 278
L 259 278
L 259 278
L 259 278
L 259 278
L 259 278
L 259 278
L 259 278
L 259 277
L 259 277
L 259 277
L 259 277
L 259 277
L 259 277
L 259 277
L 259 277
L 259 277
L 259 277
L 259 277
L 259 277
L 259 277
L 259 277
L 259 277
L 260 277
L 260 277
L 260 277
L 260 277
L 260 277
L 260 277
L 260 277
L 260 277
L 260 277
L 260 277
L 260 277
L 260 277
L 260 277
L 260 276
L 260 276
L 260 276
L 260 276
L 260 276
L 260 276
L 260 276
L 260 276
L 260 276
L 260 276
L 260 276
L 262 276
L 262 276
L 262 276
L 262 276
L 262 276
L 262 276
L 262 276
L 263 276
L 263 276
L 263 276
L 263 276
L 263 276
L 263 276
L 263 276
L 264 276
L 264 276
L 264 275
L 265 275
L 265 275
L 265 275
L 265 275
L 265 275
L 265 275
L 265 275
L 265 275
L 265 275
L 265 275
L 265 275
L 265 275
L 265 275
L 265 275
L 265 275
L 265 275
L 265 275
L 265 275
L 265 275
L 265 275
L 265 275
L 265 275
L 265 275
L 265 275
L 266 275
L 266 275
L 266 274
L 266 274
L 266 274
L 266 274
L 266 274
L 266 274
L 266 274
L 266 274
L 266 274
L 266 274
L 266 274
L 266 274
L 266 274
L 266 274
L 266 274
L 266 274
L 266 274
L 266 274
L 266 274
L 266 274
L 266 274
L 267 274
L 267 274
L 267 274
L 267 274
L 268 274
L 268 274
L 268 274
L 268 273
L 269 273
L 269 273
L 269 273
L 269 273
L 269 273
L 269 273
L 269 273
L 269 273
L 269 273
L 269 273
L 269 273
L 269 273
L 269 273
L 270 273
L 270 273
L 270 273
L 270 273
L 270 273
L 270 273
L 270 273
L 270 273
L 270 273
L 270 273
L 270 273
L 270 273
L 270 273
L 270 272
L 270 272
L 271 272
L 271 272
L 271 272
L 271 272
L 271 272
L 271 272
L 271 272
L 271 272
L 271 272
L 271 272
L 271 272
L 271 272
L 271 272
L 271 272
L 272 272
L 272 272
L 272 272
L 272 272
L 272 272
L 272 272
L 272 272
L 273 272
L 273 272
L 273 272
L 273 272
L 274 271
L 274 271
L 274 271
L 274 271
L 274 271
L 274 271
L 274 271
L 274 271
L 275 271
L 275 271
L 275 271
L 275 271
L 275 271
L 275 271
L 275 271
L 275 271
L 275 271
L 275 271
L 275 271
L 275 271
L 275 271
L 275 271
L 275 271
L 275 271
L 275 271
L 275 271
L 276 271
L 276 271
L 276 270
L 276 270
L 276 270
L 276 270
L 276 270
L 276 270
L 276 270
L 276 270
L 277 270
L 277 270
L 277 270
L 277 270
L 277 270
L 277 270
L 277 270
L 277 270
L 277 270
L 277 270
L 277 270
L 277 270
L 277 270
L 277 270
L 277 270
L 277 270
L 277 270
L 277 270
L 277 270
L 277 269
L 277 269
L 277 269
L 277 269
L 278 269
L 278 269
L 278 269
L 278 269
L 278 269
L 278 269
L 278 269
L 278 269
L 278 269
L 278 269
L 278 269
L 278 269
L 278 269
L 278 269
L 278 269
L 278 269
L 278 269
L 279 269
L 279 269
L 279 269
L 279 269
L 280 269
L 280 269
L 280 268
L 280 268
L 280 268
L 280 268
L 280 268
L 280 268
L 280 268
L 280 268
L 280 268
L 280 268
L 280 268
L 280 268
L 280 268
L 280 268
L 280 268
L 280 268
L 280 268
L 280 268
L 280 268
L 280 268
L 280 268
L 280 268
L 280 268
L 280 268
L 280 268
L 280 268
L 281 268
L 281 268
L 281 267
L 281 267
L 281 267
L 281 267
L 281 267
L 281 267
L 281 267
L 281 267
L 281 267
L 281 267
L 281 267
L 281 267
L 281 267
L 281 267
L 281 267
L 281 267
L 282 267
L 282 267
L 283 267
L 283 267
L 283 267
L 283 267
L 283 267
L 284 267
L 284 267
L 284 267
L 284 267
L 285 266
L 285 266
L 285 266
L 285 266
L 285 266
L 285 266
L 285 266
L 286 266
L 286 266
L 286 266
L 286 266
L 286 266
L 286 266
L 286 266
L 286 266
L 286 266
L 286 266
L 286 266
L 286 266
L 286 266
L 286 266
L 286 266
L 286 266
L 286 266
L 286 266
L 286 266
L 286 266
L 286 266
L 287 265
L 287 265
L 287 265
L 287 265
L 287 265
L 287 265
L 287 265
L 287 265
L 287 265
L 287 265
L 287 265
L 287 265
L 287 265
L 287 265
L 288 265
L 288 265
L 288 265
L 288 265
L 288 265
L 288 265
L 288 265
L 289 265
L 289 265
L 289 265
L 289 265
L 289 265
L 289 265
L 289 264
L 289 264
L 289 264
L 289 264
L 289 264
L 289 264
L 289 264
L 289 264
L 289 264
L 289 264
L 289 264
L 289 264
L 289 264
L 289 264
L 289 264
L 289 264
L 289 264
L 289 264
L 289 264
L 289 264
L 289 264
L 289 264
L 289 264
L 289 264
L 290 264
L 290 264
L 290 264
L 290 263
L 290 263
L 290 263
L 290 263
L 290 263
L 290 263
L 290 263
L 290 263
L 290 263
L 290 263
L 290 263
L 290 263
L 290 263
L 290 263
L 290 263
L 290 263
L 290 263
L 291 263
L 291 263
L 291 263
L 291 263
L 291 263
L 291 263
L 291 263
L 291 263
L 291 263
L 292 263
L 292 263
L 292 262
L 292 262
L 292 262
L 292 262
L 292 262
L 292 262
L 292 262
L 292 262
L 292 262
L 292 262
L 292 262
L 292 262
L 292 262
L 292 262
L 293 262
L 293 262
L 293 262
L 293 262
L 294 262
L 294 262
L 294 262
L 294 262
L 294 262
L 294 262
L 295 262
L 295 262
L 295 262
L 295 261
L 295 261
L 295 261
L 296 261
L 296 261
L 296 261
L 296 261
L 296 261
L 296 261
L 296 261
L 296 261
L 296 261
L 296 261
L 296 261
L 296 261
L 296 261
L 296 261
L 296 261
L 296 261
L 296 261
L 297 261
L 297 261
L 297 261
L 297 261
L 297 261
L 298 261
L 298 261
L 298 260
L 298 260
L 298 260
L 298 260
L 298 260
L 298 260
L 298 260
L 298 260
L 298 260
L 298 260
L 298 260
L 298 260
L 298 260
L 298 260
L 298 260
L 299 260
L 299 260
L 299 260
L 299 260
L 299 260
L 299 260
L 299 260
L 299 260
L 300 260
L 300 260
L 300 260
L 300 260
L 300 260
L 301 259
L 301 259
L 301 259
L 301 259
L 301 259
L 303 259
L 303 259
L 304 259
L 304 259
L 304 259
L 306 259
L 306 259
L 307 259
L 308 259
L 308 259
L 308 259
L 308 259
L 308 259
L 309 259
L 309 259
L 309 259
L 310 259
L 310 259
L 310 259
L 311 259
L 311 259
L 311 259
L 312 258
L 312 258
L 313 258
L 313 258
L 313 258
L 313 258
L 313 258
L 313 258
L 313 258
L 313 258
L 313 258
L 313 258
L 313 258
L 314 258
L 314 258
L 314 258
L 314 258
L 315 258
L 315 258
L 315 258
L 315 258
L 315 258
L 315 258
L 315 258
L 316 258
L 316 258
L 316 258
L 316 257
L 316 257
L 317 257
L 317 257
L 317 257
L 317 257
L 317 257
L 317 257
L 318 257
L 318 257
L 318 257
L 318 257
L 319 257
L 319 257
L 319 257
L 319 257
L 319 257
L 319 257
L 319 257
L 319 257
L 319 257
L 319 257
L 319 257
L 320 257
L 320 257
L 320 257
L 320 257
L 321 257
L 321 256
L 321 256
L 321 256
L 321 256
L 322 256
L 322 256
L 322 256
L 322 256
L 322 256
L 322 256
L 322 256
L 322 256
L 322 256
L 322 256
L 322 256
L 323 256
L 323 256
L 323 256
L 324 256
L 324 256
L 324 256
L 324 256
L 324 256
L 324 256
L 324 256
L 324 256
L 325 256
L 325 255
L 325 255
L 325 255
L 325 255
L 325 255
L 325 255
L 325 255
L 325 255
L 326 255
L 326 255
L 326 255
L 327 255
L 327 255
L 327 255
L 327 255
L 328 255
L 328 255
L 328 255
L 328 255
L 328 255
L 328 255
L 329 255
L 329 255
L 329 255
L 329 255
L 329 255
L 329 255
L 330 254
L 330 254
L 330 254
L 331 254
L 331 254
L 331 254
L 331 254
L 331 254
L 331 254
L 331 254
L 331 254
L 331 254
L 331 254
L 331 254
L 332 254
L 332 254
L 332 254
L 332 254
L 332 254
L 332 254
L 333 254
L 333 254
L 333 254
L 333 254
L 333 254
L 334 254
L 334 254
L 334 254
L 334 253
L 334 253
L 334 253
L 334 253
L 335 253
L 335 253
L 335 253
L 337 253
L 337 253
L 337 253
L 337 253
L 337 253
L 337 253
L 338 253
L 338 253
L 338 253
L 338 253
L 338 253
L 338 253
L 338 253
L 338 253
L 338 253
L 339 253
L 339 253
L 339 253
L 339 253
L 340 253
L 340 252
L 340 252
L 340 252
L 340 252
L 340 252
L 340 252
L 340 252
L 341 252
L 341 252
L 341 252
L 341 252
L 342 252
L 342 252
L 342 252
L 343 252
L 343 252
L 343 252
L 343 252
L 343 252
L 343 252
L 343 252
L 343 252
L 343 252
L 344 252
L 344 252
L 344 252
L 344 252
L 344 251
L 344 251
L 345 251
L 345 251
L 346 251
L 346 251
L 346 251
L 346 251
L 346 251
L 346 251
L 346 251
L 346 251
L 346 251
L 347 251
L 347 251
L 347 251
L 347 251
L 347 251
L 347 251
L 347 251
L 347 251
L 348 251
L 348 251
L 348 251
L 348 251
L 348 251
L 349 251
L 349 251
L 349 250
L 349 250
L 349 250
L 349 250
L 349 250
L 349 250
L 349 250
L 349 250
L 349 250
L 349 250
L 349 250
L 350 250
L 350 250
L 350 250
L 350 250
L 350 250
L 350 250
L 350 250
L 350 250
L 351 250
L 351 250
L 351 250
L 352 250
L 352 250
L 352 250
L 352 250
L 352 250
L 352 249
L 352 249
L 352 249
L 352 249
L 352 249
L 353 249
L 353 249
L 353 249
L 353 249
L 353 249
L 353 249
L 353 249
L 353 249
L 353 249
L 353 249
L 353 249
L 353 249
L 353 249
L 353 249
L 353 249
L 353 249
L 353 249
L 353 249
L 354 249
L 354 249
L 354 249
L 355 249
L 355 249
L 355 248
L 355 248
L 355 248
L 355 248
L 355 248
L 355 248
L 355 248
L 356 248
L 356 248
L 356 248
L 356 248
L 356 248
L 356 248
L 357 248
L 357 248
L 357 248
L 357 248
L 358 248
L 358 248
L 358 248
L 358 248
L 358 248
L 358 248
L 358 248
L 359 248
L 359 248
L 359 248
L 359 247
L 359 247
L 359 247
L 359 247
L 360 247
L 360 247
L 360 247
L 360 247
L 360 247
L 360 247
L 361 247
L 361 247
L 361 247
L 361 247
L 361 247
L 361 247
L 361 247
L 361 247
L 361 247
L 361 247
L 361 247
L 361 247
L 361 247
L 361 247
L 362 247
L 362 247
L 362 247
L 362 246
L 362 246
L 362 246
L 362 246
L 362 246
L 362 246
L 362 246
L 362 246
L 362 246
L 362 246
L 362 246
L 362 246
L 362 246
L 362 246
L 363 246
L 363 246
L 363 246
L 363 246
L 363 246
L 364 246
L 364 246
L 364 246
L 364 246
L 364 246
L 364 246
L 364 246
L 364 246
L 364 246
L 364 245
L 364 245
L 364 245
L 364 245
L 365 245
L 365 245
L 365 245
L 365 245
L 365 245
L 365 245
L 365 245
L 365 245
L 365 245
L 365 245
L 365 245
L 365 245
L 365 245
L 365 245
L 366 245
L 366 245
L 366 245
L 366 245
L 366 245
L 366 245
L 366 245
L 367 245
L 367 245
L 368 244
L 368 244
L 368 244
L 368 244
L 368 244
L 369 244
L 369 244
L 369 244
L 369 244
L 369 244
L 369 244
L 369 244
L 370 244
L 370 244
L 370 244
L 370 244
L 370 244
L 370 244
L 370 244
L 370 244
L 370 244
L 370 244
L 371 244
L 371 244
L 371 244
L 371 244
L 371 244
L 371 243
L 371 243
L 371 243
L 372 243
L 372 243
L 372 243
L 372 243
L 372 243
L 372 243
L 373 243
L 373 243
L 373 243
L 373 243
L 373 243
L 373 243
L 373 243
L 373 243
L 373 243
L 373 243
L 373 243
L 373 243
L 374 243
L 374 243
L 374 243
L 374 243
L 374 243
L 374 243
L 374 243
L 374 242
L 374 242
L 374 242
L 374 242
L 374 242
L 374 242
L 374 242
L 374 242
L 375 242
L 375 242
L 375 242
L 375 242
L 376 242
L 376 242
L 376 242
L 376 242
L 376 242
L 376 242
L 376 242
L 376 242
L 376 242
L 376 242
L 376 242
L 377 242
L 377 242
L 377 242
L 377 242
L 377 241
L 377 241
L 377 241
L 378 241
L 378 241
L 378 241
L 378 241
L 378 241
L 378 241
L 378 241
L 379 241
L 379 241
L 379 241
L 379 241
L 379 241
L 379 241
L 379 241
L 379 241
L 379 241
L 380 241
L 380 241
L 380 241
L 380 241
L 380 241
L 380 241
L 380 241
L 380 241
L 380 240
L 380 240
L 380 240
L 380 240
L 380 240
L 380 240
L 380 240
L 381 240
L 381 240
L 381 240
L 381 240
L 381 240
L 382 240
L 382 240
L 382 240
L 382 240
L 382 240
L 382 240
L 382 240
L 382 240
L 382 240
L 382 240
L 382 240
L 382 240
L 382 240
L 383 240
L 383 240
L 383 240
L 383 239
L 383 239
L 383 239
L 383 239
L 383 239
L 383 239
L 383 239
L 383 239
L 383 239
L 383 239
L 383 239
L 383 239
L 383 239
L 383 239
L 383 239
L 383 239
L 383 239
L 384 239
L 384 239
L 384 239
L 384 239
L 384 239
L 384 239
L 384 239
L 384 239
L 384 239
L 385 239
L 385 238
L 385 238
L 385 238
L 385 238
L 385 238
L 385 238
L 385 238
L 385 238
L 385 238
L 386 238
L 386 238
L 386 238
L 386 238
L 386 238
L 386 238
L 386 238
L 386 238
L 386 238
L 386 238
L 386 238
L 386 238
L 386 238
L 387 238
L 387 238
L 388 238
L 388 238
L 388 238
L 388 237
L 388 237
L 388 237
L 388 237
L 388 237
L 389 237
L 389 237
L 389 237
L 389 237
L 389 237
L 389 237
L 389 237
L 389 237
L 389 237
L 390 237
L 390 237
L 390 237
L 390 237
L 390 237
L 390 237
L 390 237
L 390 237
L 390 237
L 390 237
L 391 237
L 391 237
L 391 237
L 391 237
L 391 236
L 391 236
L 391 236
L 391 236
L 391 236
L 391 236
L 391 236
L 391 236
L 392 236
L 392 236
L 392 236
L 392 236
L 392 236
L 392 236
L 392 236
L 392 236
L 392 236
L 392 236
L 392 236
L 392 236
L 392 236
L 392 236
L 392 236
L 392 236
L 393 236
L 393 236
L 393 236
L 393 235
L 393 235
L 393 235
L 393 235
L 393 235
L 393 235
L 393 235
L 394 235
L 394 235
L 394 235
L 394 235
L 394 235
L 394 235
L 394 235
L 394 235
L 394 235
L 394 235
L 394 235
L 394 235
L 394 235
L 394 235
L 394 235
L 394 235
L 394 235
L 394 235
L 395 235
L 395 235
L 395 234
L 395 234
L 395 234
L 395 234
L 395 234
L 395 234
L 395 234
L 395 234
L 395 234
L 395 234
L 395 234
L 396 234
L 396 234
L 396 234
L 396 234
L 397 234
L 397 234
L 397 234
L 397 234
L 397 234
L 397 234
L 397 234
L 397 234
L 397 234
L 397 234
L 397 234
L 398 234
L 399 234
L 399 233
L 399 233
L 399 233
L 399 233
L 400 233
L 400 233
L 400 233
L 400 233
L 400 233
L 400 233
L 400 233
L 400 233
L 401 233
L 401 233
L 401 233
L 401 233
L 401 233
L 401 233
L 401 233
L 401 233
L 401 233
L 401 233
L 401 233
L 401 233
L 401 233
L 402 233
L 402 233
L 402 232
L 402 232
L 402 232
L 402 232
L 402 232
L 402 232
L 402 232
L 403 232
L 403 232
L 403 232
L 403 232
L 403 232
L 403 232
L 403 232
L 403 232
L 403 232
L 403 232
L 404 232
L 404 232
L 404 232
L 404 232
L 404 232
L 404 232
L 404 232
L 404 232
L 404 232
L 404 232
L 404 232
L 404 231
L 404 231
L 404 231
L 404 231
L 404 231
L 404 231
L 404 231
L 404 231
L 404 231
L 404 231
L 404 231
L 405 231
L 405 231
L 405 231
L 405 231
L 405 231
L 405 231
L 405 231
L 405 231
L 406 231
L 406 231
L 406 231
L 406 231
L 406 231
L 406 231
L 406 231
L 406 231
L 406 230
L 406 230
L 406 230
L 406 230
L 406 230
L 406 230
L 406 230
L 406 230
L 406 230
L 406 230
L 406 230
L 406 230
L 406 230
L 406 230
L 406 230
L 406 230
L 406 230
L 406 230
L 406 230
L 406 230
L 406 230
L 406 230
L 407 230
L 407 230
L 407 230
L 407 230
L 407 230
L 407 229
L 407 229
L 407 229
L 407 229
L 407 229
L 407 229
L 407 229
L 407 229
L 407 229
L 407 229
L 407 229
L 407 229
L 407 229
L 407 229
L 407 229
L 408 229
L 408 229
L 408 229
L 409 229
L 409 229
L 409 229
L 409 229
L 409 229
L 409 229
L 409 229
L 409 229
L 409 229
L 409 229
L 409 228
L 409 228
L 410 228
L 410 228
L 410 228
L 410 228
L 410 228
L 411 228
L 411 228
L 412 228
L 412 228
L 412 228
L 412 228
L 413 228
L 413 228
L 413 228
L 413 228
L 413 228
L 413 228
L 413 228
L 413 228
L 413 228
L 413 228
L 413 228
L 413 228
L 413 228
L 413 228
L 413 227
L 413 227
L 413 227
L 413 227
L 413 227
L 413 227
L 413 227
L 413 227
L 413 227
L 414 227
L 414 227
L 414 227
L 414 227
L 414 227
L 414 227
L 414 227
L 414 227
L 414 227
L 414 227
L 414 227
L 415 227
L 415 227
L 415 227
L 415 227
L 415 227
L 415 227
L 415 227
L 415 226
L 415 226
L 415 226
L 416 226
L 416 226
L 416 226
L 416 226
L 416 226
L 416 226
L 416 226
L 416 226
L 416 226
L 416 226
L 416 226
L 416 226
L 416 226
L 416 226
L 416 226
L 416 226
L 416 226
L 416 226
L 417 226
L 417 226
L 417 226
L 417 226
L 417 226
L 417 226
L 417 226
L 417 225
L 417 225
L 417 225
L 417 225
L 417 225
L 417 225
L 418 225
L 418 225
L 418 225
L 418 225
L 418 225
L 418 225
L 418 225
L 418 225
L 418 225
L 418 225
L 418 225
L 418 225
L 419 225
L 419 225
L 419 225
L 419 225
L 419 225
L 419 225
L 419 225
L 419 225
L 419 225
L 419 224
L 420 224
L 420 224
L 420 224
L 420 224
L 421 224
L 421 224
L 421 224
L 421 224
L 421 224
L 421 224
L 421 224
L 422 224
L 422 224
L 422 224
L 422 224
L 422 224
L 422 224
L 422 224
L 422 224
L 422 224
L 422 224
L 422 224
L 422 224
L 422 224
L 422 224
L 422 224
L 422 223
L 423 223
L 423 223
L 423 223
L 423 223
L 423 223
L 423 223
L 423 223
L 423 223
L 423 223
L 424 223
L 424 223
L 424 223
L 424 223
L 424 223
L 424 223
L 424 223
L 424 223
L 424 223
L 424 223
L 424 223
L 424 223
L 424 223
L 424 223
L 424 223
L 424 223
L 425 223
L 425 223
L 425 222
L 425 222
L 425 222
L 425 222
L 425 222
L 425 222
L 425 222
L 425 222
L 425 222
L 425 222
L 425 222
L 425 222
L 425 222
L 426 222
L 426 222
L 426 222
L 426 222
L 426 222
L 426 222
L 426 222
L 427 222
L 427 222
L 427 222
L 427 222
L 427 222
L 427 222
L 427 222
L 427 221
L 427 221
L 428 221
L 428 221
L 428 221
L 428 221
L 428 221
L 428 221
L 428 221
L 428 221
L 428 221
L 428 221
L 428 221
L 428 221
L 428 221
L 428 221
L 428 221
L 428 221
L 428 221
L 429 221
L 429 221
L 429 221
L 429 221
L 430 221
L 430 221
L 430 221
L 430 221
L 430 220
L 430 220
L 430 220
L 431 220
L 431 220
L 431 220
L 431 220
L 431 220
L 431 220
L 431 220
L 432 220
L 432 220
L 432 220
L 432 220
L 432 220
L 432 220
L 432 220
L 432 220
L 432 220
L 433 220
L 433 220
L 433 220
L 433 220
L 433 220
L 433 220
L 433 220
L 433 220
L 433 220
L 433 219
L 433 219
L 433 219
L 433 219
L 433 219
L 433 219
L 433 219
L 433 219
L 433 219
L 433 219
L 433 219
L 433 219
L 433 219
L 433 219
L 434 219
L 434 219
L 434 219
L 434 219
L 434 219
L 434 219
L 434 219
L 434 219
L 434 219
L 434 219
L 434 219
L 434 219
L 434 219
L 434 218
L 434 218
L 434 218
L 434 218
L 434 218
L 435 218
L 435 218
L 435 218
L 435 218
L 435 218
L 435 218
L 435 218
L 435 218
L 435 218
L 435 218
L 435 218
L 435 218
L 436 218
L 436 218
L 436 218
L 436 218
L 436 218
L 436 218
L 436 218
L 436 218
L 437 218
L 437 218
L 437 217
L 437 217
L 437 217
L 437 217
L 437 217
L 437 217
L 437 217
L 437 217
L 437 217
L 437 217
L 437 217
L 437 217
L 437 217
L 437 217
L 438 217
L 438 217
L 438 217
L 438 217
L 438 217
L 439 217
L 439 217
L 439 217
L 439 217
L 439 217
L 439 217
L 439 217
L 439 217
L 439 217
L 440 216
L 440 216
L 440 216
L 441 216
L 441 216
L 441 216
L 441 216
L 441 216
L 441 216
L 441 216
L 441 216
L 442 216
L 442 216
L 442 216
L 442 216
L 442 216
L 442 216
L 442 216
L 442 216
L 442 216
L 442 216
L 442 216
L 442 216
L 442 216
L 442 216
L 442 216
L 443 216
L 443 215
L 443 215
L 443 215
L 443 215
L 443 215
L 443 215
L 443 215
L 443 215
L 443 215
L 443 215
L 443 215
L 443 215
L 443 215
L 443 215
L 443 215
L 443 215
L 443 215
L 443 215
L 443 215
L 443 215
L 443 215
L 443 215
L 443 215
L 443 215
L 444 215
L 444 215
L 444 215
L 444 215
L 444 214
L 444 214
L 444 214
L 444 214
L 444 214
L 444 214
L 444 214
L 444 214
L 445 214
L 445 214
L 445 214
L 445 214
L 445 214
L 445 214
L 445 214
L 445 214
L 445 214
L 445 214
L 445 214
L 445 214
L 445 214
L 445 214
L 445 214
L 445 214
L 446 214
L 446 214
L 446 214
L 446 213
L 446 213
L 446 213
L 446 213
L 446 213
L 446 213
L 446 213
L 446 213
L 446 213
L 446 213
L 446 213
L 447 213
L 447 213
L 447 213
L 447 213
L 447 213
L 447 213
L 448 213
L 448 213
L 448 213
L 448 213
L 448 213
L 448 213
L 448 213
L 448 213
L 448 213
L 448 213
L 449 212
L 449 212
L 449 212
L 450 212
L 450 212
L 451 212
L 451 212
L 451 212
L 452 212
L 452 212
L 452 212
L 453 212
L 453 212
L 453 212
L 453 212
L 453 212
L 454 212
L 454 212
L 454 212
L 454 212
L 454 212
L 454 212
L 455 212
L 455 212
L 455 212
L 455 212
L 455 212
L 456 212
L 456 211
L 456 211
L 456 211
L 456 211
L 456 211
L 456 211
L 456 211
L 456 211
L 456 211
L 457 211
L 457 211
L 457 211
L 457 211
L 457 211
L 457 211
L 457 211
L 457 211
L 457 211
L 457 211
L 457 211
L 457 211
L 457 211
L 457 211
L 457 211
L 457 211
L 458 211
L 458 211
L 458 210
L 458 210
L 458 210
L 458 210
L 458 210
L 458 210
L 458 210
L 458 210
L 458 210
L 458 210
L 458 210
L 458 210
L 458 210
L 458 210
L 458 210
L 459 210
L 459 210
L 459 210
L 459 210
L 459 210
L 459 210
L 459 210
L 459 210
L 459 210
L 460 210
L 460 210
L 460 210
L 460 209
L 460 209
L 460 209
L 460 209
L 460 209
L 460 209
L 460 209
L 461 209
L 461 209
L 461 209
L 461 209
L 461 209
L 461 209
L 461 209
L 461 209
L 461 209
L 461 209
L 461 209
L 461 209
L 461 209
L 461 209
L 461 209
L 461 209
L 461 209
L 461 209
L 461 209
L 461 209
L 462 209
L 462 208
L 462 208
L 462 208
L 462 208
L 462 208
L 462 208
L 463 208
L 463 208
L 463 208
L 463 208
L 464 208
L 464 208
L 464 208
L 464 208
L 464 208
L 464 208
L 464 208
L 464 208
L 464 208
L 464 208
L 464 208
L 464 208
L 464 208
L 464 208
L 464 208
L 464 208
L 464 208
L 464 207
L 465 207
L 465 207
L 465 207
L 465 207
L 465 207
L 465 207
L 465 207
L 465 207
L 465 207
L 465 207
L 466 207
L 466 207
L 466 207
L 466 207
L 466 207
L 466 207
L 466 207
L 466 207
L 466 207
L 466 207
L 466 207
L 467 207
L 467 207
L 467 207
L 467 207
L 467 207
L 467 206
L 467 206
L 467 206
L 467 206
L 467 206
L 467 206
L 467 206
L 467 206
L 467 206
L 468 206
L 468 206
L 468 206
L 468 206
L 468 206
L 468 206
L 469 206
L 469 206
L 469 206
L 469 206
L 469 206
L 469 206
L 469 206
L 469 206
L 469 206
L 469 206
L 469 206
L 469 206
L 469 206
L 469 205
L 469 205
L 469 205
L 469 205
L 470 205
L 470 205
L 470 205
L 470 205
L 470 205
L 470 205
L 470 205
L 470 205
L 470 205
L 470 205
L 470 205
L 470 205
L 470 205
L 470 205
L 470 205
L 470 205
L 470 205
L 470 205
L 470 205
L 471 205
L 471 205
L 471 205
L 471 205
L 471 204
L 472 204
L 472 204
L 472 204
L 473 204
L 473 204
L 473 204
L 473 204
L 473 204
L 473 204
L 474 204
L 474 204
L 474 204
L 474 204
L 474 204
L 474 204
L 474 204
L 474 204
L 474 204
L 475 204
L 475 204
L 475 204
L 475 204
L 475 204
L 475 204
L 475 204
L 475 204
L 475 203
L 475 203
L 475 203
L 475 203
L 475 203
L 476 203
L 476 203
L 476 203
L 476 203
L 476 203
L 476 203
L 476 203
L 476 203
L 476 203
L 476 203
L 476 203
L 476 203
L 476 203
L 476 203
L 476 203
L 476 203
L 476 203
L 476 203
L 476 203
L 476 203
L 476 203
L 476 203
L 476 203
L 476 202
L 476 202
L 476 202
L 476 202
L 476 202
L 476 202
L 476 202
L 476 202
L 477 202
L 477 202
L 477 202
L 477 202
L 477 202
L 477 202
L 477 202
L 477 202
L 477 202
L 477 202
L 477 202
L 478 202
L 478 202
L 478 202
L 478 202
L 478 202
L 478 202
L 478 202
L 478 202
L 478 201
L 478 201
L 478 201
L 478 201
L 478 201
L 478 201
L 478 201
L 478 201
L 479 201
L 479 201
L 479 201
L 479 201
L 479 201
L 479 201
L 479 201
L 479 201
L 479 201
L 479 201
L 479 201
L 479 201
L 479 201
L 479 201
L 480 201
L 480 201
L 480 201
L 480 201
L 480 201
L 480 200
L 480 200
L 481 200
L 481 200
L 481 200
L 481 200
L 481 200
L 481 200
L 481 200
L 481 200
L 481 200
L 481 200
L 481 200
L 481 200
L 481 200
L 481 200
L 482 200
L 482 200
L 482 200
L 482 200
L 482 200
L 482 200
L 482 200
L 482 200
L 482 200
L 482 200
L 482 200
L 482 200
L 483 199
L 483 199
L 483 199
L 483 199
L 484 199
L 484 199
L 484 199
L 484 199
L 485 199
L 485 199
L 485 199
L 485 199
L 485 199
L 485 199
L 485 199
L 485 199
L 485 199
L 485 199
L 485 199
L 485 199
L 485 199
L 485 199
L 486 199
L 486 199
L 486 199
L 486 199
L 486 199
L 486 198
L 486 198
L 487 198
L 487 198
L 487 198
L 487 198
L 487 198
L 487 198
L 487 198
L 487 198
L 487 198
L 487 198
L 487 198
L 487 198
L 487 198
L 487 198
L 488 198
L 488 198
L 488 198
L 488 198
L 488 198
L 488 198
L 488 198
L 488 198
L 488 198
L 488 198
L 488 198
L 488 198
L 488 197
L 488 197
L 488 197
L 488 197
L 488 197
L 488 197
L 488 197
L 488 197
L 488 197
L 488 197
L 488 197
L 488 197
L 488 197
L 488 197
L 488 197
L 488 197
L 488 197
L 488 197
L 489 197
L 489 197
L 489 197
L 489 197
L 489 197
L 489 197
L 489 197
L 489 197
L 489 197
L 489 196
L 489 196
L 489 196
L 489 196
L 490 196
L 490 196
L 490 196
L 490 196
L 490 196
L 490 196
L 490 196
L 490 196
L 490 196
L 490 196
L 490 196
L 490 196
L 490 196
L 490 196
L 490 196
L 490 196
L 490 196
L 490 196
L 490 196
L 491 196
L 491 196
L 491 196
L 491 196
L 491 195
L 491 195
L 491 195
L 491 195
L 491 195
L 491 195
L 491 195
L 491 195
L 491 195
L 491 195
L 491 195
L 491 195
L 491 195
L 491 195
L 491 195
L 491 195
L 491 195
L 491 195
L 492 195
L 492 195
L 492 195
L 492 195
L 493 195
L 493 195
L 493 195
L 493 195
L 493 195
L 493 195
L 494 194
L 494 194
L 494 194
L 494 194
L 494 194
L 495 194
L 495 194
L 495 194
L 495 194
L 495 194
L 495 194
L 495 194
L 495 194
L 495 194
L 495 194
L 495 194
L 495 194
L 495 194
L 495 194
L 496 194
L 496 194
L 496 194
L 496 194
L 496 194
L 496 194
L 496 194
L 496 194
L 496 193
L 496 193
L 496 193
L 496 193
L 497 193
L 497 193
L 497 193
L 497 193
L 497 193
L 497 193
L 497 193
L 497 193
L 497 193
L 497 193
L 497 193
L 497 193
L 497 193
L 497 193
L 497 193
L 497 193
L 497 193
L 497 193
L 497 193
L 497 193
L 498 193
L 498 193
L 498 193
L 498 192
L 498 192
L 498 192
L 498 192
L 498 192
L 499 192
L 499 192
L 499 192
L 499 192
L 499 192
L 499 192
L 499 192
L 499 192
L 499 192
L 499 192
L 499 192
L 499 192
L 499 192
L 499 192
L 499 192
L 499 192
L 500 192
L 500 192
L 500 192
L 500 192
L 500 192
L 500 192
L 500 192
L 500 191
L 500 191
L 500 191
L 500 191
L 500 191
L 500 191
L 500 191
L 500 191
L 500 191
L 500 191
L 500 191
L 500 191
L 500 191
L 500 191
L 501 191
L 501 191
L 501 191
L 502 191
L 502 191
L 502 191
L 502 191
L 502 191
L 502 191
L 502 191
L 502 191
L 502 191
L 502 191
L 502 190
L 502 190
L 502 190
L 503 190
L 503 190
L 503 190
L 503 190
L 503 190
L 503 190
L 503 190
L 503 190
L 504 190
L 504 190
L 504 190
L 504 190
L 505 190
L 505 190
L 505 190
L 505 190
L 505 190
L 506 190
L 506 190
L 506 190
L 506 190
L 506 190
L 506 190
L 506 190
L 506 189
L 506 189
L 506 189
L 506 189
L 506 189
L 506 189
L 506 189
L 507 189
L 507 189
L 507 189
L 507 189
L 507 189
L 507 189
L 507 189
L 507 189
L 508 189
L 508 189
L 508 189
L 508 189
L 508 189
L 508 189
L 508 189
L 508 189
L 508 189
L 509 189
L 509 189
L 509 189
L 509 189
L 509 188
L 509 188
L 509 188
L 509 188
L 509 188
L 509 188
L 509 188
L 509 188
L 509 188
L 509 188
L 509 188
L 510 188
L 510 188
L 510 188
L 510 188
L 510 188
L 510 188
L 511 188
L 511 188
L 511 188
L 511 188
L 511 188
L 511 188
L 511 188
L 511 188
L 511 188
L 511 188
L 511 187
L 511 187
L 511 187
L 511 187
L 511 187
L 512 187
L 512 187
L 512 187
L 512 187
L 512 187
L 512 187
L 512 187
L 512 187
L 512 187
L 512 187
L 512 187
L 512 187
L 512 187
L 512 187
L 512 187
L 512 187
L 512 187
L 512 187
L 512 187
L 512 187
L 512 187
L 513 187
L 513 186
L 513 186
L 513 186
L 514 186
L 514 186
L 514 186
L 514 186
L 514 186
L 515 186
L 515 186
L 515 186
L 515 186
L 515 186
L 516 186
L 516 186
L 516 186
L 516 186
L 516 186
L 516 186
L 516 186
L 516 186
L 516 186
L 516 186
L 516 186
L 516 186
L 516 186
L 516 186
L 516 186
L 517 185
L 517 185
L 517 185
L 517 185
L 517 185
L 517 185
L 517 185
L 517 185
L 517 185
L 517 185
L 517 185
L 517 185
L 517 185
L 517 185
L 517 185
L 517 185
L 517 185
L 517 185
L 518 185
L 518 185
L 518 185
L 518 185
L 518 185
L 518 185
L 518 185
L 518 185
L 518 185
L 518 184
L 518 184
L 518 184
L 518 184
L 518 184
L 518 184
L 519 184
L 519 184
L 519 184
L 519 184
L 519 184
L 519 184
L 519 184
L 520 184
L 520 184
L 520 184
L 520 184
L 520 184
L 520 184
L 520 184
L 520 184
L 520 184
L 520 184
L 520 184
L 520 184
L 520 184
L 520 184
L 520 183
L 520 183
L 520 183
L 520 183
L 520 183
L 520 183
L 520 183
L 520 183
L 520 183
L 520 183
L 520 183
L 520 183
L 520 183
L 520 183
L 520 183
L 520 183
L 520 183
L 520 183
L 520 183
L 520 183
L 520 183
L 520 183
L 520 183
L 520 183
L 520 183
L 520 183
L 520 183
L 520 183
L 520 182
L 520 182
L 521 182
L 521 182
L 521 182
L 521 182
L 521 182
L 521 182
L 521 182
L 521 182
L 521 182
L 521 182
L 521 182
L 521 182
L 521 182
L 521 182
L 521 182
L 521 182
L 521 182
L 521 182
L 521 182
L 521 182
L 521 182
L 521 182
L 521 182
L 521 182
L 521 182
L 521 181
L 521 181
L 521 181
L 521 181
L 521 181
L 521 181
L 521 181
L 521 181
L 521 181
L 521 181
L 521 181
L 521 181
L 521 181
L 521 181
L 521 181
L 521 181
L 521 181
L 521 181
L 521 181
L 521 181
L 521 181
L 521 181
L 521 181
L 521 181
L 521 181
L 521 181
L 521 181
L 521 181
L 522 180
L 522 180
L 522 180
L 522 180
L 522 180
L 522 180
L 522 180
L 522 180
L 522 180
L 522 180
L 522 180
L 522 180
L 522 180
L 522 180
L 522 180
L 522 180
L 522 180
L 522 180
L 522 180
L 522 180
L 522 180
L 523 180
L 523 180
L 523 180
L 523 180
L 523 180
L 523 180
L 523 179
L 523 179
L 523 179
L 523 179
L 523 179
L 523 179
L 523 179
L 523 179
L 523 179
L 523 179
L 523 179
L 523 179
L 523 179
L 523 179
L 523 179
L 523 179
L 523 179
L 523 179
L 523 179
L 523 179
L 524 179
L 524 179
L 524 179
L 524 179
L 524 179
L 524 179
L 524 179
L 524 178
L 524 178
L 524 178
L 524 178
L 524 178
L 524 178
L 525 178
L 525 178
L 525 178
L 525 178
L 525 178
L 525 178
L 525 178
L 525 178
L 525 178
L 525 178
L 525 178
L 526 178
L 526 178
L 526 178
L 526 178
L 526 178
L 526 178
L 526 178
L 527 178
L 527 178
L 527 178
L 527 178
L 527 177
L 527 177
L 527 177
L 527 177
L 527 177
L 527 177
L 527 177
L 527 177
L 527 177
L 527 177
L 527 177
L 527 177
L 527 177
L 527 177
L 528 177
L 528 177
L 528 177
L 528 177
L 528 177
L 528 177
L 528 177
L 528 177
L 529 177
L 529 177
L 529 177
L 529 177
L 529 177
L 529 176
L 529 176
L 529 176
L 529 176
L 529 176
L 529 176
L 529 176
L 529 176
L 529 176
L 529 176
L 529 176
L 530 176
L 530 176
L 530 176
L 530 176
L 530 176
L 530 176
L 530 176
L 530 176
L 530 176
L 530 176
L 530 176
L 530 176
L 530 176
L 530 176
L 530 176
L 530 176
L 530 175
L 530 175
L 530 175
L 530 175
L 530 175
L 530 175
L 530 175
L 531 175
L 531 175
L 531 175
L 531 175
L 531 175
L 531 175
L 531 175
L 532 175
L 532 175
L 532 175
L 532 175
L 532 175
L 532 175
L 532 175
L 533 175
L 533 175
L 533 175
L 534 175
L 534 175
L 534 175
L 534 175
L 535 174
L 535 174
L 535 174
L 535 174
L 535 174
L 535 174
L 536 174
L 536 174
L 536 174
L 536 174
L 536 174
L 536 174
L 536 174
L 536 174
L 536 174
L 536 174
L 536 174
L 536 174
L 536 174
L 536 174
L 536 174
L 536 174
L 536 174
L 536 174
L 536 174
L 536 174
L 536 174
L 536 173
L 536 173
L 536 173
L 536 173
L 536 173
L 536 173
L 536 173
L 536 173
L 536 173
L 536 173
L 536 173
L 536 173
L 536 173
L 536 173
L 536 173
L 536 173
L 536 173
L 536 173
L 536 173
L 536 173
L 536 173
L 536 173
L 536 173
L 536 173
L 536 173
L 536 173
L 536 173
L 536 172
L 536 172
L 536 172
L 536 172
L 536 172
L 536 172
L 536 172
L 537 172
L 537 172
L 537 172
L 537 172
L 537 172
L 537 172
L 537 172
L 537 172
L 537 172
L 537 172
L 537 172
L 537 172
L 537 172
L 538 172
L 538 172
L 538 172
L 538 172
L 538 172
L 538 172
L 538 172
L 538 172
L 538 171
L 538 171
L 538 171
L 538 171
L 538 171
L 538 171
L 538 171
L 538 171
L 538 171
L 538 171
L 538 171
L 538 171
L 538 171
L 538 171
L 538 171
L 538 171
L 539 171
L 539 171
L 539 171
L 539 171
L 539 171
L 539 171
L 539 171
L 539 171
L 539 171
L 539 171
L 539 171
L 539 170
L 539 170
L 539 170
L 539 170
L 539 170
L 539 170
L 539 170
L 539 170
L 539 170
L 539 170
L 539 170
L 539 170
L 539 170
L 539 170
L 539 170
L 539 170
L 539 170
L 539 170
L 539 170
L 539 170
L 539 170
L 539 170
L 539 170
L 539 170
L 539 170
L 539 170
L 539 170
L 539 169
L 539 169
L 539 169
L 539 169
L 539 169
L 539 169
L 539 169
L 540 169
L 540 169
L 540 169
L 540 169
L 540 169
L 540 169
L 540 169
L 540 169
L 540 169
L 540 169
L 540 169
L 540 169
L 540 169
L 541 169
L 541 169
L 541 169
L 541 169
L 541 169
L 541 169
L 541 169
L 541 169
L 541 168
L 541 168
L 541 168
L 541 168
L 541 168
L 541 168
L 542 168
L 542 168
L 542 168
L 542 168
L 542 168
L 542 168
L 542 168
L 542 168
L 542 168
L 542 168
L 542 168
L 542 168
L 542 168
L 542 168
L 542 168
L 542 168
L 542 168
L 542 168
L 542 168
L 542 168
L 542 168
L 542 167
L 542 167
L 542 167
L 543 167
L 543 167
L 543 167
L 543 167
L 543 167
L 543 167
L 543 167
L 543 167
L 543 167
L 543 167
L 543 167
L 543 167
L 543 167
L 543 167
L 543 167
L 543 167
L 543 167
L 543 167
L 544 167
L 544 167
L 544 167
L 544 167
L 544 167
L 544 167
L 544 166
L 544 166
L 544 166
L 544 166
L 544 166
L 544 166
L 544 166
L 544 166
L 544 166
L 544 166
L 544 166
L 544 166
L 545 166
L 545 166
L 545 166
L 545 166
L 545 166
L 545 166
L 545 166
L 545 166
L 545 166
L 545 166
L 545 166
L 545 166
L 545 166
L 545 166
L 546 166
L 546 166
L 546 165
L 546 165
L 546 165
L 546 165
L 546 165
L 547 165
L 547 165
L 547 165
L 547 165
L 547 165
L 547 165
L 547 165
L 548 165
L 548 165
L 548 165
L 548 165
L 548 165
L 548 165
L 548 165
L 548 165
L 548 165
L 548 165
L 548 165
L 548 165
L 548 165
L 548 165
L 548 165
L 548 164
L 548 164
L 548 164
L 548 164
L 548 164
L 548 164
L 549 164
L 549 164
L 549 164
L 549 164
L 549 164
L 549 164
L 549 164
L 549 164
L 549 164
L 549 164
L 549 164
L 549 164
L 549 164
L 550 164
L 550 164
L 550 164
L 550 164
L 550 164
L 550 164
L 550 164
L 550 164
L 550 163
L 550 163
L 550 163
L 550 163
L 550 163
L 550 163
L 550 163
L 550 163
L 550 163
L 551 163
L 551 163
L 551 163
L 551 163
L 551 163
L 551 163
L 551 163
L 551 163
L 551 163
L 551 163
L 551 163
L 551 163
L 551 163
L 551 163
L 551 163
L 551 163
L 551 163
L 551 163
L 551 163
L 552 162
L 552 162
L 552 162
L 552 162
L 552 162
L 552 162
L 552 162
L 552 162
L 552 162
L 552 162
L 552 162
L 553 162
L 553 162
L 553 162
L 553 162
L 553 162
L 553 162
L 553 162
L 553 162
L 553 162
L 553 162
L 553 162
L 553 162
L 553 162
L 553 162
L 553 162
L 553 162
L 553 161
L 553 161
L 554 161
L 554 161
L 554 161
L 554 161
L 554 161
L 554 161
L 554 161
L 554 161
L 554 161
L 554 161
L 554 161
L 554 161
L 554 161
L 554 161
L 554 161
L 554 161
L 554 161
L 554 161
L 554 161
L 554 161
L 554 161
L 555 161
L 555 161
L 555 161
L 555 161
L 555 161
L 555 160
L 555 160
L 555 160
L 556 160
L 556 160
L 556 160
L 556 160
L 556 160
L 556 160
L 556 160
L 556 160
L 556 160
L 557 160
L 557 160
L 557 160
L 557 160
L 557 160
L 557 160
L 558 160
L 558 160
L 558 160
L 558 160
L 558 160
L 558 160
L 558 160
L 558 160
L 559 160
L 559 159
L 559 159
L 559 159
L 559 159
L 559 159
L 559 159
L 559 159
L 560 159
L 560 159
L 560 159
L 560 159
L 560 159
L 560 159
L 560 159
L 560 159
L 560 159
L 560 159
L 560 159
L 560 159
L 560 159
L 560 159
L 560 159
L 560 159
L 560 159
L 560 159
L 560 159
L 560 159
L 560 158
L 561 158
L 561 158
L 561 158
L 561 158
L 561 158
L 561 158
L 561 158
L 561 158
L 561 158
L 561 158
L 561 158
L 561 158
L 562 158
L 562 158
L 562 158
L 562 158
L 562 158
L 562 158
L 562 158
L 562 158
L 562 158
L 562 158
L 562 158
L 562 158
L 562 158
L 562 158
L 563 158
L 563 157
L 563 157
L 563 157
L 563 157
L 563 157
L 563 157
L 563 157
L 563 157
L 563 157
L 563 157
L 563 157
L 563 157
L 563 157
L 563 157
L 563 157
L 563 157
L 563 157
L 563 157
L 563 157
L 563 157
L 563 157
L 563 157
L 563 157
L 564 157
L 564 157
L 564 157
L 564 157
L 564 156
L 564 156
L 564 156
L 564 156
L 564 156
L 564 156
L 565 156
L 565 156
L 565 156
L 565 156
L 565 156
L 565 156
L 565 156
L 565 156
L 565 156
L 565 156
L 565 156
L 565 156
L 565 156
L 565 156
L 565 156
L 566 156
L 566 156
L 566 156
L 566 156
L 566 156
L 566 156
L 566 155
L 566 155
L 566 155
L 566 155
L 567 155
L 567 155
L 567 155
L 568 155
L 568 155
L 568 155
L 568 155
L 568 155
L 568 155
L 568 155
L 568 155
L 568 155
L 568 155
L 568 155
L 568 155
L 569 155
L 569 155
L 569 155
L 569 155
L 569 155
L 569 155
L 569 155
L 569 155
L 569 155
L 569 154
L 569 154
L 569 154
L 569 154
L 569 154
L 569 154
L 569 154
L 569 154
L 570 154
L 570 154
L 570 154
L 570 154
L 570 154
L 570 154
L 570 154
L 570 154
L 571 154
L 571 154
L 571 154
L 571 154
L 571 154
L 571 154
L 571 154
L 571 154
L 571 154
L 572 154
L 572 154
L 572 153
L 572 153
L 572 153
L 572 153
L 572 153
L 572 153
L 572 153
L 572 153
L 572 153
L 572 153
L 572 153
L 572 153
L 572 153
L 572 153
L 572 153
L 572 153
L 572 153
L 572 153
L 572 153
L 572 153
L 572 153
L 572 153
L 572 153
L 572 153
L 572 153
L 572 153
L 573 153
L 573 152
L 573 152
L 573 152
L 573 152
L 573 152
L 573 152
L 574 152
L 574 152
L 574 152
L 574 152
L 574 152
L 574 152
L 574 152
L 574 152
L 574 152
L 574 152
L 574 152
L 574 152
L 574 152
L 574 152
L 574 152
L 574 152
L 574 152
L 574 152
L 574 152
L 574 152
L 574 152
L 575 152
L 575 151
L 575 151
L 575 151
L 575 151
L 575 151
L 575 151
L 575 151
L 575 151
L 575 151
L 575 151
L 575 151
L 575 151
L 575 151
L 575 151
L 575 151
L 575 151
L 575 151
L 575 151
L 575 151
L 575 151
L 576 151
L 576 151
L 577 151
L 577 151
L 577 151
L 577 151
L 577 151
L 577 150
L 577 150
L 577 150
L 578 150
L 578 150
L 578 150
L 578 150
L 578 150
L 578 150
L 578 150
L 578 150
L 578 150
L 579 150
L 579 150
L 579 150
L 579 150
L 579 150
L 579 150
L 579 150
L 579 150
L 580 150
L 580 150
L 580 150
L 580 150
L 580 150
L 580 150
L 580 150
L 580 149
L 580 149
L 581 149
L 581 149
L 581 149
L 581 149
L 581 149
L 581 149
L 581 149
L 581 149
L 581 149
L 581 149
L 581 149
L 581 149
L 581 149
L 581 149
L 581 149
L 581 149
L 581 149
L 581 149
L 581 149
L 582 149
L 582 149
L 582 149
L 582 149
L 582 149
L 582 149
L 582 149
L 582 148
L 582 148
L 582 148
L 582 148
L 582 148
L 583 148
L 583 148
L 583 148
L 583 148
L 583 148
L 583 148
L 583 148
L 583 148
L 583 148
L 583 148
L 583 148
L 583 148
L 583 148
L 583 148
L 583 148
L 583 148
L 583 148
L 583 148
L 583 148
L 583 148
L 583 148
L 583 148
L 583 147
L 584 147
L 584 147
L 584 147
L 584 147
L 584 147
L 584 147
L 584 147
L 584 147
L 584 147
L 584 147
L 584 147
L 584 147
L 584 147
L 584 147
L 584 147
L 584 147
L 584 147
L 584 147
L 584 147
L 584 147
L 584 147
L 585 147
L 585 147
L 585 147
L 585 147
L 585 147
L 585 147
L 585 146
L 585 146
L 585 146
L 585 146
L 586 146
L 586 146
L 586 146
L 586 146
L 586 146
L 586 146
L 586 146
L 586 146
L 586 146
L 586 146
L 586 146
L 586 146
L 587 146
L 587 146
L 587 146
L 587 146
L 587 146
L 587 146
L 587 146
L 587 146
L 587 146
L 588 146
L 588 146
L 588 145
L 589 145
L 589 145
L 589 145
L 589 145
L 589 145
L 589 145
L 589 145
L 589 145
L 589 145
L 590 145
L 590 145
L 590 145
L 590 145
L 590 145
L 590 145
L 590 145
L 590 145
L 590 145
L 590 145
L 590 145
L 590 145
L 590 145
L 590 145
L 590 145
L 590 145
L 590 145
L 590 144
L 590 144
L 591 144
L 591 144
L 591 144
L 591 144
L 591 144
L 591 144
L 591 144
L 591 144
L 591 144
L 591 144
L 591 144
L 592 144
L 592 144
L 592 144
L 592 144
L 592 144
L 592 144
L 592 144
L 592 144
L 592 144
L 592 144
L 592 144
L 592 144
L 592 144
L 592 144
L 592 144
L 592 143
L 592 143
L 592 143
L 593 143
L 593 143
L 593 143
L 593 143
L 593 143
L 593 143
L 593 143
L 593 143
L 593 143
L 593 143
L 593 143
L 593 143
L 593 143
L 593 143
L 593 143
L 593 143
L 593 143
L 593 143
L 593 143
L 594 143
L 594 143
L 594 143
L 594 143
L 594 143
L 595 142
L 595 142
L 595 142
L 595 142
L 595 142
L 595 142
L 595 142
L 595 142
L 595 142
L 595 142
L 595 142
L 595 142
L 595 142
L 596 142
L 596 142
L 596 142
L 596 142
L 596 142
L 596 142
L 596 142
L 596 142
L 596 142
L 596 142
L 596 142
L 596 142
L 596 142
L 596 142
L 596 141
L 596 141
L 596 141
L 596 141
L 596 141
L 597 141
L 597 141
L 597 141
L 597 141
L 597 141
L 598 141
L 598 141
L 598 141
L 598 141
L 598 141
L 598 141
L 598 141
L 598 141
L 598 141
L 599 141
L 599 141
L 599 141
L 600 141
L 600 141
L 600 141
L 600 141
L 600 141
L 600 141
L 600 140
L 600 140
L 601 140
L 601 140
L 601 140
L 601 140
L 601 140
L 601 140
L 601 140
L 601 140
L 601 140
L 601 140
L 601 140
L 601 140
L 601 140
L 602 140
L 602 140
L 602 140
L 602 140
L 602 140
L 602 140
L 602 140
L 602 140
L 602 140
L 602 140
L 602 140
L 602 140
L 602 139
L 602 139
L 602 139
L 603 139
L 603 139
L 603 139
L 603 139
L 603 139
L 603 139
L 604 139
L 604 139
L 604 139
L 604 139
L 604 139
L 604 139
L 604 139
L 604 139
L 604 139
L 605 139
L 605 139
L 605 139
L 605 139
L 605 139
L 605 139
L 605 139
L 605 139
L 605 139
L 605 138
L 605 138
L 605 138
L 605 138
L 605 138
L 605 138
L 605 138
L 605 138
L 606 138
L 606 138
L 606 138
L 606 138
L 606 138
L 607 138
L 607 138
L 607 138
L 607 138
L 607 138
L 607 138
L 607 138
L 607 138
L 607 138
L 607 138
L 608 138
L 608 138
L 608 138
L 608 138
L 608 138
L 608 137
L 608 137
L 609 137
L 609 137
L 609 137
L 610 137
L 610 137
L 610 137
L 611 137
L 611 137
L 611 137
L 611 137
L 611 137
L 611 137
L 611 137
L 611 137
L 611 137
L 611 137
L 611 137
L 611 137
L 611 137
L 611 137
L 611 137
L 612 137
L 612 137
L 612 137
L 612 137
L 612 136
L 612 136
L 612 136
L 612 136
L 612 136
L 612 136
L 612 136
L 612 136
L 613 136
L 613 136
L 613 136
L 613 136
L 613 136
L 613 136
L 613 136
L 613 136
L 613 136
L 613 136
L 613 136
L 614 136
L 614 136
L 614 136
L 614 136
L 614 136
L 614 136
L 614 136
L 614 136
L 614 135
L 614 135
L 614 135
L 614 135
L 614 135
L 614 135
L 614 135
L 614 135
L 614 135
L 614 135
L 614 135
L 614 135
L 615 135
L 615 135
L 615 135
L 615 135
L 615 135
L 615 135
L 615 135
L 615 135
L 615 135
L 615 135
L 615 135
L 615 135
L 616 135
L 616 135
L 616 135
L 616 135
L 616 134
L 616 134
L 617 134
L 617 134
L 617 134
L 617 134
L 617 134
L 617 134
L 617 134
L 617 134
L 617 134
L 617 134
L 617 134
L 617 134
L 617 134
L 617 134
L 617 134
L 617 134
L 617 134
L 617 134
L 617 134
L 617 134
L 618 134
L 618 134
L 618 134
L 619 134
L 619 134
L 619 133
L 619 133
L 620 133
L 621 133
L 621 133
L 621 133
L 621 133
L 621 133
L 621 133
L 621 133
L 621 133
L 621 133
L 621 133
L 621 133
L 621 133
L 621 133
L 621 133
L 622 133
L 622 133
L 622 133
L 622 133
L 622 133
L 622 133
L 622 133
L 622 133
L 622 133
L 622 133
L 622 132
L 622 132
L 622 132
L 622 132
L 623 132
L 623 132
L 623 132
L 623 132
L 623 132
L 623 132
L 623 132
L 623 132
L 623 132
L 623 132
L 623 132
L 623 132
L 623 132
L 623 132
L 624 132
L 624 132
L 624 132
L 624 132
L 624 132
L 624 132
L 625 132
L 625 132
L 625 132
L 625 132
L 625 131
L 625 131
L 625 131
L 625 131
L 625 131
L 625 131
L 625 131
L 625 131
L 625 131
L 625 131
L 625 131
L 626 131
L 626 131
L 626 131
L 626 131
L 626 131
L 626 131
L 626 131
L 626 131
L 626 131
L 626 131
L 626 131
L 626 131
L 626 131
L 626 131
L 626 131
L 626 131
L 626 130
L 626 130
L 626 130
L 626 130
L 626 130
L 626 130
L 626 130
L 626 130
L 627 130
L 627 130
L 627 130
L 627 130
L 627 130
L 627 130
L 627 130
L 627 130
L 627 130
L 627 130
L 627 130
L 627 130
L 627 130
L 627 130
L 628 130
L 628 130
L 628 130
L 628 130
L 628 130
L 628 130
L 628 129
L 628 129
L 628 129
L 628 129
L 628 129
L 628 129
L 628 129
L 628 129
L 628 129
L 628 129
L 628 129
L 628 129
L 628 129
L 628 129
L 628 129
L 629 129
L 629 129
L 629 129
L 629 129
L 629 129
L 629 129
L 629 129
L 629 129
L 630 129
L 630 129
L 630 129
L 630 129
L 630 128
L 630 128
L 630 128
L 631 128
L 631 128
L 631 128
L 631 128
L 631 128
L 631 128
L 631 128
L 632 128
L 632 128
L 632 128
L 632 128
L 632 128
L 632 128
L 632 128
L 632 128
L 632 128
L 632 128
L 632 128
L 632 128
L 632 128
L 632 128
L 632 128
L 632 128
L 632 128
L 632 127
L 632 127
L 632 127
L 632 127
L 632 127
L 632 127
L 633 127
L 633 127
L 633 127
L 633 127
L 633 127
L 633 127
L 633 127
L 633 127
L 634 127
L 634 127
L 634 127
L 634 127
L 634 127
L 634 127
L 634 127
L 634 127
L 634 127
L 634 127
L 635 127
L 635 127
L 635 127
L 635 127
L 635 126
L 635 126
L 635 126
L 635 126
L 635 126
L 635 126
L 635 126
L 635 126
L 635 126
L 635 126
L 635 126
L 635 126
L 635 126
L 635 126
L 635 126
L 635 126
L 635 126
L 636 126
L 636 126
L 636 126
L 636 126
L 636 126
L 636 126
L 636 126
L 636 126
L 636 126
L 636 126
L 636 125
L 636 125
L 636 125
L 637 125
L 637 125
L 637 125
L 637 125
L 637 125
L 637 125
L 637 125
L 637 125
L 637 125
L 637 125
L 637 125
L 637 125
L 638 125
L 638 125
L 638 125
L 638 125
L 638 125
L 638 125
L 638 125
L 638 125
L 638 125
L 638 125
L 638 125
L 638 125
L 638 124
L 638 124
L 639 124
L 639 124
L 639 124
L 639 124
L 640 124
L 640 124
L 640 124
L 640 124
L 641 124
L 641 124
L 641 124
L 641 124
L 641 124
L 642 124
L 642 124
L 642 124
L 642 124
L 642 124
L 642 124
L 642 124
L 642 124
L 642 124
L 642 124
L 642 124
L 642 124
L 643 124
L 643 123
L 643 123
L 643 123
L 643 123
L 643 123
L 643 123
L 644 123
L 644 123
L 644 123
L 644 123
L 644 123
L 644 123
L 644 123
L 644 123
L 644 123
L 644 123
L 644 123
L 644 123
L 644 123
L 644 123
L 644 123
L 644 123
L 644 123
L 644 123
L 644 123
L 644 123
L 644 123
L 644 122
L 644 122
L 644 122
L 645 122
L 645 122
L 645 122
L 645 122
L 645 122
L 645 122
L 645 122
L 645 122
L 646 122
L 646 122
L 646 122
L 646 122
L 646 122
L 646 122
L 646 122
L 646 122
L 646 122
L 646 122
L 647 122
L 647 122
L 647 122
L 647 122
L 647 122
L 647 122
L 647 121
L 647 121
L 647 121
L 647 121
L 647 121
L 647 121
L 647 121
L 647 121
L 648 121
L 648 121
L 648 121
L 648 121
L 648 121
L 648 121
L 648 121
L 648 121
L 648 121
L 648 121
L 648 121
L 648 121
L 648 121
L 648 121
L 648 121
L 648 121
L 648 121
L 649 121
L 649 121
L 649 121
L 649 120
L 649 120
L 649 120
L 649 120
L 649 120
L 649 120
L 649 120
L 649 120
L 649 120
L 649 120
L 649 120
L 649 120
L 649 120
L 649 120
L 649 120
L 649 120
L 649 120
L 649 120
L 650 120
L 650 120
L 650 120
L 651 120
L 651 120
L 651 120
L 651 120
L 651 120
L 652 120
L 652 119
L 652 119
L 652 119
L 652 119
L 652 119
L 653 119
L 653 119
L 653 119
L 653 119
L 653 119
L 653 119
L 653 119
L 653 119
L 653 119
L 653 119
L 653 119
L 653 119
L 653 119
L 653 119
L 653 119
L 653 119
L 653 119
L 653 119
L 653 119
L 653 119
L 653 119
L 653 119
L 653 118
L 654 118
L 654 118
L 654 118
L 654 118
L 654 118
L 654 118
L 654 118
L 654 118
L 654 118
L 654 118
L 654 118
L 654 118
L 654 118
L 655 118
L 655 118
L 655 118
L 655 118
L 655 118
L 655 118
L 655 118
L 655 118
L 656 118
L 656 118
L 656 118
L 656 118
L 656 118
L 656 118
L 656 117
L 656 117
L 656 117
L 656 117
L 656 117
L 656 117
L 656 117
L 656 117
L 656 117
L 656 117
L 656 117
L 656 117
L 656 117
L 656 117
L 656 117
L 657 117
L 657 117
L 657 117
L 657 117
L 657 117
L 657 117
L 657 117
L 658 117
L 658 117
L 658 117
L 658 117
L 658 117
L 658 116
L 658 116
L 658 116
L 658 116
L 658 116
L 658 116
L 658 116
L 658 116
L 658 116
L 658 116
L 658 116
L 658 116
L 659 116
L 659 116
L 659 116
L 659 116
L 659 116
L 659 116
L 659 116
L 659 116
L 659 116
L 659 116
L 659 116
L 659 116
L 659 116
L 659 116
L 659 116
L 659 115
L 659 115
L 659 115
L 659 115
L 660 115
L 660 115
L 660 115
L 660 115
L 660 115
L 661 115
L 661 115
L 661 115
L 661 115
L 662 115
L 662 115
L 662 115
L 662 115
L 662 115
L 662 115
L 663 115
L 663 115
L 663 115
L 663 115
L 663 115
L 663 115
L 663 115
L 664 115
L 664 115
L 664 114
L 664 114
L 664 114
L 664 114
L 664 114
L 664 114
L 664 114
L 664 114
L 664 114
L 664 114
L 664 114
L 664 114
L 664 114
L 664 114
L 665 114
L 665 114
L 665 114
L 665 114
L 665 114
L 665 114
L 665 114
L 665 114
L 665 114
L 665 114
L 665 114
L 665 114
L 665 114
L 665 113
L 665 113
L 665 113
L 665 113
L 665 113
L 665 113
L 665 113
L 665 113
L 665 113
L 666 113
L 666 113
L 666 113
L 666 113
L 666 113
L 666 113
L 666 113
L 666 113
L 666 113
L 666 113
L 666 113
L 666 113
L 666 113
L 666 113
L 667 113
L 667 113
L 667 113
L 667 113
L 667 113
L 667 112
L 667 112
L 667 112
L 667 112
L 668 112
L 668 112
L 668 112
L 668 112
L 668 112
L 668 112
L 668 112
L 668 112
L 668 112
L 668 112
L 668 112
L 668 112
L 668 112
L 669 112
L 669 112
L 669 112
L 669 112
L 669 112
L 669 112
L 669 112
L 669 112
L 669 112
L 669 112
L 670 111
L 670 111
L 670 111
L 670 111
L 670 111
L 670 111
L 670 111
L 671 111
L 671 111
L 671 111
L 671 111
L 671 111
L 671 111
L 671 111
L 671 111
L 671 111
L 672 111
L 672 111
L 672 111
L 672 111
L 672 111
L 672 111
L 672 111
L 672 111
L 672 111
L 672 111
L 672 111
L 672 110
L 673 110
L 673 110
L 673 110
L 673 110
L 673 110
L 673 110
L 673 110
L 673 110
L 673 110
L 673 110
L 673 110
L 674 110
L 674 110
L 674 110
L 674 110
L 674 110
L 674 110
L 674 110
L 674 110
L 674 110
L 674 110
L 674 110
L 674 110
L 674 110
L 674 110
L 674 110
L 674 110
L 674 109
L 674 109
L 674 109
L 675 109
L 675 109
L 675 109
L 675 109
L 675 109
L 675 109
L 675 109
L 675 109
L 675 109
L 675 109
L 675 109
L 675 109
L 676 109
L 676 109
L 676 109
L 676 109
L 676 109
L 676 109
L 676 109
L 676 109
L 676 109
L 676 109
L 676 109
L 676 109
L 676 108
L 676 108
L 676 108
L 676 108
L 677 108
L 677 108
L 677 108
L 677 108
L 677 108
L 677 108
L 677 108
L 677 108
L 677 108
L 677 108
L 677 108
L 677 108
L 677 108
L 677 108
L 677 108
L 677 108
L 677 108
L 677 108
L 677 108
L 677 108
L 677 108
L 677 108
L 678 108
L 678 107
L 680 107
L 680 107
L 680 107
L 681 107
L 682 107
L 683 107
L 683 107
L 683 107
L 683 107
L 684 107
L 685 107
L 686 107
L 686 107
L 686 107
L 688 107
L 688 107
L 689 107
L 689 107
L 689 107
L 689 107
L 689 107
L 689 107
L 689 107
L 689 107
L 690 107
L 690 107
L 690 107
L 690 106
L 690 106
L 690 106
L 690 106
L 690 106
L 690 106
L 690 106
L 690 106
L 691 106
L 691 106
L 691 106
L 691 106
L 691 106
L 691 106
L 691 106
L 691 106
L 691 106
L 692 106
L 692 106
L 692 106
L 692 106
L 692 106
L 692 106
L 692 106
L 692 106
L 692 106
L 692 106
L 692 105
L 692 105
L 692 105
L 692 105
L 692 105
L 692 105
L 692 105
L 692 105
L 692 105
L 692 105
L 692 105
L 692 105
L 692 105
L 692 105
L 692 105
L 692 105
L 692 105
L 692 105
L 693 105
L 693 105
L 693 105
L 694 105
L 695 105
L 695 105
L 695 105
L 695 105
L 695 105
L 695 104
L 695 104
L 695 104
L 695 104
L 695 104
L 695 104
L 695 104
L 695 104
L 695 104
L 695 104
L 696 104
L 696 104
L 696 104
L 696 104
L 696 104
L 696 104
L 696 104
L 696 104
L 696 104
L 696 104
L 696 104
L 696 104
L 696 104
L 696 104
L 696 104
L 696 104
L 696 104
L 696 104
L 696 103
L 696 103
L 697 103
L 697 103
L 697 103
L 697 103
L 697 103
L 697 103
L 697 103
L 697 103
L 697 103
L 697 103
L 697 103
L 698 103
L 698 103
L 698 103
L 698 103
L 698 103
L 698 103
L 698 103
L 698 103
L 698 103
L 699 103
L 699 103
L 699 103
L 699 103
L 699 103
L 699 102
L 699 102
L 699 102
L 699 102
L 699 102
L 699 102
L 699 102
L 699 102
L 699 102
L 700 102
L 700 102
L 700 102
L 700 102
L 700 102
L 700 102
L 700 102
L 700 102
L 700 102
L 700 102
L 700 102
L 700 102
L 700 102
L 701 102
L 701 102
L 701 102
L 701 102
L 701 102
L 701 101
L 701 101
L 701 101
L 701 101
L 701 101
L 701 101
L 701 101
L 702 101
L 702 101
L 702 101
L 704 101
L 704 101
L 704 101
L 704 101
L 704 101
L 704 101
L 705 101
L 705 101
L 705 101
L 705 101
L 705 101
L 705 101
L 705 101
L 705 101
L 706 101
L 706 101
L 706 101
L 706 101
L 706 100
L 706 100
L 706 100
L 706 100
L 706 100
L 706 100
L 706 100
L 706 100
L 706 100
L 706 100
L 706 100
L 707 100
L 707 100
L 707 100
L 707 100
L 707 100
L 707 100
L 707 100
L 707 100
L 707 100
L 707 100
L 707 100
L 707 100
L 707 100
L 707 100
L 707 100
L 707 100
L 707 99
L 707 99
L 707 99
L 707 99
L 707 99
L 707 99
L 707 99
L 707 99
L 707 99
L 707 99
L 707 99
L 708 99
L 708 99
L 708 99
L 708 99
L 708 99
L 708 99
L 708 99
L 708 99
L 708 99
L 708 99
L 708 99
L 708 99
L 708 99
L 709 99
L 709 99
L 709 99
L 709 98
L 709 98
L 709 98
L 709 98
L 709 98
L 709 98
L 709 98
L 710 98
L 710 98
L 710 98
L 710 98
L 710 98
L 710 98
L 710 98
L 710 98
L 710 98
L 710 98
L 710 98
L 710 98
L 710 98
L 710 98
L 710 98
L 710 98
L 710 98
L 710 98
L 711 98
L 711 98
L 711 98
L 711 97
L 711 97
L 711 97
L 711 97
L 711 97
L 711 97
L 711 97
L 711 97
L 711 97
L 712 97
L 712 97
L 712 97
L 712 97
L 712 97
L 712 97
L 712 97
L 712 97
L 712 97
L 712 97
L 712 97
L 712 97
L 712 97
L 712 97
L 713 97
L 713 97
L 713 97
L 713 97
L 713 96
L 713 96
L 714 96
L 714 96
L 714 96
L 716 96
L 716 96
L 716 96
L 716 96
L 716 96
L 716 96
L 716 96
L 716 96
L 716 96
L 716 96
L 716 96
L 716 96
L 716 96
L 717 96
L 717 96
L 717 96
L 717 96
L 717 96
L 717 96
L 717 96
L 717 96
L 717 96
L 717 96
L 717 95
L 717 95
L 717 95
L 718 95
L 718 95
L 718 95
L 718 95
L 718 95
L 718 95
L 718 95
L 719 95
L 719 95
L 719 95
L 719 95
L 719 95
L 719 95
L 719 95
L 719 95
L 719 95
L 719 95
L 719 95
L 719 95
L 719 95
L 719 95
L 719 95
L 719 95
L 719 95
L 719 94
L 719 94
L 720 94
L 720 94
L 720 94
L 720 94
L 720 94
L 720 94
L 720 94
L 720 94
L 721 94
L 721 94
L 721 94
L 721 94
L 721 94
L 721 94
L 721 94
L 721 94
L 721 94
L 721 94
L 721 94
L 722 94
L 722 94
L 722 94
L 722 94
L 722 94
L 722 94
L 722 93
L 722 93
L 722 93
L 722 93
L 722 93
L 722 93
L 722 93
L 722 93
L 722 93
L 722 93
L 722 93
L 722 93
L 722 93
L 722 93
L 722 93
L 722 93
L 723 93
L 723 93
L 723 93
L 723 93
L 724 93
L 725 93
L 725 93
L 725 93
L 725 93
L 725 93
L 726 93
L 726 93
L 726 92
L 726 92
L 726 92
L 726 92
L 726 92
L 726 92
L 726 92
L 726 92
L 726 92
L 727 92
L 727 92
L 727 92
L 727 92
L 727 92
L 727 92
L 727 92
L 727 92
L 727 92
L 727 92
L 727 92
L 727 92
L 727 92
L 728 92
L 728 92
L 728 92
L 728 92
L 728 92
L 728 91
L 728 91
L 728 91
L 728 91
L 728 91
L 728 91
L 728 91
L 728 91
L 728 91
L 728 91
L 728 91
L 728 91
L 728 91
L 728 91
L 729 91
L 729 91
L 729 91
L 729 91
L 729 91
L 729 91
L 729 91
L 729 91
L 729 91
L 729 91
L 729 91
L 730 91
L 730 91
L 730 90
L 730 90
L 730 90
L 730 90
L 730 90
L 730 90
L 730 90
L 731 90
L 731 90
L 731 90
L 731 90
L 731 90
L 731 90
L 731 90
L 731 90
L 731 90
L 731 90
L 731 90
L 731 90
L 731 90
L 731 90
L 731 90
L 731 90
L 731 90
L 731 90
L 731 90
L 731 90
L 731 90
L 732 89
L 732 89
L 732 89
L 732 89
L 732 89
L 732 89
L 732 89
L 732 89
L 732 89
L 732 89
L 732 89
L 733 89
L 733 89
L 733 89
L 733 89
L 733 89
L 733 89
L 734 89
L 734 89
L 734 89
L 734 89
L 735 89
L 735 89
L 735 89
L 736 89
L 736 89
L 736 89
L 736 88
L 736 88
L 736 88
L 736 88
L 737 88
L 737 88
L 737 88
L 737 88
L 737 88
L 737 88
L 737 88
L 737 88
L 737 88
L 737 88
L 737 88
L 737 88
L 737 88
L 737 88
L 737 88
L 737 88
L 737 88
L 737 88
L 738 88
L 738 88
L 738 88
L 738 88
L 738 88
L 738 87
L 738 87
L 738 87
L 738 87
L 738 87
L 739 87
L 739 87
L 739 87
L 739 87
L 739 87
L 739 87
L 739 87
L 739 87
L 739 87
L 739 87
L 740 87
L 740 87
L 740 87
L 740 87
L 740 87
L 740 87
L 740 87
L 740 87
L 740 87
L 740 87
L 740 87
L 740 87
L 740 87
L 740 86
L 740 86
L 740 86
L 740 86
L 741 86
L 741 86
L 741 86
L 741 86
L 741 86
L 741 86
L 741 86
L 741 86
L 741 86
L 741 86
L 741 86
L 741 86
L 741 86
L 741 86
L 741 86
L 741 86
L 741 86
L 742 86
L 742 86
L 742 86
L 742 86
L 742 86
L 742 86
L 742 85
L 742 85
L 742 85
L 742 85
L 743 85
L 743 85
L 743 85
L 743 85
L 743 85
L 743 85
L 743 85
L 743 85
L 743 85
L 743 85
L 743 85
L 743 85
L 743 85
L 743 85
L 743 85
L 743 85
L 743 85
L 743 85
L 743 85
L 744 85
L 744 85
L 744 85
L 744 85
L 744 84
L 744 84
L 744 84
L 745 84
L 745 84
L 745 84
L 745 84
L 746 84
L 746 84
L 746 84
L 746 84
L 746 84
L 746 84
L 746 84
L 747 84
L 747 84
L 747 84
L 747 84
L 747 84
L 747 84
L 747 84
L 747 84
L 747 84
L 747 84
L 747 84
L 747 84
L 747 84
L 747 84
L 747 83
L 747 83
L 748 83
L 748 83
L 748 83
L 749 83
L 749 83
L 749 83
L 749 83
L 749 83
L 749 83
L 749 83
L 749 83
L 749 83
L 749 83
L 749 83
L 749 83
L 749 83
L 749 83
L 749 83
L 749 83
L 749 83
L 749 83
L 749 83
L 749 83
L 749 83
L 749 83
L 749 82
L 749 82
L 749 82
L 749 82
L 749 82
L 749 82
L 749 82
L 749 82
L 749 82
L 749 82
L 750 82
L 750 82
L 750 82
L 750 82
L 750 82
L 750 82
L 750 82
L 750 82
L 750 82
L 750 82
L 751 82
L 751 82
L 751 82
L 751 82
L 751 82
L 751 82
L 751 82
L 751 81
L 751 81
L 752 81
L 752 81
L 752 81
L 752 81
L 752 81
L 752 81
L 752 81
L 752 81
L 752 81
L 752 81
L 752 81
L 752 81
L 752 81
L 752 81
L 752 81
L 752 81
L 753 81
L 753 81
L 753 81
L 753 81
L 753 81
L 753 81
L 753 81
L 753 81
L 753 81
L 753 81
L 753 80
L 753 80
L 754 80
L 754 80
L 754 80
L 754 80
L 754 80
L 755 80
L 755 80
L 755 80
L 755 80
L 755 80
L 755 80
L 755 80
L 755 80
L 756 80
L 757 80
L 757 80
L 757 80
L 757 80
L 758 80
L 758 80
L 758 80
L 758 80
L 758 80
L 758 80
L 758 80
L 758 79
L 758 79
L 758 79
L 758 79
L 758 79
L 758 79
L 758 79
L 758 79
L 758 79
L 758 79
L 758 79
L 758 79
L 759 79
L 759 79
L 759 79
L 759 79
L 759 79
L 759 79
L 759 79
L 759 79
L 759 79
L 759 79
L 759 79
L 759 79
L 759 79
L 759 79
L 759 79
L 759 79
L 759 78
L 759 78
L 759 78
L 760 78
L 760 78
L 760 78
L 760 78
L 760 78
L 760 78
L 760 78
L 760 78
L 761 78
L 761 78
L 761 78
L 761 78
L 761 78
L 761 78
L 761 78
L 761 78
L 761 78
L 761 78
L 761 78
L 761 78
L 761 78
L 761 78
L 761 78
L 761 78
L 761 77
L 761 77
L 761 77
L 761 77
L 761 77
L 761 77
L 761 77
L 761 77
L 761 77
L 762 77
L 762 77
L 762 77
L 762 77
L 762 77
L 762 77
L 762 77
L 762 77
L 762 77
L 763 77
L 763 77
L 763 77
L 763 77
L 763 77
L 763 77
L 763 77
L 763 77
L 763 77
L 763 76
L 763 76
L 764 76
L 764 76
L 764 76
L 764 76
L 764 76
L 764 76
L 764 76
L 764 76
L 764 76
L 764 76
L 764 76
L 764 76
L 764 76
L 764 76
L 764 76
L 764 76
L 764 76
L 764 76
L 764 76
L 764 76
L 764 76
L 764 76
L 764 76
L 765 76
L 765 76
L 765 76
L 765 75
L 766 75
L 766 75
L 766 75
L 767 75
L 767 75
L 767 75
L 767 75
L 768 75
L 768 75
L 768 75
L 768 75
L 768 75
L 768 75
L 768 75
L 768 75
L 768 75
L 768 75
L 768 75
L 768 75
L 769 75
L 769 75
L 769 75
L 769 75
L 770 75
L 770 75
L 770 75
L 770 74
L 770 74
L 770 74
L 770 74
L 770 74
L 770 74
L 770 74
L 770 74
L 770 74
L 770 74
L 770 74
L 770 74
L 770 74
L 770 74
L 770 74
L 771 74
L 771 74
L 771 74
L 771 74
L 771 74
L 771 74
L 771 74
L 772 74
L 772 74
L 772 74
L 772 74
L 772 74
L 772 73
L 773 73
L 773 73
L 773 73
L 773 73
L 773 73
L 773 73
L 773 73
L 773 73
L 773 73
L 773 73
L 773 73
L 773 73
L 773 73
L 773 73
L 773 73
L 773 73
L 773 73
L 773 73
L 773 73
L 773 73
L 773 73
L 773 73
L 773 73
L 773 73
L 773 73
L 774 73
L 774 73
L 774 72
L 774 72
L 774 72
L 774 72
L 774 72
L 774 72
L 774 72
L 774 72
L 774 72
L 774 72
L 774 72
L 774 72
L 774 72
L 774 72
L 775 72
L 775 72
L 775 72
L 775 72
L 775 72
L 775 72
L 775 72
L 775 72
L 776 72
L 776 72
L 776 72
L 776 72
L 776 72
L 776 71
L 776 71
L 776 71
L 776 71
L 776 71
L 776 71
L 777 71
L 777 71
L 777 71
L 777 71
L 777 71
L 777 71
L 777 71
L 778 71
L 778 71
L 778 71
L 778 71
L 778 71
L 778 71
L 778 71
L 778 71
L 779 71
L 779 71
L 779 71
L 779 71
L 779 71
L 779 71
L 779 70
L 779 70
L 779 70
L 779 70
L 779 70
L 779 70
L 779 70
L 779 70
L 779 70
L 779 70
L 779 70
L 779 70
L 780 70
L 780 70
L 780 70
L 780 70
L 780 70
L 780 70
L 780 70
L 780 70
L 780 70
L 780 70
L 780 70
L 780 70
L 780 70
L 780 70
L 780 70
L 781 70
L 781 69
L 781 69
L 781 69
L 781 69
L 781 69
L 781 69
L 781 69
L 782 69
L 782 69
L 782 69
L 782 69
L 782 69
L 782 69
L 782 69
L 782 69
L 782 69
L 782 69
L 782 69
L 782 69
L 782 69
L 782 69
L 782 69
L 782 69
L 782 69
L 782 69
L 782 69
L 782 69
L 783 68
L 783 68
L 783 68
L 783 68
L 783 68
L 783 68
L 783 68
L 783 68
L 783 68
L 783 68
L 783 68
L 783 68
L 784 68
L 784 68
L 784 68
L 784 68
L 784 68
L 784 68
L 784 68
L 784 68
L 785 68
L 785 68
L 785 68
L 785 68
L 785 68
L 785 68
L 785 68
L 785 67
L 785 67
L 785 67
L 785 67
L 785 67
L 785 67
L 785 67
L 785 67
L 785 67
L 785 67
L 785 67
L 786 67
L 786 67
L 786 67
L 786 67
L 786 67
L 787 67
L 787 67
L 787 67
L 788 67
L 788 67
L 788 67
L 789 67
L 789 67
L 789 67
L 789 67
L 789 67
L 789 67
L 789 66
L 789 66
L 789 66
L 789 66
L 789 66
L 789 66
L 789 66
L 789 66
L 790 66
L 790 66
L 790 66
L 790 66
L 790 66
L 790 66
L 790 66
L 791 66
L 791 66
L 791 66
L 791 66
L 791 66
L 791 66
L 791 66
L 791 66
L 791 66
L 791 66
L 791 66
L 791 66
L 791 65
L 791 65
L 791 65
L 791 65
L 791 65
L 791 65
L 792 65
L 792 65
L 792 65
L 792 65
L 792 65
L 792 65
L 792 65
L 792 65
L 792 65
L 792 65
L 792 65
L 792 65
L 792 65
L 792 65
L 793 65
L 793 65
L 793 65
L 793 65
L 793 65
L 793 65
L 793 65
L 794 64
L 794 64
L 794 64
L 794 64
L 794 64
L 794 64
L 794 64
L 794 64
L 794 64
L 794 64
L 794 64
L 794 64
L 794 64
L 794 64
L 794 64
L 794 64
L 794 64
L 794 64
L 794 64
L 794 64
L 794 64
L 794 64
L 794 64
L 794 64
L 795 64
L 795 64
L 795 64
L 795 64
L 795 63
L 795 63
L 795 63
L 796 63
L 796 63
L 796 63
L 796 63
L 796 63
L 797 63
L 797 63
L 797 63
L 797 63
L 798 63
L 798 63
L 798 63
L 798 63
L 798 63
L 799 63
L 799 63
L 800 63
L 800 63
L 800 63
L 800 63
L 800 63
L 800 63
L 800 63
L 800 63
L 800 62
L 800 62
L 800 62
L 800 62
L 800 62
L 800 62
L 800 62
L 800 62
L 800 62
L 801 62
L 801 62
L 801 62
L 801 62
L 801 62
L 801 62
L 801 62
L 801 62
L 801 62
L 801 62
L 801 62
L 802 62
L 802 62
L 802 62
L 802 62
L 802 62
L 803 62
L 803 62
L 803 62
L 803 61
L 803 61
L 803 61
L 803 61
L 803 61
L 803 61
L 803 61
L 803 61
L 803 61
L 803 61
L 803 61
L 803 61
L 803 61
L 803 61
L 803 61
L 803 61
L 803 61
L 803 61
L 803 61
L 804 61
L 804 61
L 804 61
L 804 61
L 804 61
L 804 61
L 804 61
L 804 61
L 804 60
L 804 60
L 804 60
L 804 60
L 804 60
L 804 60
L 804 60
L 804 60
L 804 60
L 804 60
L 804 60
L 804 60
L 804 60
L 804 60
L 804 60
L 805 60
L 805 60
L 805 60
L 805 60
L 805 60
L 805 60
L 806 60
L 806 60
L 806 60
L 806 60
L 806 60
L 806 60
L 806 59
L 806 59
L 806 59
L 806 59
L 806 59
L 806 59
L 806 59
L 807 59
L 807 59
L 808 59
L 808 59
L 808 59
L 809 59
L 809 59
L 809 59
L 809 59
L 809 59
L 809 59
L 810 59
L 810 59
L 810 59
L 810 59
L 810 59
L 810 59
L 811 59
L 811 59
L 811 59
L 811 59
L 811 58
L 811 58
L 812 58
L 812 58
L 812 58
L 812 58
L 812 58
L 812 58
L 812 58
L 812 58
L 812 58
L 812 58
L 812 58
L 812 58
L 812 58
L 812 58
L 812 58
L 812 58
L 812 58
L 812 58
L 812 58
L 812 58
L 812 58
L 812 58
L 812 58
L 812 58
L 812 58
L 812 57
L 813 57
L 813 57
L 813 57
L 813 57
L 813 57
L 813 57
L 813 57
L 813 57
L 813 57
L 813 57
L 814 57
L 814 57
L 814 57
L 814 57
L 814 57
L 814 57
L 814 57
L 815 57
L 815 57
L 815 57
L 815 57
L 815 57
L 815 57
L 815 57
L 815 57
L 815 57
L 815 56
L 815 56
L 815 56
L 815 56
L 815 56
L 815 56
L 815 56
L 816 56
L 817 56
L 818 56
L 818 56
L 818 56
L 819 56
L 820 56
L 820 56
L 821 56
L 821 56
L 821 56
L 821 56
L 821 56
L 821 56
L 821 56
L 821 56
L 821 56
L 821 56
L 821 56
L 821 56
L 821 56
L 821 55
L 821 55
L 821 55
L 821 55
L 821 55
L 821 55
L 821 55
L 821 55
L 821 55
L 821 55
L 822 55
L 822 55
L 822 55
L 822 55
L 822 55
L 822 55
L 822 55
L 822 55
L 822 55
L 822 55
L 822 55
L 822 55
L 822 55
L 822 55
L 822 55
L 822 55
L 822 55
L 823 54
L 823 54
L 823 54
L 823 54
L 823 54
L 823 54
L 823 54
L 824 54
L 824 54
L 824 54
L 824 54
L 824 54
L 824 54
L 824 54
L 824 54
L 824 54
L 824 54
L 824 54
L 824 54
L 824 54
L 824 54
L 824 54
L 824 54
L 825 54
L 825 54
L 825 54
L 825 54
L 825 53
L 825 53
L 825 53
L 825 53
L 825 53
L 825 53
L 825 53
L 825 53
L 825 53
L 825 53
L 825 53
L 825 53
L 826 53
L 826 53
L 826 53
L 826 53
L 826 53
L 826 53
L 826 53
L 826 53
L 827 53
L 827 53
L 827 53
L 827 53
L 827 53
L 827 53
L 827 53
L 827 53
L 827 52
L 827 52
L 827 52
L 827 52
L 827 52
L 827 52
L 827 52
L 827 52
L 827 52
L 827 52
L 827 52
L 827 52
L 827 52
L 827 52
L 828 52
L 828 52
L 828 52
L 828 52
L 828 52
L 828 52
L 829 52
L 829 52
L 829 52
L 829 52
L 830 52
L 830 52
L 831 52
L 831 51
L 831 51
L 831 51
L 831 51
L 831 51
L 831 51
L 831 51
L 831 51
L 831 51
L 831 51
L 831 51
L 831 51
L 831 51
L 831 51
L 831 51
L 831 51
L 831 51
L 831 51
L 832 51
L 832 51
L 832 51
L 832 51
L 832 51
L 832 51
L 832 51
L 833 51
L 833 51
L 833 50
L 833 50
L 833 50
L 833 50
L 833 50
L 833 50
L 833 50
L 833 50
L 833 50
L 833 50
L 833 50
L 833 50
L 833 50
L 833 50
L 834 50
L 834 50
L 834 50
L 834 50
L 834 50
L 834 50
L 834 50
L 834 50
L 834 50
L 834 50
L 834 50
L 834 50
L 834 50
L 834 50
L 834 49
L 834 49
L 835 49
L 835 49
L 835 49
L 835 49
L 835 49
L 835 49
L 835 49
L 836 49
L 836 49
L 836 49
L 836 49
L 836 49
L 836 49
L 836 49
L 836 49
L 836 49
L 836 49
L 836 49
L 836 49
L 836 49
L 836 49
L 836 49
L 836 49
L 836 49
L 836 49
L 836 48
L 836 48
L 836 48
L 836 48
L 836 48
L 836 48
L 837 48
L 837 48
L 837 48
L 837 48
L 837 48
L 837 48
L 837 48
L 837 48
L 838 48
L 838 48
L 838 48
L 839 48
L 839 48
L 839 48
L 839 48
L 840 48
L 840 48
L 840 48
L 841 48
L 841 48
L 841 48
L 841 47
L 841 47
L 841 47
L 841 47
L 841 47
L 842 47
L 842 47
L 842 47
L 842 47
L 842 47
L 842 47
L 842 47
L 842 47
L 842 47
L 842 47
L 842 47
L 842 47
L 842 47
L 842 47
L 842 47
L 842 47
L 842 47
L 842 47
L 843 47
L 843 47
L 843 47
L 843 47
L 843 47
L 843 46
L 843 46
L 843 46
L 843 46
L 843 46
L 843 46
L 843 46
L 843 46
L 843 46
L 844 46
L 845 46
L 845 46
L 845 46
L 845 46
L 845 46
L 845 46
L 845 46
L 845 46
L 845 46
L 845 46
L 845 46
L 846 46
L 846 46
L 846 46
L 846 46
L 846 46
L 846 46
L 846 45
L 846 45
L 846 45
L 846 45
L 847 45
L 847 45
L 847 45
L 847 45
L 848 45
L 848 45
L 848 45
L 848 45
L 848 45
L 848 45
L 848 45
L 848 45
L 848 45
L 848 45
L 848 45
L 848 45
L 848 45
L 848 45
L 848 45
L 848 45
L 848 45
L 848 45
L 848 45
L 849 45
L 849 44
L 849 44
L 849 44
L 849 44
L 850 44
L 850 44
L 850 44
L 850 44
L 851 44
L 851 44
L 851 44
L 851 44
L 851 44
L 851 44
L 851 44
L 852 44
L 852 44
L 852 44
L 852 44
L 852 44
L 852 44
L 852 44
L 852 44
L 852 44
L 852 44
L 852 44
L 852 44
L 852 43
L 852 43
L 852 43
L 852 43
L 853 43
L 854 43
L 854 43
L 854 43
L 854 43
L 854 43
L 854 43
L 854 43
L 854 43
L 854 43
L 854 43
L 854 43
L 854 43
L 854 43
L 854 43
L 854 43
L 854 43
L 854 43
L 854 43
L 854 43
L 854 43
L 854 43
L 854 43
L 854 42
L 855 42
L 855 42
L 855 42
L 855 42
L 855 42
L 855 42
L 855 42
L 855 42
L 855 42
L 855 42
L 855 42
L 855 42
L 856 42
L 856 42
L 856 42
L 856 42
L 856 42
L 856 42
L 857 42
L 857 42
L 857 42
L 857 42
L 857 42
L 857 42
L 857 42
L 857 42
L 857 42
L 857 41
L 857 41
L 857 41
L 857 41
L 857 41
L 857 41
L 857 41
L 857 41
L 857 41
L 857 41
L 857 41
L 857 41
L 857 41
L 857 41
L 857 41
L 858 41
L 858 41
L 858 41
L 858 41
L 858 41
L 858 41
L 858 41
L 858 41
L 859 41
L 859 41
L 859 41
L 859 41
L 859 40
L 859 40
L 859 40
L 860 40
L 860 40
L 860 40
L 860 40
L 860 40
L 860 40
L 860 40
L 860 40
L 861 40
L 861 40
L 861 40
L 861 40
L 861 40
L 861 40
L 862 40
L 862 40
L 862 40
L 863 40
L 863 40
L 863 40
L 863 40
L 863 40
L 863 40
L 863 40
L 863 39
L 863 39
L 863 39
L 863 39
L 863 39
L 863 39
L 863 39
L 863 39
L 863 39
L 864 39
L 864 39
L 864 39
L 864 39
L 864 39
L 864 39
L 864 39
L 864 39
L 864 39
L 864 39
L 864 39
L 864 39
L 864 39
L 864 39
L 864 39
L 865 39
L 865 39
L 865 39
L 866 39
L 866 38
L 866 38
L 866 38
L 866 38
L 866 38
L 866 38
L 866 38
L 866 38
L 866 38
L 866 38
L 866 38
L 866 38
L 866 38
L 866 38
L 866 38
L 866 38
L 866 38
L 866 38
L 866 38
L 866 38
L 866 38
L 866 38
L 867 38
L 867 38
L 867 38
L 867 38
L 867 38
L 867 37
L 867 37
L 867 37
L 867 37
L 867 37
L 867 37
L 867 37
L 868 37
L 868 37
L 868 37
L 868 37
L 869 37
L 869 37
L 869 37
L 869 37
L 869 37
L 869 37
L 869 37
L 869 37
L 869 37
L 869 37
L 869 37
L 869 37
L 869 37
L 869 37
L 869 37
L 869 37
L 869 36
L 869 36
L 869 36
L 870 36
L 870 36
L 870 36
L 870 36
L 870 36
L 871 36
L 871 36
L 872 36
L 872 36
L 872 36
L 872 36
L 872 36
L 872 36
L 872 36
L 872 36
L 872 36
L 872 36
L 872 36
L 872 36
L 872 36
L 872 36
L 872 36
L 873 36
L 873 36
L 873 36
L 873 35
L 873 35
L 873 35
L 873 35
L 873 35
L 873 35
L 873 35
L 873 35
L 873 35
L 873 35
L 873 35
L 874 35
L 874 35
L 875 35
L 875 35
L 875 35
L 875 35
L 876 35
L 876 35
L 876 35
L 876 35
L 876 35
L 876 35
L 876 35
L 877 35
L 877 35
L 877 35
L 877 34
L 878 34
L 878 34
L 878 34
L 879 34
L 880 34
L 881 34
L 882 34
L 882 34
L 882 34
L 882 34
L 883 34
L 883 34
L 884 34
L 884 34
L 885 34
L 885 34
L 885 34
L 885 34
L 886 34
L 887 34
L 887 34
L 887 34
L 887 34
L 888 34
L 888 34
L 888 34
L 888 33
L 888 33
L 889 33
L 889 33
L 889 33
L 889 33
L 889 33
L 889 33
L 890 33
L 890 33
L 890 33
L 890 33
L 890 33
L 890 33
L 890 33
L 890 33
L 890 33
L 890 33
L 890 33
L 890 33
L 890 33
L 890 33
L 890 33
L 890 33
L 890 33
L 891 33
L 891 33
L 891 33
L 891 32
L 891 32
L 891 32
L 891 32
L 891 32
L 891 32
L 891 32
L 891 32
L 891 32
L 891 32
L 891 32
L 892 32
L 892 32
L 892 32
L 892 32
L 892 32
L 893 32
L 893 32
L 893 32
L 893 32
L 893 32
L 894 32
L 894 32
L 894 32
L 894 32
L 894 32
L 894 32
L 894 31
L 894 31
L 894 31
L 895 31
L 895 31
L 895 31
L 896 31
L 896 31
L 896 31
L 896 31
L 896 31
L 896 31
L 896 31
L 896 31
L 896 31
L 896 31
L 896 31
L 896 31
L 896 31
L 896 31
L 896 31
L 896 31
L 896 31
L 896 31
L 896 31
L 896 31
L 897 31
L 897 30
L 897 30
L 897 30
L 897 30
L 897 30
L 897 30
L 897 30
L 897 30
L 897 30
L 898 30
L 898 30
L 898 30
L 898 30
L 898 30
L 899 30
L 899 30
L 899 30
L 899 30
L 899 30
L 899 30
L 899 30
L 899 30
L 899 30
L 899 30
L 899 30
L 899 30
L 899 30
L 899 30
L 899 29
L 899 29
L 899 29
L 899 29
L 899 29
L 899 29
L 899 29
L 900 29
L 900 29
L 900 29
L 900 29
L 900 29
L 900 29
L 900 29
L 900 29
L 900 29
L 900 29
L 900 29
L 900 29
L 900 29
L 900 29
L 901 29
L 901 29
L 901 29
L 902 29
L 902 29
L 902 29
L 902 28
L 902 28
L 902 28
L 902 28
L 902 28
L 903 28
L 904 28
L 904 28
L 904 28
L 905 28
L 905 28
L 905 28
L 905 28
L 905 28
L 905 28
L 905 28
L 905 28
L 905 28
L 905 28
L 905 28
L 905 28
L 905 28
L 905 28
L 905 28
L 905 28
L 905 28
L 906 28
L 906 28
L 906 27
L 906 27
L 906 27
L 906 27
L 906 27
L 906 27
L 906 27
L 906 27
L 906 27
L 906 27
L 907 27
L 907 27
L 907 27
L 907 27
L 908 27
L 908 27
L 908 27
L 908 27
L 908 27
L 908 27
L 908 27
L 908 27
L 908 27
L 908 27
L 908 27
L 908 27
L 908 27
L 908 26
L 908 26
L 908 26
L 908 26
L 908 26
L 908 26
L 908 26
L 908 26
L 908 26
L 908 26
L 908 26
L 909 26
L 909 26
L 909 26
L 909 26
L 909 26
L 909 26
L 909 26
L 909 26
L 909 26
L 909 26
L 910 26
L 910 26
L 910 26
L 910 26
L 910 26
L 910 26
L 910 25
L 911 25
L 911 25
L 911 25
L 911 25
L 911 25
L 911 25
L 911 25
L 911 25
L 911 25
L 911 25
L 911 25
L 911 25
L 911 25
L 911 25
L 912 25
L 912 25
L 912 25
L 913 25
L 913 25
L 913 25
L 914 25
L 914 25
L 915 25
L 915 25
L 915 25
L 915 25
L 915 25
L 915 24
L 915 24
L 915 24
L 915 24
L 915 24
L 915 24
L 915 24
L 915 24
L 915 24
L 915 24
L 916 24
L 916 24
L 916 24
L 916 24
L 917 24
L 917 24
L 917 24
L 917 24
L 917 24
L 917 24
L 917 24
L 918 24
L 918 24
L 918 24
L 918 24
L 918 24
L 918 24
L 918 23
L 918 23
L 918 23
L 918 23
L 918 23
L 918 23
L 918 23
L 919 23
L 919 23
L 919 23
L 920 23
L 920 23
L 920 23
L 920 23
L 920 23
L 920 23
L 920 23
L 920 23
L 920 23
L 920 23
L 920 23
L 920 23
L 921 23
L 921 23
L 921 23
L 921 23
L 921 23
L 921 22
L 921 22
L 921 22
L 922 22
L 922 22
L 922 22
L 922 22
L 922 22
L 923 22
L 923 22
L 923 22
L 923 22
L 923 22
L 923 22
L 923 22
L 924 22
L 925 22
L 925 22
L 925 22
L 925 22
L 926 22
L 926 22
L 926 22
L 926 22
L 926 22
L 926 22
L 926 22
L 926 22
L 926 21
L 926 21
L 926 21
L 926 21
L 926 21
L 926 21
L 926 21
L 926 21
L 926 21
L 927 21
L 927 21
L 927 21
L 927 21
L 927 21
L 927 21
L 927 21
L 927 21
L 927 21
L 927 21
L 927 21
L 927 21
L 927 21
L 927 21
L 927 21
L 927 21
L 927 21
L 928 21
L 928 20
L 929 20
L 929 20
L 929 20
L 929 20
L 929 20
L 929 20
L 929 20
L 930 20
L 930 20
L 930 20
L 930 20
L 930 20
L 930 20
L 930 20
L 930 20
L 930 20
L 930 20
L 930 20
L 930 20
L 930 20
L 930 20
L 931 20
L 931 20
L 931 20
L 931 20
L 931 20
L 932 19
L 932 19
L 932 19
L 932 19
L 932 19
L 932 19
L 932 19
L 932 19
L 933 19
L 933 19
L 933 19
L 933 19
L 933 19
L 933 19
L 934 19
L 934 19
L 935 19
L 935 19
L 935 19
L 935 19
L 936 19
L 936 19
L 936 19
L 936 19
L 936 19
L 936 19
L 936 19
L 936 19
L 936 18
L 937 18
L 938 18
L 938 18
L 938 18
L 938 18
L 938 18
L 938 18
L 938 18
L 938 18
L 938 18
L 938 18
L 938 18
L 938 18
L 938 18
L 938 18
L 938 18
L 938 18
L 938 18
L 938 18
L 938 18
L 939 18
L 939 18
L 939 18
L 939 18
L 939 18
L 939 18
L 939 17
L 939 17
L 939 17
L 939 17
L 939 17
L 939 17
L 939 17
L 941 17
L 941 17
L 941 17
L 941 17
L 941 17
L 941 17
L 941 17
L 941 17
L 941 17
L 941 17
L 941 17
L 941 17
L 941 17
L 941 17
L 941 17
L 941 17
L 942 17
L 942 17
L 942 17
L 942 17
L 942 16
L 942 16
L 942 16
L 942 16
L 942 16
L 942 16
L 942 16
L 942 16
L 942 16
L 943 16
L 944 16
L 944 16
L 944 16
L 944 16
L 944 16
L 944 16
L 945 16
L 945 16
L 945 16
L 945 16
L 945 16
L 945 16
L 946 16
L 946 16
L 946 16
L 946 16
L 946 16
L 946 16
L 947 15
L 947 15
L 947 15
L 947 15
L 947 15
L 947 15
L 947 15
L 947 15
L 947 15
L 947 15
L 947 15
L 947 15
L 947 15
L 947 15
L 948 15
L 948 15
L 948 15
L 948 15
L 948 15
L 948 15
L 948 15
L 948 15
L 948 15
L 948 15
L 948 15
L 948 15
L 948 15
L 948 14
L 949 14
L 949 14
L 949 14
L 949 14
L 949 14
L 950 14
L 950 14
L 950 14
L 950 14
L 950 14
L 950 14
L 950 14
L 950 14
L 950 14
L 950 14
L 950 14
L 950 14
L 950 14
L 950 14
L 950 14
L 950 14
L 951 14
L 951 14
L 951 14
L 951 14
L 951 14
L 951 13
L 951 13
L 951 13
L 951 13
L 951 13
L 952 13
L 952 13
L 952 13
L 953 13
L 953 13
L 953 13
L 953 13
L 953 13
L 953 13
L 953 13
L 953 13
L 953 13
L 953 13
L 953 13
L 953 13
L 953 13
L 953 13
L 953 13
L 953 13
L 953 13
L 953 13
L 954 13
L 954 13
L 955 12
L 955 12
L 955 12
L 955 12
L 956 12
L 956 12
L 956 12
L 957 12
L 957 12
L 957 12
L 957 12
L 957 12" style="stroke-width:2;stroke:rgba(129,199,239,1.0);fill:none"/></svg>