<?xml version="1.0" encoding="utf-8"?>
<!-- Generator: Adobe Illustrator 19.2.1, SVG Export Plug-In . SVG Version: 6.00 Build 0)  -->
<svg version="1.1" xmlns="http://www.w3.org/2000/svg" xmlns:xlink="http://www.w3.org/1999/xlink" x="0px" y="0px"
	 viewBox="0 0 484 440.4" style="enable-background:new 0 0 484 440.4;" xml:space="preserve">
<style type="text/css">
	.st0{fill:#FFFFFF;stroke:#326DE6;stroke-width:2;stroke-linecap:round;stroke-linejoin:round;stroke-miterlimit:10;}
	.st1{opacity:0.71;fill:#326CE6;}
	.st2{opacity:0.45;fill:#FFFFFF;}
	.st3{fill:#FFFFFF;stroke:#006DE9;stroke-width:2;stroke-linecap:round;stroke-linejoin:round;stroke-miterlimit:10;}
	.st4{fill:#006DE9;}
	.st5{fill:#A0CAEA;}
	.st6{fill:#FFFFFF;}
	.st7{opacity:0.13;}
	.st8{fill:url(#SVGID_1_);}
	.st9{fill:url(#SVGID_2_);}
	.st10{fill:#FFFFFF;stroke:#006DE9;stroke-linecap:round;stroke-linejoin:round;stroke-miterlimit:10;}
	.st11{fill:#FFFFFF;stroke:#006DE9;stroke-width:6;stroke-linecap:round;stroke-linejoin:round;stroke-miterlimit:10;}
	.st12{fill:#FFFFFF;stroke:#326DE6;stroke-width:3.2;stroke-linecap:round;stroke-linejoin:round;stroke-miterlimit:10;}
	.st13{fill:#326DE6;}
	.st14{fill:none;stroke:#326DE6;stroke-width:2.4;stroke-miterlimit:10;}
	.st15{fill:#A0CAE9;}
	.st16{fill:#FFFFFF;stroke:#326DE6;stroke-width:1.6;stroke-linecap:round;stroke-linejoin:round;stroke-miterlimit:10;}
	.st17{fill:#FFFFFF;stroke:#326DE6;stroke-width:1.6;stroke-miterlimit:10;}
	.st18{fill:none;stroke:#06F7C9;stroke-width:2;stroke-miterlimit:10;}
	.st19{fill:none;stroke:#06F7C9;stroke-width:2;stroke-miterlimit:10;stroke-dasharray:2.3749,1.5832;}
	.st20{fill:none;stroke:#06F7C9;stroke-width:2;stroke-miterlimit:10;stroke-dasharray:2.4006,1.6004;}
	.st21{fill:none;stroke:#EEF406;stroke-width:2;stroke-miterlimit:10;stroke-dasharray:2.4,1.6;}
	.st22{fill:none;stroke:#EEF406;stroke-width:2;stroke-miterlimit:10;}
	.st23{fill:none;stroke:#EEF406;stroke-width:2;stroke-miterlimit:10;stroke-dasharray:2.3975,1.5984;}
	.st24{fill:none;stroke:#EEF406;stroke-width:2;stroke-miterlimit:10;stroke-dasharray:2.395,1.5966;}
	.st25{fill:none;stroke:#EEF406;stroke-width:2;stroke-miterlimit:10;stroke-dasharray:2.3963,1.5976;}
	.st26{opacity:0.1;fill:#EEF406;}
	.st27{opacity:2.000000e-02;fill:#EEF406;}
	.st28{opacity:0.1;fill:#06F7C9;}
	.st29{fill:none;stroke:#006DE9;stroke-width:0.8;stroke-miterlimit:10;}
	.st30{opacity:0.1;fill:url(#SVGID_3_);}
	.st31{opacity:0.1;fill:url(#SVGID_4_);}
	.st32{opacity:0.1;fill:url(#SVGID_5_);}
	.st33{opacity:0.1;fill:url(#SVGID_6_);}
	.st34{fill:none;stroke:#326DE6;stroke-width:1.2;stroke-miterlimit:10;}
	.st35{opacity:0.1;fill:url(#SVGID_7_);}
	.st36{opacity:0.1;fill:url(#SVGID_8_);}
	.st37{opacity:0.1;fill:url(#SVGID_9_);}
	.st38{opacity:0.1;fill:url(#SVGID_10_);}
	.st39{fill:none;stroke:#326DE6;stroke-width:2;stroke-miterlimit:10;}
	.st40{opacity:0.4;fill:none;stroke:#EEF406;stroke-width:2;stroke-miterlimit:10;}
	.st41{fill:none;stroke:#EEF406;stroke-width:2.4596;stroke-miterlimit:10;}
	.st42{fill:#011F38;}
	.st43{opacity:0.4;}
	.st44{opacity:0.1;}
	.st45{fill:#326DE6;stroke:#EEF406;stroke-width:2;stroke-miterlimit:10;}
	.st46{fill:none;stroke:#FFFFFF;stroke-width:1.2;stroke-linecap:round;stroke-linejoin:round;}
	.st47{fill:#06F7C9;stroke:#FFFFFF;stroke-width:0.3;stroke-linecap:round;stroke-linejoin:round;stroke-miterlimit:10;}
	.st48{fill:none;stroke:#011F38;stroke-width:1.2;stroke-linecap:round;stroke-linejoin:round;}
	.st49{fill:#326DE6;stroke:#06F7C9;stroke-width:2;stroke-miterlimit:10;}
	.st50{fill:#06F7C9;stroke:#011F38;stroke-width:0.8;stroke-linecap:round;stroke-linejoin:round;stroke-miterlimit:10;}
	.st51{fill:#8115FF;stroke:#011F38;stroke-width:0.8;stroke-linecap:round;stroke-linejoin:round;stroke-miterlimit:10;}
	.st52{opacity:0.3;}
	.st53{opacity:0.2;fill:#6D6E71;}
	.st54{fill:#EEF406;}
	.st55{fill:#06F7C9;}
	.st56{fill:#FFFFFF;stroke:#06F7C9;stroke-width:2;stroke-miterlimit:10;stroke-dasharray:2.4,1.6;}
	.st57{fill:#FFFFFF;stroke:#EEF406;stroke-width:1.6;stroke-miterlimit:10;stroke-dasharray:2.4,1.6;}
	.st58{fill:none;stroke:#06F7C9;stroke-width:2;stroke-miterlimit:10;stroke-dasharray:2.4938,1.6626;}
	.st59{fill:none;stroke:#06F7C9;stroke-width:2;stroke-miterlimit:10;stroke-dasharray:2.0084,1.3389;}
	.st60{fill:none;stroke:#06F7C9;stroke-width:2;stroke-miterlimit:10;stroke-dasharray:2.724,1.816;}
	.st61{fill:#011F38;stroke:#414042;stroke-width:0.3;stroke-linecap:round;stroke-linejoin:round;stroke-miterlimit:10;}
	.st62{fill:none;stroke:#011F38;stroke-width:0.3;stroke-linecap:round;stroke-linejoin:round;stroke-miterlimit:10;}
	.st63{fill:none;stroke:#011F38;stroke-width:0.2813;stroke-linecap:round;stroke-linejoin:round;stroke-miterlimit:10;}
</style>
<symbol  id="node_high_level" viewBox="-81 -93 162 186.1">
	<polygon class="st0" points="-80,-46 -80,46 0,92 80,46 80,-46 0,-92 	"/>
	<g id="Isolation_Mode_3_">
	</g>
</symbol>
<symbol  id="node_x5F_empty" viewBox="-87.5 -100.6 175.1 201.1">
	
		<use xlink:href="#node_high_level"  width="162" height="186.1" id="XMLID_201_" x="-81" y="-93" transform="matrix(1.0808 0 0 1.0808 -3.292006e-05 -3.749943e-05)" style="overflow:visible;"/>
	<g>
		<polygon class="st1" points="76.8,-28.1 -14,-80.3 0,-88.3 76.7,-44.4 		"/>
		<polygon class="st2" points="76.8,-28.1 32.1,-53.8 38.8,-66.1 76.7,-44.4 		"/>
	</g>
</symbol>
<symbol  id="node_x5F_new" viewBox="-87.6 -101 175.2 202">
	<polygon class="st3" points="0,-100 -86.6,-50 -86.6,50 0,100 86.6,50 86.6,-50 	"/>
	<polygon class="st4" points="-86.6,-20.2 -86.6,-50 0,-100 25.8,-85.1 	"/>
	<polygon class="st5" points="-40.8,-70.7 -32.9,-57 15.7,-85.1 0,-94.3 	"/>
	
		<text transform="matrix(0.866 -0.5 -0.5 -0.866 -33.9256 -70.7388)" class="st6" style="font-family:'RobotoSlab-Regular'; font-size:11.3632px;">Docker</text>
	
		<text transform="matrix(0.866 -0.5 -0.5 -0.866 -76.0668 -46.4087)" class="st6" style="font-family:'RobotoSlab-Regular'; font-size:11.3632px;">Kubelt</text>
</symbol>
<g id="CLUSTER">
</g>
<g id="master">
	<g id="master_x5F_level1">
	</g>
	<polygon class="st12" points="220.9,265.9 196.7,235.6 205.3,197.8 240.2,181 275.1,197.8 283.8,235.6 259.6,265.9 	"/>
</g>
<g id="Node">
	<g id="Node_x5F_level3_x5F_1">
		<g id="Isolation_Mode">
		</g>
	</g>
	<g>
		<polygon class="st17" points="303.8,179.8 245.7,146.2 245.7,79.1 303.8,45.6 361.9,79.1 361.9,146.2 		"/>
	</g>
	<g>
		<polygon class="st17" points="176.6,179.7 118.6,146.1 118.6,79.1 176.6,45.5 234.7,79.1 234.7,146.1 		"/>
	</g>
	<g>
		<polygon class="st17" points="176.6,401.4 118.6,367.9 118.6,300.8 176.6,267.2 234.7,300.8 234.7,367.9 		"/>
	</g>
</g>
<g id="service">
	<g>
		<g>
			<g>
				<path class="st22" d="M167.1,329.1v1.2h0v0c0,0.4,0,0.8,0,1.2"/>
				<path class="st24" d="M167.2,333.1c1.4,16.7,15.6,29.8,32.7,29.7c17.9-0.2,32.2-15,32.2-32.9V181.8c0-12.4,10-22.4,22.4-22.4h68
					c15.7,0,28.4-12.7,28.4-28.4V93.8v0c0-15.6-12.7-28.4-28.4-28.4H199.6c-17.9,0-32.5,14.5-32.5,32.5v0v230.4"/>
			</g>
		</g>
	</g>
	<g>
		<path d="M220.4,56.8h-1l-0.2-0.9c-0.1-0.1-0.3-0.1-0.5-0.2c-0.2-0.1-0.5-0.1-0.7-0.1c-0.4,0-0.7,0.1-0.9,0.2
			c-0.2,0.2-0.3,0.4-0.3,0.6c0,0.2,0.1,0.4,0.3,0.6s0.6,0.3,1.1,0.5c0.8,0.2,1.3,0.5,1.7,0.8c0.4,0.3,0.6,0.8,0.6,1.4
			c0,0.6-0.2,1-0.7,1.4c-0.5,0.3-1.1,0.5-1.8,0.5c-0.5,0-1-0.1-1.5-0.3s-0.8-0.4-1.1-0.7v-1.4h1.1l0.1,1c0.1,0.1,0.3,0.2,0.6,0.3
			c0.2,0.1,0.5,0.1,0.8,0.1c0.4,0,0.7-0.1,0.9-0.2c0.2-0.2,0.3-0.4,0.3-0.6c0-0.3-0.1-0.5-0.3-0.6c-0.2-0.2-0.5-0.3-1-0.4
			c-0.8-0.2-1.4-0.5-1.8-0.8c-0.4-0.3-0.6-0.8-0.6-1.3c0-0.6,0.2-1,0.7-1.4s1.1-0.5,1.8-0.5c0.5,0,1,0.1,1.4,0.2
			c0.4,0.2,0.8,0.4,1.1,0.6V56.8z"/>
		<path d="M223.5,61.5c-0.7,0-1.3-0.2-1.8-0.7s-0.7-1.1-0.7-1.8v-0.2c0-0.8,0.2-1.4,0.6-1.9c0.4-0.5,1-0.7,1.7-0.7
			c0.7,0,1.2,0.2,1.6,0.6s0.6,1,0.6,1.7v0.7h-3l0,0c0,0.3,0.1,0.6,0.3,0.8c0.2,0.2,0.5,0.3,0.8,0.3c0.3,0,0.6,0,0.8-0.1
			c0.2-0.1,0.4-0.2,0.7-0.3l0.4,0.8c-0.2,0.2-0.5,0.3-0.8,0.4C224.2,61.5,223.9,61.5,223.5,61.5z M223.3,57.3
			c-0.3,0-0.5,0.1-0.6,0.3c-0.1,0.2-0.2,0.4-0.3,0.8l0,0h1.7v-0.1c0-0.3-0.1-0.5-0.2-0.7C223.8,57.4,223.6,57.3,223.3,57.3z"/>
		<path d="M226.3,60.6l0.7-0.1v-3.1l-0.7-0.1v-0.8h2l0.1,0.7c0.1-0.3,0.3-0.5,0.5-0.6s0.4-0.2,0.7-0.2c0.1,0,0.1,0,0.2,0
			c0.1,0,0.1,0,0.2,0l-0.1,1.2l-0.6,0c-0.2,0-0.4,0-0.5,0.1c-0.1,0.1-0.2,0.2-0.3,0.3v2.5l0.7,0.1v0.8h-2.7V60.6z"/>
		<path d="M232.4,57.2l-0.5,0.1l0.7,2.3l0.1,0.5h0l0.1-0.5l0.7-2.3l-0.5-0.1v-0.8h2.3v0.8l-0.4,0.1l-1.5,4.2h-1.3l-1.5-4.2l-0.4-0.1
			v-0.8h2.3V57.2z"/>
		<path d="M235.7,60.6l0.7-0.1v-3.1l-0.7-0.1v-0.8h2.1v4.1l0.7,0.1v0.8h-2.7V60.6z M237.7,55.2h-1.4v-1h1.4V55.2z"/>
		<path d="M241.2,60.5c0.2,0,0.4-0.1,0.6-0.2c0.1-0.1,0.2-0.3,0.2-0.6h1.2l0,0c0,0.5-0.2,0.9-0.6,1.3c-0.4,0.3-0.9,0.5-1.5,0.5
			c-0.8,0-1.3-0.2-1.7-0.7c-0.4-0.5-0.6-1.1-0.6-1.8v-0.1c0-0.7,0.2-1.4,0.6-1.8c0.4-0.5,1-0.7,1.8-0.7c0.4,0,0.8,0.1,1.1,0.2
			s0.6,0.3,0.8,0.5l0,1.4h-1.1l-0.2-0.8c-0.1-0.1-0.2-0.1-0.3-0.1c-0.1,0-0.2-0.1-0.3-0.1c-0.4,0-0.7,0.1-0.8,0.4s-0.2,0.6-0.2,1.1
			V59c0,0.5,0.1,0.8,0.2,1.1C240.6,60.4,240.9,60.5,241.2,60.5z"/>
		<path d="M246.3,61.5c-0.7,0-1.3-0.2-1.8-0.7s-0.7-1.1-0.7-1.8v-0.2c0-0.8,0.2-1.4,0.6-1.9c0.4-0.5,1-0.7,1.7-0.7
			c0.7,0,1.2,0.2,1.6,0.6s0.6,1,0.6,1.7v0.7h-3l0,0c0,0.3,0.1,0.6,0.3,0.8c0.2,0.2,0.5,0.3,0.8,0.3c0.3,0,0.6,0,0.8-0.1
			c0.2-0.1,0.4-0.2,0.7-0.3l0.4,0.8c-0.2,0.2-0.5,0.3-0.8,0.4C247.1,61.5,246.7,61.5,246.3,61.5z M246.2,57.3
			c-0.3,0-0.5,0.1-0.6,0.3c-0.1,0.2-0.2,0.4-0.3,0.8l0,0h1.7v-0.1c0-0.3-0.1-0.5-0.2-0.7C246.7,57.4,246.5,57.3,246.2,57.3z"/>
		<path d="M251.3,60.6l0.5-0.1l2.1-5.9h1.4l2.1,5.9l0.5,0.1v0.8h-2.3v-0.8l0.5-0.1l-0.3-0.9h-2.2l-0.3,0.9l0.5,0.1v0.8h-2.3V60.6z
			 M253.7,58.6h1.6l-0.8-2.4h0L253.7,58.6z"/>
		<path d="M260.6,60.6l1.2-0.1v-4.6h-1.2v-0.8l2.5-0.5v5.9l1.2,0.1v0.8h-3.7V60.6z"/>
		<path d="M269.6,58.8c0,0.9-0.2,1.6-0.6,2.1s-1,0.7-1.7,0.7c-0.7,0-1.3-0.2-1.7-0.7s-0.6-1.2-0.6-2.1v-1.5c0-0.9,0.2-1.6,0.6-2.1
			c0.4-0.5,1-0.7,1.7-0.7c0.7,0,1.3,0.2,1.7,0.7c0.4,0.5,0.6,1.2,0.6,2.1V58.8z M268.3,57.1c0-0.5-0.1-0.9-0.2-1.2
			c-0.2-0.3-0.4-0.4-0.7-0.4c-0.3,0-0.5,0.1-0.7,0.4s-0.2,0.6-0.2,1.2v1.8c0,0.5,0.1,0.9,0.2,1.2c0.2,0.2,0.4,0.4,0.7,0.4
			c0.3,0,0.5-0.1,0.7-0.4s0.2-0.7,0.2-1.2V57.1z"/>
		<path d="M272,61.4h-1.4v-1.2h1.4V61.4z"/>
		<path d="M274.3,57.4h0.8c0.3,0,0.6-0.1,0.7-0.3c0.2-0.2,0.2-0.4,0.2-0.7c0-0.3-0.1-0.5-0.2-0.7c-0.2-0.2-0.4-0.2-0.7-0.2
			c-0.3,0-0.5,0.1-0.6,0.2c-0.2,0.1-0.3,0.3-0.3,0.6h-1.3l0,0c0-0.5,0.2-1,0.6-1.3c0.4-0.3,1-0.5,1.6-0.5c0.7,0,1.3,0.2,1.7,0.5
			c0.4,0.3,0.6,0.8,0.6,1.4c0,0.3-0.1,0.6-0.3,0.8s-0.4,0.5-0.8,0.6c0.4,0.1,0.7,0.3,0.9,0.6c0.2,0.3,0.3,0.6,0.3,1
			c0,0.6-0.2,1.1-0.7,1.5c-0.5,0.4-1,0.5-1.7,0.5c-0.6,0-1.2-0.2-1.6-0.5s-0.7-0.8-0.7-1.4l0,0h1.3c0,0.3,0.1,0.5,0.3,0.6
			s0.4,0.3,0.7,0.3c0.3,0,0.6-0.1,0.7-0.3c0.2-0.2,0.3-0.4,0.3-0.7c0-0.4-0.1-0.6-0.3-0.8c-0.2-0.2-0.4-0.2-0.8-0.2h-0.8V57.4z"/>
		<path d="M279.7,61.4h-1.4v-1.2h1.4V61.4z"/>
		<path d="M280.5,61.4v-0.9l2.2-2.4c0.3-0.4,0.5-0.7,0.7-0.9c0.1-0.3,0.2-0.5,0.2-0.7c0-0.3-0.1-0.5-0.2-0.7
			c-0.2-0.2-0.4-0.3-0.7-0.3c-0.3,0-0.6,0.1-0.7,0.3c-0.2,0.2-0.2,0.5-0.2,0.9h-1.3l0,0c0-0.6,0.2-1.1,0.6-1.6
			c0.4-0.4,1-0.6,1.7-0.6c0.7,0,1.3,0.2,1.7,0.5s0.6,0.9,0.6,1.5c0,0.4-0.1,0.8-0.3,1.1c-0.2,0.3-0.6,0.8-1.1,1.4l-1.2,1.3l0,0h1.8
			l0.1-0.7h1v1.7H280.5z"/>
		<path d="M289.4,56.2l-0.1-0.5h-1.8l-0.2,1.6c0.1-0.1,0.3-0.2,0.5-0.2c0.2-0.1,0.4-0.1,0.6-0.1c0.7,0,1.2,0.2,1.5,0.6
			s0.5,1,0.5,1.7c0,0.7-0.2,1.2-0.6,1.6s-1,0.7-1.7,0.7c-0.6,0-1.2-0.2-1.6-0.5s-0.7-0.8-0.6-1.4l0,0l1.3-0.1c0,0.3,0.1,0.5,0.3,0.7
			s0.4,0.3,0.7,0.3c0.3,0,0.6-0.1,0.7-0.3s0.2-0.5,0.2-0.9c0-0.4-0.1-0.7-0.2-0.9c-0.2-0.2-0.4-0.4-0.7-0.4c-0.3,0-0.5,0-0.6,0.1
			c-0.1,0.1-0.2,0.2-0.3,0.4l-1.2-0.1l0.4-3.8h3.9v1.6H289.4z"/>
		<path d="M295.7,58.8c0,0.9-0.2,1.6-0.6,2.1s-1,0.7-1.7,0.7c-0.7,0-1.3-0.2-1.7-0.7s-0.6-1.2-0.6-2.1v-1.5c0-0.9,0.2-1.6,0.6-2.1
			c0.4-0.5,1-0.7,1.7-0.7c0.7,0,1.3,0.2,1.7,0.7c0.4,0.5,0.6,1.2,0.6,2.1V58.8z M294.3,57.1c0-0.5-0.1-0.9-0.2-1.2
			c-0.2-0.3-0.4-0.4-0.7-0.4c-0.3,0-0.5,0.1-0.7,0.4s-0.2,0.6-0.2,1.2v1.8c0,0.5,0.1,0.9,0.2,1.2c0.2,0.2,0.4,0.4,0.7,0.4
			c0.3,0,0.5-0.1,0.7-0.4s0.2-0.7,0.2-1.2V57.1z"/>
		<path d="M298,61.4h-1.4v-1.2h1.4V61.4z"/>
		<path d="M298.9,61.4v-0.9l2.2-2.4c0.3-0.4,0.5-0.7,0.7-0.9c0.1-0.3,0.2-0.5,0.2-0.7c0-0.3-0.1-0.5-0.2-0.7
			c-0.2-0.2-0.4-0.3-0.7-0.3c-0.3,0-0.6,0.1-0.7,0.3c-0.2,0.2-0.2,0.5-0.2,0.9h-1.3l0,0c0-0.6,0.2-1.1,0.6-1.6
			c0.4-0.4,1-0.6,1.7-0.6c0.7,0,1.3,0.2,1.7,0.5s0.6,0.9,0.6,1.5c0,0.4-0.1,0.8-0.3,1.1c-0.2,0.3-0.6,0.8-1.1,1.4l-1.2,1.3l0,0h1.8
			l0.1-0.7h1v1.7H298.9z"/>
		<path d="M305.6,57.4h0.8c0.3,0,0.6-0.1,0.7-0.3c0.2-0.2,0.2-0.4,0.2-0.7c0-0.3-0.1-0.5-0.2-0.7c-0.2-0.2-0.4-0.2-0.7-0.2
			c-0.3,0-0.5,0.1-0.6,0.2c-0.2,0.1-0.3,0.3-0.3,0.6h-1.3l0,0c0-0.5,0.2-1,0.6-1.3c0.4-0.3,1-0.5,1.6-0.5c0.7,0,1.3,0.2,1.7,0.5
			c0.4,0.3,0.6,0.8,0.6,1.4c0,0.3-0.1,0.6-0.3,0.8s-0.4,0.5-0.8,0.6c0.4,0.1,0.7,0.3,0.9,0.6c0.2,0.3,0.3,0.6,0.3,1
			c0,0.6-0.2,1.1-0.7,1.5c-0.5,0.4-1,0.5-1.7,0.5c-0.6,0-1.2-0.2-1.6-0.5s-0.7-0.8-0.7-1.4l0,0h1.3c0,0.3,0.1,0.5,0.3,0.6
			s0.4,0.3,0.7,0.3c0.3,0,0.6-0.1,0.7-0.3c0.2-0.2,0.3-0.4,0.3-0.7c0-0.4-0.1-0.6-0.3-0.8c-0.2-0.2-0.4-0.2-0.8-0.2h-0.8V57.4z"/>
		<path d="M312.2,54.5c0.3,0,0.5,0,0.7,0.1c0.2,0,0.4,0.1,0.7,0.2l-0.2,1c-0.2-0.1-0.4-0.1-0.5-0.2c-0.2,0-0.4-0.1-0.6-0.1
			c-0.4,0-0.7,0.1-1,0.4s-0.4,0.7-0.4,1.3l0,0c0.2-0.2,0.3-0.3,0.6-0.4c0.2-0.1,0.5-0.1,0.8-0.1c0.6,0,1.1,0.2,1.4,0.7
			c0.3,0.4,0.5,1,0.5,1.7c0,0.7-0.2,1.3-0.6,1.7c-0.4,0.4-1,0.7-1.7,0.7c-0.7,0-1.3-0.2-1.8-0.7s-0.7-1.2-0.7-2v-1.2
			c0-1,0.3-1.7,0.8-2.3C310.7,54.8,311.4,54.5,312.2,54.5z M311.9,57.9c-0.3,0-0.5,0-0.6,0.1c-0.2,0.1-0.3,0.2-0.4,0.3v0.5
			c0,0.5,0.1,1,0.3,1.2s0.5,0.4,0.8,0.4c0.3,0,0.5-0.1,0.7-0.4c0.2-0.3,0.3-0.6,0.3-0.9c0-0.4-0.1-0.7-0.3-0.9
			S312.2,57.9,311.9,57.9z"/>
	</g>
</g>
<g id="pods">
	<circle class="st22" cx="285.2" cy="93.8" r="16.4"/>
	<circle class="st22" cx="322.4" cy="93.8" r="16.4"/>
	<circle class="st26" cx="322.4" cy="93.8" r="16.4"/>
	<circle class="st26" cx="285.2" cy="93.8" r="16.4"/>
	<g>
		<circle class="st41" cx="199.4" cy="329.9" r="20.1"/>
		<circle class="st26" cx="199.4" cy="329.9" r="20.1"/>
	</g>
	<g>
		<circle class="st41" cx="199.4" cy="108.5" r="20.1"/>
		<circle class="st26" cx="199.4" cy="108.5" r="20.1"/>
	</g>
</g>
<g id="IP">
	<g>
		<path class="st42" d="M180.9,317l0.5-0.8l-3.4-2.6l-0.5,0.9l-0.2-0.2l0.6-1.3l3.8,2.9l0.6-0.7l0.2,0.2l-1.4,1.8L180.9,317z"/>
		<path class="st42" d="M183.8,311.4c0.5,0.5,0.7,0.9,0.8,1.4s-0.1,0.8-0.5,1.2c-0.4,0.3-0.8,0.5-1.2,0.4c-0.5-0.1-0.9-0.3-1.4-0.8
			l-0.8-0.8c-0.5-0.5-0.7-0.9-0.8-1.4c0-0.5,0.1-0.9,0.5-1.2c0.4-0.3,0.8-0.5,1.2-0.4s0.9,0.3,1.4,0.8L183.8,311.4z M182.6,310.8
			c-0.4-0.4-0.7-0.6-1.1-0.7c-0.3-0.1-0.6,0-0.9,0.3c-0.3,0.3-0.4,0.6-0.3,0.9c0.1,0.3,0.3,0.7,0.6,1.1l0.9,0.9
			c0.4,0.4,0.7,0.6,1.1,0.7c0.3,0.1,0.7,0,0.9-0.3c0.3-0.3,0.4-0.6,0.3-0.9c-0.1-0.3-0.3-0.7-0.6-1.1L182.6,310.8z"/>
		<path class="st42" d="M186.2,312l-0.4,0.3l-0.3-0.5l0.4-0.3L186.2,312z"/>
		<path class="st42" d="M188.7,308.1c0.3,0.6,0.5,1.1,0.4,1.5c-0.1,0.4-0.3,0.8-0.7,1.1c-0.4,0.3-0.9,0.3-1.3,0.1
			c-0.4-0.2-0.8-0.5-1.1-1.1l-0.6-1c-0.3-0.6-0.5-1.1-0.4-1.5s0.3-0.8,0.7-1.1c0.4-0.3,0.9-0.3,1.3-0.1s0.8,0.5,1.1,1.1L188.7,308.1
			z M187.7,307.3c-0.3-0.5-0.6-0.8-0.9-0.9c-0.3-0.1-0.6-0.1-1,0.1c-0.3,0.2-0.5,0.5-0.5,0.8c0,0.3,0.1,0.7,0.4,1.2l0.6,1.1
			c0.3,0.4,0.6,0.7,0.9,0.9s0.6,0.1,1-0.1c0.3-0.2,0.5-0.5,0.5-0.8c0-0.3-0.1-0.7-0.4-1.2L187.7,307.3z"/>
		<path class="st42" d="M190.9,309.3l-0.4,0.2l-0.2-0.5l0.4-0.2L190.9,309.3z"/>
		<path class="st42" d="M191.7,308.6l0.9-0.3l-1.3-4.1l-0.9,0.5l-0.1-0.3l1.3-0.7l1.5,4.5l0.9-0.2l0.1,0.3l-2.1,0.7L191.7,308.6z"/>
		<path class="st42" d="M195,308l-0.5,0.1l-0.1-0.6l0.5-0.1L195,308z"/>
		<path class="st42" d="M197.1,302.4c0.2,0,0.3,0,0.5,0c0.2,0,0.3,0.1,0.5,0.1l-0.1,0.3c-0.1-0.1-0.3-0.1-0.4-0.1s-0.3,0-0.5,0
			c-0.4,0-0.7,0.2-0.9,0.6c-0.2,0.3-0.3,0.8-0.2,1.4l0,0.2c0.1-0.2,0.3-0.4,0.5-0.5c0.2-0.1,0.4-0.2,0.7-0.2c0.5,0,0.8,0.1,1.1,0.4
			s0.5,0.7,0.5,1.2c0.1,0.5,0,0.9-0.3,1.3c-0.3,0.4-0.6,0.6-1.1,0.6c-0.5,0-0.9-0.1-1.2-0.4c-0.3-0.3-0.5-0.8-0.6-1.5l-0.1-0.9
			c-0.1-0.7,0-1.3,0.3-1.7C196.2,302.7,196.6,302.4,197.1,302.4z M197.2,304.6c-0.3,0-0.5,0.1-0.7,0.3c-0.2,0.2-0.3,0.4-0.4,0.6
			l0,0.3c0.1,0.5,0.2,0.9,0.5,1.2s0.6,0.4,0.9,0.3c0.3,0,0.6-0.2,0.8-0.5c0.2-0.3,0.2-0.6,0.2-1c0-0.4-0.2-0.7-0.4-1
			C197.9,304.6,197.6,304.5,197.2,304.6z"/>
	</g>
	<g>
		<path class="st42" d="M268.1,86.5l0.4-0.8l-3.9-1.9l-0.3,1l-0.3-0.1l0.4-1.4l4.3,2.1l0.5-0.8l0.3,0.1l-1,2L268.1,86.5z"/>
		<path class="st42" d="M269.9,80.4c0.5,0.4,0.9,0.8,1,1.3c0.1,0.4,0,0.9-0.3,1.3c-0.3,0.4-0.7,0.6-1.1,0.6c-0.5,0-0.9-0.2-1.5-0.6
			l-0.9-0.7c-0.5-0.4-0.9-0.8-1-1.2c-0.1-0.4,0-0.9,0.3-1.3c0.3-0.4,0.7-0.6,1.1-0.6c0.5,0,0.9,0.2,1.5,0.6L269.9,80.4z M268.7,80.1
			c-0.4-0.3-0.8-0.5-1.1-0.5c-0.3,0-0.6,0.1-0.9,0.4c-0.2,0.3-0.3,0.6-0.2,1c0.1,0.3,0.4,0.7,0.8,1l1,0.8c0.4,0.3,0.8,0.5,1.2,0.5
			c0.4,0,0.6-0.1,0.9-0.4c0.2-0.3,0.3-0.6,0.2-1c-0.1-0.3-0.4-0.7-0.8-1L268.7,80.1z"/>
		<path class="st42" d="M272.5,80.7l-0.3,0.3l-0.4-0.4l0.3-0.3L272.5,80.7z"/>
		<path class="st42" d="M274.5,76.6c0.4,0.5,0.6,1,0.6,1.5s-0.2,0.8-0.6,1.1c-0.4,0.3-0.8,0.4-1.3,0.3c-0.4-0.1-0.9-0.4-1.2-1
			l-0.7-0.9c-0.4-0.5-0.6-1-0.6-1.5c0-0.5,0.2-0.8,0.6-1.1c0.4-0.3,0.8-0.4,1.3-0.3c0.4,0.1,0.9,0.4,1.2,1L274.5,76.6z M273.4,75.8
			c-0.3-0.4-0.6-0.7-1-0.8c-0.3-0.1-0.6,0-1,0.2c-0.3,0.2-0.5,0.5-0.4,0.9c0,0.3,0.2,0.7,0.5,1.2l0.8,1c0.3,0.4,0.6,0.7,1,0.8
			c0.3,0.1,0.7,0.1,1-0.2c0.3-0.2,0.5-0.5,0.4-0.9c0-0.3-0.2-0.7-0.5-1.2L273.4,75.8z"/>
		<path class="st42" d="M276.8,77.6l-0.4,0.2l-0.3-0.5l0.4-0.2L276.8,77.6z"/>
		<path class="st42" d="M277.5,77.2l-0.1-0.3l0.9-2.4c0.2-0.4,0.3-0.8,0.3-1.1s0-0.5,0-0.7c-0.1-0.3-0.3-0.5-0.5-0.6
			c-0.2-0.1-0.5-0.1-0.8,0c-0.4,0.1-0.6,0.3-0.7,0.6s-0.1,0.6,0,0.9l-0.4,0.1l0,0c-0.2-0.4-0.2-0.8,0-1.2c0.2-0.4,0.5-0.6,1-0.8
			c0.4-0.2,0.8-0.2,1.1,0c0.3,0.1,0.6,0.4,0.7,0.8c0.1,0.3,0.1,0.6,0,0.9s-0.2,0.7-0.4,1.2l-0.8,2l0,0l2.1-0.8l-0.2-0.7l0.4-0.1
			l0.4,1L277.5,77.2z"/>
		<path class="st42" d="M281.7,75.9l-0.5,0.1l-0.1-0.6l0.5-0.1L281.7,75.9z"/>
		<path class="st42" d="M284,70.4c0.2,0,0.4,0,0.5,0s0.3,0.1,0.5,0.1l-0.1,0.3c-0.1-0.1-0.3-0.1-0.4-0.1c-0.1,0-0.3,0-0.5,0
			c-0.4,0-0.7,0.2-0.9,0.5c-0.2,0.3-0.3,0.8-0.3,1.4l0,0.2c0.1-0.2,0.3-0.3,0.5-0.5s0.4-0.2,0.7-0.2c0.5,0,0.8,0.1,1.1,0.4
			c0.3,0.3,0.4,0.7,0.5,1.2c0,0.5-0.1,0.9-0.4,1.3c-0.3,0.3-0.6,0.5-1.1,0.6c-0.5,0-0.9-0.1-1.2-0.5c-0.3-0.3-0.5-0.8-0.5-1.5
			l-0.1-0.9c0-0.7,0.1-1.3,0.4-1.7S283.5,70.4,284,70.4z M284,72.5c-0.3,0-0.5,0.1-0.7,0.3c-0.2,0.2-0.3,0.4-0.4,0.6l0,0.3
			c0,0.5,0.2,0.9,0.4,1.2c0.2,0.3,0.5,0.4,0.9,0.4c0.3,0,0.6-0.2,0.8-0.5c0.2-0.3,0.3-0.6,0.2-1c0-0.4-0.1-0.7-0.4-1
			S284.3,72.5,284,72.5z"/>
	</g>
	<g>
		<path class="st42" d="M307.2,83.1l0.5-0.7l-3.4-2.7l-0.5,0.9l-0.2-0.2l0.6-1.3l3.7,3l0.6-0.7l0.2,0.2l-1.4,1.8L307.2,83.1z"/>
		<path class="st42" d="M310.3,77.5c0.4,0.5,0.7,1,0.7,1.4c0,0.5-0.2,0.8-0.5,1.2c-0.4,0.3-0.8,0.4-1.2,0.4
			c-0.4-0.1-0.9-0.4-1.3-0.9l-0.8-0.9c-0.4-0.5-0.7-1-0.7-1.4c0-0.5,0.1-0.8,0.5-1.2c0.4-0.3,0.8-0.5,1.2-0.4
			c0.4,0.1,0.9,0.4,1.3,0.9L310.3,77.5z M309.1,76.9c-0.3-0.4-0.7-0.6-1-0.7s-0.6,0-0.9,0.3c-0.3,0.2-0.4,0.5-0.4,0.9
			s0.2,0.7,0.6,1.1l0.8,1c0.3,0.4,0.7,0.6,1,0.7s0.7,0,0.9-0.2c0.3-0.2,0.4-0.5,0.4-0.9c0-0.3-0.2-0.7-0.6-1.1L309.1,76.9z"/>
		<path class="st42" d="M312.7,78.4l-0.4,0.3l-0.3-0.5l0.4-0.3L312.7,78.4z"/>
		<path class="st42" d="M315.5,74.7c0.3,0.6,0.4,1.1,0.3,1.6c-0.1,0.4-0.4,0.8-0.8,1c-0.5,0.2-0.9,0.2-1.3,0c-0.4-0.2-0.7-0.6-1-1.2
			l-0.5-1c-0.3-0.6-0.4-1.1-0.3-1.6c0.1-0.4,0.4-0.8,0.8-1c0.5-0.2,0.9-0.2,1.3,0c0.4,0.2,0.7,0.6,1,1.2L315.5,74.7z M314.6,73.8
			c-0.2-0.5-0.5-0.8-0.8-1s-0.6-0.2-1,0c-0.3,0.2-0.5,0.4-0.6,0.7c-0.1,0.3,0,0.7,0.2,1.2l0.5,1.2c0.2,0.5,0.5,0.8,0.8,1
			s0.6,0.2,1,0c0.3-0.2,0.5-0.4,0.6-0.8c0.1-0.3,0-0.8-0.2-1.2L314.6,73.8z"/>
		<path class="st42" d="M317.5,76.2l-0.5,0.1l-0.2-0.6l0.5-0.1L317.5,76.2z"/>
		<path class="st42" d="M318.3,75.9l0-0.3l1.4-2.1c0.3-0.4,0.4-0.7,0.5-1s0.1-0.5,0.1-0.7c0-0.3-0.2-0.6-0.4-0.7
			c-0.2-0.2-0.5-0.2-0.8-0.2c-0.4,0.1-0.7,0.2-0.8,0.4c-0.2,0.2-0.2,0.5-0.2,0.9l-0.4,0.1l0,0c-0.1-0.4,0-0.8,0.3-1.1
			s0.6-0.5,1.1-0.6c0.4-0.1,0.8,0,1.1,0.2c0.3,0.2,0.5,0.5,0.5,1c0,0.3,0,0.6-0.1,0.9c-0.1,0.3-0.3,0.7-0.6,1.1l-1.2,1.8l0,0
			l2.2-0.3l-0.1-0.7l0.4-0.1l0.1,1.1L318.3,75.9z"/>
		<path class="st42" d="M322.7,75.5l-0.5,0l0-0.6l0.5,0L322.7,75.5z"/>
		<path class="st42" d="M327.5,71.3c-0.6,0.6-1.2,1.2-1.5,1.8c-0.4,0.6-0.7,1.4-0.9,2.2l-0.1,0.4l-0.4-0.1l0.1-0.4
			c0.2-0.8,0.5-1.6,1-2.2c0.4-0.6,0.9-1.2,1.5-1.8l-2.5-0.4l-0.1,0.7l-0.4-0.1l0.2-1.1l3.3,0.5L327.5,71.3z"/>
	</g>
	<g class="st44">
		<path class="st42" d="M268.1,86.5l0.4-0.8l-3.9-1.9l-0.3,1l-0.3-0.1l0.4-1.4l4.3,2.1l0.5-0.8l0.3,0.1l-1,2L268.1,86.5z"/>
		<path class="st42" d="M269.9,80.4c0.5,0.4,0.9,0.8,1,1.3c0.1,0.4,0,0.9-0.3,1.3c-0.3,0.4-0.7,0.6-1.1,0.6c-0.5,0-0.9-0.2-1.5-0.6
			l-0.9-0.7c-0.5-0.4-0.9-0.8-1-1.2c-0.1-0.4,0-0.9,0.3-1.3c0.3-0.4,0.7-0.6,1.1-0.6c0.5,0,0.9,0.2,1.5,0.6L269.9,80.4z M268.7,80.1
			c-0.4-0.3-0.8-0.5-1.1-0.5c-0.3,0-0.6,0.1-0.9,0.4c-0.2,0.3-0.3,0.6-0.2,1c0.1,0.3,0.4,0.7,0.8,1l1,0.8c0.4,0.3,0.8,0.5,1.2,0.5
			c0.4,0,0.6-0.1,0.9-0.4c0.2-0.3,0.3-0.6,0.2-1c-0.1-0.3-0.4-0.7-0.8-1L268.7,80.1z"/>
		<path class="st42" d="M272.5,80.7l-0.3,0.3l-0.4-0.4l0.3-0.3L272.5,80.7z"/>
		<path class="st42" d="M272.9,79.8l0.7-0.6l-2.7-3.4l-0.7,0.7l-0.2-0.2l0.9-1.1l3,3.8l0.7-0.5l0.2,0.2l-1.8,1.4L272.9,79.8z"/>
		<path class="st42" d="M275.8,78.1l-0.4,0.2l-0.3-0.5l0.4-0.3L275.8,78.1z"/>
		<path class="st42" d="M276.3,74.7l0.4-0.2c0.3-0.1,0.6-0.3,0.7-0.6c0.1-0.2,0.1-0.5,0-0.8c-0.1-0.3-0.3-0.5-0.6-0.6
			c-0.2-0.1-0.5-0.1-0.8,0.1c-0.3,0.1-0.5,0.3-0.6,0.6c-0.1,0.3-0.1,0.5,0,0.8l-0.4,0.2l0,0c-0.2-0.4-0.2-0.7,0-1.1
			c0.2-0.4,0.4-0.6,0.9-0.8c0.4-0.2,0.8-0.2,1.1-0.1c0.3,0.1,0.6,0.4,0.8,0.8c0.1,0.2,0.1,0.5,0.1,0.7s-0.2,0.5-0.4,0.7
			c0.3,0,0.6,0,0.8,0.1c0.2,0.1,0.4,0.3,0.5,0.6c0.2,0.4,0.2,0.8,0,1.2s-0.5,0.6-0.9,0.8c-0.4,0.2-0.8,0.2-1.2,0.1
			c-0.4-0.1-0.7-0.4-0.8-0.8l0,0l0.4-0.2c0.1,0.3,0.3,0.5,0.6,0.6c0.3,0.1,0.6,0.1,0.9-0.1c0.3-0.1,0.6-0.3,0.7-0.6
			c0.1-0.3,0.1-0.5,0-0.9c-0.1-0.3-0.3-0.5-0.6-0.6s-0.6,0-0.9,0.1l-0.4,0.2L276.3,74.7z"/>
	</g>
	<g>
		<path class="st42" d="M180.4,95l0.5-0.8l-3.4-2.6l-0.5,0.9l-0.2-0.2l0.6-1.3l3.8,2.9l0.6-0.7l0.2,0.2l-1.4,1.8L180.4,95z"/>
		<path class="st42" d="M183.3,89.4c0.5,0.5,0.7,0.9,0.8,1.4s-0.1,0.8-0.5,1.2c-0.4,0.3-0.8,0.5-1.2,0.4c-0.5-0.1-0.9-0.3-1.4-0.8
			l-0.8-0.8c-0.5-0.5-0.7-0.9-0.8-1.4c0-0.5,0.1-0.9,0.5-1.2c0.4-0.3,0.8-0.5,1.2-0.4s0.9,0.3,1.4,0.8L183.3,89.4z M182.2,88.8
			c-0.4-0.4-0.7-0.6-1.1-0.7c-0.3-0.1-0.6,0-0.9,0.3c-0.3,0.3-0.4,0.6-0.3,0.9c0.1,0.3,0.3,0.7,0.6,1.1l0.9,0.9
			c0.4,0.4,0.7,0.6,1.1,0.7c0.3,0.1,0.7,0,0.9-0.3c0.3-0.3,0.4-0.6,0.3-0.9c-0.1-0.3-0.3-0.7-0.6-1.1L182.2,88.8z"/>
		<path class="st42" d="M185.7,90l-0.4,0.3l-0.3-0.5l0.4-0.3L185.7,90z"/>
		<path class="st42" d="M188.2,86.1c0.3,0.6,0.5,1.1,0.4,1.5c-0.1,0.4-0.3,0.8-0.7,1.1c-0.4,0.3-0.9,0.3-1.3,0.1
			c-0.4-0.2-0.8-0.5-1.1-1.1l-0.6-1c-0.3-0.6-0.5-1.1-0.4-1.5s0.3-0.8,0.7-1.1c0.4-0.3,0.9-0.3,1.3-0.1s0.8,0.5,1.1,1.1L188.2,86.1z
			 M187.2,85.3c-0.3-0.5-0.6-0.8-0.9-0.9c-0.3-0.1-0.6-0.1-1,0.1c-0.3,0.2-0.5,0.5-0.5,0.8c0,0.3,0.1,0.7,0.4,1.2l0.6,1.1
			c0.3,0.4,0.6,0.7,0.9,0.9s0.6,0.1,1-0.1c0.3-0.2,0.5-0.5,0.5-0.8c0-0.3-0.1-0.7-0.4-1.2L187.2,85.3z"/>
		<path class="st42" d="M190.4,87.3l-0.4,0.2l-0.2-0.5l0.4-0.2L190.4,87.3z"/>
		<path class="st42" d="M193.8,84.1c0.2,0.6,0.2,1.2,0,1.6c-0.2,0.4-0.5,0.7-1,0.8c-0.5,0.1-0.9,0.1-1.3-0.2
			c-0.4-0.3-0.7-0.7-0.8-1.3l-0.3-1.1c-0.2-0.6-0.2-1.2,0-1.6s0.5-0.7,1-0.9c0.5-0.1,0.9-0.1,1.3,0.2c0.4,0.3,0.7,0.7,0.8,1.3
			L193.8,84.1z M193,83.1c-0.2-0.5-0.4-0.9-0.6-1.1c-0.3-0.2-0.6-0.3-1-0.2c-0.4,0.1-0.6,0.3-0.7,0.7c-0.1,0.3-0.1,0.7,0.1,1.2
			l0.4,1.2c0.2,0.5,0.4,0.9,0.6,1.1s0.6,0.3,1,0.2c0.4-0.1,0.6-0.3,0.7-0.7s0.1-0.7-0.1-1.2L193,83.1z"/>
		<path class="st42" d="M195.6,85.8l-0.5,0.1l-0.1-0.6l0.5-0.1L195.6,85.8z"/>
		<path class="st42" d="M198,80.3c0.2,0,0.3,0,0.5,0c0.2,0,0.3,0.1,0.5,0.1l-0.1,0.3c-0.1-0.1-0.3-0.1-0.4-0.1c-0.1,0-0.3,0-0.5,0
			c-0.4,0-0.7,0.2-0.9,0.5c-0.2,0.3-0.3,0.8-0.3,1.4l0,0.2c0.1-0.2,0.3-0.3,0.5-0.5c0.2-0.1,0.4-0.2,0.7-0.2c0.5,0,0.8,0.1,1.1,0.4
			c0.3,0.3,0.4,0.7,0.5,1.2c0,0.5-0.1,0.9-0.4,1.3s-0.6,0.5-1.1,0.6c-0.5,0-0.9-0.1-1.2-0.5s-0.5-0.8-0.5-1.5l-0.1-0.9
			c0-0.7,0.1-1.3,0.4-1.7C197.1,80.6,197.5,80.4,198,80.3z M198,82.5c-0.3,0-0.5,0.1-0.7,0.3c-0.2,0.2-0.3,0.4-0.4,0.6l0,0.3
			c0,0.5,0.2,0.9,0.4,1.2c0.2,0.3,0.5,0.4,0.9,0.4c0.3,0,0.6-0.2,0.8-0.4s0.3-0.6,0.3-1c0-0.4-0.1-0.7-0.4-1
			C198.6,82.6,198.3,82.5,198,82.5z"/>
	</g>
</g>
<g id="deployments">
	<g>
		<g>
			<circle class="st45" cx="249.9" cy="211.2" r="14.1"/>
			<g>
				<g>
					<path class="st46" d="M254.3,202.9c3,1.6,5,4.7,5,8.3c0,5.2-4.2,9.4-9.4,9.4c-5.2,0-9.4-4.2-9.4-9.4c0-4.1,2.6-7.6,6.3-8.9"/>
					<g>
						<polygon class="st6" points="255.7,205.7 254.6,203.1 257.3,202 255.7,201.3 253,202.4 254.1,205 						"/>
					</g>
				</g>
			</g>
			<g>
				<path class="st6" d="M244.7,214.9l0.8-0.1l3.3-9.5h2.2l3.3,9.5l0.8,0.1v1.3h-3.7v-1.3l0.8-0.1l-0.5-1.5h-3.5l-0.5,1.5l0.8,0.1
					v1.3h-3.7V214.9z M248.6,211.7h2.5l-1.2-3.8h0L248.6,211.7z"/>
			</g>
		</g>
	</g>
</g>
<g id="containers_x2F_volumes">
	<g>
		<polygon class="st51" points="188,323.5 199.9,316.6 211.8,323.5 199.9,330.3 		"/>
		<polygon class="st51" points="188,337.2 188,323.5 199.9,330.3 199.9,344 		"/>
		<polygon class="st51" points="199.9,344 199.9,330.3 211.8,323.5 211.8,337.2 		"/>
	</g>
	<g>
		<polygon class="st51" points="275.7,88.4 285.2,82.9 294.7,88.4 285.2,93.8 		"/>
		<polygon class="st51" points="275.7,99.3 275.7,88.4 285.2,93.8 285.2,104.8 		"/>
		<polygon class="st51" points="285.2,104.8 285.2,93.8 294.7,88.4 294.7,99.3 		"/>
	</g>
	<g>
		<polygon class="st51" points="312.9,88.4 322.4,82.9 331.9,88.4 322.4,93.8 		"/>
		<polygon class="st51" points="312.9,99.3 312.9,88.4 322.4,93.8 322.4,104.8 		"/>
		<polygon class="st51" points="322.4,104.8 322.4,93.8 331.9,88.4 331.9,99.3 		"/>
	</g>
	<g>
		<polygon class="st51" points="187.6,101.5 199.4,94.7 211.3,101.5 199.4,108.4 		"/>
		<polygon class="st51" points="187.6,115.2 187.6,101.5 199.4,108.4 199.4,122.1 		"/>
		<polygon class="st51" points="199.4,122.1 199.4,108.4 211.3,101.5 211.3,115.2 		"/>
	</g>
</g>
<g id="labels_x2F_selectors">
</g>
<g id="description">
	<g>
		<path class="st42" d="M390.5,100.7c-0.2,0.3-0.5,0.6-0.8,0.8s-0.7,0.3-1.1,0.3c-0.7,0-1.2-0.2-1.6-0.7s-0.6-1.1-0.6-2.1v-2.8
			l-0.7-0.2v-0.7h0.7h1.2v3.8c0,0.7,0.1,1.1,0.3,1.4s0.5,0.4,0.9,0.4c0.4,0,0.7-0.1,1-0.2s0.5-0.4,0.6-0.7v-3.7l-0.8-0.2v-0.7h0.8
			h1.2v5.4l0.7,0.2v0.7h-1.8L390.5,100.7z"/>
		<path class="st42" d="M393.1,103.3l1-0.2v-7l-1-0.2v-0.7h1.9l0.1,0.8c0.2-0.3,0.5-0.5,0.8-0.7s0.7-0.2,1.1-0.2
			c0.8,0,1.4,0.3,1.8,0.9s0.7,1.4,0.7,2.5v0.1c0,0.9-0.2,1.7-0.7,2.2s-1,0.8-1.8,0.8c-0.4,0-0.7-0.1-1-0.2s-0.5-0.3-0.8-0.6v2.2
			l1,0.2v0.7h-3.1V103.3z M398.3,98.6c0-0.7-0.1-1.3-0.4-1.8s-0.7-0.7-1.3-0.7c-0.3,0-0.6,0.1-0.8,0.2s-0.4,0.4-0.6,0.6v3.1
			c0.1,0.3,0.3,0.5,0.6,0.6s0.5,0.2,0.9,0.2c0.5,0,1-0.2,1.2-0.6s0.4-0.9,0.4-1.6V98.6z"/>
		<path class="st42" d="M404.8,100.9c-0.2,0.3-0.5,0.5-0.8,0.7s-0.6,0.2-1,0.2c-0.8,0-1.4-0.3-1.8-0.8s-0.7-1.3-0.7-2.2v-0.1
			c0-1,0.2-1.8,0.7-2.5s1-0.9,1.8-0.9c0.4,0,0.7,0.1,1,0.2s0.5,0.3,0.7,0.6v-2.6l-1-0.2v-0.7h1h1.2v8.2l1,0.2v0.7h-2L404.8,100.9z
			 M401.7,98.7c0,0.6,0.1,1.1,0.4,1.5s0.7,0.6,1.2,0.6c0.3,0,0.6-0.1,0.9-0.2s0.4-0.4,0.6-0.7V97c-0.1-0.3-0.3-0.5-0.6-0.6
			s-0.5-0.2-0.9-0.2c-0.6,0-1,0.2-1.2,0.7s-0.4,1.1-0.4,1.8V98.7z"/>
		<path class="st42" d="M411.9,101.7c0-0.2-0.1-0.3-0.1-0.5s0-0.3,0-0.4c-0.2,0.3-0.5,0.5-0.8,0.7s-0.7,0.3-1.1,0.3
			c-0.7,0-1.2-0.2-1.5-0.5s-0.5-0.8-0.5-1.4c0-0.6,0.2-1.1,0.7-1.4s1.2-0.5,2-0.5h1.2v-0.7c0-0.4-0.1-0.7-0.4-0.9s-0.6-0.3-1-0.3
			c-0.3,0-0.5,0-0.8,0.1s-0.4,0.2-0.5,0.3l-0.1,0.7h-0.9V96c0.3-0.2,0.6-0.4,1-0.6s0.9-0.2,1.3-0.2c0.7,0,1.3,0.2,1.7,0.6
			s0.7,0.9,0.7,1.6v3.1c0,0.1,0,0.2,0,0.2s0,0.2,0,0.2l0.5,0.1v0.7H411.9z M410,100.8c0.4,0,0.7-0.1,1-0.3s0.5-0.4,0.7-0.7v-1h-1.2
			c-0.5,0-0.8,0.1-1.1,0.3s-0.4,0.5-0.4,0.8c0,0.3,0.1,0.5,0.3,0.6S409.7,100.8,410,100.8z"/>
		<path class="st42" d="M416.4,93.8v1.5h1.2v0.9h-1.2v3.8c0,0.3,0.1,0.5,0.2,0.6s0.3,0.2,0.5,0.2c0.1,0,0.2,0,0.3,0s0.2,0,0.3-0.1
			l0.2,0.8c-0.1,0.1-0.3,0.1-0.5,0.2s-0.4,0.1-0.6,0.1c-0.5,0-0.8-0.1-1.1-0.4s-0.4-0.7-0.4-1.3v-3.8h-1v-0.9h1v-1.5H416.4z"/>
		<path class="st42" d="M421.6,101.8c-0.9,0-1.6-0.3-2.1-0.9s-0.8-1.4-0.8-2.3v-0.3c0-0.9,0.3-1.7,0.8-2.3s1.2-0.9,1.9-0.9
			c0.9,0,1.5,0.3,1.9,0.8s0.7,1.2,0.7,2.1v0.7h-4.1l0,0c0,0.6,0.2,1.1,0.5,1.5s0.7,0.6,1.2,0.6c0.4,0,0.7-0.1,1-0.2s0.5-0.3,0.8-0.5
			l0.5,0.8c-0.2,0.2-0.5,0.4-0.9,0.6S422.2,101.8,421.6,101.8z M421.5,96.1c-0.4,0-0.7,0.2-1,0.5s-0.4,0.7-0.5,1.2l0,0h2.9v-0.2
			c0-0.5-0.1-0.8-0.4-1.1S421.9,96.1,421.5,96.1z"/>
		<path class="st42" d="M429.5,100.9c-0.2,0.3-0.5,0.5-0.8,0.7s-0.6,0.2-1,0.2c-0.8,0-1.4-0.3-1.8-0.8s-0.7-1.3-0.7-2.2v-0.1
			c0-1,0.2-1.8,0.7-2.5s1-0.9,1.8-0.9c0.4,0,0.7,0.1,1,0.2s0.5,0.3,0.7,0.6v-2.6l-1-0.2v-0.7h1h1.2v8.2l1,0.2v0.7h-2L429.5,100.9z
			 M426.3,98.7c0,0.6,0.1,1.1,0.4,1.5s0.7,0.6,1.2,0.6c0.3,0,0.6-0.1,0.9-0.2s0.4-0.4,0.6-0.7V97c-0.1-0.3-0.3-0.5-0.6-0.6
			s-0.5-0.2-0.9-0.2c-0.6,0-1,0.2-1.2,0.7s-0.4,1.1-0.4,1.8V98.7z"/>
		<path class="st42" d="M439.5,101.7c0-0.2-0.1-0.3-0.1-0.5s0-0.3,0-0.4c-0.2,0.3-0.5,0.5-0.8,0.7s-0.7,0.3-1.1,0.3
			c-0.7,0-1.2-0.2-1.5-0.5s-0.5-0.8-0.5-1.4c0-0.6,0.2-1.1,0.7-1.4s1.2-0.5,2-0.5h1.2v-0.7c0-0.4-0.1-0.7-0.4-0.9s-0.6-0.3-1-0.3
			c-0.3,0-0.5,0-0.8,0.1s-0.4,0.2-0.5,0.3l-0.1,0.7h-0.9V96c0.3-0.2,0.6-0.4,1-0.6s0.9-0.2,1.3-0.2c0.7,0,1.3,0.2,1.7,0.6
			s0.7,0.9,0.7,1.6v3.1c0,0.1,0,0.2,0,0.2s0,0.2,0,0.2l0.5,0.1v0.7H439.5z M437.6,100.8c0.4,0,0.7-0.1,1-0.3s0.5-0.4,0.7-0.7v-1
			h-1.2c-0.5,0-0.8,0.1-1.1,0.3s-0.4,0.5-0.4,0.8c0,0.3,0.1,0.5,0.3,0.6S437.3,100.8,437.6,100.8z"/>
		<path class="st42" d="M441.8,103.3l1-0.2v-7l-1-0.2v-0.7h1.9l0.1,0.8c0.2-0.3,0.5-0.5,0.8-0.7s0.7-0.2,1.1-0.2
			c0.8,0,1.4,0.3,1.8,0.9s0.7,1.4,0.7,2.5v0.1c0,0.9-0.2,1.7-0.7,2.2s-1,0.8-1.8,0.8c-0.4,0-0.7-0.1-1-0.2s-0.5-0.3-0.8-0.6v2.2
			l1,0.2v0.7h-3.1V103.3z M447,98.6c0-0.7-0.1-1.3-0.4-1.8s-0.7-0.7-1.3-0.7c-0.3,0-0.6,0.1-0.8,0.2s-0.4,0.4-0.6,0.6v3.1
			c0.1,0.3,0.3,0.5,0.6,0.6s0.5,0.2,0.9,0.2c0.5,0,1-0.2,1.2-0.6s0.4-0.9,0.4-1.6V98.6z"/>
		<path class="st42" d="M449.1,103.3l1-0.2v-7l-1-0.2v-0.7h1.9l0.1,0.8c0.2-0.3,0.5-0.5,0.8-0.7s0.7-0.2,1.1-0.2
			c0.8,0,1.4,0.3,1.8,0.9s0.7,1.4,0.7,2.5v0.1c0,0.9-0.2,1.7-0.7,2.2s-1,0.8-1.8,0.8c-0.4,0-0.7-0.1-1-0.2s-0.5-0.3-0.8-0.6v2.2
			l1,0.2v0.7h-3.1V103.3z M454.3,98.6c0-0.7-0.1-1.3-0.4-1.8s-0.7-0.7-1.3-0.7c-0.3,0-0.6,0.1-0.8,0.2s-0.4,0.4-0.6,0.6v3.1
			c0.1,0.3,0.3,0.5,0.6,0.6s0.5,0.2,0.9,0.2c0.5,0,1-0.2,1.2-0.6s0.4-0.9,0.4-1.6V98.6z"/>
	</g>
	<line class="st62" x1="325.5" y1="99.3" x2="383.9" y2="99.3"/>
	<g>
		<path class="st42" d="M58.8,130.4h-0.9l-0.2-1.2c-0.2-0.1-0.4-0.3-0.7-0.4s-0.6-0.1-1-0.1c-0.6,0-1.1,0.1-1.4,0.4s-0.5,0.6-0.5,1
			c0,0.4,0.2,0.7,0.5,0.9s0.9,0.5,1.6,0.7c0.9,0.2,1.6,0.6,2,1s0.7,1,0.7,1.6c0,0.7-0.3,1.2-0.8,1.7s-1.3,0.6-2.2,0.6
			c-0.7,0-1.2-0.1-1.7-0.3s-0.9-0.5-1.2-0.8v-1.6h0.9L54,135c0.2,0.2,0.5,0.3,0.8,0.5s0.7,0.2,1.1,0.2c0.6,0,1-0.1,1.4-0.4
			s0.5-0.6,0.5-1c0-0.4-0.1-0.7-0.4-1s-0.8-0.5-1.6-0.7c-0.9-0.2-1.6-0.5-2.1-0.9s-0.8-0.9-0.8-1.6c0-0.7,0.3-1.2,0.8-1.7
			s1.3-0.7,2.2-0.7c0.6,0,1.1,0.1,1.6,0.3s0.9,0.5,1.2,0.7V130.4z"/>
		<path class="st42" d="M62.9,136.5c-0.9,0-1.6-0.3-2.1-0.9s-0.8-1.4-0.8-2.3v-0.3c0-0.9,0.3-1.7,0.8-2.3s1.2-0.9,1.9-0.9
			c0.9,0,1.5,0.3,1.9,0.8s0.7,1.2,0.7,2.1v0.7h-4.1l0,0c0,0.6,0.2,1.1,0.5,1.5s0.7,0.6,1.2,0.6c0.4,0,0.7-0.1,1-0.2s0.5-0.3,0.8-0.5
			l0.5,0.8c-0.2,0.2-0.5,0.4-0.9,0.6S63.4,136.5,62.9,136.5z M62.7,130.8c-0.4,0-0.7,0.2-1,0.5s-0.4,0.7-0.5,1.2l0,0h2.9v-0.2
			c0-0.5-0.1-0.8-0.4-1.1S63.2,130.8,62.7,130.8z"/>
		<path class="st42" d="M66.4,130.8V130h2l0.1,0.9c0.2-0.3,0.4-0.6,0.7-0.8s0.6-0.3,0.9-0.3c0.1,0,0.2,0,0.3,0s0.2,0,0.2,0l-0.2,1.1
			l-0.7,0c-0.3,0-0.6,0.1-0.8,0.2s-0.4,0.3-0.5,0.6v3.6l1,0.2v0.7h-3.1v-0.7l1-0.2v-4.5L66.4,130.8z"/>
		<path class="st42" d="M73.7,130.8l-0.8,0.1l1.3,3.6l0.1,0.5h0l0.1-0.5l1.3-3.6l-0.8-0.1V130h2.4v0.7l-0.5,0.1l-2.1,5.5h-0.9
			l-2.2-5.5l-0.5-0.1V130h2.4V130.8z"/>
		<path class="st42" d="M78.2,135.6l1-0.2v-4.5l-1-0.2V130h2.1v5.4l1,0.2v0.7h-3.1V135.6z M80.3,128.4h-1.2v-1.2h1.2V128.4z"/>
		<path class="st42" d="M85,135.6c0.4,0,0.7-0.1,1-0.4s0.4-0.5,0.4-0.9h1l0,0c0,0.5-0.2,1-0.7,1.5s-1.1,0.6-1.8,0.6
			c-0.9,0-1.6-0.3-2.1-0.9s-0.7-1.4-0.7-2.3v-0.2c0-0.9,0.2-1.7,0.7-2.3s1.2-0.9,2.1-0.9c0.5,0,1,0.1,1.4,0.3s0.7,0.4,1,0.7l0.1,1.4
			h-0.9l-0.3-1c-0.1-0.1-0.3-0.2-0.5-0.3s-0.5-0.1-0.7-0.1c-0.6,0-1,0.2-1.3,0.7s-0.4,1-0.4,1.6v0.2c0,0.6,0.1,1.2,0.4,1.6
			S84.4,135.6,85,135.6z"/>
		<path class="st42" d="M91.5,136.5c-0.9,0-1.6-0.3-2.1-0.9s-0.8-1.4-0.8-2.3v-0.3c0-0.9,0.3-1.7,0.8-2.3s1.2-0.9,1.9-0.9
			c0.9,0,1.5,0.3,1.9,0.8s0.7,1.2,0.7,2.1v0.7h-4.1l0,0c0,0.6,0.2,1.1,0.5,1.5s0.7,0.6,1.2,0.6c0.4,0,0.7-0.1,1-0.2s0.5-0.3,0.8-0.5
			l0.5,0.8c-0.2,0.2-0.5,0.4-0.9,0.6S92,136.5,91.5,136.5z M91.3,130.8c-0.4,0-0.7,0.2-1,0.5s-0.4,0.7-0.5,1.2l0,0h2.9v-0.2
			c0-0.5-0.1-0.8-0.4-1.1S91.8,130.8,91.3,130.8z"/>
	</g>
	<line class="st62" x1="173.7" y1="134" x2="97.8" y2="134"/>
	<g>
		<path class="st42" d="M385.8,76.7l1-0.2V72l-1-0.2v-0.7h2l0.1,0.9c0.2-0.3,0.5-0.6,0.8-0.8s0.7-0.3,1.1-0.3c0.7,0,1.2,0.2,1.6,0.6
			s0.6,1,0.6,1.9v3.1l1,0.2v0.7h-3.1v-0.7l1-0.2v-3.1c0-0.6-0.1-1-0.3-1.2s-0.6-0.4-1-0.4c-0.3,0-0.6,0.1-0.9,0.2s-0.5,0.4-0.6,0.7
			v3.7l1,0.2v0.7h-3.1V76.7z"/>
		<path class="st42" d="M396.5,77.6c-0.9,0-1.6-0.3-2.1-0.9s-0.8-1.4-0.8-2.3v-0.3c0-0.9,0.3-1.7,0.8-2.3s1.2-0.9,1.9-0.9
			c0.9,0,1.5,0.3,1.9,0.8s0.7,1.2,0.7,2.1v0.7h-4.1l0,0c0,0.6,0.2,1.1,0.5,1.5s0.7,0.6,1.2,0.6c0.4,0,0.7-0.1,1-0.2s0.5-0.3,0.8-0.5
			l0.5,0.8c-0.2,0.2-0.5,0.4-0.9,0.6S397.1,77.6,396.5,77.6z M396.4,71.9c-0.4,0-0.7,0.2-1,0.5s-0.4,0.7-0.5,1.2l0,0h2.9v-0.2
			c0-0.5-0.1-0.8-0.4-1.1S396.8,71.9,396.4,71.9z"/>
		<path class="st42" d="M402.3,71.9l-0.7,0.1l0.8,3.2l0.1,0.8h0l0.2-0.8l1.3-4h0.9l1.3,4l0.2,0.9h0l0.2-0.9l0.8-3.2l-0.7-0.1v-0.7
			h2.4v0.7l-0.6,0.1l-1.6,5.5H406l-1.2-3.9l-0.3-1.1l0,0l-0.2,1.1l-1.2,3.9h-0.9l-1.6-5.5l-0.6-0.1v-0.7h2.4V71.9z"/>
		<path class="st42" d="M412.9,69.7v-0.7h3.1v0.7l-1,0.2v6.7l1,0.2v0.7h-3.1v-0.7l1-0.2v-6.7L412.9,69.7z"/>
		<path class="st42" d="M420.7,68.9c0.9,0,1.6,0.2,2.1,0.7s0.8,1.1,0.8,1.9c0,0.8-0.3,1.4-0.8,1.9s-1.2,0.7-2.1,0.7h-1.8v2.5l1,0.2
			v0.7h-3.1v-0.7l1-0.2v-6.7l-1-0.2v-0.7h1H420.7z M418.9,73.1h1.8c0.6,0,1-0.2,1.3-0.5s0.4-0.7,0.4-1.2s-0.1-0.9-0.4-1.2
			s-0.7-0.5-1.3-0.5h-1.8V73.1z"/>
		<path class="st42" d="M431.6,77.5c0-0.2-0.1-0.3-0.1-0.5s0-0.3,0-0.4c-0.2,0.3-0.5,0.5-0.8,0.7s-0.7,0.3-1.1,0.3
			c-0.7,0-1.2-0.2-1.5-0.5s-0.5-0.8-0.5-1.4c0-0.6,0.2-1.1,0.7-1.4s1.2-0.5,2-0.5h1.2v-0.7c0-0.4-0.1-0.7-0.4-0.9s-0.6-0.3-1-0.3
			c-0.3,0-0.5,0-0.8,0.1s-0.4,0.2-0.5,0.3l-0.1,0.7h-0.9v-1.2c0.3-0.2,0.6-0.4,1-0.6s0.9-0.2,1.3-0.2c0.7,0,1.3,0.2,1.7,0.6
			s0.7,0.9,0.7,1.6v3.1c0,0.1,0,0.2,0,0.2s0,0.2,0,0.2l0.5,0.1v0.7H431.6z M429.8,76.6c0.4,0,0.7-0.1,1-0.3s0.5-0.4,0.7-0.7v-1h-1.2
			c-0.5,0-0.8,0.1-1.1,0.3s-0.4,0.5-0.4,0.8c0,0.3,0.1,0.5,0.3,0.6S429.4,76.6,429.8,76.6z"/>
		<path class="st42" d="M438.4,76.7c-0.2,0.3-0.5,0.5-0.8,0.7s-0.6,0.2-1,0.2c-0.8,0-1.4-0.3-1.8-0.8s-0.7-1.3-0.7-2.2v-0.1
			c0-1,0.2-1.8,0.7-2.5s1-0.9,1.8-0.9c0.4,0,0.7,0.1,1,0.2s0.5,0.3,0.7,0.6v-2.6l-1-0.2v-0.7h1h1.2v8.2l1,0.2v0.7h-2L438.4,76.7z
			 M435.2,74.5c0,0.6,0.1,1.1,0.4,1.5s0.7,0.6,1.2,0.6c0.3,0,0.6-0.1,0.9-0.2s0.4-0.4,0.6-0.7v-2.9c-0.1-0.3-0.3-0.5-0.6-0.6
			s-0.5-0.2-0.9-0.2c-0.6,0-1,0.2-1.2,0.7s-0.4,1.1-0.4,1.8V74.5z"/>
		<path class="st42" d="M445.6,76.7c-0.2,0.3-0.5,0.5-0.8,0.7s-0.6,0.2-1,0.2c-0.8,0-1.4-0.3-1.8-0.8s-0.7-1.3-0.7-2.2v-0.1
			c0-1,0.2-1.8,0.7-2.5s1-0.9,1.8-0.9c0.4,0,0.7,0.1,1,0.2s0.5,0.3,0.7,0.6v-2.6l-1-0.2v-0.7h1h1.2v8.2l1,0.2v0.7h-2L445.6,76.7z
			 M442.4,74.5c0,0.6,0.1,1.1,0.4,1.5s0.7,0.6,1.2,0.6c0.3,0,0.6-0.1,0.9-0.2s0.4-0.4,0.6-0.7v-2.9c-0.1-0.3-0.3-0.5-0.6-0.6
			s-0.5-0.2-0.9-0.2c-0.6,0-1,0.2-1.2,0.7s-0.4,1.1-0.4,1.8V74.5z"/>
		<path class="st42" d="M448.5,71.9v-0.7h2l0.1,0.9c0.2-0.3,0.4-0.6,0.7-0.8s0.6-0.3,0.9-0.3c0.1,0,0.2,0,0.3,0s0.2,0,0.2,0
			l-0.2,1.1l-0.7,0c-0.3,0-0.6,0.1-0.8,0.2s-0.4,0.3-0.5,0.6v3.6l1,0.2v0.7h-3.1v-0.7l1-0.2V72L448.5,71.9z"/>
		<path class="st42" d="M456.2,77.6c-0.9,0-1.6-0.3-2.1-0.9s-0.8-1.4-0.8-2.3v-0.3c0-0.9,0.3-1.7,0.8-2.3s1.2-0.9,1.9-0.9
			c0.9,0,1.5,0.3,1.9,0.8s0.7,1.2,0.7,2.1v0.7h-4.1l0,0c0,0.6,0.2,1.1,0.5,1.5s0.7,0.6,1.2,0.6c0.4,0,0.7-0.1,1-0.2s0.5-0.3,0.8-0.5
			l0.5,0.8c-0.2,0.2-0.5,0.4-0.9,0.6S456.8,77.6,456.2,77.6z M456.1,71.9c-0.4,0-0.7,0.2-1,0.5s-0.4,0.7-0.5,1.2l0,0h2.9v-0.2
			c0-0.5-0.1-0.8-0.4-1.1S456.5,71.9,456.1,71.9z"/>
		<path class="st42" d="M464.6,73.1h-0.9l-0.2-0.8c-0.1-0.1-0.3-0.2-0.5-0.3s-0.5-0.1-0.7-0.1c-0.4,0-0.7,0.1-0.9,0.3
			s-0.3,0.4-0.3,0.7c0,0.2,0.1,0.4,0.3,0.6s0.5,0.3,1.1,0.4c0.8,0.2,1.4,0.4,1.8,0.7s0.6,0.7,0.6,1.2c0,0.6-0.2,1-0.7,1.4
			s-1,0.5-1.8,0.5c-0.5,0-0.9-0.1-1.3-0.2s-0.7-0.3-1-0.5l0-1.4h0.9l0.2,0.8c0.1,0.1,0.3,0.2,0.5,0.3s0.5,0.1,0.7,0.1
			c0.4,0,0.7-0.1,1-0.2s0.3-0.4,0.3-0.7c0-0.3-0.1-0.5-0.3-0.6s-0.6-0.3-1.1-0.4c-0.8-0.2-1.3-0.4-1.7-0.7s-0.6-0.7-0.6-1.2
			c0-0.5,0.2-1,0.7-1.3s1-0.5,1.7-0.5c0.5,0,0.9,0.1,1.3,0.2s0.7,0.3,1,0.5L464.6,73.1z"/>
		<path class="st42" d="M470.8,73.1h-0.9l-0.2-0.8c-0.1-0.1-0.3-0.2-0.5-0.3s-0.5-0.1-0.7-0.1c-0.4,0-0.7,0.1-0.9,0.3
			s-0.3,0.4-0.3,0.7c0,0.2,0.1,0.4,0.3,0.6s0.5,0.3,1.1,0.4c0.8,0.2,1.4,0.4,1.8,0.7s0.6,0.7,0.6,1.2c0,0.6-0.2,1-0.7,1.4
			s-1,0.5-1.8,0.5c-0.5,0-0.9-0.1-1.3-0.2s-0.7-0.3-1-0.5l0-1.4h0.9l0.2,0.8c0.1,0.1,0.3,0.2,0.5,0.3s0.5,0.1,0.7,0.1
			c0.4,0,0.7-0.1,1-0.2s0.3-0.4,0.3-0.7c0-0.3-0.1-0.5-0.3-0.6s-0.6-0.3-1.1-0.4c-0.8-0.2-1.3-0.4-1.7-0.7s-0.6-0.7-0.6-1.2
			c0-0.5,0.2-1,0.7-1.3s1-0.5,1.7-0.5c0.5,0,0.9,0.1,1.3,0.2s0.7,0.3,1,0.5L470.8,73.1z"/>
	</g>
	<line class="st62" x1="327.2" y1="75.1" x2="383.9" y2="75.1"/>
	<g>
		<path class="st42" d="M316.4,196.8c1.1,0,2,0.3,2.7,1s1,1.6,1,2.7v1.2c0,1.1-0.3,2-1,2.7s-1.6,1-2.7,1h-3.6v-0.7l1-0.2v-6.7
			l-1-0.2v-0.7h1H316.4z M315,197.7v6.7h1.5c0.8,0,1.4-0.3,1.9-0.8s0.7-1.2,0.7-2v-1.2c0-0.8-0.2-1.5-0.7-2s-1.1-0.8-1.9-0.8H315z"
			/>
		<path class="st42" d="M324.2,205.5c-0.9,0-1.6-0.3-2.1-0.9s-0.8-1.4-0.8-2.3v-0.3c0-0.9,0.3-1.7,0.8-2.3s1.2-0.9,1.9-0.9
			c0.9,0,1.5,0.3,1.9,0.8s0.7,1.2,0.7,2.1v0.7h-4.1l0,0c0,0.6,0.2,1.1,0.5,1.5s0.7,0.6,1.2,0.6c0.4,0,0.7-0.1,1-0.2s0.5-0.3,0.8-0.5
			l0.5,0.8c-0.2,0.2-0.5,0.4-0.9,0.6S324.7,205.5,324.2,205.5z M324,199.8c-0.4,0-0.7,0.2-1,0.5s-0.4,0.7-0.5,1.2l0,0h2.9v-0.2
			c0-0.5-0.1-0.8-0.4-1.1S324.5,199.8,324,199.8z"/>
		<path class="st42" d="M327.6,207.1l1-0.2v-7l-1-0.2V199h1.9l0.1,0.8c0.2-0.3,0.5-0.5,0.8-0.7s0.7-0.2,1.1-0.2
			c0.8,0,1.4,0.3,1.8,0.9s0.7,1.4,0.7,2.5v0.1c0,0.9-0.2,1.7-0.7,2.2s-1,0.8-1.8,0.8c-0.4,0-0.7-0.1-1-0.2s-0.5-0.3-0.8-0.6v2.2
			l1,0.2v0.7h-3.1V207.1z M332.8,202.3c0-0.7-0.1-1.3-0.4-1.8s-0.7-0.7-1.3-0.7c-0.3,0-0.6,0.1-0.8,0.2s-0.4,0.4-0.6,0.6v3.1
			c0.1,0.3,0.3,0.5,0.6,0.6s0.5,0.2,0.9,0.2c0.5,0,1-0.2,1.2-0.6s0.4-0.9,0.4-1.6V202.3z"/>
		<path class="st42" d="M334.8,197v-0.7h2.1v8.2l1,0.2v0.7h-3.1v-0.7l1-0.2v-7.3L334.8,197z"/>
		<path class="st42" d="M338.6,202.1c0-0.9,0.3-1.7,0.8-2.3s1.2-0.9,2.1-0.9c0.9,0,1.6,0.3,2.1,0.9s0.8,1.4,0.8,2.3v0.1
			c0,0.9-0.3,1.7-0.8,2.3s-1.2,0.9-2.1,0.9c-0.9,0-1.6-0.3-2.1-0.9s-0.8-1.4-0.8-2.3V202.1z M339.8,202.3c0,0.7,0.1,1.2,0.4,1.7
			s0.7,0.7,1.3,0.7c0.5,0,1-0.2,1.2-0.7s0.4-1,0.4-1.7v-0.1c0-0.7-0.1-1.2-0.4-1.7s-0.7-0.7-1.3-0.7s-1,0.2-1.3,0.7s-0.4,1-0.4,1.7
			V202.3z"/>
		<path class="st42" d="M351.3,199.8l-0.6,0.1l-2.4,6.5c-0.2,0.4-0.4,0.8-0.7,1.1s-0.7,0.5-1.2,0.5c-0.1,0-0.2,0-0.4,0
			s-0.3,0-0.3-0.1l0.1-0.9c0,0,0,0,0.2,0s0.3,0,0.3,0c0.2,0,0.4-0.1,0.6-0.3s0.3-0.5,0.4-0.7l0.3-0.7l-2.1-5.4l-0.6-0.1V199h2.6v0.7
			l-0.7,0.1l1.1,3.1l0.2,0.8h0l1.3-3.9l-0.7-0.1V199h2.6V199.8z"/>
		<path class="st42" d="M351.8,204.6l1-0.2v-4.5l-1-0.2V199h2l0.1,0.8c0.2-0.3,0.5-0.5,0.8-0.7s0.7-0.2,1.1-0.2s0.8,0.1,1.1,0.3
			s0.5,0.5,0.7,0.9c0.2-0.4,0.5-0.6,0.8-0.9s0.7-0.3,1.1-0.3c0.6,0,1.2,0.2,1.5,0.7s0.6,1.1,0.6,2v2.9l1,0.2v0.7h-3.1v-0.7l1-0.2
			v-2.9c0-0.6-0.1-1.1-0.3-1.3s-0.5-0.4-1-0.4c-0.4,0-0.7,0.1-1,0.4s-0.4,0.6-0.4,1.1v3.1l1,0.2v0.7h-3.1v-0.7l1-0.2v-2.9
			c0-0.6-0.1-1-0.3-1.3s-0.5-0.4-1-0.4c-0.4,0-0.6,0.1-0.9,0.2s-0.4,0.3-0.5,0.6v3.8l1,0.2v0.7h-3.1V204.6z"/>
		<path class="st42" d="M366.2,205.5c-0.9,0-1.6-0.3-2.1-0.9s-0.8-1.4-0.8-2.3v-0.3c0-0.9,0.3-1.7,0.8-2.3s1.2-0.9,1.9-0.9
			c0.9,0,1.5,0.3,1.9,0.8s0.7,1.2,0.7,2.1v0.7h-4.1l0,0c0,0.6,0.2,1.1,0.5,1.5s0.7,0.6,1.2,0.6c0.4,0,0.7-0.1,1-0.2s0.5-0.3,0.8-0.5
			l0.5,0.8c-0.2,0.2-0.5,0.4-0.9,0.6S366.7,205.5,366.2,205.5z M366,199.8c-0.4,0-0.7,0.2-1,0.5s-0.4,0.7-0.5,1.2l0,0h2.9v-0.2
			c0-0.5-0.1-0.8-0.4-1.1S366.5,199.8,366,199.8z"/>
		<path class="st42" d="M369.6,204.6l1-0.2v-4.5l-1-0.2V199h2l0.1,0.9c0.2-0.3,0.5-0.6,0.8-0.8s0.7-0.3,1.1-0.3
			c0.7,0,1.2,0.2,1.6,0.6s0.6,1,0.6,1.9v3.1l1,0.2v0.7h-3.1v-0.7l1-0.2v-3.1c0-0.6-0.1-1-0.3-1.2s-0.6-0.4-1-0.4
			c-0.3,0-0.6,0.1-0.9,0.2s-0.5,0.4-0.6,0.7v3.7l1,0.2v0.7h-3.1V204.6z"/>
		<path class="st42" d="M379.5,197.5v1.5h1.2v0.9h-1.2v3.8c0,0.3,0.1,0.5,0.2,0.6s0.3,0.2,0.5,0.2c0.1,0,0.2,0,0.3,0s0.2,0,0.3-0.1
			l0.2,0.8c-0.1,0.1-0.3,0.1-0.5,0.2s-0.4,0.1-0.6,0.1c-0.5,0-0.8-0.1-1.1-0.4s-0.4-0.7-0.4-1.3v-3.8h-1V199h1v-1.5H379.5z"/>
	</g>
	<line class="st62" x1="310.4" y1="203" x2="249.9" y2="203"/>
</g>
<g id="Layer_14">
</g>
</svg>
