<?xml version="1.0"?>
<svg width="394" height="440.3999999999999" xmlns="http://www.w3.org/2000/svg" xmlns:svg="http://www.w3.org/2000/svg" xmlns:xlink="http://www.w3.org/1999/xlink">
 <style type="text/css">.st0{fill:#FFFFFF;stroke:#326DE6;stroke-width:2;stroke-linecap:round;stroke-linejoin:round;stroke-miterlimit:10;}
	.st1{opacity:0.71;fill:#326CE6;}
	.st2{opacity:0.45;fill:#FFFFFF;}
	.st3{fill:#FFFFFF;stroke:#006DE9;stroke-width:2;stroke-linecap:round;stroke-linejoin:round;stroke-miterlimit:10;}
	.st4{fill:#006DE9;}
	.st5{fill:#A0CAEA;}
	.st6{fill:#FFFFFF;}
	.st7{opacity:0.13;}
	.st8{fill:url(#SVGID_1_);}
	.st9{fill:url(#SVGID_2_);}
	.st10{fill:#FFFFFF;stroke:#006DE9;stroke-linecap:round;stroke-linejoin:round;stroke-miterlimit:10;}
	.st11{fill:#FFFFFF;stroke:#006DE9;stroke-width:6;stroke-linecap:round;stroke-linejoin:round;stroke-miterlimit:10;}
	.st12{fill:#FFFFFF;stroke:#326DE6;stroke-width:3.2;stroke-linecap:round;stroke-linejoin:round;stroke-miterlimit:10;}
	.st13{fill:#326DE6;}
	.st14{fill:none;stroke:#326DE6;stroke-width:2.4;stroke-miterlimit:10;}
	.st15{fill:#A0CAE9;}
	.st16{fill:#FFFFFF;stroke:#326DE6;stroke-width:1.6;stroke-linecap:round;stroke-linejoin:round;stroke-miterlimit:10;}
	.st17{fill:#FFFFFF;stroke:#326DE6;stroke-width:1.6;stroke-miterlimit:10;}
	.st18{fill:none;stroke:#06F7C9;stroke-width:2;stroke-miterlimit:10;}
	.st19{fill:none;stroke:#06F7C9;stroke-width:2;stroke-miterlimit:10;stroke-dasharray:2.3749,1.5832;}
	.st20{fill:none;stroke:#06F7C9;stroke-width:2;stroke-miterlimit:10;stroke-dasharray:2.4006,1.6004;}
	.st21{fill:none;stroke:#EEF406;stroke-width:2;stroke-miterlimit:10;stroke-dasharray:2.4,1.6;}
	.st22{fill:none;stroke:#EEF406;stroke-width:2;stroke-miterlimit:10;}
	.st23{fill:none;stroke:#EEF406;stroke-width:2;stroke-miterlimit:10;stroke-dasharray:2.3975,1.5984;}
	.st24{fill:none;stroke:#EEF406;stroke-width:2;stroke-miterlimit:10;stroke-dasharray:2.395,1.5966;}
	.st25{fill:none;stroke:#EEF406;stroke-width:2;stroke-miterlimit:10;stroke-dasharray:2.3963,1.5976;}
	.st26{opacity:0.1;fill:#EEF406;}
	.st27{opacity:2.000000e-02;fill:#EEF406;}
	.st28{opacity:0.1;fill:#06F7C9;}
	.st29{fill:none;stroke:#006DE9;stroke-width:0.8;stroke-miterlimit:10;}
	.st30{opacity:0.1;fill:url(#SVGID_3_);}
	.st31{opacity:0.1;fill:url(#SVGID_4_);}
	.st32{opacity:0.1;fill:url(#SVGID_5_);}
	.st33{opacity:0.1;fill:url(#SVGID_6_);}
	.st34{fill:none;stroke:#326DE6;stroke-width:1.2;stroke-miterlimit:10;}
	.st35{opacity:0.1;fill:url(#SVGID_7_);}
	.st36{opacity:0.1;fill:url(#SVGID_8_);}
	.st37{opacity:0.1;fill:url(#SVGID_9_);}
	.st38{opacity:0.1;fill:url(#SVGID_10_);}
	.st39{fill:none;stroke:#326DE6;stroke-width:2;stroke-miterlimit:10;}
	.st40{opacity:0.4;fill:none;stroke:#EEF406;stroke-width:2;stroke-miterlimit:10;}
	.st41{fill:none;stroke:#EEF406;stroke-width:2.4596;stroke-miterlimit:10;}
	.st42{fill:#011F38;}
	.st43{opacity:0.4;}
	.st44{opacity:0.1;}
	.st45{fill:#326DE6;stroke:#EEF406;stroke-width:2;stroke-miterlimit:10;}
	.st46{fill:none;stroke:#FFFFFF;stroke-width:1.2;stroke-linecap:round;stroke-linejoin:round;}
	.st47{fill:#06F7C9;stroke:#FFFFFF;stroke-width:0.3;stroke-linecap:round;stroke-linejoin:round;stroke-miterlimit:10;}
	.st48{fill:none;stroke:#011F38;stroke-width:1.2;stroke-linecap:round;stroke-linejoin:round;}
	.st49{fill:#326DE6;stroke:#06F7C9;stroke-width:2;stroke-miterlimit:10;}
	.st50{fill:#06F7C9;stroke:#011F38;stroke-width:0.8;stroke-linecap:round;stroke-linejoin:round;stroke-miterlimit:10;}
	.st51{fill:#8115FF;stroke:#011F38;stroke-width:0.8;stroke-linecap:round;stroke-linejoin:round;stroke-miterlimit:10;}
	.st52{opacity:0.3;}
	.st53{opacity:0.2;fill:#6D6E71;}
	.st54{fill:#EEF406;}
	.st55{fill:#06F7C9;}
	.st56{fill:#FFFFFF;stroke:#06F7C9;stroke-width:2;stroke-miterlimit:10;stroke-dasharray:2.4,1.6;}
	.st57{fill:#FFFFFF;stroke:#EEF406;stroke-width:1.6;stroke-miterlimit:10;stroke-dasharray:2.4,1.6;}
	.st58{fill:none;stroke:#06F7C9;stroke-width:2;stroke-miterlimit:10;stroke-dasharray:2.4938,1.6626;}
	.st59{fill:none;stroke:#06F7C9;stroke-width:2;stroke-miterlimit:10;stroke-dasharray:2.0084,1.3389;}
	.st60{fill:none;stroke:#06F7C9;stroke-width:2;stroke-miterlimit:10;stroke-dasharray:2.724,1.816;}
	.st61{fill:#011F38;stroke:#414042;stroke-width:0.3;stroke-linecap:round;stroke-linejoin:round;stroke-miterlimit:10;}
	.st62{fill:none;stroke:#011F38;stroke-width:0.3;stroke-linecap:round;stroke-linejoin:round;stroke-miterlimit:10;}
	.st63{fill:none;stroke:#011F38;stroke-width:0.2813;stroke-linecap:round;stroke-linejoin:round;stroke-miterlimit:10;}</style>
 <symbol id="node_high_level" viewBox="-81 -93 162 186.1">
  <polygon class="st0" points="-80,-46 -80,46 0,92 80,46 80,-46 0,-92  " id="svg_1"/>
  <g id="Isolation_Mode_3_"/>
 </symbol>
 <symbol id="node_x5F_empty" viewBox="-87.5 -100.6 175.1 201.1">
  <use xlink:href="#node_high_level" width="162" height="186.1" id="XMLID_201_" x="-81" y="-93" transform="matrix(1.0808,0,0,1.0808,-0.00003292006,-0.00003749943) "/>
  <g id="svg_2">
   <polygon class="st1" points="76.8,-28.1 -14,-80.3 0,-88.3 76.7,-44.4   " id="svg_3"/>
   <polygon class="st2" points="76.8,-28.1 32.1,-53.8 38.8,-66.1 76.7,-44.4   " id="svg_4"/>
  </g>
 </symbol>
 <symbol id="node_x5F_new" viewBox="-87.6 -101 175.2 202">
  <polygon class="st3" points="0,-100 -86.6,-50 -86.6,50 0,100 86.6,50 86.6,-50  " id="svg_5"/>
  <polygon class="st4" points="-86.6,-20.2 -86.6,-50 0,-100 25.8,-85.1  " id="svg_6"/>
  <polygon class="st5" points="-40.8,-70.7 -32.9,-57 15.7,-85.1 0,-94.3  " id="svg_7"/>
  <text transform="matrix(0.866,-0.5,-0.5,-0.866,-33.9256,-70.7388) " class="st6" font-size="11.3632px" font-family="&#x27;RobotoSlab-Regular'" id="svg_8">Docker</text>
  <text transform="matrix(0.866,-0.5,-0.5,-0.866,-76.0668,-46.4087) " class="st6" font-size="11.3632px" font-family="&#x27;RobotoSlab-Regular'" id="svg_9">Kubelt</text>
 </symbol>
 <g>
  <title>Layer 1</title>
  <g id="CLUSTER"/>
  <g id="master">
   <g id="master_x5F_level1"/>
   <polygon class="st12" points="130.9,265.9 106.7,235.6 115.3,197.8 150.2,181 185.1,197.8 193.8,235.6 169.6,265.9  " id="svg_10"/>
  </g>
  <g id="Node">
   <g id="Node_x5F_level3_x5F_1">
    <g id="Isolation_Mode"/>
   </g>
   <g id="svg_11">
    <polygon class="st17" points="214.87819382548332,179.8000030517578 156.7781877219677,146.1999969482422 156.7781877219677,79.0999984741211 214.87819382548332,45.599998474121094 272.9781083762646,79.0999984741211 272.9781083762646,146.1999969482422 " id="svg_12"/>
   </g>
   <g id="svg_13">
    <polygon class="st17" points="87.67815110087395,179.6999969482422 29.67817398905754,146.10000610351562 29.67817398905754,79.0999984741211 87.67815110087395,45.5 145.7781877219677,79.0999984741211 145.7781877219677,146.10000610351562 " id="svg_14"/>
   </g>
   <g id="svg_15">
    <polygon class="st17" points="87.67815110087395,401.3999938964844 29.67817398905754,367.8999938964844 29.67817398905754,300.79998779296875 87.67815110087395,267.20001220703125 145.7781877219677,300.79998779296875 145.7781877219677,367.8999938964844 " id="svg_16"/>
   </g>
  </g>
  <g id="service">
   <g id="svg_17">
    <g id="svg_18">
     <path class="st18" d="m86.47817,154.7c0.4,0 0.8,0 1.2,0l0,0l1.2,0" id="svg_19"/>
     <line class="st19" x1="90.47817" y1="154.7" x2="236.17817" y2="154.7" id="svg_20"/>
     <path class="st18" d="m236.97817,154.7l1.2,0l0,0c0.4,0 0.8,0 1.2,0" id="svg_21"/>
     <path class="st20" d="m240.97817,154.7c24.1,-1.5 43.3,-21.5 43.3,-46c0,-25.4 -20.7,-46.1 -46.1,-46.1l-150.5,0c-25.4,0 -46.1,20.7 -46.1,46.1c0,24.8 19.6,45 44.1,46.1" id="svg_22"/>
    </g>
   </g>
   <path class="st21" d="m87.07817,384.5c-25.4,0 -46.1,-20.7 -46.1,-46.1c0,-25.4 20.7,-46.1 46.1,-46.1s46.1,20.7 46.1,46.1c0,25.4 -20.7,46.1 -46.1,46.1z" id="svg_23"/>
  </g>
  <g id="pods">
   <circle class="st26" cx="87.07817" cy="338.3" r="34.1" id="svg_24"/>
   <circle class="st22" cx="87.07817" cy="338.3" r="34.1" id="svg_25"/>
   <circle class="st28" cx="191.67817" cy="108.6" r="20.5" id="svg_26"/>
   <circle class="st28" cx="238.17817" cy="108.6" r="20.5" id="svg_27"/>
   <circle class="st28" cx="87.67817" cy="108.6" r="34.1" id="svg_28"/>
   <circle class="st18" cx="191.67817" cy="108.6" r="20.5" id="svg_29"/>
   <circle class="st18" cx="238.17817" cy="108.6" r="20.5" id="svg_30"/>
   <circle class="st18" cx="87.67817" cy="108.6" r="34.1" id="svg_31"/>
  </g>
  <g id="IP">
   <g id="svg_32">
    <path class="st42" d="m39.27817,313.2l-0.4,0.9l-0.9,-0.2c-0.1,0.1 -0.3,0.2 -0.4,0.4c-0.1,0.2 -0.3,0.4 -0.4,0.6c-0.2,0.3 -0.2,0.6 -0.2,0.9s0.2,0.4 0.4,0.5c0.2,0.1 0.4,0.1 0.7,0c0.2,-0.1 0.5,-0.4 0.9,-0.8c0.5,-0.6 1,-1 1.5,-1.2s1,-0.2 1.5,0c0.5,0.2 0.8,0.7 1,1.2c0.1,0.6 0,1.2 -0.3,1.9c-0.2,0.5 -0.5,0.9 -0.9,1.2s-0.7,0.5 -1.1,0.7l-1.3,-0.6l0.5,-1l0.9,0.3c0.2,-0.1 0.3,-0.2 0.5,-0.4c0.2,-0.2 0.3,-0.4 0.4,-0.7c0.2,-0.3 0.2,-0.6 0.2,-0.9c-0.1,-0.2 -0.2,-0.4 -0.4,-0.5c-0.2,-0.1 -0.5,-0.1 -0.7,0c-0.2,0.1 -0.5,0.3 -0.8,0.7c-0.6,0.6 -1.1,1.1 -1.5,1.3c-0.5,0.2 -1,0.2 -1.5,0c-0.5,-0.2 -0.8,-0.6 -0.9,-1.2c-0.1,-0.6 0,-1.2 0.3,-1.8c0.2,-0.5 0.5,-0.9 0.8,-1.2c0.3,-0.3 0.7,-0.6 1,-0.7l1.1,0.6z" id="svg_33"/>
    <path class="st42" d="m45.07817,312.7c-0.4,0.6 -0.9,1 -1.5,1.1c-0.6,0.1 -1.2,0 -1.9,-0.4l-0.2,-0.1c-0.6,-0.4 -1.1,-0.9 -1.3,-1.5c-0.2,-0.6 -0.1,-1.2 0.2,-1.8c0.4,-0.6 0.8,-0.9 1.4,-1c0.5,-0.1 1.1,0 1.7,0.4l0.6,0.4l-1.6,2.6l0,0c0.3,0.2 0.6,0.2 0.9,0.1c0.3,-0.1 0.5,-0.2 0.7,-0.5c0.2,-0.3 0.3,-0.5 0.3,-0.7s0.1,-0.4 0.1,-0.7l0.9,0.1c0,0.3 0,0.6 -0.1,0.9c0.2,0.4 0,0.7 -0.2,1.1zm-3.7,-2.1c-0.1,0.2 -0.2,0.4 -0.1,0.7s0.3,0.4 0.5,0.6l0,0l0.9,-1.4l-0.1,-0.1c-0.2,-0.2 -0.5,-0.2 -0.7,-0.2s-0.3,0.2 -0.5,0.4z" id="svg_34"/>
    <path class="st42" d="m45.77817,309.9l0.3,-0.6l-2.5,-1.9l-0.5,0.5l-0.7,-0.5l1.2,-1.6l0.6,0.4c-0.1,-0.3 -0.2,-0.5 -0.2,-0.7s0.1,-0.5 0.2,-0.7c0,-0.1 0.1,-0.1 0.1,-0.2c0.1,-0.1 0.1,-0.1 0.2,-0.1l0.9,0.9l-0.3,0.4c-0.1,0.2 -0.2,0.3 -0.2,0.5c0,0.2 0,0.3 0.1,0.4l2,1.5l0.5,-0.4l0.7,0.5l-1.6,2.2l-0.8,-0.6z" id="svg_35"/>
    <path class="st42" d="m46.97817,302.8l-0.3,0.4l2.1,1l0.4,0.3l0,0l-0.3,-0.4l-1.2,-2l-0.4,0.3l-0.6,-0.6l1.5,-1.7l0.6,0.6l-0.2,0.4l2.1,3.9l-0.9,1l-4.1,-1.7l-0.3,0.3l-0.6,-0.6l1.5,-1.7l0.7,0.5z" id="svg_36"/>
    <path class="st42" d="m49.47817,297.4l-1,0.9l-0.7,-0.7l1,-0.9l0.7,0.7zm2.2,5.4l0.4,-0.6l-2.2,-2.3l-0.6,0.4l-0.6,-0.6l1.5,-1.4l2.8,3l0.6,-0.3l0.6,0.6l-2,1.8l-0.5,-0.6z" id="svg_37"/>
    <path class="st42" d="m55.77817,299c0.2,-0.2 0.3,-0.3 0.3,-0.5c0,-0.2 0,-0.4 -0.2,-0.6l1,-0.8l0,0c0.3,0.4 0.5,0.8 0.4,1.4c-0.1,0.5 -0.4,1 -0.8,1.3c-0.6,0.5 -1.2,0.7 -1.8,0.5c-0.6,-0.1 -1.2,-0.5 -1.6,-1.1l-0.1,-0.1c-0.5,-0.6 -0.7,-1.2 -0.7,-1.8c0,-0.6 0.3,-1.2 0.9,-1.7c0.3,-0.3 0.6,-0.4 1,-0.5c0.3,-0.1 0.6,-0.1 1,-0.1l0.9,1l-0.9,0.7l-0.7,-0.5c-0.1,0 -0.2,0 -0.3,0s-0.2,0.1 -0.3,0.2c-0.3,0.2 -0.4,0.5 -0.4,0.8c0.1,0.3 0.2,0.7 0.5,1l0.1,0.1c0.3,0.4 0.6,0.6 0.9,0.7c0.2,0.3 0.5,0.3 0.8,0z" id="svg_38"/>
    <path class="st42" d="m60.37817,297c-0.6,0.4 -1.2,0.5 -1.9,0.4c-0.6,-0.2 -1.1,-0.5 -1.5,-1.1l-0.1,-0.2c-0.4,-0.6 -0.6,-1.3 -0.5,-1.9s0.4,-1.1 1,-1.5c0.6,-0.4 1.1,-0.5 1.7,-0.4c0.5,0.1 1,0.5 1.4,1.1l0.4,0.6l-2.5,1.7l0,0c0.2,0.3 0.4,0.4 0.7,0.5c0.3,0.1 0.6,0 0.9,-0.2c0.3,-0.2 0.4,-0.3 0.6,-0.5c0.1,-0.2 0.3,-0.4 0.4,-0.6l0.8,0.5c-0.1,0.3 -0.2,0.5 -0.5,0.8c-0.3,0.3 -0.6,0.6 -0.9,0.8zm-2.4,-3.5c-0.2,0.1 -0.3,0.3 -0.3,0.6c0,0.2 0,0.5 0.2,0.8l0,0l1.4,-0.9l-0.1,-0.1c-0.2,-0.2 -0.3,-0.4 -0.6,-0.5c-0.2,-0.1 -0.4,0 -0.6,0.1z" id="svg_39"/>
    <path class="st42" d="m63.97817,293.7l0.4,-0.3l-0.5,-6.3l1.3,-0.6l4.3,4.6l0.5,-0.1l0.3,0.8l-2.1,0.9l-0.3,-0.8l0.4,-0.3l-0.7,-0.7l-2,0.9l0.1,1l0.5,-0.1l0.3,0.8l-2.1,0.9l-0.4,-0.7zm1.4,-2.8l1.4,-0.6l-1.7,-1.9l0,0l0.3,2.5z" id="svg_40"/>
    <path class="st42" d="m74.77817,289.7l1.1,-0.4l-1,-4.5l-1.1,0.2l-0.2,-0.8l2.4,-1l1.2,5.7l1.2,-0.1l0.2,0.8l-3.6,0.8l-0.2,-0.7z" id="svg_41"/>
    <path class="st42" d="m83.37817,286.4c0.1,0.9 0,1.6 -0.4,2.1c-0.4,0.5 -0.9,0.8 -1.6,0.9c-0.7,0.1 -1.3,-0.1 -1.8,-0.5c-0.5,-0.4 -0.8,-1.1 -0.9,-2l-0.2,-1.5c-0.1,-0.9 0,-1.6 0.4,-2.1s0.9,-0.8 1.6,-0.9c0.7,-0.1 1.3,0.1 1.8,0.5c0.5,0.4 0.8,1.1 0.9,2l0.2,1.5zm-1.5,-1.5c-0.1,-0.5 -0.2,-0.9 -0.4,-1.2c-0.2,-0.2 -0.4,-0.3 -0.7,-0.3c-0.3,0 -0.5,0.2 -0.7,0.5s-0.2,0.7 -0.1,1.2l0.2,1.8c0.1,0.5 0.2,0.9 0.4,1.2s0.4,0.3 0.7,0.3c0.3,0 0.5,-0.2 0.7,-0.5c0.1,-0.3 0.2,-0.7 0.1,-1.2l-0.2,-1.8z" id="svg_42"/>
    <path class="st42" d="m85.97817,289l-1.4,0.1l0,-1.2l1.4,-0.1l0,1.2z" id="svg_43"/>
    <path class="st42" d="m86.67817,288.1l1.2,-0.1l0.1,-4.6l-1.2,0l0,-0.8l2.5,-0.4l-0.2,5.9l1.1,0.2l0,0.8l-3.7,-0.1l0.2,-0.9z" id="svg_44"/>
    <path class="st42" d="m95.77817,287c-0.1,0.9 -0.4,1.6 -0.9,2c-0.5,0.4 -1.1,0.6 -1.8,0.5c-0.7,-0.1 -1.2,-0.4 -1.6,-0.9s-0.5,-1.2 -0.4,-2.1l0.2,-1.5c0.1,-0.9 0.4,-1.5 0.9,-2c0.5,-0.4 1.1,-0.6 1.8,-0.5c0.7,0.1 1.2,0.4 1.6,0.9c0.4,0.5 0.5,1.2 0.4,2.1l-0.2,1.5zm-1.1,-1.8c0.1,-0.5 0,-0.9 -0.1,-1.2c-0.1,-0.3 -0.3,-0.4 -0.7,-0.5c-0.3,0 -0.6,0.1 -0.7,0.3c-0.2,0.2 -0.3,0.6 -0.4,1.2l-0.2,1.8c-0.1,0.5 0,1 0.1,1.2c0.1,0.3 0.3,0.4 0.7,0.5c0.3,0 0.5,-0.1 0.7,-0.3c0.2,-0.2 0.3,-0.6 0.4,-1.2l0.2,-1.8z" id="svg_45"/>
    <path class="st42" d="m97.67817,290.1l-1.3,-0.3l0.2,-1.2l1.3,0.3l-0.2,1.2z" id="svg_46"/>
    <path class="st42" d="m100.57817,289.9c0.4,0.1 0.7,0 1,-0.2c0.3,-0.2 0.5,-0.6 0.7,-1.1l0,-0.1c-0.2,0.1 -0.4,0.2 -0.7,0.3c-0.2,0 -0.5,0 -0.7,0c-0.6,-0.2 -1,-0.5 -1.3,-1c-0.2,-0.5 -0.3,-1.1 0,-1.8c0.2,-0.7 0.6,-1.2 1.1,-1.5c0.5,-0.3 1.1,-0.4 1.8,-0.2c0.7,0.2 1.1,0.6 1.4,1.2c0.3,0.6 0.3,1.3 0.1,2.1l-0.4,1.4c-0.2,0.9 -0.7,1.4 -1.3,1.8c-0.6,0.3 -1.3,0.4 -2,0.2c-0.2,-0.1 -0.5,-0.2 -0.7,-0.3c-0.2,-0.1 -0.4,-0.2 -0.6,-0.4l0.4,-0.9c0.2,0.1 0.4,0.2 0.5,0.3c0.2,0 0.4,0.1 0.7,0.2zm0.8,-2.1c0.2,0.1 0.4,0.1 0.6,0c0.2,0 0.3,-0.1 0.5,-0.2l0.2,-0.7c0.1,-0.5 0.2,-0.9 0.1,-1.2c-0.1,-0.3 -0.3,-0.5 -0.6,-0.6c-0.3,-0.1 -0.5,0 -0.8,0.2c-0.2,0.2 -0.4,0.5 -0.5,0.9c-0.1,0.4 -0.1,0.7 0,1c0,0.4 0.2,0.6 0.5,0.6z" id="svg_47"/>
    <path class="st42" d="m104.87817,292.3l-1.3,-0.5l0.4,-1.1l1.3,0.5l-0.4,1.1z" id="svg_48"/>
    <path class="st42" d="m105.87817,291.8l1.1,0.3l1.9,-4.2l-1.1,-0.5l0.3,-0.7l2.5,0.6l-2.4,5.4l1,0.6l-0.3,0.7l-3.3,-1.5l0.3,-0.7z" id="svg_49"/>
   </g>
   <g id="svg_50">
    <path class="st42" d="m116.07817,54.6l-1,0l-0.2,-0.9c-0.1,-0.1 -0.3,-0.1 -0.5,-0.2c-0.2,-0.1 -0.5,-0.1 -0.7,-0.1c-0.4,0 -0.7,0.1 -0.9,0.2c-0.2,0.2 -0.3,0.4 -0.3,0.6c0,0.2 0.1,0.4 0.3,0.6s0.6,0.3 1.1,0.5c0.8,0.2 1.3,0.5 1.7,0.8c0.4,0.3 0.6,0.8 0.6,1.4c0,0.6 -0.2,1 -0.7,1.4s-1.1,0.5 -1.8,0.5c-0.5,0 -1,-0.1 -1.5,-0.3s-0.8,-0.4 -1.1,-0.7l0,-1.4l1.1,0l0.1,1c0.1,0.1 0.3,0.2 0.6,0.3c0.2,0.1 0.5,0.1 0.8,0.1c0.4,0 0.7,-0.1 0.9,-0.2c0.2,-0.2 0.3,-0.4 0.3,-0.6c0,-0.3 -0.1,-0.5 -0.3,-0.6c-0.2,-0.2 -0.5,-0.3 -1,-0.5c-0.8,-0.2 -1.4,-0.5 -1.8,-0.8c-0.4,-0.3 -0.6,-0.8 -0.6,-1.3c0,-0.6 0.2,-1 0.7,-1.4s1.1,-0.5 1.8,-0.5c0.5,0 1,0.1 1.4,0.2s0.8,0.4 1.1,0.6l0,1.3l-0.1,0z" id="svg_51"/>
    <path class="st42" d="m119.17817,59.4c-0.7,0 -1.3,-0.2 -1.8,-0.7s-0.7,-1.1 -0.7,-1.8l0,-0.2c0,-0.8 0.2,-1.4 0.6,-1.9c0.4,-0.5 1,-0.7 1.7,-0.7c0.7,0 1.2,0.2 1.6,0.6s0.6,1 0.6,1.7l0,0.7l-3,0l0,0c0,0.3 0.1,0.6 0.3,0.8c0.2,0.2 0.5,0.3 0.8,0.3c0.3,0 0.6,0 0.8,-0.1c0.2,-0.1 0.4,-0.2 0.7,-0.3l0.4,0.8c-0.2,0.2 -0.5,0.3 -0.8,0.4s-0.8,0.4 -1.2,0.4zm-0.1,-4.2c-0.3,0 -0.5,0.1 -0.6,0.3c-0.1,0.2 -0.2,0.4 -0.3,0.8l0,0l1.7,0l0,-0.1c0,-0.3 -0.1,-0.5 -0.2,-0.7c-0.1,-0.2 -0.3,-0.3 -0.6,-0.3z" id="svg_52"/>
    <path class="st42" d="m121.97817,58.5l0.7,-0.1l0,-3.1l-0.7,-0.1l0,-0.8l2,0l0.1,0.7c0.1,-0.3 0.3,-0.5 0.5,-0.6s0.4,-0.2 0.7,-0.2c0.1,0 0.1,0 0.2,0c0.1,0 0.1,0 0.2,0l-0.1,1.2l-0.6,0c-0.2,0 -0.4,0 -0.5,0.1c-0.1,0.1 -0.2,0.2 -0.3,0.3l0,2.5l0.7,0.1l0,0.8l-2.7,0l0,-0.8l-0.2,0z" id="svg_53"/>
    <path class="st42" d="m128.17817,55l-0.5,0.1l0.7,2.3l0.1,0.5l0,0l0.1,-0.5l0.7,-2.3l-0.5,-0.1l0,-0.8l2.3,0l0,0.8l-0.4,0.1l-1.5,4.2l-1.3,0l-1.5,-4.2l-0.4,-0.1l0,-0.8l2.3,0l0,0.8l-0.1,0z" id="svg_54"/>
    <path class="st42" d="m131.47817,58.5l0.7,-0.1l0,-3.1l-0.7,-0.1l0,-0.8l2.1,0l0,4.1l0.7,0.1l0,0.8l-2.7,0l0,-0.9l-0.1,0zm2,-5.5l-1.4,0l0,-1l1.4,0l0,1z" id="svg_55"/>
    <path class="st42" d="m136.97817,58.3c0.2,0 0.4,-0.1 0.6,-0.2c0.1,-0.1 0.2,-0.3 0.2,-0.6l1.2,0l0,0c0,0.5 -0.2,0.9 -0.6,1.3c-0.4,0.3 -0.9,0.5 -1.5,0.5c-0.8,0 -1.3,-0.2 -1.7,-0.7c-0.4,-0.5 -0.6,-1.1 -0.6,-1.8l0,-0.1c0,-0.7 0.2,-1.4 0.6,-1.8c0.4,-0.5 1,-0.7 1.8,-0.7c0.4,0 0.8,0.1 1.1,0.2c0.3,0.1 0.6,0.3 0.8,0.5l0,1.4l-1.1,0l-0.2,-0.8c-0.1,-0.1 -0.2,-0.1 -0.3,-0.1c-0.1,0 -0.2,-0.1 -0.3,-0.1c-0.4,0 -0.7,0.1 -0.8,0.4s-0.2,0.6 -0.2,1.1l0,0.1c0,0.5 0.1,0.8 0.2,1.1c0.2,0.2 0.4,0.3 0.8,0.3z" id="svg_56"/>
    <path class="st42" d="m142.07817,59.4c-0.7,0 -1.3,-0.2 -1.8,-0.7s-0.7,-1.1 -0.7,-1.8l0,-0.2c0,-0.8 0.2,-1.4 0.6,-1.9c0.4,-0.5 1,-0.7 1.7,-0.7c0.7,0 1.2,0.2 1.6,0.6s0.6,1 0.6,1.7l0,0.7l-3,0l0,0c0,0.3 0.1,0.6 0.3,0.8c0.2,0.2 0.5,0.3 0.8,0.3c0.3,0 0.6,0 0.8,-0.1c0.2,-0.1 0.4,-0.2 0.7,-0.3l0.4,0.8c-0.2,0.2 -0.5,0.3 -0.8,0.4s-0.8,0.4 -1.2,0.4zm-0.1,-4.2c-0.3,0 -0.5,0.1 -0.6,0.3c-0.1,0.2 -0.2,0.4 -0.3,0.8l0,0l1.7,0l0,-0.1c0,-0.3 -0.1,-0.5 -0.2,-0.7c-0.1,-0.2 -0.4,-0.3 -0.6,-0.3z" id="svg_57"/>
    <path class="st42" d="m150.07817,52.5c0.8,0 1.4,0.2 1.9,0.5s0.7,0.8 0.7,1.4c0,0.3 -0.1,0.6 -0.2,0.8c-0.2,0.2 -0.4,0.4 -0.7,0.6c0.4,0.1 0.7,0.3 0.9,0.6c0.2,0.3 0.3,0.6 0.3,1c0,0.7 -0.2,1.1 -0.6,1.5c-0.4,0.3 -1,0.5 -1.8,0.5l-3.5,0l0,-0.8l0.7,-0.1l0,-4.9l-0.7,-0.1l0,-0.8l0.7,0l2.3,0l0,-0.2zm-0.9,2.8l1,0c0.4,0 0.6,-0.1 0.8,-0.2c0.2,-0.2 0.3,-0.4 0.3,-0.7c0,-0.3 -0.1,-0.5 -0.3,-0.7s-0.5,-0.2 -0.9,-0.2l-0.9,0l0,1.8zm0,1l0,2l1.3,0c0.4,0 0.6,-0.1 0.8,-0.2s0.3,-0.4 0.3,-0.7c0,-0.3 -0.1,-0.6 -0.2,-0.8c-0.2,-0.2 -0.4,-0.3 -0.8,-0.3l-1.4,0z" id="svg_58"/>
    <path class="st42" d="m155.87817,58.5l1.2,-0.1l0,-4.6l-1.2,0l0,-0.8l2.5,-0.5l0,5.9l1.2,0.1l0,0.8l-3.7,0l0,-0.8z" id="svg_59"/>
    <path class="st42" d="m164.87817,56.6c0,0.9 -0.2,1.6 -0.6,2.1c-0.4,0.5 -1,0.7 -1.7,0.7c-0.7,0 -1.3,-0.2 -1.7,-0.7c-0.4,-0.5 -0.6,-1.2 -0.6,-2.1l0,-1.5c0,-0.9 0.2,-1.6 0.6,-2.1c0.4,-0.5 1,-0.7 1.7,-0.7c0.7,0 1.3,0.2 1.7,0.7c0.4,0.5 0.6,1.2 0.6,2.1l0,1.5zm-1.4,-1.6c0,-0.5 -0.1,-0.9 -0.2,-1.2c-0.2,-0.3 -0.4,-0.4 -0.7,-0.4c-0.3,0 -0.5,0.1 -0.7,0.4s-0.2,0.6 -0.2,1.2l0,1.8c0,0.5 0.1,0.9 0.2,1.2c0.2,0.2 0.4,0.4 0.7,0.4c0.3,0 0.5,-0.1 0.7,-0.4s0.2,-0.6 0.2,-1.2l0,-1.8z" id="svg_60"/>
    <path class="st42" d="m167.17817,59.3l-1.4,0l0,-1.2l1.4,0l0,1.2z" id="svg_61"/>
    <path class="st42" d="m167.97817,58.5l1.2,-0.1l0,-4.6l-1.2,0l0,-0.8l2.5,-0.5l0,5.9l1.2,0.1l0,0.8l-3.7,0l0,-0.8z" id="svg_62"/>
    <path class="st42" d="m176.97817,56.6c0,0.9 -0.2,1.6 -0.6,2.1c-0.4,0.5 -1,0.7 -1.7,0.7c-0.7,0 -1.3,-0.2 -1.7,-0.7c-0.4,-0.5 -0.6,-1.2 -0.6,-2.1l0,-1.5c0,-0.9 0.2,-1.6 0.6,-2.1c0.4,-0.5 1,-0.7 1.7,-0.7c0.7,0 1.3,0.2 1.7,0.7c0.4,0.5 0.6,1.2 0.6,2.1l0,1.5zm-1.3,-1.6c0,-0.5 -0.1,-0.9 -0.2,-1.2c-0.2,-0.3 -0.4,-0.4 -0.7,-0.4c-0.3,0 -0.5,0.1 -0.7,0.4s-0.2,0.6 -0.2,1.2l0,1.8c0,0.5 0.1,0.9 0.2,1.2c0.2,0.2 0.4,0.4 0.7,0.4c0.3,0 0.5,-0.1 0.7,-0.4s0.2,-0.6 0.2,-1.2l0,-1.8z" id="svg_63"/>
    <path class="st42" d="m179.37817,59.3l-1.3,0l0,-1.2l1.4,0l0,1.2l-0.1,0z" id="svg_64"/>
    <path class="st42" d="m182.27817,58.3c0.4,0 0.7,-0.1 0.9,-0.4s0.3,-0.7 0.3,-1.3l0,-0.1c-0.2,0.2 -0.3,0.3 -0.5,0.4s-0.4,0.2 -0.7,0.2c-0.6,0 -1.1,-0.2 -1.5,-0.6c-0.4,-0.4 -0.5,-1 -0.5,-1.7c0,-0.7 0.2,-1.3 0.6,-1.7s1,-0.7 1.6,-0.7c0.7,0 1.3,0.2 1.7,0.7c0.4,0.5 0.7,1.2 0.7,2l0,1.5c0,0.9 -0.2,1.6 -0.7,2.1c-0.5,0.5 -1.1,0.7 -1.9,0.7c-0.2,0 -0.5,0 -0.7,-0.1c-0.3,0 -0.5,-0.1 -0.7,-0.2l0.2,-1c0.2,0.1 0.4,0.1 0.6,0.2c0.1,0 0.3,0 0.6,0zm0.2,-2.1c0.2,0 0.4,0 0.6,-0.1c0.2,-0.1 0.3,-0.2 0.4,-0.3l0,-0.8c0,-0.5 -0.1,-0.9 -0.3,-1.1c-0.2,-0.3 -0.4,-0.4 -0.7,-0.4c-0.3,0 -0.5,0.1 -0.7,0.4c-0.2,0.3 -0.3,0.6 -0.3,1c0,0.4 0.1,0.7 0.2,1c0.3,0.1 0.5,0.3 0.8,0.3z" id="svg_65"/>
    <path class="st42" d="m187.17817,59.3l-1.4,0l0,-1.2l1.4,0l0,1.2z" id="svg_66"/>
    <path class="st42" d="m187.97817,59.3l0,-0.9l2.2,-2.4c0.3,-0.4 0.5,-0.7 0.7,-0.9c0.1,-0.3 0.2,-0.5 0.2,-0.7c0,-0.3 -0.1,-0.5 -0.2,-0.7c-0.2,-0.2 -0.4,-0.3 -0.7,-0.3c-0.3,0 -0.6,0.1 -0.7,0.3c-0.2,0.2 -0.2,0.5 -0.2,0.9l-1.3,0l0,0c0,-0.6 0.2,-1.1 0.6,-1.6c0.4,-0.4 1,-0.6 1.7,-0.6c0.7,0 1.3,0.2 1.7,0.5s0.6,0.9 0.6,1.5c0,0.4 -0.1,0.8 -0.3,1.1c-0.2,0.3 -0.6,0.8 -1.1,1.4l-1.2,1.3l0,0l1.8,0l0.1,-0.7l1,0l0,1.7l-4.9,0l0,0.1z" id="svg_67"/>
   </g>
   <g id="svg_68">
    <path class="st42" d="m172.67817,95.3l0.5,-0.8l-3.4,-2.6l-0.5,0.9l-0.2,-0.2l0.6,-1.3l3.8,2.9l0.6,-0.7l0.2,0.2l-1.4,1.8l-0.2,-0.2z" id="svg_69"/>
    <path class="st42" d="m175.57817,89.6c0.5,0.5 0.7,0.9 0.8,1.4c0,0.5 -0.1,0.8 -0.5,1.2c-0.4,0.3 -0.8,0.5 -1.2,0.4s-0.9,-0.3 -1.4,-0.8l-0.8,-0.8c-0.5,-0.5 -0.7,-0.9 -0.8,-1.4c0,-0.5 0.1,-0.9 0.5,-1.2c0.4,-0.3 0.8,-0.5 1.2,-0.4s0.9,0.3 1.4,0.8l0.8,0.8zm-1.2,-0.6c-0.4,-0.4 -0.7,-0.6 -1.1,-0.7c-0.3,-0.1 -0.6,0 -0.9,0.3c-0.3,0.3 -0.4,0.6 -0.3,0.9s0.3,0.7 0.6,1.1l0.9,0.9c0.4,0.4 0.7,0.6 1.1,0.7c0.3,0.1 0.7,0 0.9,-0.3c0.3,-0.3 0.4,-0.6 0.3,-0.9c-0.1,-0.3 -0.3,-0.7 -0.6,-1.1l-0.9,-0.9z" id="svg_70"/>
    <path class="st42" d="m177.97817,90.3l-0.4,0.3l-0.3,-0.5l0.4,-0.3l0.3,0.5z" id="svg_71"/>
    <path class="st42" d="m178.57817,89.4l0.8,-0.5l-2.3,-3.7l-0.8,0.7l-0.2,-0.3l1.1,-1l2.5,4.1l0.8,-0.4l0.2,0.3l-1.9,1.2l-0.2,-0.4z" id="svg_72"/>
    <path class="st42" d="m183.17817,85.2c0.3,0.6 0.3,1.1 0.2,1.6s-0.4,0.8 -0.9,1c-0.5,0.2 -0.9,0.2 -1.3,0s-0.7,-0.6 -1,-1.2l-0.5,-1c-0.3,-0.6 -0.3,-1.1 -0.2,-1.6c0.1,-0.4 0.4,-0.8 0.9,-1c0.5,-0.2 0.9,-0.2 1.3,0c0.4,0.2 0.7,0.6 1,1.2l0.5,1zm-0.8,-1c-0.2,-0.5 -0.5,-0.8 -0.8,-1c-0.3,-0.2 -0.6,-0.2 -1,0c-0.3,0.2 -0.6,0.4 -0.6,0.7c-0.1,0.3 0,0.7 0.2,1.2l0.5,1.2c0.2,0.5 0.5,0.8 0.8,1c0.3,0.2 0.6,0.2 1,0c0.3,-0.2 0.6,-0.4 0.6,-0.7c0.1,-0.3 0,-0.8 -0.2,-1.2l-0.5,-1.2z" id="svg_73"/>
    <path class="st42" d="m185.27817,86.6l-0.5,0.1l-0.2,-0.6l0.5,-0.1l0.2,0.6z" id="svg_74"/>
    <path class="st42" d="m186.07817,86.1l0.9,-0.2l-0.8,-4.2l-1,0.3l-0.1,-0.3l1.3,-0.6l0.9,4.7l0.9,-0.1l0.1,0.3l-2.2,0.4l0,-0.3z" id="svg_75"/>
    <path class="st42" d="m191.97817,83.7c0,0.7 -0.1,1.2 -0.3,1.5c-0.3,0.4 -0.6,0.6 -1.1,0.6c-0.5,0 -0.9,-0.1 -1.2,-0.5c-0.3,-0.3 -0.5,-0.8 -0.5,-1.5l-0.1,-1.1c0,-0.7 0.1,-1.2 0.3,-1.5c0.3,-0.4 0.6,-0.6 1.1,-0.6c0.5,0 0.9,0.1 1.2,0.5s0.5,0.8 0.5,1.5l0.1,1.1zm-0.5,-1.2c0,-0.5 -0.1,-0.9 -0.4,-1.2c-0.2,-0.3 -0.5,-0.4 -0.9,-0.4c-0.4,0 -0.7,0.2 -0.8,0.5c-0.2,0.3 -0.3,0.7 -0.2,1.2l0.1,1.3c0,0.5 0.1,0.9 0.4,1.2s0.5,0.4 0.9,0.4c0.4,0 0.7,-0.2 0.8,-0.5c0.2,-0.3 0.3,-0.7 0.2,-1.2l-0.1,-1.3z" id="svg_76"/>
    <path class="st42" d="m193.37817,85.8l-0.5,0l0,-0.6l0.5,0l0,0.6z" id="svg_77"/>
    <path class="st42" d="m197.17817,84.7l0.8,0.1l-0.1,0.3l-0.8,-0.1l-0.2,0.9l0.6,0.2l-0.1,0.3l-1.5,-0.3l0.1,-0.3l0.6,0.1l0.2,-0.9l-2.4,-0.4l0,-0.2l3,-3.1l0.5,0.1l-0.7,3.3zm-2.2,-0.4l1.9,0.4l0.5,-2.9l0,0l-0.2,0.3l-2.2,2.2z" id="svg_78"/>
   </g>
   <g id="svg_79">
    <path class="st42" d="m219.17817,95.3l0.5,-0.8l-3.4,-2.6l-0.5,0.9l-0.2,-0.2l0.6,-1.3l3.8,2.9l0.6,-0.7l0.2,0.2l-1.4,1.8l-0.2,-0.2z" id="svg_80"/>
    <path class="st42" d="m222.07817,89.6c0.5,0.5 0.7,0.9 0.8,1.4c0,0.5 -0.1,0.8 -0.5,1.2c-0.4,0.3 -0.8,0.5 -1.2,0.4s-0.9,-0.3 -1.4,-0.8l-0.8,-0.8c-0.5,-0.5 -0.7,-0.9 -0.8,-1.4c0,-0.5 0.1,-0.9 0.5,-1.2c0.4,-0.3 0.8,-0.5 1.2,-0.4s0.9,0.3 1.4,0.8l0.8,0.8zm-1.2,-0.6c-0.4,-0.4 -0.7,-0.6 -1.1,-0.7c-0.3,-0.1 -0.6,0 -0.9,0.3c-0.3,0.3 -0.4,0.6 -0.3,0.9s0.3,0.7 0.6,1.1l0.9,0.9c0.4,0.4 0.7,0.6 1.1,0.7c0.3,0.1 0.7,0 0.9,-0.3c0.3,-0.3 0.4,-0.6 0.3,-0.9c-0.1,-0.3 -0.3,-0.7 -0.6,-1.1l-0.9,-0.9z" id="svg_81"/>
    <path class="st42" d="m224.47817,90.3l-0.4,0.3l-0.3,-0.5l0.4,-0.3l0.3,0.5z" id="svg_82"/>
    <path class="st42" d="m225.07817,89.4l0.8,-0.5l-2.3,-3.7l-0.8,0.7l-0.2,-0.3l1.1,-1l2.5,4.1l0.8,-0.4l0.2,0.3l-1.9,1.2l-0.2,-0.4z" id="svg_83"/>
    <path class="st42" d="m229.67817,85.2c0.3,0.6 0.3,1.1 0.2,1.6s-0.4,0.8 -0.9,1c-0.5,0.2 -0.9,0.2 -1.3,0s-0.7,-0.6 -1,-1.2l-0.5,-1c-0.3,-0.6 -0.3,-1.1 -0.2,-1.6c0.1,-0.4 0.4,-0.8 0.9,-1c0.5,-0.2 0.9,-0.2 1.3,0c0.4,0.2 0.7,0.6 1,1.2l0.5,1zm-0.8,-1c-0.2,-0.5 -0.5,-0.8 -0.8,-1c-0.3,-0.2 -0.6,-0.2 -1,0c-0.3,0.2 -0.6,0.4 -0.6,0.7c-0.1,0.3 0,0.7 0.2,1.2l0.5,1.2c0.2,0.5 0.5,0.8 0.8,1c0.3,0.2 0.6,0.2 1,0c0.3,-0.2 0.6,-0.4 0.6,-0.7c0.1,-0.3 0,-0.8 -0.2,-1.2l-0.5,-1.2z" id="svg_84"/>
    <path class="st42" d="m231.77817,86.6l-0.5,0.1l-0.2,-0.6l0.5,-0.1l0.2,0.6z" id="svg_85"/>
    <path class="st42" d="m232.67817,86.1l0.9,-0.2l-0.8,-4.2l-1,0.3l-0.1,-0.3l1.3,-0.6l0.9,4.7l0.9,-0.1l0.1,0.3l-2.2,0.4l0,-0.3z" id="svg_86"/>
    <path class="st42" d="m238.47817,83.7c0,0.7 -0.1,1.2 -0.3,1.5c-0.3,0.4 -0.6,0.6 -1.1,0.6c-0.5,0 -0.9,-0.1 -1.2,-0.5c-0.3,-0.3 -0.5,-0.8 -0.5,-1.5l-0.1,-1.1c0,-0.7 0.1,-1.2 0.3,-1.5c0.3,-0.4 0.6,-0.6 1.1,-0.6c0.5,0 0.9,0.1 1.2,0.5s0.5,0.8 0.5,1.5l0.1,1.1zm-0.5,-1.2c0,-0.5 -0.1,-0.9 -0.4,-1.2c-0.2,-0.3 -0.5,-0.4 -0.9,-0.4c-0.4,0 -0.7,0.2 -0.8,0.5c-0.2,0.3 -0.3,0.7 -0.2,1.2l0.1,1.3c0,0.5 0.1,0.9 0.4,1.2s0.5,0.4 0.9,0.4c0.4,0 0.7,-0.2 0.8,-0.5c0.2,-0.3 0.3,-0.7 0.2,-1.2l-0.1,-1.3z" id="svg_87"/>
    <path class="st42" d="m239.87817,85.8l-0.5,0l0,-0.6l0.5,0l0,0.6z" id="svg_88"/>
    <path class="st42" d="m242.17817,83.2l0.5,0.1c0.4,0.1 0.7,0 0.9,-0.1s0.4,-0.4 0.4,-0.7c0.1,-0.3 0,-0.6 -0.1,-0.8c-0.1,-0.2 -0.4,-0.4 -0.7,-0.4c-0.3,-0.1 -0.6,0 -0.8,0.1s-0.4,0.4 -0.4,0.7l-0.4,-0.1l0,0c0.1,-0.4 0.3,-0.7 0.6,-0.9c0.3,-0.2 0.7,-0.3 1.2,-0.2c0.4,0.1 0.8,0.3 1,0.6c0.2,0.3 0.3,0.7 0.2,1.1c0,0.2 -0.2,0.4 -0.3,0.6c-0.2,0.2 -0.4,0.3 -0.7,0.4c0.3,0.1 0.5,0.3 0.6,0.6c0.1,0.2 0.1,0.5 0.1,0.8c-0.1,0.4 -0.3,0.8 -0.6,1c-0.3,0.2 -0.7,0.3 -1.2,0.2c-0.4,-0.1 -0.8,-0.3 -1.1,-0.6c-0.3,-0.3 -0.4,-0.7 -0.3,-1.1l0,0l0.4,0.1c-0.1,0.3 0,0.6 0.2,0.8c0.2,0.2 0.5,0.4 0.8,0.5c0.4,0.1 0.7,0 0.9,-0.1c0.2,-0.1 0.4,-0.4 0.4,-0.7c0.1,-0.4 0,-0.6 -0.2,-0.8c-0.2,-0.2 -0.5,-0.3 -0.9,-0.4l-0.5,-0.1l0,-0.6z" id="svg_89"/>
   </g>
   <g id="svg_90">
    <path class="st42" d="m54.27817,93.2l0.4,-0.8l-3.9,-1.9l-0.3,1l-0.3,-0.1l0.4,-1.4l4.3,2.1l0.5,-0.8l0.3,0.1l-1,2l-0.4,-0.2z" id="svg_91"/>
    <path class="st42" d="m55.77817,87c0.6,0.3 0.9,0.7 1.1,1.2c0.2,0.4 0.1,0.9 -0.2,1.3c-0.3,0.4 -0.6,0.7 -1.1,0.7c-0.5,0.1 -1,-0.1 -1.5,-0.4l-1,-0.6c-0.6,-0.3 -0.9,-0.7 -1.1,-1.2c-0.2,-0.4 -0.1,-0.9 0.2,-1.3c0.3,-0.4 0.6,-0.7 1.1,-0.7c0.5,-0.1 1,0.1 1.5,0.4l1,0.6zm-1.2,-0.3c-0.4,-0.3 -0.8,-0.4 -1.2,-0.4c-0.3,0 -0.6,0.2 -0.8,0.5c-0.2,0.3 -0.2,0.6 -0.1,1c0.1,0.3 0.4,0.6 0.9,0.9l1.1,0.7c0.4,0.3 0.8,0.4 1.2,0.4c0.4,0 0.6,-0.2 0.8,-0.5c0.2,-0.3 0.2,-0.6 0.1,-1c-0.1,-0.3 -0.4,-0.6 -0.9,-0.9l-1.1,-0.7z" id="svg_92"/>
    <path class="st42" d="m58.27817,87l-0.3,0.4l-0.4,-0.4l0.3,-0.4l0.4,0.4z" id="svg_93"/>
    <path class="st42" d="m58.67817,86l0.5,-0.7l-3.3,-2.7l-0.5,0.9l-0.3,-0.3l0.7,-1.3l3.7,3l0.6,-0.7l0.2,0.2l-1.4,1.7l-0.2,-0.1z" id="svg_94"/>
    <path class="st42" d="m61.57817,80.3c0.5,0.5 0.7,0.9 0.8,1.4c0.1,0.4 -0.1,0.9 -0.4,1.2c-0.3,0.4 -0.8,0.5 -1.2,0.5c-0.5,-0.1 -0.9,-0.3 -1.4,-0.8l-0.8,-0.8c-0.5,-0.5 -0.7,-0.9 -0.8,-1.4c-0.1,-0.5 0.1,-0.9 0.4,-1.2c0.4,-0.4 0.8,-0.5 1.2,-0.5c0.5,0.1 0.9,0.3 1.4,0.8l0.8,0.8zm-1.2,-0.5c-0.4,-0.4 -0.7,-0.6 -1.1,-0.6c-0.3,-0.1 -0.6,0.1 -0.9,0.3c-0.3,0.2 -0.4,0.5 -0.3,0.9c0.1,0.3 0.3,0.7 0.6,1.1l0.9,0.9c0.4,0.4 0.7,0.6 1.1,0.6c0.3,0.1 0.7,0 0.9,-0.3c0.3,-0.3 0.4,-0.6 0.3,-0.9c-0.1,-0.3 -0.3,-0.7 -0.6,-1.1l-0.9,-0.9z" id="svg_95"/>
    <path class="st42" d="m63.97817,80.9l-0.4,0.3l-0.4,-0.4l0.4,-0.3l0.4,0.4z" id="svg_96"/>
    <path class="st42" d="m64.57817,80l0.7,-0.6l-2.7,-3.4l-0.7,0.7l-0.2,-0.2l0.9,-1.1l2.9,3.8l0.8,-0.5l0.2,0.2l-1.8,1.4l-0.1,-0.3z" id="svg_97"/>
    <path class="st42" d="m68.57817,75.1c0.4,0.6 0.5,1.1 0.5,1.5c0,0.5 -0.3,0.8 -0.7,1.1c-0.4,0.3 -0.8,0.3 -1.3,0.2c-0.4,-0.2 -0.8,-0.5 -1.2,-1.1l-0.6,-1c-0.4,-0.6 -0.5,-1.1 -0.5,-1.5s0.3,-0.8 0.7,-1.1c0.4,-0.3 0.8,-0.3 1.3,-0.2c0.4,0.2 0.8,0.5 1.2,1.1l0.6,1zm-1,-0.8c-0.3,-0.4 -0.6,-0.7 -0.9,-0.9c-0.3,-0.1 -0.6,-0.1 -1,0.1c-0.3,0.2 -0.5,0.5 -0.5,0.8c0,0.3 0.1,0.7 0.4,1.2l0.7,1.1c0.3,0.4 0.6,0.7 0.9,0.9c0.3,0.1 0.6,0.1 1,-0.1c0.3,-0.2 0.5,-0.5 0.5,-0.8c0,-0.3 -0.1,-0.7 -0.4,-1.2l-0.7,-1.1z" id="svg_98"/>
    <path class="st42" d="m70.87817,76.2l-0.4,0.2l-0.3,-0.5l0.4,-0.2l0.3,0.5z" id="svg_99"/>
    <path class="st42" d="m71.67817,75.7l-0.1,-0.3l0.8,-2.4c0.1,-0.4 0.2,-0.8 0.3,-1.1c0,-0.3 0,-0.5 -0.1,-0.7c-0.1,-0.3 -0.3,-0.5 -0.6,-0.6c-0.2,-0.1 -0.5,-0.1 -0.8,0c-0.4,0.2 -0.6,0.4 -0.7,0.7c-0.1,0.3 -0.1,0.6 0.1,0.9l-0.4,0.2l0,0c-0.2,-0.4 -0.2,-0.8 -0.1,-1.2c0.1,-0.4 0.4,-0.7 0.9,-0.9c0.4,-0.2 0.8,-0.2 1.1,-0.1s0.6,0.4 0.8,0.8c0.1,0.3 0.1,0.6 0.1,0.9c0,0.3 -0.1,0.7 -0.3,1.2l-0.7,2l0,0l2,-0.9l-0.3,-0.7l0.3,-0.1l0.4,1l-2.7,1.3z" id="svg_100"/>
   </g>
   <g id="svg_101">
    <path class="st42" d="m53.57817,322.9l0.4,-0.8l-3.9,-1.9l-0.3,1l-0.3,-0.1l0.4,-1.4l4.3,2.1l0.5,-0.8l0.3,0.1l-1,2l-0.4,-0.2z" id="svg_102"/>
    <path class="st42" d="m55.17817,316.7c0.6,0.3 0.9,0.7 1.1,1.2s0.1,0.9 -0.2,1.3c-0.3,0.4 -0.6,0.7 -1.1,0.7c-0.5,0.1 -1,-0.1 -1.5,-0.4l-1,-0.6c-0.6,-0.3 -0.9,-0.7 -1.1,-1.2c-0.2,-0.4 -0.1,-0.9 0.2,-1.3c0.3,-0.4 0.6,-0.7 1.1,-0.7c0.5,-0.1 1,0.1 1.5,0.4l1,0.6zm-1.3,-0.2c-0.4,-0.3 -0.8,-0.4 -1.2,-0.4c-0.3,0 -0.6,0.2 -0.8,0.5c-0.2,0.3 -0.2,0.6 -0.1,1c0.1,0.3 0.4,0.6 0.9,0.9l1.1,0.7c0.4,0.3 0.8,0.4 1.2,0.4c0.4,0 0.6,-0.2 0.8,-0.5c0.2,-0.3 0.2,-0.6 0.1,-1s-0.4,-0.6 -0.9,-0.9l-1.1,-0.7z" id="svg_103"/>
    <path class="st42" d="m57.67817,316.7l-0.3,0.4l-0.5,-0.3l0.3,-0.4l0.5,0.3z" id="svg_104"/>
    <path class="st42" d="m57.97817,315.7l0.5,-0.7l-3.3,-2.7l-0.5,0.9l-0.2,-0.2l0.7,-1.3l3.7,3l0.6,-0.7l0.2,0.2l-1.4,1.7l-0.3,-0.2z" id="svg_105"/>
    <path class="st42" d="m60.87817,310.1c0.5,0.5 0.7,0.9 0.8,1.4c0.1,0.4 -0.1,0.9 -0.4,1.2c-0.3,0.4 -0.8,0.5 -1.2,0.5c-0.5,-0.1 -0.9,-0.3 -1.4,-0.8l-0.8,-0.8c-0.5,-0.5 -0.7,-0.9 -0.8,-1.4c-0.1,-0.5 0.1,-0.9 0.4,-1.2c0.4,-0.4 0.8,-0.5 1.2,-0.5c0.5,0.1 0.9,0.3 1.4,0.8l0.8,0.8zm-1.1,-0.6c-0.4,-0.4 -0.7,-0.6 -1.1,-0.6c-0.3,-0.1 -0.6,0 -0.9,0.3c-0.3,0.3 -0.4,0.6 -0.3,0.9c0.1,0.3 0.3,0.7 0.6,1.1l0.9,0.9c0.4,0.4 0.7,0.6 1.1,0.6c0.3,0.1 0.7,0 0.9,-0.3c0.3,-0.3 0.4,-0.6 0.3,-0.9s-0.3,-0.7 -0.6,-1.1l-0.9,-0.9z" id="svg_106"/>
    <path class="st42" d="m63.37817,310.6l-0.4,0.3l-0.4,-0.4l0.4,-0.3l0.4,0.4z" id="svg_107"/>
    <path class="st42" d="m63.87817,309.7l0.7,-0.6l-2.6,-3.4l-0.7,0.7l-0.2,-0.2l0.9,-1.1l2.9,3.8l0.8,-0.5l0.2,0.2l-1.8,1.4l-0.2,-0.3z" id="svg_108"/>
    <path class="st42" d="m67.97817,304.9c0.4,0.6 0.5,1.1 0.5,1.5c0,0.5 -0.3,0.8 -0.7,1.1c-0.4,0.3 -0.8,0.3 -1.3,0.2s-0.8,-0.5 -1.2,-1.1l-0.6,-1c-0.4,-0.6 -0.5,-1.1 -0.5,-1.5c0,-0.5 0.3,-0.8 0.7,-1.1c0.4,-0.3 0.8,-0.3 1.3,-0.2c0.4,0.2 0.8,0.5 1.2,1.1l0.6,1zm-1,-0.8c-0.3,-0.4 -0.6,-0.7 -0.9,-0.9c-0.3,-0.1 -0.6,-0.1 -1,0.1c-0.3,0.2 -0.5,0.5 -0.5,0.8c0,0.3 0.1,0.7 0.4,1.2l0.7,1.1c0.3,0.4 0.6,0.7 0.9,0.9s0.6,0.1 1,-0.1c0.3,-0.2 0.5,-0.5 0.5,-0.8c0,-0.3 -0.1,-0.7 -0.4,-1.2l-0.7,-1.1z" id="svg_109"/>
    <path class="st42" d="m70.27817,305.9l-0.4,0.2l-0.3,-0.5l0.4,-0.2l0.3,0.5z" id="svg_110"/>
    <path class="st42" d="m70.97817,305.2l0.8,-0.4l-1.8,-3.9l-0.9,0.5l-0.1,-0.3l1.2,-0.9l2,4.4l0.9,-0.3l0.1,0.3l-2.1,0.9l-0.1,-0.3z" id="svg_111"/>
   </g>
  </g>
  <g id="deployments">
   <g id="svg_112">
    <g id="svg_113">
     <circle class="st45" cx="140.6" cy="241.8" r="14.1" id="svg_114"/>
     <g id="svg_115">
      <g id="svg_116">
       <path class="st46" d="m145,233.5c3,1.6 5,4.7 5,8.3c0,5.2 -4.2,9.4 -9.4,9.4s-9.4,-4.2 -9.4,-9.4c0,-4.1 2.6,-7.6 6.3,-8.9" id="svg_117"/>
       <g id="svg_118">
        <polygon class="st6" points="146.4,236.4 145.4,233.7 148,232.6 146.5,231.9 143.8,233 144.8,235.6       " id="svg_119"/>
       </g>
      </g>
     </g>
     <g id="svg_120">
      <path class="st6" d="m135.4,245.5l0.8,-0.1l3.3,-9.5l2.2,0l3.3,9.5l0.8,0.1l0,1.3l-3.7,0l0,-1.3l0.8,-0.1l-0.5,-1.5l-3.5,0l-0.5,1.5l0.8,0.1l0,1.3l-3.7,0l0,-1.3l-0.1,0zm4,-3.2l2.5,0l-1.2,-3.8l0,0l-1.3,3.8z" id="svg_121"/>
     </g>
    </g>
    <g id="svg_122">
     <circle class="st49" cx="159.9" cy="211.5" r="14.1" id="svg_123"/>
     <g id="svg_124">
      <g id="svg_125">
       <path class="st46" d="m164.3,203.2c3,1.6 5,4.7 5,8.3c0,5.2 -4.2,9.4 -9.4,9.4s-9.4,-4.2 -9.4,-9.4c0,-4.1 2.6,-7.6 6.3,-8.9" id="svg_126"/>
       <g id="svg_127">
        <polygon class="st6" points="165.7,206.1 164.6,203.4 167.3,202.4 165.7,201.7 163,202.7 164.1,205.4       " id="svg_128"/>
       </g>
      </g>
     </g>
     <g id="svg_129">
      <path class="st6" d="m160.1,205.8c1.3,0 2.3,0.2 3,0.7s1.1,1.2 1.1,2.2c0,0.5 -0.1,1 -0.4,1.3c-0.3,0.4 -0.7,0.7 -1.2,0.9c0.7,0.1 1.1,0.4 1.5,0.9c0.3,0.5 0.5,1 0.5,1.6c0,1 -0.3,1.8 -1,2.4c-0.7,0.5 -1.7,0.8 -2.9,0.8l-5.3,0l0,-1.3l1.2,-0.2l0,-7.8l-1.2,-0.2l0,-1.3l1.2,0l3.5,0zm-1.5,4.5l1.6,0c0.6,0 1,-0.1 1.3,-0.4c0.3,-0.2 0.5,-0.6 0.5,-1c0,-0.5 -0.2,-0.9 -0.5,-1.1c-0.3,-0.2 -0.8,-0.4 -1.4,-0.4l-1.5,0l0,2.9zm0,1.5l0,3.1l2,0c0.6,0 1,-0.1 1.3,-0.4c0.3,-0.3 0.5,-0.6 0.5,-1.1c0,-0.5 -0.1,-0.9 -0.4,-1.2c-0.3,-0.3 -0.7,-0.4 -1.2,-0.4l-2.2,0z" id="svg_130"/>
     </g>
    </g>
   </g>
  </g>
  <g id="containers_x2F_volumes">
   <g id="svg_131">
    <polygon class="st51" points="75.87815567851067,101.80000305175781 87.67815110087395,94.9000015258789 99.57815262675285,101.80000305175781 87.67815110087395,108.5999984741211 " id="svg_132"/>
    <polygon class="st51" points="75.87815567851067,115.4000015258789 75.87815567851067,101.80000305175781 87.67815110087395,108.5999984741211 87.67815110087395,122.30000305175781 " id="svg_133"/>
    <polygon class="st51" points="87.67815110087395,122.30000305175781 87.67815110087395,108.5999984741211 99.57815262675285,101.80000305175781 99.57815262675285,115.4000015258789 " id="svg_134"/>
   </g>
   <g id="svg_135">
    <polygon class="st51" points="75.27814957499504,331.5 87.07815262675285,324.6000061035156 98.97815415263176,331.5 87.07815262675285,338.29998779296875 " id="svg_136"/>
    <polygon class="st51" points="75.27814957499504,345.20001220703125 75.27814957499504,331.5 87.07815262675285,338.29998779296875 87.07815262675285,352 " id="svg_137"/>
    <polygon class="st51" points="87.07815262675285,352 87.07815262675285,338.29998779296875 98.97815415263176,331.5 98.97815415263176,345.20001220703125 " id="svg_138"/>
   </g>
   <g id="svg_139">
    <polygon class="st51" points="179.7781877219677,101.69999694824219 191.67819687724113,94.9000015258789 203.47818467020988,101.69999694824219 191.67819687724113,108.5999984741211 " id="svg_140"/>
    <polygon class="st51" points="179.7781877219677,115.4000015258789 179.7781877219677,101.69999694824219 191.67819687724113,108.5999984741211 191.67819687724113,122.30000305175781 " id="svg_141"/>
    <polygon class="st51" points="191.67819687724113,122.30000305175781 191.67819687724113,108.5999984741211 203.47818467020988,101.69999694824219 203.47818467020988,115.4000015258789 " id="svg_142"/>
   </g>
   <g id="svg_143">
    <polygon class="st51" points="226.2781877219677,101.69999694824219 238.17819687724113,94.9000015258789 249.97818467020988,101.69999694824219 238.17819687724113,108.5999984741211 " id="svg_144"/>
    <polygon class="st51" points="226.2781877219677,115.4000015258789 226.2781877219677,101.69999694824219 238.17819687724113,108.5999984741211 238.17819687724113,122.30000305175781 " id="svg_145"/>
    <polygon class="st51" points="238.17819687724113,122.30000305175781 238.17819687724113,108.5999984741211 249.97818467020988,101.69999694824219 249.97818467020988,115.4000015258789 " id="svg_146"/>
   </g>
  </g>
  <g id="labels_x2F_selectors"/>
  <g id="description">
   <g id="svg_147">
    <path class="st42" d="m315.9,138.6l-0.9,0l-0.2,-1.2c-0.2,-0.1 -0.4,-0.3 -0.7,-0.4s-0.6,-0.1 -1,-0.1c-0.6,0 -1.1,0.1 -1.4,0.4s-0.5,0.6 -0.5,1c0,0.4 0.2,0.7 0.5,0.9s0.9,0.5 1.6,0.7c0.9,0.2 1.6,0.6 2,1s0.7,1 0.7,1.6c0,0.7 -0.3,1.2 -0.8,1.7s-1.3,0.6 -2.2,0.6c-0.7,0 -1.2,-0.1 -1.7,-0.3s-0.9,-0.5 -1.2,-0.8l0,-1.7l0.9,0l0.2,1.2c0.2,0.2 0.5,0.3 0.8,0.5s0.7,0.2 1.1,0.2c0.6,0 1,-0.1 1.4,-0.4s0.5,-0.6 0.5,-1c0,-0.4 -0.1,-0.7 -0.4,-1s-0.8,-0.5 -1.6,-0.7c-0.9,-0.2 -1.6,-0.5 -2.1,-0.9s-0.8,-0.9 -0.8,-1.6c0,-0.7 0.3,-1.2 0.8,-1.7s1.3,-0.7 2.2,-0.7c0.6,0 1.1,0.1 1.6,0.3s0.9,0.5 1.2,0.7l0,1.7z" id="svg_148"/>
    <path class="st42" d="m320.1,144.7c-0.9,0 -1.6,-0.3 -2.1,-0.9s-0.8,-1.4 -0.8,-2.3l0,-0.3c0,-0.9 0.3,-1.7 0.8,-2.3s1.2,-0.9 1.9,-0.9c0.9,0 1.5,0.3 1.9,0.8s0.7,1.2 0.7,2.1l0,0.7l-4.1,0l0,0c0,0.6 0.2,1.1 0.5,1.5s0.7,0.6 1.2,0.6c0.4,0 0.7,-0.1 1,-0.2s0.5,-0.3 0.8,-0.5l0.5,0.8c-0.2,0.2 -0.5,0.4 -0.9,0.6s-0.9,0.3 -1.4,0.3zm-0.2,-5.7c-0.4,0 -0.7,0.2 -1,0.5s-0.4,0.7 -0.5,1.2l0,0l2.9,0l0,-0.2c0,-0.5 -0.1,-0.8 -0.4,-1.1s-0.5,-0.4 -1,-0.4z" id="svg_149"/>
    <path class="st42" d="m323.6,139l0,-0.7l2,0l0.1,0.9c0.2,-0.3 0.4,-0.6 0.7,-0.8s0.6,-0.3 0.9,-0.3c0.1,0 0.2,0 0.3,0s0.2,0 0.2,0l-0.2,1.1l-0.7,0c-0.3,0 -0.6,0.1 -0.8,0.2s-0.4,0.3 -0.5,0.6l0,3.6l1,0.2l0,0.7l-3.1,0l0,-0.7l1,-0.2l0,-4.5l-0.9,-0.1z" id="svg_150"/>
    <path class="st42" d="m330.9,139l-0.8,0.1l1.3,3.6l0.1,0.5l0,0l0.1,-0.5l1.3,-3.6l-0.8,-0.1l0,-0.7l2.4,0l0,0.7l-0.5,0.1l-2.1,5.5l-0.9,0l-2.2,-5.5l-0.5,-0.1l0,-0.7l2.4,0l0,0.7l0.2,0z" id="svg_151"/>
    <path class="st42" d="m335.4,143.8l1,-0.2l0,-4.5l-1,-0.2l0,-0.7l2.1,0l0,5.4l1,0.2l0,0.7l-3.1,0l0,-0.7zm2.1,-7.2l-1.2,0l0,-1.2l1.2,0l0,1.2z" id="svg_152"/>
    <path class="st42" d="m342.2,143.8c0.4,0 0.7,-0.1 1,-0.4s0.4,-0.5 0.4,-0.9l1,0l0,0c0,0.5 -0.2,1 -0.7,1.5s-1.1,0.6 -1.8,0.6c-0.9,0 -1.6,-0.3 -2.1,-0.9s-0.7,-1.4 -0.7,-2.3l0,-0.2c0,-0.9 0.2,-1.7 0.7,-2.3s1.2,-0.9 2.1,-0.9c0.5,0 1,0.1 1.4,0.3s0.7,0.4 1,0.7l0.1,1.4l-0.9,0l-0.3,-1c-0.1,-0.1 -0.3,-0.2 -0.5,-0.3s-0.5,-0.1 -0.7,-0.1c-0.6,0 -1,0.2 -1.3,0.7s-0.4,1 -0.4,1.6l0,0.2c0,0.6 0.1,1.2 0.4,1.6s0.7,0.7 1.3,0.7z" id="svg_153"/>
    <path class="st42" d="m348.7,144.7c-0.9,0 -1.6,-0.3 -2.1,-0.9s-0.8,-1.4 -0.8,-2.3l0,-0.3c0,-0.9 0.3,-1.7 0.8,-2.3s1.2,-0.9 1.9,-0.9c0.9,0 1.5,0.3 1.9,0.8s0.7,1.2 0.7,2.1l0,0.7l-4.1,0l0,0c0,0.6 0.2,1.1 0.5,1.5s0.7,0.6 1.2,0.6c0.4,0 0.7,-0.1 1,-0.2s0.5,-0.3 0.8,-0.5l0.5,0.8c-0.2,0.2 -0.5,0.4 -0.9,0.6s-0.9,0.3 -1.4,0.3zm-0.2,-5.7c-0.4,0 -0.7,0.2 -1,0.5s-0.4,0.7 -0.5,1.2l0,0l2.9,0l0,-0.2c0,-0.5 -0.1,-0.8 -0.4,-1.1s-0.5,-0.4 -1,-0.4z" id="svg_154"/>
   </g>
   <line class="st62" x1="307.3" y1="142.2" x2="249.9" y2="142.2" id="svg_155"/>
   <g id="svg_156">
    <path class="st42" d="m313.3,235c1.1,0 2,0.3 2.7,1s1,1.6 1,2.7l0,1.2c0,1.1 -0.3,2 -1,2.7s-1.6,1 -2.7,1l-3.6,0l0,-0.7l1,-0.2l0,-6.7l-1,-0.2l0,-0.8l1,0l2.6,0zm-1.4,0.9l0,6.7l1.5,0c0.8,0 1.4,-0.3 1.9,-0.8s0.7,-1.2 0.7,-2l0,-1.2c0,-0.8 -0.2,-1.5 -0.7,-2s-1.1,-0.8 -1.9,-0.8l-1.5,0l0,0.1z" id="svg_157"/>
    <path class="st42" d="m321.1,243.6c-0.9,0 -1.6,-0.3 -2.1,-0.9s-0.8,-1.4 -0.8,-2.3l0,-0.3c0,-0.9 0.3,-1.7 0.8,-2.3s1.2,-0.9 1.9,-0.9c0.9,0 1.5,0.3 1.9,0.8s0.7,1.2 0.7,2.1l0,0.7l-4.1,0l0,0c0,0.6 0.2,1.1 0.5,1.5s0.7,0.6 1.2,0.6c0.4,0 0.7,-0.1 1,-0.2s0.5,-0.3 0.8,-0.5l0.5,0.8c-0.2,0.2 -0.5,0.4 -0.9,0.6s-0.9,0.3 -1.4,0.3zm-0.2,-5.7c-0.4,0 -0.7,0.2 -1,0.5s-0.4,0.7 -0.5,1.2l0,0l2.9,0l0,-0.2c0,-0.5 -0.1,-0.8 -0.4,-1.1s-0.5,-0.4 -1,-0.4z" id="svg_158"/>
    <path class="st42" d="m324.5,245.2l1,-0.2l0,-7l-1,-0.2l0,-0.7l1.9,0l0.1,0.8c0.2,-0.3 0.5,-0.5 0.8,-0.7s0.7,-0.2 1.1,-0.2c0.8,0 1.4,0.3 1.8,0.9s0.7,1.4 0.7,2.5l0,0.1c0,0.9 -0.2,1.7 -0.7,2.2s-1,0.8 -1.8,0.8c-0.4,0 -0.7,-0.1 -1,-0.2s-0.5,-0.3 -0.8,-0.6l0,2.2l1,0.2l0,0.7l-3.1,0l0,-0.6zm5.2,-4.8c0,-0.7 -0.1,-1.3 -0.4,-1.8s-0.7,-0.7 -1.3,-0.7c-0.3,0 -0.6,0.1 -0.8,0.2s-0.4,0.4 -0.6,0.6l0,3.1c0.1,0.3 0.3,0.5 0.6,0.6s0.5,0.2 0.9,0.2c0.5,0 1,-0.2 1.2,-0.6s0.4,-0.9 0.4,-1.6l0,0z" id="svg_159"/>
    <path class="st42" d="m331.7,235.1l0,-0.7l2.1,0l0,8.2l1,0.2l0,0.7l-3.1,0l0,-0.7l1,-0.2l0,-7.3l-1,-0.2z" id="svg_160"/>
    <path class="st42" d="m335.5,240.3c0,-0.9 0.3,-1.7 0.8,-2.3s1.2,-0.9 2.1,-0.9c0.9,0 1.6,0.3 2.1,0.9s0.8,1.4 0.8,2.3l0,0.1c0,0.9 -0.3,1.7 -0.8,2.3s-1.2,0.9 -2.1,0.9c-0.9,0 -1.6,-0.3 -2.1,-0.9s-0.8,-1.4 -0.8,-2.3l0,-0.1zm1.1,0.1c0,0.7 0.1,1.2 0.4,1.7s0.7,0.7 1.3,0.7c0.5,0 1,-0.2 1.2,-0.7s0.4,-1 0.4,-1.7l0,-0.1c0,-0.7 -0.1,-1.2 -0.4,-1.7s-0.7,-0.7 -1.3,-0.7s-1,0.2 -1.3,0.7s-0.4,1 -0.4,1.7l0,0.1l0.1,0z" id="svg_161"/>
    <path class="st42" d="m348.2,237.9l-0.6,0.1l-2.4,6.5c-0.2,0.4 -0.4,0.8 -0.7,1.1s-0.7,0.5 -1.2,0.5c-0.1,0 -0.2,0 -0.4,0s-0.3,0 -0.3,-0.1l0.1,-0.9c0,0 0,0 0.2,0s0.3,0 0.3,0c0.2,0 0.4,-0.1 0.6,-0.3s0.3,-0.5 0.4,-0.7l0.3,-0.7l-2.1,-5.4l-0.6,-0.1l0,-0.7l2.6,0l0,0.7l-0.7,0.1l1.1,3.1l0.2,0.8l0,0l1.3,-3.9l-0.7,-0.1l0,-0.7l2.6,0l0,0.7z" id="svg_162"/>
    <path class="st42" d="m348.7,242.8l1,-0.2l0,-4.5l-1,-0.2l0,-0.7l2,0l0.1,0.8c0.2,-0.3 0.5,-0.5 0.8,-0.7s0.7,-0.2 1.1,-0.2s0.8,0.1 1.1,0.3s0.5,0.5 0.7,0.9c0.2,-0.4 0.5,-0.6 0.8,-0.9s0.7,-0.3 1.1,-0.3c0.6,0 1.2,0.2 1.5,0.7s0.6,1.1 0.6,2l0,2.9l1,0.2l0,0.7l-3.1,0l0,-0.7l1,-0.2l0,-2.9c0,-0.6 -0.1,-1.1 -0.3,-1.3s-0.5,-0.4 -1,-0.4c-0.4,0 -0.7,0.1 -1,0.4s-0.4,0.6 -0.4,1.1l0,3.1l1,0.2l0,0.7l-3.1,0l0,-0.7l1,-0.2l0,-2.9c0,-0.6 -0.1,-1 -0.3,-1.3s-0.5,-0.4 -1,-0.4c-0.4,0 -0.6,0.1 -0.9,0.2s-0.4,0.3 -0.5,0.6l0,3.8l1,0.2l0,0.7l-3.1,0l0,-0.8l-0.1,0z" id="svg_163"/>
    <path class="st42" d="m363.1,243.6c-0.9,0 -1.6,-0.3 -2.1,-0.9s-0.8,-1.4 -0.8,-2.3l0,-0.3c0,-0.9 0.3,-1.7 0.8,-2.3s1.2,-0.9 1.9,-0.9c0.9,0 1.5,0.3 1.9,0.8s0.7,1.2 0.7,2.1l0,0.7l-4.1,0l0,0c0,0.6 0.2,1.1 0.5,1.5s0.7,0.6 1.2,0.6c0.4,0 0.7,-0.1 1,-0.2s0.5,-0.3 0.8,-0.5l0.5,0.8c-0.2,0.2 -0.5,0.4 -0.9,0.6s-0.9,0.3 -1.4,0.3zm-0.2,-5.7c-0.4,0 -0.7,0.2 -1,0.5s-0.4,0.7 -0.5,1.2l0,0l2.9,0l0,-0.2c0,-0.5 -0.1,-0.8 -0.4,-1.1s-0.5,-0.4 -1,-0.4z" id="svg_164"/>
    <path class="st42" d="m366.5,242.8l1,-0.2l0,-4.5l-1,-0.2l0,-0.7l2,0l0.1,0.9c0.2,-0.3 0.5,-0.6 0.8,-0.8s0.7,-0.3 1.1,-0.3c0.7,0 1.2,0.2 1.6,0.6s0.6,1 0.6,1.9l0,3.1l1,0.2l0,0.7l-3.1,0l0,-0.7l1,-0.2l0,-3.1c0,-0.6 -0.1,-1 -0.3,-1.2s-0.6,-0.4 -1,-0.4c-0.3,0 -0.6,0.1 -0.9,0.2s-0.5,0.4 -0.6,0.7l0,3.7l1,0.2l0,0.7l-3.1,0l0,-0.6l-0.2,0z" id="svg_165"/>
    <path class="st42" d="m376.4,235.6l0,1.5l1.2,0l0,0.9l-1.2,0l0,3.8c0,0.3 0.1,0.5 0.2,0.6s0.3,0.2 0.5,0.2c0.1,0 0.2,0 0.3,0s0.2,0 0.3,-0.1l0.2,0.8c-0.1,0.1 -0.3,0.1 -0.5,0.2s-0.4,0.1 -0.6,0.1c-0.5,0 -0.8,-0.1 -1.1,-0.4s-0.4,-0.7 -0.4,-1.3l0,-3.9l-1,0l0,-0.9l1,0l0,-1.5l1.1,0z" id="svg_166"/>
   </g>
   <line class="st62" x1="307.3" y1="241.1" x2="145" y2="241.1" id="svg_167"/>
  </g>
  <g id="Layer_14"/>
  <text stroke="#000000" transform="matrix(0.6019026637077332,0,0,0.5714285969734192,103.95938721019775,129.68302798457444) " xml:space="preserve" text-anchor="middle" font-family="Sans-serif" font-size="24" id="svg_172" y="319.35001" x="344.41771" stroke-linecap="null" stroke-linejoin="null" stroke-dasharray="null" stroke-width="0" fill="#000000">Pod</text>
  <path stroke="#000000" fill="#7f00ff" d="m267.48872,307.31483l4.9558,-10.19507l13.21547,0l4.9558,10.19507l-4.9558,10.19507l-13.21547,0l-4.9558,-10.19507z" id="svg_168" transform="rotate(90 279.0518798828125,307.31481933593756) "/>
  <path id="svg_175" stroke="#007fff" fill="#ffffff" d="m267.49716,339.46163l4.9558,-10.19507l13.21547,0l4.9558,10.19507l-4.9558,10.19507l-13.21547,0l-4.9558,-10.19507z" transform="rotate(90 279.0607604980469,339.4615783691407) "/>
  <text id="svg_176" stroke="#000000" transform="matrix(0.6019026637077332,0,0,0.5714285969734192,103.95938721019775,129.68302798457444) " xml:space="preserve" text-anchor="middle" font-family="Sans-serif" font-size="24" y="377.46771" x="351.56023" stroke-linecap="null" stroke-linejoin="null" stroke-dasharray="null" stroke-width="0" fill="#000000">Node</text>
  <line id="svg_169" y2="305.88526" x2="279.00771" y1="301.20473" x1="269.05229" stroke-linecap="null" stroke-linejoin="null" stroke-dasharray="null" stroke="#000000" fill="none"/>
  <line id="svg_171" y2="305.8914" x2="278.78483" y1="300.61651" x1="289.03743" stroke-linecap="null" stroke-linejoin="null" stroke-dasharray="null" stroke="#000000" fill="none"/>
  <line id="svg_170" y2="306.03385" x2="278.92224" y1="318.66387" x1="279.07083" stroke-linecap="null" stroke-linejoin="null" stroke-dasharray="null" stroke="#000000" fill="none"/>
 </g>
</svg>