<svg width="476.1" height="385.3" xmlns="http://www.w3.org/2000/svg" xmlns:svg="http://www.w3.org/2000/svg" xmlns:xlink="http://www.w3.org/1999/xlink">
 <style type="text/css">.st0{fill:#FFFFFF;stroke:#006DE9;stroke-linecap:round;stroke-linejoin:round;stroke-miterlimit:10;}
	.st1{fill:#FFFFFF;stroke:#006DE9;stroke-width:6;stroke-linecap:round;stroke-linejoin:round;stroke-miterlimit:10;}
	.st2{fill:#FFFFFF;stroke:#326DE6;stroke-width:2;stroke-linecap:round;stroke-linejoin:round;stroke-miterlimit:10;}
	.st3{opacity:0.71;fill:#326CE6;}
	.st4{opacity:0.45;fill:#FFFFFF;}
	.st5{fill:#FFFFFF;stroke:#006DE9;stroke-width:2;stroke-linecap:round;stroke-linejoin:round;stroke-miterlimit:10;}
	.st6{fill:#006DE9;}
	.st7{fill:#A0CAEA;}
	.st8{fill:#FFFFFF;}
	.st9{opacity:0.13;}
	.st10{fill:url(#SVGID_1_);}
	.st11{fill:url(#SVGID_2_);}
	.st12{fill:#FFFFFF;stroke:#326DE6;stroke-width:3.2;stroke-linecap:round;stroke-linejoin:round;stroke-miterlimit:10;}
	.st13{fill:#326DE6;}
	.st14{fill:none;stroke:#326DE6;stroke-width:2.4;stroke-miterlimit:10;}
	.st15{fill:#A0CAE9;}
	.st16{fill:#FFFFFF;stroke:#326DE6;stroke-width:1.6;stroke-linecap:round;stroke-linejoin:round;stroke-miterlimit:10;}
	.st17{fill:#FFFFFF;stroke:#326DE6;stroke-width:1.6;stroke-miterlimit:10;}
	.st18{fill:none;stroke:#06F7C9;stroke-width:2;stroke-miterlimit:10;}
	.st19{fill:none;stroke:#06F7C9;stroke-width:2;stroke-miterlimit:10;stroke-dasharray:2.3749,1.5832;}
	.st20{fill:none;stroke:#06F7C9;stroke-width:2;stroke-miterlimit:10;stroke-dasharray:2.4006,1.6004;}
	.st21{fill:none;stroke:#EEF406;stroke-width:2;stroke-miterlimit:10;stroke-dasharray:2.4,1.6;}
	.st22{fill:none;stroke:#EEF406;stroke-width:2;stroke-miterlimit:10;}
	.st23{fill:none;stroke:#EEF406;stroke-width:2;stroke-miterlimit:10;stroke-dasharray:2.3975,1.5984;}
	.st24{fill:none;stroke:#EEF406;stroke-width:2;stroke-miterlimit:10;stroke-dasharray:2.395,1.5966;}
	.st25{fill:none;stroke:#EEF406;stroke-width:2;stroke-miterlimit:10;stroke-dasharray:2.3963,1.5976;}
	.st26{opacity:0.1;fill:#EEF406;}
	.st27{opacity:2.000000e-02;fill:#EEF406;}
	.st28{opacity:0.1;fill:#06F7C9;}
	.st29{fill:none;stroke:#006DE9;stroke-width:0.8;stroke-miterlimit:10;}
	.st30{opacity:0.1;fill:url(#SVGID_3_);}
	.st31{opacity:0.1;fill:url(#SVGID_4_);}
	.st32{opacity:0.1;fill:url(#SVGID_5_);}
	.st33{opacity:0.1;fill:url(#SVGID_6_);}
	.st34{fill:none;stroke:#326DE6;stroke-width:1.2;stroke-miterlimit:10;}
	.st35{opacity:0.1;fill:url(#SVGID_7_);}
	.st36{opacity:0.1;fill:url(#SVGID_8_);}
	.st37{opacity:0.1;fill:url(#SVGID_9_);}
	.st38{opacity:0.1;fill:url(#SVGID_10_);}
	.st39{fill:none;stroke:#326DE6;stroke-width:2;stroke-miterlimit:10;}
	.st40{opacity:0.4;fill:none;stroke:#EEF406;stroke-width:2;stroke-miterlimit:10;}
	.st41{fill:none;stroke:#EEF406;stroke-width:2.4596;stroke-miterlimit:10;}
	.st42{fill:#011F38;}
	.st43{opacity:0.4;}
	.st44{opacity:0.1;}
	.st45{fill:#326DE6;stroke:#EEF406;stroke-width:2;stroke-miterlimit:10;}
	.st46{fill:none;stroke:#FFFFFF;stroke-width:1.2;stroke-linecap:round;stroke-linejoin:round;}
	.st47{fill:#06F7C9;stroke:#FFFFFF;stroke-width:0.3;stroke-linecap:round;stroke-linejoin:round;stroke-miterlimit:10;}
	.st48{fill:none;stroke:#011F38;stroke-width:1.2;stroke-linecap:round;stroke-linejoin:round;}
	.st49{fill:#326DE6;stroke:#06F7C9;stroke-width:2;stroke-miterlimit:10;}
	.st50{fill:#06F7C9;stroke:#011F38;stroke-width:0.8;stroke-linecap:round;stroke-linejoin:round;stroke-miterlimit:10;}
	.st51{fill:#8115FF;stroke:#011F38;stroke-width:0.8;stroke-linecap:round;stroke-linejoin:round;stroke-miterlimit:10;}
	.st52{opacity:0.3;}
	.st53{opacity:0.2;fill:#6D6E71;}
	.st54{fill:#EEF406;}
	.st55{fill:#06F7C9;}
	.st56{fill:#FFFFFF;stroke:#06F7C9;stroke-width:2;stroke-miterlimit:10;stroke-dasharray:2.4,1.6;}
	.st57{fill:#FFFFFF;stroke:#EEF406;stroke-width:1.6;stroke-miterlimit:10;stroke-dasharray:2.4,1.6;}
	.st58{fill:none;stroke:#06F7C9;stroke-width:2;stroke-miterlimit:10;stroke-dasharray:2.4938,1.6626;}
	.st59{fill:none;stroke:#06F7C9;stroke-width:2;stroke-miterlimit:10;stroke-dasharray:2.0084,1.3389;}
	.st60{fill:none;stroke:#06F7C9;stroke-width:2;stroke-miterlimit:10;stroke-dasharray:2.724,1.816;}
	.st61{fill:#011F38;stroke:#414042;stroke-width:0.3;stroke-linecap:round;stroke-linejoin:round;stroke-miterlimit:10;}
	.st62{fill:none;stroke:#011F38;stroke-width:0.3;stroke-linecap:round;stroke-linejoin:round;stroke-miterlimit:10;}
	.st63{fill:none;stroke:#011F38;stroke-width:0.2813;stroke-linecap:round;stroke-linejoin:round;stroke-miterlimit:10;}</style>
 <symbol id="master_x5F_level1_1_" viewBox="-68.6 -66.9 137.2 133.9">
  <g id="svg_1">
   <g id="svg_2">
    <line class="st0" x1="0" y1="-11.1" x2="0" y2="0.7" id="svg_3"/>
    <line class="st0" x1="5.9" y1="-5.2" x2="-5.9" y2="-5.2" id="svg_4"/>
   </g>
   <polygon class="st1" points="-29.2,-63.9 -65.6,-18.3 -52.6,38.6 0,63.9 52.6,38.6 65.6,-18.3 29.2,-63.9   " id="svg_5"/>
  </g>
 </symbol>
 <symbol id="node_high_level" viewBox="-81 -93 162 186.1">
  <polygon class="st2" points="-80,-46 -80,46 0,92 80,46 80,-46 0,-92  " id="svg_6"/>
  <g id="Isolation_Mode_3_"/>
 </symbol>
 <symbol id="node_x5F_empty" viewBox="-87.5 -100.6 175.1 201.1">
  <use xlink:href="#node_high_level" width="162" height="186.1" id="XMLID_201_" x="-81" y="-93" transform="matrix(1.0808,0,0,1.0808,-0.00003292006,-0.00003749943) "/>
  <g id="svg_7">
   <polygon class="st3" points="76.8,-28.1 -14,-80.3 0,-88.3 76.7,-44.4   " id="svg_8"/>
   <polygon class="st4" points="76.8,-28.1 32.1,-53.8 38.8,-66.1 76.7,-44.4   " id="svg_9"/>
  </g>
 </symbol>
 <symbol id="node_x5F_new" viewBox="-87.6 -101 175.2 202">
  <polygon class="st5" points="0,-100 -86.6,-50 -86.6,50 0,100 86.6,50 86.6,-50  " id="svg_10"/>
  <polygon class="st6" points="-86.6,-20.2 -86.6,-50 0,-100 25.8,-85.1  " id="svg_11"/>
  <polygon class="st7" points="-40.8,-70.7 -32.9,-57 15.7,-85.1 0,-94.3  " id="svg_12"/>
  <text transform="matrix(0.866,-0.5,-0.5,-0.866,-33.9256,-70.7388) " class="st8" font-size="11.3632px" font-family="&#x27;RobotoSlab-Regular'" id="svg_13">Docker</text>
  <text transform="matrix(0.866,-0.5,-0.5,-0.866,-76.0668,-46.4087) " class="st8" font-size="11.3632px" font-family="&#x27;RobotoSlab-Regular'" id="svg_14">Kubelt</text>
 </symbol>
 <g>
  <title>Layer 1</title>
  <g id="CLUSTER">
   <g id="XMLID_8_" class="st9">
    <g id="svg_15">
     <linearGradient id="SVGID_1_" gradientUnits="userSpaceOnUse" x1="27.9955" y1="185.5114" x2="342.4509" y2="185.5114">
      <stop offset="0" stop-color="#326DE6"/>
      <stop offset="1" stop-color="#10FFC6"/>
     </linearGradient>
     <polygon class="st10" points="311.3,92.9 342.5,229.4 255.2,338.8 115.3,338.8 28,229.4 59.1,92.9 185.2,32.2    " id="svg_16"/>
    </g>
   </g>
  </g>
  <g id="master">
   <g id="master_x5F_level1"/>
   <use xlink:href="#master_x5F_level1_1_" width="137.2" height="133.9" x="-68.6" y="-66.9" transform="matrix(0.4,0,0,-0.4,185.2213,187.4709) " id="svg_17"/>
  </g>
  <g id="Node">
   <g id="Node_x5F_level3_x5F_1">
    <g id="Isolation_Mode"/>
   </g>
   <polygon class="st16" points="224.6,160.7 189,140.1 189,98.9 224.6,78.4 260.3,98.9 260.3,140.1  " id="svg_18"/>
   <polygon class="st13" points="189,127.8 189,140.1 224.6,160.7 235.2,154.5  " id="svg_19"/>
   <polygon class="st7" points="207.8,148.6 211.1,143 231.1,154.5 224.6,158.3  " id="svg_20"/>
   <g id="svg_21">
    <path class="st8" d="m213.7,146.5c0.4,0.2 0.6,0.5 0.7,0.9c0.1,0.4 0,0.7 -0.2,1.1l-0.2,0.4c-0.2,0.4 -0.5,0.6 -0.9,0.7c-0.4,0.1 -0.7,0 -1.1,-0.2l-1.2,-0.7l0.1,-0.2l0.4,0.1l1.3,-2.3l-0.3,-0.2l0.1,-0.3l0.3,0.2l1,0.5zm-0.6,0l-1.3,2.3l0.5,0.3c0.3,0.2 0.5,0.2 0.8,0.1c0.3,-0.1 0.5,-0.3 0.6,-0.5l0.2,-0.4c0.2,-0.3 0.2,-0.5 0.2,-0.8c-0.1,-0.3 -0.2,-0.5 -0.5,-0.6l-0.5,-0.4z" id="svg_22"/>
    <path class="st8" d="m214.3,149.2c0.2,-0.3 0.4,-0.5 0.7,-0.6c0.3,-0.1 0.6,-0.1 0.9,0.1c0.3,0.2 0.5,0.4 0.5,0.7c0.1,0.3 0,0.6 -0.2,0.9l0,0c-0.2,0.3 -0.4,0.5 -0.7,0.6c-0.3,0.1 -0.6,0.1 -0.9,-0.1c-0.3,-0.2 -0.5,-0.4 -0.5,-0.7c0,-0.2 0,-0.5 0.2,-0.9l0,0zm0.4,0.3c-0.1,0.2 -0.2,0.4 -0.2,0.6c0,0.2 0.1,0.4 0.3,0.5c0.2,0.1 0.4,0.1 0.5,0c0.2,-0.1 0.3,-0.3 0.5,-0.5l0,0c0.1,-0.2 0.2,-0.4 0.2,-0.6c0,-0.2 -0.1,-0.4 -0.3,-0.5c-0.2,-0.1 -0.4,-0.1 -0.6,0s-0.2,0.2 -0.4,0.5l0,0z" id="svg_23"/>
    <path class="st8" d="m217.1,151.9c0.1,0.1 0.3,0.1 0.4,0.1c0.1,0 0.2,-0.1 0.3,-0.2l0.4,0.2l0,0c-0.1,0.2 -0.3,0.3 -0.5,0.3c-0.3,0 -0.5,0 -0.7,-0.1c-0.3,-0.2 -0.5,-0.4 -0.5,-0.7c0,-0.3 0,-0.6 0.2,-0.9l0,-0.1c0.2,-0.3 0.4,-0.5 0.7,-0.6c0.3,-0.1 0.6,-0.1 0.9,0.1c0.2,0.1 0.3,0.2 0.4,0.4c0.1,0.1 0.2,0.3 0.2,0.4l-0.3,0.5l-0.3,-0.2l0.1,-0.4c0,-0.1 -0.1,-0.1 -0.1,-0.2c-0.1,-0.1 -0.1,-0.1 -0.2,-0.2c-0.2,-0.1 -0.4,-0.1 -0.6,0c-0.2,0.1 -0.3,0.3 -0.4,0.5l0,0.1c-0.1,0.2 -0.2,0.4 -0.2,0.6c-0.1,0.2 0,0.3 0.2,0.4z" id="svg_24"/>
    <path class="st8" d="m219.7,150l0.1,-0.3l0.7,0.4l-1,1.8l0.2,0.1l0.8,-0.3l-0.2,-0.1l0.1,-0.3l0.9,0.5l-0.1,0.3l-0.3,-0.1l-1,0.3l0.2,1.3l0.2,0.2l-0.1,0.2l-0.9,-0.5l0.1,-0.2l0.2,0.1l-0.2,-1l-0.3,-0.1l-0.1,0.7l0.3,0.2l-0.1,0.2l-1,-0.6l0.1,-0.2l0.4,0.1l1.4,-2.5l-0.4,-0.2z" id="svg_25"/>
    <path class="st8" d="m221.5,154.9c-0.3,-0.2 -0.5,-0.4 -0.5,-0.7s0,-0.6 0.2,-0.9l0,-0.1c0.2,-0.3 0.4,-0.5 0.7,-0.6c0.3,-0.1 0.6,-0.1 0.8,0.1c0.3,0.2 0.5,0.4 0.5,0.6c0,0.3 0,0.5 -0.2,0.8l-0.1,0.2l-1.4,-0.8l0,0c-0.1,0.2 -0.2,0.4 -0.1,0.6c0,0.2 0.1,0.3 0.3,0.4c0.1,0.1 0.3,0.1 0.4,0.1c0.1,0 0.2,0 0.3,0l0,0.3c-0.1,0 -0.3,0 -0.4,0c-0.1,0.2 -0.3,0.1 -0.5,0zm1.1,-1.9c-0.1,-0.1 -0.3,-0.1 -0.4,0c-0.2,0.1 -0.3,0.2 -0.4,0.3l0,0l1,0.6l0,-0.1c0.1,-0.2 0.1,-0.3 0.1,-0.5c-0.1,-0.1 -0.2,-0.2 -0.3,-0.3z" id="svg_26"/>
    <path class="st8" d="m223.9,153.7l0.1,-0.3l0.7,0.4l-0.1,0.3c0.1,-0.1 0.2,-0.1 0.4,-0.1c0.1,0 0.2,0 0.4,0.1c0,0 0.1,0 0.1,0.1c0,0 0.1,0 0.1,0.1l-0.3,0.3l-0.2,-0.1c-0.1,-0.1 -0.2,-0.1 -0.3,-0.1c-0.1,0 -0.2,0 -0.3,0.1l-0.7,1.2l0.3,0.2l-0.1,0.2l-1,-0.6l0.1,-0.2l0.4,0.1l0.9,-1.5l-0.5,-0.2z" id="svg_27"/>
   </g>
   <g id="svg_28">
    <path class="st8" d="m194.3,135.3l0.1,-0.3l0.7,0.4l-1,1.8l0.2,0.1l0.8,-0.3l-0.2,-0.1l0.1,-0.3l0.9,0.5l-0.1,0.3l-0.3,-0.1l-1,0.3l0.2,1.3l0.2,0.2l-0.1,0.2l-0.9,-0.5l0.1,-0.2l0.2,0.1l-0.2,-1l-0.3,-0.1l-0.4,0.7l0.3,0.2l-0.1,0.2l-1,-0.6l0.1,-0.2l0.4,0.1l1.4,-2.5l-0.1,-0.2z" id="svg_29"/>
    <path class="st8" d="m196.8,140.2c-0.1,0.1 -0.3,0.1 -0.4,0.1c-0.1,0 -0.3,0 -0.4,-0.1c-0.2,-0.1 -0.4,-0.3 -0.4,-0.5c0,-0.2 0,-0.5 0.2,-0.8l0.6,-1l-0.2,-0.2l0.1,-0.3l0.2,0.1l0.4,0.2l-0.7,1.3c-0.1,0.2 -0.2,0.4 -0.2,0.5c0,0.1 0.1,0.2 0.2,0.3c0.1,0.1 0.3,0.1 0.4,0.1s0.2,0 0.3,-0.1l0.7,-1.2l-0.3,-0.2l0.1,-0.3l0.3,0.2l0.4,0.2l-1.1,1.8l0.2,0.2l-0.1,0.2l-0.6,-0.3l0.3,-0.2z" id="svg_30"/>
    <path class="st8" d="m200.1,141.2c-0.2,0.3 -0.4,0.5 -0.7,0.6c-0.3,0.1 -0.5,0.1 -0.8,-0.1c-0.1,-0.1 -0.2,-0.2 -0.3,-0.3c-0.1,-0.1 -0.1,-0.2 -0.1,-0.4l-0.2,0.3l-0.3,-0.2l1.6,-2.8l-0.3,-0.2l0.1,-0.3l0.7,0.4l-0.7,1.2c0.1,-0.1 0.2,-0.1 0.4,-0.1c0.1,0 0.3,0 0.4,0.1c0.3,0.2 0.4,0.4 0.4,0.7c0.1,0.4 0,0.7 -0.2,1.1l0,0zm-0.4,-0.3c0.1,-0.2 0.2,-0.5 0.2,-0.7c0,-0.2 -0.1,-0.4 -0.3,-0.5c-0.1,-0.1 -0.2,-0.1 -0.4,-0.1c-0.1,0 -0.2,0.1 -0.3,0.1l-0.5,0.9c0,0.1 0,0.2 0.1,0.3c0.1,0.1 0.1,0.2 0.3,0.3c0.2,0.1 0.4,0.1 0.5,0c0.2,0.1 0.3,0 0.4,-0.3l0,0z" id="svg_31"/>
    <path class="st8" d="m200.9,143c-0.3,-0.2 -0.5,-0.4 -0.5,-0.7s0,-0.6 0.2,-0.9l0,-0.1c0.2,-0.3 0.4,-0.5 0.7,-0.6c0.3,-0.1 0.6,-0.1 0.8,0.1c0.3,0.2 0.5,0.4 0.5,0.6c0,0.3 0,0.5 -0.2,0.8l-0.1,0.2l-1.4,-0.8l0,0c-0.1,0.2 -0.2,0.4 -0.1,0.6c0,0.2 0.1,0.3 0.3,0.4c0.1,0.1 0.3,0.1 0.4,0.1c0.1,0 0.2,0 0.3,0l0,0.3c-0.1,0 -0.3,0 -0.4,0c-0.2,0.2 -0.3,0.1 -0.5,0zm1,-2c-0.1,-0.1 -0.3,-0.1 -0.4,0c-0.2,0.1 -0.3,0.2 -0.4,0.3l0,0l1,0.6l0,-0.1c0.1,-0.2 0.1,-0.3 0.1,-0.5c0,0 -0.1,-0.2 -0.3,-0.3z" id="svg_32"/>
    <path class="st8" d="m203.7,140.8l0.1,-0.3l0.7,0.4l-1.6,2.8l0.3,0.2l-0.1,0.2l-1,-0.6l0.1,-0.2l0.4,0.1l1.4,-2.5l-0.3,-0.1z" id="svg_33"/>
    <path class="st8" d="m204.3,145c-0.3,-0.2 -0.5,-0.4 -0.5,-0.7c-0.1,-0.3 0,-0.6 0.2,-0.9l0,-0.1c0.2,-0.3 0.4,-0.5 0.7,-0.6c0.3,-0.1 0.6,-0.1 0.8,0.1c0.3,0.2 0.5,0.4 0.5,0.6c0,0.3 0,0.5 -0.2,0.8l-0.1,0.2l-1.4,-0.8l0,0c-0.1,0.2 -0.2,0.4 -0.1,0.6c0,0.2 0.1,0.3 0.3,0.4c0.1,0.1 0.3,0.1 0.4,0.1s0.2,0 0.3,0l0,0.3c-0.1,0 -0.3,0 -0.4,0c-0.1,0.1 -0.3,0.1 -0.5,0zm1.1,-2c-0.1,-0.1 -0.3,-0.1 -0.4,0c-0.2,0.1 -0.3,0.2 -0.4,0.3l0,0l1,0.6l0,-0.1c0.1,-0.2 0.1,-0.3 0.1,-0.5c-0.1,-0.1 -0.2,-0.2 -0.3,-0.3z" id="svg_34"/>
    <path class="st8" d="m207.8,143.4l-0.3,0.5l0.4,0.2l-0.2,0.3l-0.4,-0.2l-0.8,1.3c-0.1,0.1 -0.1,0.2 -0.1,0.2c0,0.1 0.1,0.1 0.1,0.2c0,0 0.1,0 0.1,0.1c0,0 0.1,0 0.1,0l-0.1,0.3c-0.1,0 -0.1,0 -0.2,0c-0.1,0 -0.2,-0.1 -0.2,-0.1c-0.2,-0.1 -0.3,-0.2 -0.3,-0.4s0,-0.3 0.1,-0.5l0.8,-1.3l-0.3,-0.2l0.2,-0.3l0.3,0.2l0.3,-0.5l0.5,0.2z" id="svg_35"/>
   </g>
   <polygon class="st16" points="182.3,140.1 146.6,160.7 111,140.1 111,99 146.6,78.4 182.3,99  " id="svg_36"/>
   <polygon class="st13" points="136,154.5 146.6,160.7 182.3,140.1 182.2,127.9  " id="svg_37"/>
   <polygon class="st7" points="163.4,148.6 160.2,143 180.2,131.4 180.2,138.9  " id="svg_38"/>
   <g id="svg_39">
    <path class="st8" d="m164.6,142.5c0.4,-0.2 0.7,-0.3 1.1,-0.2c0.4,0.1 0.6,0.3 0.9,0.7l0.2,0.4c0.2,0.4 0.3,0.7 0.2,1.1c-0.1,0.4 -0.3,0.7 -0.7,0.9l-1.2,0.7l-0.1,-0.2l0.3,-0.2l-1.3,-2.3l-0.4,0.1l-0.1,-0.3l0.3,-0.2l0.8,-0.5zm-0.3,0.6l1.3,2.3l0.5,-0.3c0.3,-0.2 0.4,-0.4 0.5,-0.6c0.1,-0.3 0,-0.5 -0.2,-0.8l-0.2,-0.4c-0.2,-0.3 -0.4,-0.5 -0.6,-0.5c-0.3,-0.1 -0.5,-0.1 -0.8,0.1l-0.5,0.2z" id="svg_40"/>
    <path class="st8" d="m167.3,143.4c-0.2,-0.3 -0.2,-0.6 -0.2,-0.9c0.1,-0.3 0.2,-0.5 0.5,-0.7c0.3,-0.2 0.6,-0.2 0.9,-0.1c0.3,0.1 0.5,0.3 0.7,0.6l0,0c0.2,0.3 0.2,0.6 0.2,0.9c-0.1,0.3 -0.2,0.5 -0.5,0.7c-0.3,0.2 -0.6,0.2 -0.9,0.1c-0.3,0 -0.5,-0.3 -0.7,-0.6l0,0zm0.4,-0.2c0.1,0.2 0.3,0.4 0.5,0.5s0.4,0.1 0.6,0c0.2,-0.1 0.3,-0.3 0.3,-0.5c0,-0.2 0,-0.4 -0.2,-0.6l0,0c-0.1,-0.2 -0.3,-0.4 -0.5,-0.5c-0.2,-0.1 -0.4,-0.1 -0.6,0c-0.2,0.1 -0.3,0.3 -0.3,0.5s0,0.3 0.2,0.6l0,0z" id="svg_41"/>
    <path class="st8" d="m171,142.3c0.1,-0.1 0.2,-0.2 0.3,-0.3c0.1,-0.1 0,-0.3 0,-0.4l0.3,-0.2l0,0c0.1,0.2 0.1,0.4 0,0.6c-0.1,0.2 -0.2,0.4 -0.5,0.6c-0.3,0.2 -0.6,0.2 -0.9,0.1c-0.3,-0.1 -0.5,-0.3 -0.7,-0.6l0,-0.1c-0.2,-0.3 -0.2,-0.6 -0.2,-0.9c0,-0.3 0.2,-0.5 0.5,-0.7c0.2,-0.1 0.3,-0.2 0.5,-0.2s0.3,0 0.5,0l0.3,0.5l-0.3,0.2l-0.3,-0.3c-0.1,0 -0.2,0 -0.2,0c-0.1,0 -0.2,0 -0.3,0.1c-0.2,0.1 -0.3,0.3 -0.3,0.5c0,0.2 0.1,0.4 0.2,0.6l0,0.1c0.1,0.2 0.3,0.4 0.4,0.5c0.3,0.1 0.5,0.1 0.7,-0.1z" id="svg_42"/>
    <path class="st8" d="m170.6,139.1l-0.1,-0.3l0.7,-0.4l1,1.8l0.2,-0.1l0.1,-0.8l-0.2,0.1l-0.1,-0.3l0.9,-0.5l0.1,0.3l-0.2,0.2l-0.2,1l1.2,0.5l0.3,-0.1l0.1,0.2l-0.9,0.5l-0.1,-0.2l0.2,-0.1l-1,-0.4l-0.3,0.1l0.4,0.7l0.4,-0.1l0.1,0.2l-1,0.6l-0.1,-0.2l0.3,-0.2l-1.4,-2.6l-0.4,0.1z" id="svg_43"/>
    <path class="st8" d="m175.8,140c-0.3,0.2 -0.6,0.2 -0.9,0.1c-0.3,-0.1 -0.5,-0.3 -0.7,-0.6l-0.1,-0.1c-0.2,-0.3 -0.2,-0.6 -0.2,-0.9c0.1,-0.3 0.2,-0.5 0.5,-0.7c0.3,-0.2 0.6,-0.2 0.8,-0.1c0.2,0.1 0.5,0.3 0.6,0.6l0.1,0.2l-1.4,0.8l0,0c0.1,0.2 0.3,0.3 0.4,0.4c0.2,0.1 0.4,0.1 0.5,0c0.1,-0.1 0.2,-0.2 0.3,-0.3c0.1,-0.1 0.1,-0.2 0.2,-0.3l0.3,0.2c0,0.1 -0.1,0.2 -0.2,0.4c0.1,0.1 -0.1,0.2 -0.2,0.3zm-1.2,-1.9c-0.1,0.1 -0.2,0.2 -0.2,0.4c0,0.2 0,0.3 0.1,0.5l0,0l1,-0.6l0,-0.1c-0.1,-0.2 -0.2,-0.3 -0.3,-0.3c-0.3,0 -0.4,0 -0.6,0.1z" id="svg_44"/>
    <path class="st8" d="m175.8,137.4l-0.1,-0.3l0.7,-0.4l0.2,0.3c0,-0.1 0,-0.3 0.1,-0.4c0.1,-0.1 0.1,-0.2 0.3,-0.3c0,0 0.1,0 0.1,0c0,0 0.1,0 0.1,0l0.2,0.4l-0.2,0.1c-0.1,0.1 -0.2,0.1 -0.2,0.2s-0.1,0.2 0,0.3l0.7,1.2l0.4,-0.1l0.1,0.2l-1,0.6l-0.1,-0.2l0.3,-0.2l-0.9,-1.5l-0.7,0.1z" id="svg_45"/>
   </g>
   <g id="svg_46">
    <path class="st8" d="m145.1,153.8l-0.1,-0.3l0.7,-0.4l1,1.8l0.2,-0.1l0.1,-0.8l-0.2,0.1l-0.1,-0.3l0.9,-0.5l0.1,0.3l-0.2,0.2l-0.2,1l1.2,0.5l0.3,-0.1l0.1,0.2l-0.9,0.5l-0.1,-0.2l0.2,-0.1l-1,-0.4l-0.3,0.1l0.4,0.7l0.4,-0.1l0.1,0.2l-1,0.6l-0.1,-0.2l0.3,-0.2l-1.4,-2.5l-0.4,0z" id="svg_47"/>
    <path class="st8" d="m150.6,154c0,0.2 0,0.3 -0.1,0.4c-0.1,0.1 -0.2,0.2 -0.3,0.3c-0.2,0.1 -0.5,0.2 -0.7,0.1c-0.2,-0.1 -0.4,-0.3 -0.6,-0.6l-0.6,-1l-0.3,0.1l-0.1,-0.3l0.2,-0.1l0.4,-0.2l0.7,1.3c0.1,0.2 0.3,0.4 0.4,0.4c0.1,0 0.2,0 0.4,-0.1c0.1,-0.1 0.2,-0.2 0.3,-0.3c0.1,-0.1 0.1,-0.2 0.1,-0.4l-0.7,-1.2l-0.3,0.1l-0.1,-0.3l0.3,-0.2l0.4,-0.2l1.1,1.8l0.3,-0.1l0.1,0.2l-0.6,0.3l-0.3,0z" id="svg_48"/>
    <path class="st8" d="m153.1,151.7c0.2,0.3 0.2,0.6 0.2,0.9c0,0.3 -0.2,0.5 -0.4,0.6c-0.1,0.1 -0.3,0.1 -0.4,0.1c-0.1,0 -0.3,0 -0.4,-0.1l0.1,0.3l-0.3,0.2l-1.6,-2.8l-0.4,0.1l-0.1,-0.3l0.7,-0.4l0.7,1.2c0,-0.1 0.1,-0.3 0.1,-0.4c0.1,-0.1 0.2,-0.2 0.3,-0.3c0.3,-0.2 0.5,-0.2 0.8,0c0.3,0.2 0.5,0.5 0.7,0.9l0,0zm-0.4,0.1c-0.1,-0.2 -0.3,-0.4 -0.5,-0.5s-0.4,-0.1 -0.5,0c-0.1,0.1 -0.2,0.2 -0.3,0.3c0,0.1 -0.1,0.2 -0.1,0.3l0.5,0.9c0.1,0.1 0.2,0.1 0.3,0.1c0.1,0 0.2,0 0.4,-0.1c0.2,-0.1 0.3,-0.2 0.3,-0.4c0.1,-0.1 0.1,-0.3 -0.1,-0.6l0,0z" id="svg_49"/>
    <path class="st8" d="m155.1,151.9c-0.3,0.2 -0.6,0.2 -0.9,0.1s-0.5,-0.3 -0.7,-0.6l-0.1,-0.1c-0.2,-0.3 -0.2,-0.6 -0.2,-0.9c0.1,-0.3 0.2,-0.5 0.5,-0.7c0.3,-0.2 0.6,-0.2 0.8,-0.1c0.2,0.1 0.5,0.3 0.6,0.6l0.1,0.2l-1.4,0.8l0,0c0.1,0.2 0.3,0.3 0.4,0.4c0.2,0.1 0.4,0.1 0.5,0c0.1,-0.1 0.2,-0.2 0.3,-0.3c0.1,-0.1 0.1,-0.2 0.2,-0.3l0.3,0.2c0,0.1 -0.1,0.2 -0.2,0.4c0.1,0.1 0,0.2 -0.2,0.3zm-1.2,-1.9c-0.1,0.1 -0.2,0.2 -0.2,0.4c0,0.2 0,0.3 0.1,0.5l0,0l1,-0.6l0,-0.1c-0.1,-0.2 -0.2,-0.3 -0.3,-0.3c-0.3,0 -0.4,0 -0.6,0.1z" id="svg_50"/>
    <path class="st8" d="m154.6,148.4l-0.1,-0.3l0.7,-0.4l1.6,2.8l0.4,-0.1l0.1,0.2l-1,0.6l-0.1,-0.2l0.3,-0.2l-1.4,-2.5l-0.5,0.1z" id="svg_51"/>
    <path class="st8" d="m158.6,149.9c-0.3,0.2 -0.6,0.2 -0.9,0.1c-0.3,-0.1 -0.5,-0.3 -0.7,-0.6l-0.1,-0.1c-0.2,-0.3 -0.2,-0.6 -0.2,-0.9c0.1,-0.3 0.2,-0.5 0.5,-0.7c0.3,-0.2 0.6,-0.2 0.8,-0.1c0.2,0.1 0.5,0.3 0.6,0.6l0.1,0.2l-1.4,0.8l0,0c0.1,0.2 0.3,0.3 0.4,0.4c0.2,0.1 0.4,0.1 0.5,0c0.1,-0.1 0.2,-0.2 0.3,-0.3c0.1,-0.1 0.1,-0.2 0.2,-0.3l0.3,0.2c0,0.1 -0.1,0.2 -0.2,0.4c0.1,0.1 -0.1,0.2 -0.2,0.3zm-1.2,-1.9c-0.1,0.1 -0.2,0.2 -0.2,0.4c0,0.2 0,0.3 0.1,0.5l0,0l1,-0.6l0,-0.1c-0.1,-0.2 -0.2,-0.3 -0.3,-0.3c-0.3,0 -0.5,0 -0.6,0.1z" id="svg_52"/>
    <path class="st8" d="m158.9,146.1l0.3,0.5l0.4,-0.2l0.2,0.3l-0.4,0.2l0.8,1.3c0.1,0.1 0.1,0.2 0.2,0.2c0.1,0 0.1,0 0.2,0c0,0 0.1,0 0.1,-0.1c0,0 0.1,-0.1 0.1,-0.1l0.2,0.2c0,0 -0.1,0.1 -0.1,0.2c-0.1,0.1 -0.1,0.1 -0.2,0.1c-0.2,0.1 -0.3,0.1 -0.5,0.1c-0.1,0 -0.3,-0.2 -0.4,-0.4l-0.7,-1.3l-0.3,0.2l-0.2,-0.3l0.3,-0.2l-0.3,-0.5l0.3,-0.2z" id="svg_53"/>
   </g>
   <polygon class="st16" points="146.2,296.6 110.6,276.1 110.6,234.9 146.2,214.4 181.9,234.9 181.9,276.1  " id="svg_54"/>
   <polygon class="st13" points="135.6,220.5 146.2,214.4 181.9,234.9 181.8,247.2  " id="svg_55"/>
   <polygon class="st7" points="163,226.4 159.8,232.1 179.8,243.6 179.8,236.1  " id="svg_56"/>
   <g id="svg_57">
    <path class="st8" d="m145.8,218.8l0.1,-0.3l0.7,0.4l-1,1.8l0.2,0.1l0.8,-0.3l-0.2,-0.1l0.1,-0.3l0.9,0.5l-0.1,0.3l-0.3,-0.1l-1,0.3l0.2,1.3l0.2,0.2l-0.1,0.2l-0.9,-0.5l0.1,-0.2l0.2,0.1l-0.2,-1l-0.3,-0.1l-0.4,0.7l0.3,0.2l-0.1,0.2l-1,-0.6l0.1,-0.2l0.4,0.1l1.4,-2.5l-0.1,-0.2z" id="svg_58"/>
    <path class="st8" d="m148.4,223.7c-0.1,0.1 -0.3,0.1 -0.4,0.1c-0.1,0 -0.3,0 -0.4,-0.1c-0.2,-0.1 -0.4,-0.3 -0.4,-0.5c0,-0.2 0,-0.5 0.2,-0.8l0.6,-1l-0.2,-0.2l0.1,-0.3l0.2,0.1l0.4,0.2l-0.7,1.3c-0.1,0.2 -0.2,0.4 -0.2,0.5c0,0.1 0.1,0.2 0.2,0.3c0.1,0.1 0.3,0.1 0.4,0.1c0.1,0 0.2,0 0.3,-0.1l0.7,-1.2l-0.3,-0.2l0.1,-0.3l0.3,0.2l0.4,0.2l-1.1,1.8l0.2,0.2l-0.1,0.2l-0.6,-0.3l0.3,-0.2z" id="svg_59"/>
    <path class="st8" d="m151.7,224.7c-0.2,0.3 -0.4,0.5 -0.7,0.6c-0.3,0.1 -0.5,0.1 -0.8,-0.1c-0.1,-0.1 -0.2,-0.2 -0.3,-0.3c-0.1,-0.1 -0.1,-0.2 -0.1,-0.4l-0.2,0.3l-0.3,-0.2l1.6,-2.8l-0.3,-0.2l0.1,-0.3l0.7,0.4l-0.7,1.2c0.1,-0.1 0.2,-0.1 0.4,-0.1c0.1,0 0.3,0 0.4,0.1c0.3,0.2 0.4,0.4 0.4,0.7c0.1,0.4 0,0.7 -0.2,1.1l0,0zm-0.4,-0.3c0.1,-0.2 0.2,-0.5 0.2,-0.7c0,-0.2 -0.1,-0.4 -0.3,-0.5c-0.1,-0.1 -0.2,-0.1 -0.4,-0.1c-0.1,0 -0.2,0.1 -0.3,0.1l-0.5,0.9c0,0.1 0,0.2 0.1,0.3c0.1,0.1 0.1,0.2 0.3,0.3c0.2,0.1 0.4,0.1 0.5,0c0.1,0.1 0.3,-0.1 0.4,-0.3l0,0z" id="svg_60"/>
    <path class="st8" d="m152.5,226.5c-0.3,-0.2 -0.5,-0.4 -0.5,-0.7s0,-0.6 0.2,-0.9l0.1,-0.1c0.2,-0.3 0.4,-0.5 0.7,-0.6c0.3,-0.1 0.6,-0.1 0.8,0.1c0.3,0.2 0.5,0.4 0.5,0.6c0,0.3 0,0.5 -0.2,0.8l-0.1,0.2l-1.4,-0.8l0,0c-0.1,0.2 -0.2,0.4 -0.1,0.6c0,0.2 0.1,0.3 0.3,0.4c0.1,0.1 0.3,0.1 0.4,0.1c0.1,0 0.2,0 0.3,0l0,0.3c-0.1,0 -0.3,0 -0.4,0c-0.3,0.1 -0.5,0.1 -0.6,0zm1,-2c-0.1,-0.1 -0.3,-0.1 -0.4,0c-0.2,0.1 -0.3,0.2 -0.4,0.3l0,0l1,0.6l0,-0.1c0.1,-0.2 0.1,-0.3 0.1,-0.5s-0.1,-0.2 -0.3,-0.3z" id="svg_61"/>
    <path class="st8" d="m155.3,224.3l0.1,-0.3l0.7,0.4l-1.6,2.8l0.3,0.2l-0.1,0.2l-1,-0.6l0.1,-0.2l0.4,0.1l1.4,-2.5l-0.3,-0.1z" id="svg_62"/>
    <path class="st8" d="m155.9,228.5c-0.3,-0.2 -0.5,-0.4 -0.5,-0.7s0,-0.6 0.2,-0.9l0,-0.1c0.2,-0.3 0.4,-0.5 0.7,-0.6c0.3,-0.1 0.6,-0.1 0.8,0.1c0.3,0.2 0.5,0.4 0.5,0.6c0,0.3 0,0.5 -0.2,0.8l-0.1,0.2l-1.4,-0.8l0,0c-0.1,0.2 -0.2,0.4 -0.1,0.6c0,0.2 0.1,0.3 0.3,0.4c0.1,0.1 0.3,0.1 0.4,0.1c0.1,0 0.2,0 0.3,0l0,0.3c-0.1,0 -0.3,0 -0.4,0c-0.1,0.1 -0.3,0.1 -0.5,0zm1.1,-2c-0.1,-0.1 -0.3,-0.1 -0.4,0s-0.3,0.2 -0.4,0.3l0,0l1,0.6l0,-0.1c0.1,-0.2 0.1,-0.3 0.1,-0.5c-0.1,-0.1 -0.2,-0.2 -0.3,-0.3z" id="svg_63"/>
    <path class="st8" d="m159.4,226.9l-0.3,0.5l0.4,0.2l-0.2,0.3l-0.4,-0.2l-0.8,1.3c-0.1,0.1 -0.1,0.2 -0.1,0.2c0,0.1 0.1,0.1 0.1,0.2c0,0 0.1,0 0.1,0.1c0,0 0.1,0 0.1,0l-0.1,0.3c-0.1,0 -0.1,0 -0.2,0c-0.1,0 -0.2,-0.1 -0.2,-0.1c-0.2,-0.1 -0.3,-0.2 -0.3,-0.4s0,-0.3 0.1,-0.5l0.8,-1.3l-0.3,-0.2l0.2,-0.3l0.3,0.2l0.3,-0.5l0.5,0.2z" id="svg_64"/>
   </g>
   <g id="svg_65">
    <path class="st8" d="m166.1,230.5c0.4,0.2 0.6,0.5 0.7,0.9c0.1,0.4 0,0.7 -0.2,1.1l-0.2,0.4c-0.2,0.4 -0.5,0.6 -0.9,0.7s-0.7,0 -1.1,-0.2l-1.2,-0.7l0.1,-0.2l0.4,0.1l1.3,-2.3l-0.3,-0.2l0.1,-0.3l0.3,0.2l1,0.5zm-0.7,0l-1.3,2.3l0.5,0.3c0.3,0.2 0.5,0.2 0.8,0.1c0.3,-0.1 0.5,-0.3 0.6,-0.5l0.2,-0.4c0.2,-0.3 0.2,-0.5 0.2,-0.8c-0.1,-0.3 -0.2,-0.5 -0.5,-0.6l-0.5,-0.4z" id="svg_66"/>
    <path class="st8" d="m166.7,233.2c0.2,-0.3 0.4,-0.5 0.7,-0.6c0.3,-0.1 0.6,-0.1 0.9,0.1c0.3,0.2 0.5,0.4 0.5,0.7c0.1,0.3 0,0.6 -0.2,0.9l0,0c-0.2,0.3 -0.4,0.5 -0.7,0.6c-0.3,0.1 -0.6,0.1 -0.9,-0.1c-0.3,-0.2 -0.5,-0.4 -0.5,-0.7c-0.1,-0.2 0,-0.5 0.2,-0.9l0,0zm0.3,0.3c-0.1,0.2 -0.2,0.4 -0.2,0.6c0,0.2 0.1,0.4 0.3,0.5c0.2,0.1 0.4,0.1 0.5,0c0.2,-0.1 0.3,-0.3 0.5,-0.5l0,0c0.1,-0.2 0.2,-0.4 0.2,-0.6c0,-0.2 -0.1,-0.4 -0.3,-0.5c-0.2,-0.1 -0.4,-0.1 -0.6,0c-0.1,0.1 -0.2,0.2 -0.4,0.5l0,0z" id="svg_67"/>
    <path class="st8" d="m169.4,235.9c0.1,0.1 0.3,0.1 0.4,0.1s0.2,-0.1 0.3,-0.2l0.3,0.2l0,0c-0.1,0.2 -0.3,0.3 -0.5,0.3c-0.3,0 -0.5,0 -0.7,-0.1c-0.3,-0.2 -0.5,-0.4 -0.5,-0.7c0,-0.3 0,-0.6 0.2,-0.9l0,-0.1c0.2,-0.3 0.4,-0.5 0.7,-0.6c0.3,-0.1 0.6,-0.1 0.9,0.1c0.2,0.1 0.3,0.2 0.4,0.4c0.1,0.1 0.2,0.3 0.2,0.4l-0.3,0.5l-0.3,-0.2l0.1,-0.4c0,-0.1 -0.1,-0.1 -0.1,-0.2c-0.1,-0.1 -0.1,-0.1 -0.2,-0.2c-0.2,-0.1 -0.4,-0.1 -0.6,0c-0.2,0.1 -0.3,0.3 -0.4,0.5l0,0.1c-0.1,0.2 -0.2,0.4 -0.2,0.6c0,0.1 0.1,0.3 0.3,0.4z" id="svg_68"/>
    <path class="st8" d="m172.1,234l0.1,-0.3l0.7,0.4l-1,1.8l0.2,0.1l0.8,-0.3l-0.2,-0.1l0.1,-0.3l0.9,0.5l-0.1,0.3l-0.3,-0.1l-1,0.3l0.2,1.3l0.2,0.2l-0.1,0.2l-0.9,-0.5l0.1,-0.2l0.2,0.1l-0.2,-1l-0.3,-0.1l-0.4,0.7l0.3,0.2l-0.1,0.2l-1,-0.6l0.1,-0.2l0.4,0.1l1.4,-2.5l-0.1,-0.2z" id="svg_69"/>
    <path class="st8" d="m173.9,238.9c-0.3,-0.2 -0.5,-0.4 -0.5,-0.7c-0.1,-0.3 0,-0.6 0.2,-0.9l0,-0.1c0.2,-0.3 0.4,-0.5 0.7,-0.6c0.3,-0.1 0.6,-0.1 0.8,0.1c0.3,0.2 0.5,0.4 0.5,0.6c0,0.3 0,0.5 -0.2,0.8l-0.1,0.2l-1.4,-0.8l0,0c-0.1,0.2 -0.2,0.4 -0.1,0.6c0,0.2 0.1,0.3 0.3,0.4c0.1,0.1 0.3,0.1 0.4,0.1c0.1,0 0.2,0 0.3,0l0,0.3c-0.1,0 -0.3,0 -0.4,0c-0.2,0.2 -0.4,0.1 -0.5,0zm1,-2c-0.1,-0.1 -0.3,-0.1 -0.4,0c-0.2,0.1 -0.3,0.2 -0.4,0.3l0,0l1,0.6l0,-0.1c0.1,-0.2 0.1,-0.3 0.1,-0.5c0,0 -0.1,-0.2 -0.3,-0.3z" id="svg_70"/>
    <path class="st8" d="m176.2,237.7l0.1,-0.3l0.7,0.4l-0.1,0.3c0.1,-0.1 0.2,-0.1 0.4,-0.1c0.1,0 0.2,0 0.4,0.1c0,0 0.1,0 0.1,0.1c0,0 0.1,0 0.1,0.1l-0.3,0.3l-0.2,-0.1c-0.1,-0.1 -0.2,-0.1 -0.3,-0.1c-0.1,0 -0.2,0 -0.3,0.1l-0.7,1.2l0.3,0.2l-0.1,0.2l-1,-0.6l0.1,-0.2l0.4,0.1l0.9,-1.5l-0.5,-0.2z" id="svg_71"/>
   </g>
  </g>
  <g id="service"/>
  <g id="pods">
   <circle class="st29" cx="146.2" cy="119.5" r="20.9" id="svg_72"/>
  </g>
  <g id="IP"/>
  <g id="deployments">
   <g id="svg_73">
    <g id="svg_74">
     <circle class="st47" cx="177.4" cy="181.7" r="10.1" id="svg_75"/>
     <g id="svg_76">
      <g id="svg_77">
       <path class="st48" d="m180.9,176c1.9,1.2 3.2,3.3 3.2,5.8c0,3.7 -3,6.7 -6.7,6.7c-3.7,0 -6.7,-3 -6.7,-6.7c0,-2.9 1.9,-5.4 4.5,-6.4" id="svg_78"/>
       <g id="svg_79">
        <polygon class="st42" points="182.1,178.9 181.2,176.2 183.9,175.3 182.4,174.5 179.6,175.4 180.5,178.1       " id="svg_80"/>
       </g>
      </g>
     </g>
     <g id="svg_81">
      <path class="st42" d="m174.8,185.1l0,-6.7l2.3,0c0.8,0 1.5,0.3 2,0.8c0.5,0.5 0.8,1.2 0.8,2l0,1.1c0,0.8 -0.3,1.5 -0.8,2c-0.5,0.5 -1.2,0.8 -2,0.8l-2.3,0zm1.3,-5.7l0,4.7l0.9,0c0.5,0 0.9,-0.2 1.1,-0.5c0.3,-0.3 0.4,-0.8 0.4,-1.3l0,-1.1c0,-0.5 -0.1,-0.9 -0.4,-1.3c-0.3,-0.3 -0.7,-0.5 -1.1,-0.5l-0.9,0z" id="svg_82"/>
     </g>
    </g>
   </g>
  </g>
  <g id="containers_x2F_volumes">
   <g id="svg_83">
    <polygon class="st50" points="136.5,113.9 146.2,108.3 155.9,113.9 146.2,119.5   " id="svg_84"/>
    <polygon class="st50" points="136.5,125.1 136.5,113.9 146.2,119.5 146.2,130.7   " id="svg_85"/>
    <polygon class="st50" points="146.2,130.7 146.2,119.5 155.9,113.9 155.9,125.1   " id="svg_86"/>
   </g>
  </g>
  <g id="labels_x2F_selectors"/>
  <g id="description">
   <g id="svg_87">
    <path class="st42" d="m373.8,200.8l0,0l-2.8,6.8l-0.8,0l-2.8,-6.8l0,0l0.1,3.5l0,2.5l1,0.2l0,0.7l-3.1,0l0,-0.7l1,-0.2l0,-6.8l-1,-0.2l0,-0.7l1,0l1.5,0l2.7,6.9l0,0l2.7,-6.9l2.4,0l0,0.7l-1,0.2l0,6.7l1,0.2l0,0.7l-3.1,0l0,-0.7l1,-0.2l0,-2.5l0.2,-3.4z" id="svg_88"/>
    <path class="st42" d="m380.8,207.6c0,-0.2 -0.1,-0.3 -0.1,-0.5s0,-0.3 0,-0.4c-0.2,0.3 -0.5,0.5 -0.8,0.7s-0.7,0.3 -1.1,0.3c-0.7,0 -1.2,-0.2 -1.5,-0.5s-0.5,-0.8 -0.5,-1.4c0,-0.6 0.2,-1.1 0.7,-1.4s1.2,-0.5 2,-0.5l1.2,0l0,-0.7c0,-0.4 -0.1,-0.7 -0.4,-0.9s-0.6,-0.3 -1,-0.3c-0.3,0 -0.5,0 -0.8,0.1s-0.4,0.2 -0.5,0.3l-0.1,0.7l-0.9,0l0,-1.2c0.3,-0.2 0.6,-0.4 1,-0.6s0.9,-0.2 1.3,-0.2c0.7,0 1.3,0.2 1.7,0.6s0.7,0.9 0.7,1.6l0,3.1c0,0.1 0,0.2 0,0.2s0,0.2 0,0.2l0.5,0.1l0,0.7l-1.4,0zm-1.8,-0.8c0.4,0 0.7,-0.1 1,-0.3s0.5,-0.4 0.7,-0.7l0,-1l-1.2,0c-0.5,0 -0.8,0.1 -1.1,0.3s-0.4,0.5 -0.4,0.8c0,0.3 0.1,0.5 0.3,0.6s0.3,0.3 0.7,0.3z" id="svg_89"/>
    <path class="st42" d="m388.2,203.3l-0.9,0l-0.2,-0.8c-0.1,-0.1 -0.3,-0.2 -0.5,-0.3s-0.5,-0.1 -0.7,-0.1c-0.4,0 -0.7,0.1 -0.9,0.3s-0.3,0.4 -0.3,0.7c0,0.2 0.1,0.4 0.3,0.6s0.5,0.3 1.1,0.4c0.8,0.2 1.4,0.4 1.8,0.7s0.6,0.7 0.6,1.2c0,0.6 -0.2,1 -0.7,1.4s-1,0.5 -1.8,0.5c-0.5,0 -0.9,-0.1 -1.3,-0.2s-0.7,-0.3 -1,-0.5l0,-1.4l0.9,0l0.2,0.8c0.1,0.1 0.3,0.2 0.5,0.3s0.5,0.1 0.7,0.1c0.4,0 0.7,-0.1 1,-0.2s0.3,-0.4 0.3,-0.7c0,-0.3 -0.1,-0.5 -0.3,-0.6s-0.6,-0.3 -1.1,-0.4c-0.8,-0.2 -1.3,-0.4 -1.7,-0.7s-0.6,-0.7 -0.6,-1.2c0,-0.5 0.2,-1 0.7,-1.3s1,-0.5 1.7,-0.5c0.5,0 0.9,0.1 1.3,0.2s0.7,0.3 1,0.5l-0.1,1.2z" id="svg_90"/>
    <path class="st42" d="m391.5,199.8l0,1.5l1.2,0l0,0.9l-1.2,0l0,3.8c0,0.3 0.1,0.5 0.2,0.6s0.3,0.2 0.5,0.2c0.1,0 0.2,0 0.3,0s0.2,0 0.3,-0.1l0.2,0.8c-0.1,0.1 -0.3,0.1 -0.5,0.2s-0.4,0.1 -0.6,0.1c-0.5,0 -0.8,-0.1 -1.1,-0.4s-0.4,-0.7 -0.4,-1.3l0,-3.8l-1,0l0,-0.9l1,0l0,-1.5l1.1,0l0,-0.1z" id="svg_91"/>
    <path class="st42" d="m396.7,207.8c-0.9,0 -1.6,-0.3 -2.1,-0.9s-0.8,-1.4 -0.8,-2.3l0,-0.3c0,-0.9 0.3,-1.7 0.8,-2.3s1.2,-0.9 1.9,-0.9c0.9,0 1.5,0.3 1.9,0.8s0.7,1.2 0.7,2.1l0,0.7l-4.1,0l0,0c0,0.6 0.2,1.1 0.5,1.5s0.7,0.6 1.2,0.6c0.4,0 0.7,-0.1 1,-0.2s0.5,-0.3 0.8,-0.5l0.5,0.8c-0.2,0.2 -0.5,0.4 -0.9,0.6s-0.8,0.3 -1.4,0.3zm-0.1,-5.7c-0.4,0 -0.7,0.2 -1,0.5s-0.4,0.7 -0.5,1.2l0,0l2.9,0l0,-0.2c0,-0.5 -0.1,-0.8 -0.4,-1.1s-0.6,-0.4 -1,-0.4z" id="svg_92"/>
    <path class="st42" d="m400.3,202l0,-0.7l2,0l0.1,0.9c0.2,-0.3 0.4,-0.6 0.7,-0.8s0.6,-0.3 0.9,-0.3c0.1,0 0.2,0 0.3,0s0.2,0 0.2,0l-0.2,1.1l-0.7,0c-0.3,0 -0.6,0.1 -0.8,0.2s-0.4,0.3 -0.5,0.6l0,3.6l1,0.2l0,0.7l-3.1,0l0,-0.7l1,-0.2l0,-4.5l-0.9,-0.1z" id="svg_93"/>
   </g>
   <g id="svg_94">
    <path class="st42" d="m365.4,230.3l1,-0.2l0,-4.5l-1,-0.2l0,-0.7l2,0l0.1,0.9c0.2,-0.3 0.5,-0.6 0.8,-0.8s0.7,-0.3 1.1,-0.3c0.7,0 1.2,0.2 1.6,0.6s0.6,1 0.6,1.9l0,3.1l1,0.2l0,0.7l-3.1,0l0,-0.7l1,-0.2l0,-3.1c0,-0.6 -0.1,-1 -0.3,-1.2s-0.6,-0.4 -1,-0.4c-0.3,0 -0.6,0.1 -0.9,0.2s-0.5,0.4 -0.6,0.7l0,3.7l1,0.2l0,0.7l-3.1,0l0,-0.6l-0.2,0z" id="svg_95"/>
    <path class="st42" d="m373.2,227.8c0,-0.9 0.3,-1.7 0.8,-2.3s1.2,-0.9 2.1,-0.9c0.9,0 1.6,0.3 2.1,0.9s0.8,1.4 0.8,2.3l0,0.1c0,0.9 -0.3,1.7 -0.8,2.3s-1.2,0.9 -2.1,0.9c-0.9,0 -1.6,-0.3 -2.1,-0.9s-0.8,-1.4 -0.8,-2.3l0,-0.1zm1.2,0.1c0,0.7 0.1,1.2 0.4,1.7s0.7,0.7 1.3,0.7c0.5,0 1,-0.2 1.2,-0.7s0.4,-1 0.4,-1.7l0,-0.1c0,-0.7 -0.1,-1.2 -0.4,-1.7s-0.7,-0.7 -1.3,-0.7s-1,0.2 -1.3,0.7s-0.4,1 -0.4,1.7l0,0.1l0.1,0z" id="svg_96"/>
    <path class="st42" d="m384.2,230.3c-0.2,0.3 -0.5,0.5 -0.8,0.7s-0.6,0.2 -1,0.2c-0.8,0 -1.4,-0.3 -1.8,-0.8s-0.7,-1.3 -0.7,-2.2l0,-0.2c0,-1 0.2,-1.8 0.7,-2.5s1,-0.9 1.8,-0.9c0.4,0 0.7,0.1 1,0.2s0.5,0.3 0.7,0.6l0,-2.6l-1,-0.2l0,-0.7l1,0l1.2,0l0,8.2l1,0.2l0,0.7l-2,0l-0.1,-0.7zm-3.1,-2.2c0,0.6 0.1,1.1 0.4,1.5s0.7,0.6 1.2,0.6c0.3,0 0.6,-0.1 0.9,-0.2s0.4,-0.4 0.6,-0.7l0,-2.9c-0.1,-0.3 -0.3,-0.5 -0.6,-0.6s-0.5,-0.2 -0.9,-0.2c-0.6,0 -1,0.2 -1.2,0.7s-0.4,1.1 -0.4,1.8l0,0z" id="svg_97"/>
    <path class="st42" d="m390,231.1c-0.9,0 -1.6,-0.3 -2.1,-0.9s-0.8,-1.4 -0.8,-2.3l0,-0.3c0,-0.9 0.3,-1.7 0.8,-2.3s1.2,-0.9 1.9,-0.9c0.9,0 1.5,0.3 1.9,0.8s0.7,1.2 0.7,2.1l0,0.7l-4.1,0l0,0c0,0.6 0.2,1.1 0.5,1.5s0.7,0.6 1.2,0.6c0.4,0 0.7,-0.1 1,-0.2s0.5,-0.3 0.8,-0.5l0.5,0.8c-0.2,0.2 -0.5,0.4 -0.9,0.6s-0.8,0.3 -1.4,0.3zm-0.1,-5.6c-0.4,0 -0.7,0.2 -1,0.5s-0.4,0.7 -0.5,1.2l0,0l2.9,0l0,-0.2c0,-0.5 -0.1,-0.8 -0.4,-1.1s-0.6,-0.4 -1,-0.4z" id="svg_98"/>
    <path class="st42" d="m396.4,232.7l1,-0.2l0,-7l-1,-0.2l0,-0.7l1.9,0l0.1,0.8c0.2,-0.3 0.5,-0.5 0.8,-0.7s0.7,-0.2 1.1,-0.2c0.8,0 1.4,0.3 1.8,0.9s0.7,1.4 0.7,2.5l0,0.1c0,0.9 -0.2,1.7 -0.7,2.2s-1,0.8 -1.8,0.8c-0.4,0 -0.7,-0.1 -1,-0.2s-0.5,-0.3 -0.8,-0.6l0,2.2l1,0.2l0,0.7l-3.1,0l0,-0.6zm5.2,-4.7c0,-0.7 -0.1,-1.3 -0.4,-1.8s-0.7,-0.7 -1.3,-0.7c-0.3,0 -0.6,0.1 -0.8,0.2s-0.4,0.4 -0.6,0.6l0,3.1c0.1,0.3 0.3,0.5 0.6,0.6s0.5,0.2 0.9,0.2c0.5,0 1,-0.2 1.2,-0.6s0.4,-0.9 0.4,-1.6l0,0z" id="svg_99"/>
    <path class="st42" d="m403.8,225.4l0,-0.7l2,0l0.1,0.9c0.2,-0.3 0.4,-0.6 0.7,-0.8s0.6,-0.3 0.9,-0.3c0.1,0 0.2,0 0.3,0s0.2,0 0.2,0l-0.2,1.1l-0.7,0c-0.3,0 -0.6,0.1 -0.8,0.2s-0.4,0.3 -0.5,0.6l0,3.6l1,0.2l0,0.7l-3.1,0l0,-0.7l1,-0.2l0,-4.5l-0.9,-0.1z" id="svg_100"/>
    <path class="st42" d="m408.7,227.8c0,-0.9 0.3,-1.7 0.8,-2.3s1.2,-0.9 2.1,-0.9c0.9,0 1.6,0.3 2.1,0.9s0.8,1.4 0.8,2.3l0,0.1c0,0.9 -0.3,1.7 -0.8,2.3s-1.2,0.9 -2.1,0.9c-0.9,0 -1.6,-0.3 -2.1,-0.9s-0.8,-1.4 -0.8,-2.3l0,-0.1zm1.2,0.1c0,0.7 0.1,1.2 0.4,1.7s0.7,0.7 1.3,0.7c0.5,0 1,-0.2 1.2,-0.7s0.4,-1 0.4,-1.7l0,-0.1c0,-0.7 -0.1,-1.2 -0.4,-1.7s-0.7,-0.7 -1.3,-0.7s-1,0.2 -1.3,0.7s-0.4,1 -0.4,1.7l0,0.1l0.1,0z" id="svg_101"/>
    <path class="st42" d="m418.3,230.2c0.4,0 0.7,-0.1 1,-0.4s0.4,-0.5 0.4,-0.9l1,0l0,0c0,0.5 -0.2,1 -0.7,1.5s-1.1,0.6 -1.8,0.6c-0.9,0 -1.6,-0.3 -2.1,-0.9s-0.7,-1.4 -0.7,-2.3l0,-0.2c0,-0.9 0.2,-1.7 0.7,-2.3s1.2,-0.9 2.1,-0.9c0.5,0 1,0.1 1.4,0.3s0.7,0.4 1,0.7l0.1,1.4l-0.9,0l-0.3,-1c-0.1,-0.1 -0.3,-0.2 -0.5,-0.3s-0.5,-0.1 -0.7,-0.1c-0.6,0 -1,0.2 -1.3,0.7s-0.4,1 -0.4,1.6l0,0.2c0,0.6 0.1,1.2 0.4,1.6s0.7,0.7 1.3,0.7z" id="svg_102"/>
    <path class="st42" d="m424.8,231.1c-0.9,0 -1.6,-0.3 -2.1,-0.9s-0.8,-1.4 -0.8,-2.3l0,-0.3c0,-0.9 0.3,-1.7 0.8,-2.3s1.2,-0.9 1.9,-0.9c0.9,0 1.5,0.3 1.9,0.8s0.7,1.2 0.7,2.1l0,0.7l-4.1,0l0,0c0,0.6 0.2,1.1 0.5,1.5s0.7,0.6 1.2,0.6c0.4,0 0.7,-0.1 1,-0.2s0.5,-0.3 0.8,-0.5l0.5,0.8c-0.2,0.2 -0.5,0.4 -0.9,0.6s-0.9,0.3 -1.4,0.3zm-0.2,-5.6c-0.4,0 -0.7,0.2 -1,0.5s-0.4,0.7 -0.5,1.2l0,0l2.9,0l0,-0.2c0,-0.5 -0.1,-0.8 -0.4,-1.1s-0.5,-0.4 -1,-0.4z" id="svg_103"/>
    <path class="st42" d="m433.2,226.7l-0.9,0l-0.2,-0.8c-0.1,-0.1 -0.3,-0.2 -0.5,-0.3s-0.5,-0.1 -0.7,-0.1c-0.4,0 -0.7,0.1 -0.9,0.3s-0.3,0.4 -0.3,0.7c0,0.2 0.1,0.4 0.3,0.6s0.5,0.3 1.1,0.4c0.8,0.2 1.4,0.4 1.8,0.7s0.6,0.7 0.6,1.2c0,0.6 -0.2,1 -0.7,1.4s-1,0.5 -1.8,0.5c-0.5,0 -0.9,-0.1 -1.3,-0.2s-0.7,-0.3 -1,-0.5l0,-1.4l0.9,0l0.2,0.8c0.1,0.1 0.3,0.2 0.5,0.3s0.5,0.1 0.7,0.1c0.4,0 0.7,-0.1 1,-0.2s0.3,-0.4 0.3,-0.7c0,-0.3 -0.1,-0.5 -0.3,-0.6s-0.6,-0.3 -1.1,-0.4c-0.8,-0.2 -1.3,-0.4 -1.7,-0.7s-0.6,-0.7 -0.6,-1.2c0,-0.5 0.2,-1 0.7,-1.3s1,-0.5 1.7,-0.5c0.5,0 0.9,0.1 1.3,0.2s0.7,0.3 1,0.5l-0.1,1.2z" id="svg_104"/>
    <path class="st42" d="m439.3,226.7l-0.9,0l-0.2,-0.8c-0.1,-0.1 -0.3,-0.2 -0.5,-0.3s-0.5,-0.1 -0.7,-0.1c-0.4,0 -0.7,0.1 -0.9,0.3s-0.3,0.4 -0.3,0.7c0,0.2 0.1,0.4 0.3,0.6s0.5,0.3 1.1,0.4c0.8,0.2 1.4,0.4 1.8,0.7s0.6,0.7 0.6,1.2c0,0.6 -0.2,1 -0.7,1.4s-1,0.5 -1.8,0.5c-0.5,0 -0.9,-0.1 -1.3,-0.2s-0.7,-0.3 -1,-0.5l0,-1.4l0.9,0l0.2,0.8c0.1,0.1 0.3,0.2 0.5,0.3s0.5,0.1 0.7,0.1c0.4,0 0.7,-0.1 1,-0.2s0.3,-0.4 0.3,-0.7c0,-0.3 -0.1,-0.5 -0.3,-0.6s-0.6,-0.3 -1.1,-0.4c-0.8,-0.2 -1.3,-0.4 -1.7,-0.7s-0.6,-0.7 -0.6,-1.2c0,-0.5 0.2,-1 0.7,-1.3s1,-0.5 1.7,-0.5c0.5,0 0.9,0.1 1.3,0.2s0.7,0.3 1,0.5l-0.1,1.2z" id="svg_105"/>
    <path class="st42" d="m443.5,231.1c-0.9,0 -1.6,-0.3 -2.1,-0.9s-0.8,-1.4 -0.8,-2.3l0,-0.3c0,-0.9 0.3,-1.7 0.8,-2.3s1.2,-0.9 1.9,-0.9c0.9,0 1.5,0.3 1.9,0.8s0.7,1.2 0.7,2.1l0,0.7l-4.1,0l0,0c0,0.6 0.2,1.1 0.5,1.5s0.7,0.6 1.2,0.6c0.4,0 0.7,-0.1 1,-0.2s0.5,-0.3 0.8,-0.5l0.5,0.8c-0.2,0.2 -0.5,0.4 -0.9,0.6s-0.9,0.3 -1.4,0.3zm-0.2,-5.6c-0.4,0 -0.7,0.2 -1,0.5s-0.4,0.7 -0.5,1.2l0,0l2.9,0l0,-0.2c0,-0.5 -0.1,-0.8 -0.4,-1.1s-0.5,-0.4 -1,-0.4z" id="svg_106"/>
    <path class="st42" d="m451.9,226.7l-0.9,0l-0.2,-0.8c-0.1,-0.1 -0.3,-0.2 -0.5,-0.3s-0.5,-0.1 -0.7,-0.1c-0.4,0 -0.7,0.1 -0.9,0.3s-0.3,0.4 -0.3,0.7c0,0.2 0.1,0.4 0.3,0.6s0.5,0.3 1.1,0.4c0.8,0.2 1.4,0.4 1.8,0.7s0.6,0.7 0.6,1.2c0,0.6 -0.2,1 -0.7,1.4s-1,0.5 -1.8,0.5c-0.5,0 -0.9,-0.1 -1.3,-0.2s-0.7,-0.3 -1,-0.5l0,-1.4l0.9,0l0.2,0.8c0.1,0.1 0.3,0.2 0.5,0.3s0.5,0.1 0.7,0.1c0.4,0 0.7,-0.1 1,-0.2s0.3,-0.4 0.3,-0.7c0,-0.3 -0.1,-0.5 -0.3,-0.6s-0.6,-0.3 -1.1,-0.4c-0.8,-0.2 -1.3,-0.4 -1.7,-0.7s-0.6,-0.7 -0.6,-1.2c0,-0.5 0.2,-1 0.7,-1.3s1,-0.5 1.7,-0.5c0.5,0 0.9,0.1 1.3,0.2s0.7,0.3 1,0.5l-0.1,1.2z" id="svg_107"/>
   </g>
   <g id="svg_108">
    <path class="st42" d="m373.8,95l0,0.7l-1,0.2l0,7.6l-1.2,0l-4.1,-6.6l0,0l0,5.7l1,0.2l0,0.7l-3.1,0l0,-0.7l1,-0.2l0,-6.7l-1,-0.2l0,-0.7l1,0l1.2,0l4.1,6.6l0,0l0,-5.7l-1,-0.2l0,-0.7l2.1,0l1,0z" id="svg_109"/>
    <path class="st42" d="m374.7,100.3c0,-0.9 0.3,-1.7 0.8,-2.3s1.2,-0.9 2.1,-0.9c0.9,0 1.6,0.3 2.1,0.9s0.8,1.4 0.8,2.3l0,0.1c0,0.9 -0.3,1.7 -0.8,2.3s-1.2,0.9 -2.1,0.9c-0.9,0 -1.6,-0.3 -2.1,-0.9s-0.8,-1.4 -0.8,-2.3l0,-0.1zm1.2,0.1c0,0.7 0.1,1.2 0.4,1.7s0.7,0.7 1.3,0.7c0.5,0 1,-0.2 1.2,-0.7s0.4,-1 0.4,-1.7l0,-0.1c0,-0.7 -0.1,-1.2 -0.4,-1.7s-0.7,-0.7 -1.3,-0.7s-1,0.2 -1.3,0.7s-0.4,1 -0.4,1.7l0,0.1l0.1,0z" id="svg_110"/>
    <path class="st42" d="m385.7,102.8c-0.2,0.3 -0.5,0.5 -0.8,0.7s-0.6,0.2 -1,0.2c-0.8,0 -1.4,-0.3 -1.8,-0.8s-0.7,-1.3 -0.7,-2.2l0,-0.1c0,-1 0.2,-1.8 0.7,-2.5s1,-0.9 1.8,-0.9c0.4,0 0.7,0.1 1,0.2s0.5,0.3 0.7,0.6l0,-2.6l-1,-0.2l0,-0.7l1,0l1.2,0l0,8.2l1,0.2l0,0.7l-2,0l-0.1,-0.8zm-3.1,-2.2c0,0.6 0.1,1.1 0.4,1.5s0.7,0.6 1.2,0.6c0.3,0 0.6,-0.1 0.9,-0.2s0.4,-0.4 0.6,-0.7l0,-2.9c-0.1,-0.3 -0.3,-0.5 -0.6,-0.6s-0.5,-0.2 -0.9,-0.2c-0.6,0 -1,0.2 -1.2,0.7s-0.4,1.1 -0.4,1.8l0,0z" id="svg_111"/>
    <path class="st42" d="m391.5,103.6c-0.9,0 -1.6,-0.3 -2.1,-0.9s-0.8,-1.4 -0.8,-2.3l0,-0.3c0,-0.9 0.3,-1.7 0.8,-2.3s1.2,-0.9 1.9,-0.9c0.9,0 1.5,0.3 1.9,0.8s0.7,1.2 0.7,2.1l0,0.7l-4.1,0l0,0c0,0.6 0.2,1.1 0.5,1.5s0.7,0.6 1.2,0.6c0.4,0 0.7,-0.1 1,-0.2s0.5,-0.3 0.8,-0.5l0.5,0.8c-0.2,0.2 -0.5,0.4 -0.9,0.6s-0.9,0.3 -1.4,0.3zm-0.2,-5.6c-0.4,0 -0.7,0.2 -1,0.5s-0.4,0.7 -0.5,1.2l0,0l2.9,0l0,-0.2c0,-0.5 -0.1,-0.8 -0.4,-1.1s-0.5,-0.4 -1,-0.4z" id="svg_112"/>
   </g>
   <line class="st62" x1="360" y1="203.9" x2="188.6" y2="203.9" id="svg_113"/>
   <g id="svg_114">
    <path class="st42" d="m369,176.9c1.1,0 2,0.3 2.7,1s1,1.6 1,2.7l0,1.2c0,1.1 -0.3,2 -1,2.7s-1.6,1 -2.7,1l-3.6,0l0,-0.7l1,-0.2l0,-6.7l-1,-0.2l0,-0.7l1,0l2.6,0l0,-0.1zm-1.4,0.9l0,6.7l1.5,0c0.8,0 1.4,-0.3 1.9,-0.8s0.7,-1.2 0.7,-2l0,-1.2c0,-0.8 -0.2,-1.5 -0.7,-2s-1.1,-0.8 -1.9,-0.8l-1.5,0l0,0.1z" id="svg_115"/>
    <path class="st42" d="m376.8,185.5c-0.9,0 -1.6,-0.3 -2.1,-0.9s-0.8,-1.4 -0.8,-2.3l0,-0.3c0,-0.9 0.3,-1.7 0.8,-2.3s1.2,-0.9 1.9,-0.9c0.9,0 1.5,0.3 1.9,0.8s0.7,1.2 0.7,2.1l0,0.7l-4.1,0l0,0c0,0.6 0.2,1.1 0.5,1.5s0.7,0.6 1.2,0.6c0.4,0 0.7,-0.1 1,-0.2s0.5,-0.3 0.8,-0.5l0.5,0.8c-0.2,0.2 -0.5,0.4 -0.9,0.6s-0.9,0.3 -1.4,0.3zm-0.2,-5.6c-0.4,0 -0.7,0.2 -1,0.5s-0.4,0.7 -0.5,1.2l0,0l2.9,0l0,-0.2c0,-0.5 -0.1,-0.8 -0.4,-1.1s-0.5,-0.4 -1,-0.4z" id="svg_116"/>
    <path class="st42" d="m380.2,187.1l1,-0.2l0,-7l-1,-0.2l0,-0.7l1.9,0l0.1,0.8c0.2,-0.3 0.5,-0.5 0.8,-0.7s0.7,-0.2 1.1,-0.2c0.8,0 1.4,0.3 1.8,0.9s0.7,1.4 0.7,2.5l0,0.1c0,0.9 -0.2,1.7 -0.7,2.2s-1,0.8 -1.8,0.8c-0.4,0 -0.7,-0.1 -1,-0.2s-0.5,-0.3 -0.8,-0.6l0,2.2l1,0.2l0,0.7l-3.1,0l0,-0.6zm5.2,-4.8c0,-0.7 -0.1,-1.3 -0.4,-1.8s-0.7,-0.7 -1.3,-0.7c-0.3,0 -0.6,0.1 -0.8,0.2s-0.4,0.4 -0.6,0.6l0,3.1c0.1,0.3 0.3,0.5 0.6,0.6s0.5,0.2 0.9,0.2c0.5,0 1,-0.2 1.2,-0.6s0.4,-0.9 0.4,-1.6l0,0z" id="svg_117"/>
    <path class="st42" d="m387.4,177l0,-0.7l2.1,0l0,8.2l1,0.2l0,0.7l-3.1,0l0,-0.7l1,-0.2l0,-7.3l-1,-0.2z" id="svg_118"/>
    <path class="st42" d="m391.2,182.2c0,-0.9 0.3,-1.7 0.8,-2.3s1.2,-0.9 2.1,-0.9c0.9,0 1.6,0.3 2.1,0.9s0.8,1.4 0.8,2.3l0,0.1c0,0.9 -0.3,1.7 -0.8,2.3s-1.2,0.9 -2.1,0.9c-0.9,0 -1.6,-0.3 -2.1,-0.9s-0.8,-1.4 -0.8,-2.3l0,-0.1zm1.1,0.1c0,0.7 0.1,1.2 0.4,1.7s0.7,0.7 1.3,0.7c0.5,0 1,-0.2 1.2,-0.7s0.4,-1 0.4,-1.7l0,-0.1c0,-0.7 -0.1,-1.2 -0.4,-1.7s-0.7,-0.7 -1.3,-0.7s-1,0.2 -1.3,0.7s-0.4,1 -0.4,1.7l0,0.1l0.1,0z" id="svg_119"/>
    <path class="st42" d="m403.9,179.8l-0.6,0.1l-2.4,6.5c-0.2,0.4 -0.4,0.8 -0.7,1.1s-0.7,0.5 -1.2,0.5c-0.1,0 -0.2,0 -0.4,0s-0.3,0 -0.3,-0.1l0.1,-0.9c0,0 0,0 0.2,0s0.3,0 0.3,0c0.2,0 0.4,-0.1 0.6,-0.3s0.3,-0.5 0.4,-0.7l0.3,-0.7l-2.1,-5.4l-0.6,-0.1l0,-0.7l2.6,0l0,0.7l-0.7,0.1l1.1,3.1l0.2,0.8l0,0l1.3,-3.9l-0.7,-0.1l0,-0.7l2.6,0l0,0.7z" id="svg_120"/>
    <path class="st42" d="m404.4,184.7l1,-0.2l0,-4.5l-1,-0.2l0,-0.7l2,0l0.1,0.8c0.2,-0.3 0.5,-0.5 0.8,-0.7s0.7,-0.2 1.1,-0.2s0.8,0.1 1.1,0.3s0.5,0.5 0.7,0.9c0.2,-0.4 0.5,-0.6 0.8,-0.9s0.7,-0.3 1.1,-0.3c0.6,0 1.2,0.2 1.5,0.7s0.6,1.1 0.6,2l0,2.9l1,0.2l0,0.7l-3.1,0l0,-0.7l1,-0.2l0,-2.9c0,-0.6 -0.1,-1.1 -0.3,-1.3s-0.5,-0.4 -1,-0.4c-0.4,0 -0.7,0.1 -1,0.4s-0.4,0.6 -0.4,1.1l0,3.1l1,0.2l0,0.7l-3.1,0l0,-0.7l1,-0.2l0,-2.9c0,-0.6 -0.1,-1 -0.3,-1.3s-0.5,-0.4 -1,-0.4c-0.4,0 -0.6,0.1 -0.9,0.2s-0.4,0.3 -0.5,0.6l0,3.8l1,0.2l0,0.7l-3.1,0l0,-0.8l-0.1,0z" id="svg_121"/>
    <path class="st42" d="m418.8,185.5c-0.9,0 -1.6,-0.3 -2.1,-0.9s-0.8,-1.4 -0.8,-2.3l0,-0.3c0,-0.9 0.3,-1.7 0.8,-2.3s1.2,-0.9 1.9,-0.9c0.9,0 1.5,0.3 1.9,0.8s0.7,1.2 0.7,2.1l0,0.7l-4.1,0l0,0c0,0.6 0.2,1.1 0.5,1.5s0.7,0.6 1.2,0.6c0.4,0 0.7,-0.1 1,-0.2s0.5,-0.3 0.8,-0.5l0.5,0.8c-0.2,0.2 -0.5,0.4 -0.9,0.6s-0.9,0.3 -1.4,0.3zm-0.2,-5.6c-0.4,0 -0.7,0.2 -1,0.5s-0.4,0.7 -0.5,1.2l0,0l2.9,0l0,-0.2c0,-0.5 -0.1,-0.8 -0.4,-1.1s-0.5,-0.4 -1,-0.4z" id="svg_122"/>
    <path class="st42" d="m422.2,184.7l1,-0.2l0,-4.5l-1,-0.2l0,-0.7l2,0l0.1,0.9c0.2,-0.3 0.5,-0.6 0.8,-0.8s0.7,-0.3 1.1,-0.3c0.7,0 1.2,0.2 1.6,0.6s0.6,1 0.6,1.9l0,3.1l1,0.2l0,0.7l-3.1,0l0,-0.7l1,-0.2l0,-3.1c0,-0.6 -0.1,-1 -0.3,-1.2s-0.6,-0.4 -1,-0.4c-0.3,0 -0.6,0.1 -0.9,0.2s-0.5,0.4 -0.6,0.7l0,3.7l1,0.2l0,0.7l-3.1,0l0,-0.6l-0.2,0z" id="svg_123"/>
    <path class="st42" d="m432.1,177.5l0,1.5l1.2,0l0,0.9l-1.2,0l0,3.8c0,0.3 0.1,0.5 0.2,0.6s0.3,0.2 0.5,0.2c0.1,0 0.2,0 0.3,0s0.2,0 0.3,-0.1l0.2,0.8c-0.1,0.1 -0.3,0.1 -0.5,0.2s-0.4,0.1 -0.6,0.1c-0.5,0 -0.8,-0.1 -1.1,-0.4s-0.4,-0.7 -0.4,-1.3l0,-3.8l-1,0l0,-0.9l1,0l0,-1.5l1.1,0l0,-0.1z" id="svg_124"/>
   </g>
   <line class="st62" x1="360" y1="181.7" x2="181.5" y2="181.7" id="svg_125"/>
   <line class="st62" x1="360" y1="229" x2="159.4" y2="229" id="svg_126"/>
   <line class="st62" x1="360" y1="101.5" x2="242.8" y2="101.5" id="svg_127"/>
   <g id="svg_128">
    <path class="st42" d="m368.5,126.3c0.4,0 0.7,-0.1 1,-0.4s0.4,-0.5 0.4,-0.9l1,0l0,0c0,0.5 -0.2,1 -0.7,1.5s-1.1,0.6 -1.8,0.6c-0.9,0 -1.6,-0.3 -2.1,-0.9s-0.7,-1.4 -0.7,-2.3l0,-0.2c0,-0.9 0.2,-1.7 0.7,-2.3s1.2,-0.9 2.1,-0.9c0.5,0 1,0.1 1.4,0.3s0.7,0.4 1,0.7l0.1,1.4l-0.9,0l-0.3,-1c-0.1,-0.1 -0.3,-0.2 -0.5,-0.3s-0.5,-0.1 -0.7,-0.1c-0.6,0 -1,0.2 -1.3,0.7s-0.4,1 -0.4,1.6l0,0.2c0,0.6 0.1,1.2 0.4,1.6s0.6,0.7 1.3,0.7z" id="svg_129"/>
    <path class="st42" d="m372.1,123.8c0,-0.9 0.3,-1.7 0.8,-2.3s1.2,-0.9 2.1,-0.9c0.9,0 1.6,0.3 2.1,0.9s0.8,1.4 0.8,2.3l0,0.1c0,0.9 -0.3,1.7 -0.8,2.3s-1.2,0.9 -2.1,0.9c-0.9,0 -1.6,-0.3 -2.1,-0.9s-0.8,-1.4 -0.8,-2.3l0,-0.1zm1.1,0.1c0,0.7 0.1,1.2 0.4,1.7s0.7,0.7 1.3,0.7c0.5,0 1,-0.2 1.2,-0.7s0.4,-1 0.4,-1.7l0,-0.1c0,-0.7 -0.1,-1.2 -0.4,-1.7s-0.7,-0.7 -1.3,-0.7s-1,0.2 -1.3,0.7s-0.4,1 -0.4,1.7l0,0.1l0.1,0z" id="svg_130"/>
    <path class="st42" d="m378.6,126.3l1,-0.2l0,-4.5l-1,-0.2l0,-0.7l2,0l0.1,0.9c0.2,-0.3 0.5,-0.6 0.8,-0.8s0.7,-0.3 1.1,-0.3c0.7,0 1.2,0.2 1.6,0.6s0.6,1 0.6,1.9l0,3.1l1,0.2l0,0.7l-3.1,0l0,-0.7l1,-0.2l0,-3.1c0,-0.6 -0.1,-1 -0.3,-1.2s-0.6,-0.4 -1,-0.4c-0.3,0 -0.6,0.1 -0.9,0.2s-0.5,0.4 -0.6,0.7l0,3.7l1,0.2l0,0.7l-3.1,0l0,-0.6l-0.2,0z" id="svg_131"/>
    <path class="st42" d="m388.6,119.2l0,1.5l1.2,0l0,0.9l-1.2,0l0,3.8c0,0.3 0.1,0.5 0.2,0.6s0.3,0.2 0.5,0.2c0.1,0 0.2,0 0.3,0s0.2,0 0.3,-0.1l0.2,0.8c-0.1,0.1 -0.3,0.1 -0.5,0.2s-0.4,0.1 -0.6,0.1c-0.5,0 -0.8,-0.1 -1.1,-0.4s-0.4,-0.7 -0.4,-1.3l0,-3.8l-1,0l0,-0.9l1,0l0,-1.5l1.1,0l0,-0.1z" id="svg_132"/>
    <path class="st42" d="m395.1,127c0,-0.2 -0.1,-0.3 -0.1,-0.5s0,-0.3 0,-0.4c-0.2,0.3 -0.5,0.5 -0.8,0.7s-0.7,0.3 -1.1,0.3c-0.7,0 -1.2,-0.2 -1.5,-0.5s-0.5,-0.8 -0.5,-1.4c0,-0.6 0.2,-1.1 0.7,-1.4s1.2,-0.5 2,-0.5l1.2,0l0,-0.7c0,-0.4 -0.1,-0.7 -0.4,-0.9s-0.6,-0.3 -1,-0.3c-0.3,0 -0.5,0 -0.8,0.1s-0.4,0.2 -0.5,0.3l-0.1,0.7l-0.9,0l0,-1.2c0.3,-0.2 0.6,-0.4 1,-0.6s0.9,-0.2 1.3,-0.2c0.7,0 1.3,0.2 1.7,0.6s0.7,0.9 0.7,1.6l0,3.1c0,0.1 0,0.2 0,0.2s0,0.2 0,0.2l0.5,0.1l0,0.7l-1.4,0zm-1.9,-0.8c0.4,0 0.7,-0.1 1,-0.3s0.5,-0.4 0.7,-0.7l0,-1l-1.2,0c-0.5,0 -0.8,0.1 -1.1,0.3s-0.4,0.5 -0.4,0.8c0,0.3 0.1,0.5 0.3,0.6s0.4,0.3 0.7,0.3z" id="svg_133"/>
    <path class="st42" d="m397.5,126.3l1,-0.2l0,-4.5l-1,-0.2l0,-0.7l2.1,0l0,5.4l1,0.2l0,0.7l-3.1,0l0,-0.7zm2.1,-7.2l-1.2,0l0,-1.2l1.2,0l0,1.2z" id="svg_134"/>
    <path class="st42" d="m401.3,126.3l1,-0.2l0,-4.5l-1,-0.2l0,-0.7l2,0l0.1,0.9c0.2,-0.3 0.5,-0.6 0.8,-0.8s0.7,-0.3 1.1,-0.3c0.7,0 1.2,0.2 1.6,0.6s0.6,1 0.6,1.9l0,3.1l1,0.2l0,0.7l-3.1,0l0,-0.7l1,-0.2l0,-3.1c0,-0.6 -0.1,-1 -0.3,-1.2s-0.6,-0.4 -1,-0.4c-0.3,0 -0.6,0.1 -0.9,0.2s-0.5,0.4 -0.6,0.7l0,3.7l1,0.2l0,0.7l-3.1,0l0,-0.6l-0.2,0z" id="svg_135"/>
    <path class="st42" d="m412,127.2c-0.9,0 -1.6,-0.3 -2.1,-0.9s-0.8,-1.4 -0.8,-2.3l0,-0.3c0,-0.9 0.3,-1.7 0.8,-2.3s1.2,-0.9 1.9,-0.9c0.9,0 1.5,0.3 1.9,0.8s0.7,1.2 0.7,2.1l0,0.7l-4.1,0l0,0c0,0.6 0.2,1.1 0.5,1.5s0.7,0.6 1.2,0.6c0.4,0 0.7,-0.1 1,-0.2s0.5,-0.3 0.8,-0.5l0.5,0.8c-0.2,0.2 -0.5,0.4 -0.9,0.6s-0.8,0.3 -1.4,0.3zm-0.1,-5.7c-0.4,0 -0.7,0.2 -1,0.5s-0.4,0.7 -0.5,1.2l0,0l2.9,0l0,-0.2c0,-0.5 -0.1,-0.8 -0.4,-1.1s-0.6,-0.4 -1,-0.4z" id="svg_136"/>
    <path class="st42" d="m415.6,121.4l0,-0.7l2,0l0.1,0.9c0.2,-0.3 0.4,-0.6 0.7,-0.8s0.6,-0.3 0.9,-0.3c0.1,0 0.2,0 0.3,0s0.2,0 0.2,0l-0.2,1.1l-0.7,0c-0.3,0 -0.6,0.1 -0.8,0.2s-0.4,0.3 -0.5,0.6l0,3.6l1,0.2l0,0.7l-3.1,0l0,-0.7l1,-0.2l0,-4.5l-0.9,-0.1z" id="svg_137"/>
    <path class="st42" d="m420.6,126.3l1,-0.2l0,-4.5l-1,-0.2l0,-0.7l2.1,0l0,5.4l1,0.2l0,0.7l-3.1,0l0,-0.7zm2.1,-7.2l-1.2,0l0,-1.2l1.2,0l0,1.2z" id="svg_138"/>
    <path class="st42" d="m426,126.1l2.6,0l0.1,-1l1,0l0,1.9l-5,0l0,-0.8l3.4,-4.6l-2.3,0l-0.1,1l-1,0l0,-1.9l4.8,0l0,0.8l-3.5,4.6z" id="svg_139"/>
    <path class="st42" d="m433.7,127.2c-0.9,0 -1.6,-0.3 -2.1,-0.9s-0.8,-1.4 -0.8,-2.3l0,-0.3c0,-0.9 0.3,-1.7 0.8,-2.3s1.2,-0.9 1.9,-0.9c0.9,0 1.5,0.3 1.9,0.8s0.7,1.2 0.7,2.1l0,0.7l-4.1,0l0,0c0,0.6 0.2,1.1 0.5,1.5s0.7,0.6 1.2,0.6c0.4,0 0.7,-0.1 1,-0.2s0.5,-0.3 0.8,-0.5l0.5,0.8c-0.2,0.2 -0.5,0.4 -0.9,0.6s-0.9,0.3 -1.4,0.3zm-0.2,-5.7c-0.4,0 -0.7,0.2 -1,0.5s-0.4,0.7 -0.5,1.2l0,0l2.9,0l0,-0.2c0,-0.5 -0.1,-0.8 -0.4,-1.1s-0.5,-0.4 -1,-0.4z" id="svg_140"/>
    <path class="st42" d="m441.5,126.3c-0.2,0.3 -0.5,0.5 -0.8,0.7s-0.6,0.2 -1,0.2c-0.8,0 -1.4,-0.3 -1.8,-0.8s-0.7,-1.3 -0.7,-2.2l0,-0.2c0,-1 0.2,-1.8 0.7,-2.5s1,-0.9 1.8,-0.9c0.4,0 0.7,0.1 1,0.2s0.5,0.3 0.7,0.6l0,-2.6l-1,-0.2l0,-0.7l1,0l1.2,0l0,8.2l1,0.2l0,0.7l-2,0l-0.1,-0.7zm-3.1,-2.2c0,0.6 0.1,1.1 0.4,1.5s0.7,0.6 1.2,0.6c0.3,0 0.6,-0.1 0.9,-0.2s0.4,-0.4 0.6,-0.7l0,-2.9c-0.1,-0.3 -0.3,-0.5 -0.6,-0.6s-0.5,-0.2 -0.9,-0.2c-0.6,0 -1,0.2 -1.2,0.7s-0.4,1.1 -0.4,1.8l0,0z" id="svg_141"/>
    <path class="st42" d="m451.5,127c0,-0.2 -0.1,-0.3 -0.1,-0.5s0,-0.3 0,-0.4c-0.2,0.3 -0.5,0.5 -0.8,0.7s-0.7,0.3 -1.1,0.3c-0.7,0 -1.2,-0.2 -1.5,-0.5s-0.5,-0.8 -0.5,-1.4c0,-0.6 0.2,-1.1 0.7,-1.4s1.2,-0.5 2,-0.5l1.2,0l0,-0.7c0,-0.4 -0.1,-0.7 -0.4,-0.9s-0.6,-0.3 -1,-0.3c-0.3,0 -0.5,0 -0.8,0.1s-0.4,0.2 -0.5,0.3l-0.1,0.7l-0.9,0l0,-1.2c0.3,-0.2 0.6,-0.4 1,-0.6s0.9,-0.2 1.3,-0.2c0.7,0 1.3,0.2 1.7,0.6s0.7,0.9 0.7,1.6l0,3.1c0,0.1 0,0.2 0,0.2s0,0.2 0,0.2l0.5,0.1l0,0.7l-1.4,0zm-1.8,-0.8c0.4,0 0.7,-0.1 1,-0.3s0.5,-0.4 0.7,-0.7l0,-1l-1.2,0c-0.5,0 -0.8,0.1 -1.1,0.3s-0.4,0.5 -0.4,0.8c0,0.3 0.1,0.5 0.3,0.6s0.3,0.3 0.7,0.3z" id="svg_142"/>
    <path class="st42" d="m453.9,128.7l1,-0.2l0,-7l-1,-0.2l0,-0.7l1.9,0l0.1,0.8c0.2,-0.3 0.5,-0.5 0.8,-0.7s0.7,-0.2 1.1,-0.2c0.8,0 1.4,0.3 1.8,0.9s0.7,1.4 0.7,2.5l0,0.1c0,0.9 -0.2,1.7 -0.7,2.2s-1,0.8 -1.8,0.8c-0.4,0 -0.7,-0.1 -1,-0.2s-0.5,-0.3 -0.8,-0.6l0,2.2l1,0.2l0,0.7l-3.1,0l0,-0.6zm5.2,-4.7c0,-0.7 -0.1,-1.3 -0.4,-1.8s-0.7,-0.7 -1.3,-0.7c-0.3,0 -0.6,0.1 -0.8,0.2s-0.4,0.4 -0.6,0.6l0,3.1c0.1,0.3 0.3,0.5 0.6,0.6s0.5,0.2 0.9,0.2c0.5,0 1,-0.2 1.2,-0.6s0.4,-0.9 0.4,-1.6l0,0z" id="svg_143"/>
    <path class="st42" d="m461.1,128.7l1,-0.2l0,-7l-1,-0.2l0,-0.7l1.9,0l0.1,0.8c0.2,-0.3 0.5,-0.5 0.8,-0.7s0.7,-0.2 1.1,-0.2c0.8,0 1.4,0.3 1.8,0.9s0.7,1.4 0.7,2.5l0,0.1c0,0.9 -0.2,1.7 -0.7,2.2s-1,0.8 -1.8,0.8c-0.4,0 -0.7,-0.1 -1,-0.2s-0.5,-0.3 -0.8,-0.6l0,2.2l1,0.2l0,0.7l-3.1,0l0,-0.6zm5.2,-4.7c0,-0.7 -0.1,-1.3 -0.4,-1.8s-0.7,-0.7 -1.3,-0.7c-0.3,0 -0.6,0.1 -0.8,0.2s-0.4,0.4 -0.6,0.6l0,3.1c0.1,0.3 0.3,0.5 0.6,0.6s0.5,0.2 0.9,0.2c0.5,0 1,-0.2 1.2,-0.6s0.4,-0.9 0.4,-1.6l0,0z" id="svg_144"/>
   </g>
   <line class="st62" x1="360" y1="123.7" x2="150.2" y2="123.7" id="svg_145"/>
   <g id="svg_146">
    <path class="st42" d="m120.9,356.9l1,-0.2l0,-6.9l-1,-0.2l0,-1.2l4,0l0,1.2l-1,0.2l0,2.6l0.8,0l1.9,-2.7l-0.6,-0.1l0,-1.2l3.8,0l0,1.2l-1,0.2l-2.4,3.2l2.7,3.8l1,0.2l0,1.2l-3.8,0l0,-1.2l0.6,-0.1l-1.9,-2.9l-1.1,0l0,2.7l1,0.2l0,1.2l-4,0l0,-1.2z" id="svg_147"/>
    <path class="st42" d="m135.6,357.1c-0.2,0.3 -0.5,0.6 -0.9,0.8s-0.7,0.3 -1.2,0.3c-0.8,0 -1.4,-0.2 -1.8,-0.7c-0.4,-0.5 -0.6,-1.2 -0.6,-2.3l0,-3l-0.8,-0.2l0,-1.2l0.8,0l1.9,0l0,4.3c0,0.5 0.1,0.9 0.3,1.1s0.4,0.3 0.8,0.3c0.3,0 0.6,0 0.8,-0.1s0.4,-0.2 0.5,-0.4l0,-3.9l-0.8,-0.2l0,-1.2l0.8,0l1.9,0l0,5.8l0.9,0.2l0,1.2l-2.6,0l0,-0.8z" id="svg_148"/>
    <path class="st42" d="m146,354.6c0,1.1 -0.2,1.9 -0.7,2.6c-0.5,0.6 -1.2,1 -2.1,1c-0.4,0 -0.8,-0.1 -1.1,-0.3s-0.6,-0.4 -0.8,-0.8l-0.1,0.9l-1.7,0l0,-9l-1,-0.2l0,-1.2l3,0l0,3.9c0.2,-0.3 0.5,-0.5 0.7,-0.7s0.6,-0.2 1,-0.2c0.9,0 1.6,0.3 2.1,1c0.5,0.7 0.7,1.6 0.7,2.8l0,0.2zm-1.9,-0.1c0,-0.7 -0.1,-1.3 -0.3,-1.7s-0.6,-0.6 -1.1,-0.6c-0.3,0 -0.6,0.1 -0.8,0.2s-0.4,0.3 -0.5,0.5l0,3c0.1,0.2 0.3,0.4 0.5,0.5c0.2,0.1 0.5,0.2 0.8,0.2c0.5,0 0.8,-0.2 1,-0.5c0.2,-0.4 0.3,-0.9 0.3,-1.5l0,-0.1l0.1,0z" id="svg_149"/>
    <path class="st42" d="m150.3,358.2c-1,0 -1.9,-0.3 -2.5,-1c-0.6,-0.7 -0.9,-1.5 -0.9,-2.5l0,-0.3c0,-1.1 0.3,-1.9 0.9,-2.6c0.6,-0.7 1.4,-1 2.4,-1c1,0 1.7,0.3 2.3,0.9c0.5,0.6 0.8,1.4 0.8,2.4l0,1.1l-4.3,0l0,0c0,0.5 0.2,0.9 0.5,1.2c0.3,0.3 0.7,0.5 1.1,0.5c0.4,0 0.8,0 1.1,-0.1s0.6,-0.2 0.9,-0.4l0.5,1.2c-0.3,0.2 -0.7,0.4 -1.2,0.6s-1,0 -1.6,0zm-0.1,-6c-0.4,0 -0.6,0.1 -0.8,0.4c-0.2,0.3 -0.3,0.6 -0.4,1.1l0,0l2.4,0l0,-0.2c0,-0.4 -0.1,-0.7 -0.3,-1c-0.3,-0.2 -0.6,-0.3 -0.9,-0.3z" id="svg_150"/>
    <path class="st42" d="m154.3,356.9l0.9,-0.2l0,-4.5l-1,-0.2l0,-1.2l2.8,0l0.1,1c0.2,-0.4 0.4,-0.7 0.7,-0.9c0.3,-0.2 0.6,-0.3 0.9,-0.3c0.1,0 0.2,0 0.3,0c0.1,0 0.2,0 0.3,0.1l-0.2,1.8l-0.8,0c-0.3,0 -0.5,0.1 -0.7,0.2c-0.2,0.1 -0.3,0.3 -0.4,0.5l0,3.5l0.9,0.2l0,1.2l-3.8,0l0,-1.2z" id="svg_151"/>
    <path class="st42" d="m159.7,356.9l0.9,-0.2l0,-4.5l-1,-0.2l0,-1.2l2.8,0l0.1,1c0.2,-0.4 0.5,-0.7 0.9,-0.9s0.7,-0.3 1.2,-0.3c0.7,0 1.3,0.2 1.7,0.7c0.4,0.5 0.6,1.2 0.6,2.1l0,3.1l0.9,0.2l0,1.2l-3.7,0l0,-1.2l0.8,-0.2l0,-3.1c0,-0.5 -0.1,-0.8 -0.3,-1c-0.2,-0.2 -0.5,-0.3 -0.9,-0.3c-0.3,0 -0.5,0.1 -0.7,0.2c-0.2,0.1 -0.4,0.3 -0.5,0.4l0,3.9l0.8,0.2l0,1.2l-3.7,0l0,-1.1l0.1,0z" id="svg_152"/>
    <path class="st42" d="m171.9,358.2c-1,0 -1.9,-0.3 -2.5,-1c-0.6,-0.7 -0.9,-1.5 -0.9,-2.5l0,-0.3c0,-1.1 0.3,-1.9 0.9,-2.6c0.6,-0.7 1.4,-1 2.4,-1c1,0 1.7,0.3 2.3,0.9c0.5,0.6 0.8,1.4 0.8,2.4l0,1.1l-4.3,0l0,0c0,0.5 0.2,0.9 0.5,1.2c0.3,0.3 0.7,0.5 1.1,0.5c0.4,0 0.8,0 1.1,-0.1s0.6,-0.2 0.9,-0.4l0.5,1.2c-0.3,0.2 -0.7,0.4 -1.2,0.6s-1.1,0 -1.6,0zm-0.2,-6c-0.4,0 -0.6,0.1 -0.8,0.4c-0.2,0.3 -0.3,0.6 -0.4,1.1l0,0l2.4,0l0,-0.2c0,-0.4 -0.1,-0.7 -0.3,-1c-0.2,-0.2 -0.5,-0.3 -0.9,-0.3z" id="svg_153"/>
    <path class="st42" d="m178.5,349.1l0,1.8l1.3,0l0,1.4l-1.3,0l0,3.7c0,0.3 0.1,0.5 0.2,0.6c0.1,0.1 0.3,0.2 0.5,0.2c0.1,0 0.2,0 0.3,0c0.1,0 0.2,0 0.3,-0.1l0.2,1.4c-0.2,0.1 -0.4,0.1 -0.6,0.1c-0.2,0 -0.4,0 -0.7,0c-0.7,0 -1.2,-0.2 -1.5,-0.6c-0.4,-0.4 -0.5,-0.9 -0.5,-1.7l0,-3.7l-1.1,0l0,-1.4l1.1,0l0,-1.8l1.8,0l0,0.1z" id="svg_154"/>
    <path class="st42" d="m184.2,358.2c-1,0 -1.9,-0.3 -2.5,-1c-0.6,-0.7 -0.9,-1.5 -0.9,-2.5l0,-0.3c0,-1.1 0.3,-1.9 0.9,-2.6c0.6,-0.7 1.4,-1 2.4,-1c1,0 1.7,0.3 2.3,0.9c0.5,0.6 0.8,1.4 0.8,2.4l0,1.1l-4.3,0l0,0c0,0.5 0.2,0.9 0.5,1.2c0.3,0.3 0.7,0.5 1.1,0.5c0.4,0 0.8,0 1.1,-0.1s0.6,-0.2 0.9,-0.4l0.5,1.2c-0.3,0.2 -0.7,0.4 -1.2,0.6s-1,0 -1.6,0zm-0.2,-6c-0.4,0 -0.6,0.1 -0.8,0.4c-0.2,0.3 -0.3,0.6 -0.4,1.1l0,0l2.4,0l0,-0.2c0,-0.4 -0.1,-0.7 -0.3,-1c-0.2,-0.2 -0.5,-0.3 -0.9,-0.3z" id="svg_155"/>
    <path class="st42" d="m193.69375,353.3l-1.3,0l-0.2,-0.9c-0.1,-0.1 -0.3,-0.2 -0.5,-0.3c-0.2,-0.1 -0.4,-0.1 -0.7,-0.1c-0.3,0 -0.6,0.1 -0.8,0.2c-0.2,0.2 -0.3,0.3 -0.3,0.6c0,0.2 0.1,0.4 0.3,0.5s0.6,0.3 1.1,0.4c0.9,0.2 1.5,0.4 2,0.8s0.6,0.8 0.6,1.4c0,0.6 -0.3,1.2 -0.8,1.6c-0.6,0.4 -1.3,0.6 -2.2,0.6c-0.6,0 -1.1,-0.1 -1.5,-0.2c-0.5,-0.2 -0.9,-0.4 -1.2,-0.7l0,-1.6l1.4,0l0.3,0.9c0.1,0.1 0.3,0.2 0.5,0.2c0.2,0 0.4,0.1 0.6,0.1c0.4,0 0.7,-0.1 0.9,-0.2s0.3,-0.3 0.3,-0.6c0,-0.2 -0.1,-0.4 -0.3,-0.6s-0.6,-0.3 -1.1,-0.4c-0.8,-0.2 -1.5,-0.4 -1.9,-0.8s-0.6,-0.8 -0.6,-1.4c0,-0.6 0.2,-1.1 0.7,-1.6s1.2,-0.7 2.1,-0.7c0.6,0 1.1,0.1 1.6,0.2s0.9,0.3 1.2,0.6l-0.2,2z" id="svg_157" fill="black"/>
    <path class="st42" d="m211.9,351.6l-1.4,0l-0.2,-1.3c-0.2,-0.2 -0.4,-0.3 -0.7,-0.5s-0.6,-0.2 -1,-0.2c-0.8,0 -1.5,0.3 -1.9,0.9c-0.5,0.6 -0.7,1.4 -0.7,2.4l0,0.3c0,1 0.2,1.8 0.7,2.4c0.5,0.6 1.1,0.9 1.9,0.9c0.4,0 0.7,-0.1 1,-0.2c0.3,-0.1 0.6,-0.3 0.7,-0.5l0.2,-1.3l1.4,0l0,1.9c-0.4,0.5 -0.9,0.8 -1.5,1.1c-0.6,0.3 -1.3,0.4 -2,0.4c-1.3,0 -2.4,-0.4 -3.2,-1.3s-1.2,-2.1 -1.2,-3.5l0,-0.1c0,-1.4 0.4,-2.6 1.2,-3.5c0.8,-0.9 1.9,-1.4 3.2,-1.4c0.7,0 1.4,0.1 2,0.4c0.6,0.3 1.1,0.6 1.5,1.1l0,2z" id="svg_158"/>
    <path class="st42" d="m212.6,348.8l0,-1.2l3,0l0,9l0.9,0.2l0,1.2l-3.8,0l0,-1.2l0.9,-0.2l0,-7.6l-1,-0.2z" id="svg_159"/>
    <path class="st42" d="m222.2,357.1c-0.2,0.3 -0.5,0.6 -0.9,0.8s-0.7,0.3 -1.2,0.3c-0.8,0 -1.4,-0.2 -1.8,-0.7c-0.4,-0.5 -0.6,-1.2 -0.6,-2.3l0,-3l-0.7,-0.2l0,-1.2l0.8,0l1.9,0l0,4.3c0,0.5 0.1,0.9 0.3,1.1s0.4,0.3 0.8,0.3c0.3,0 0.6,0 0.8,-0.1s0.4,-0.2 0.5,-0.4l0,-3.9l-0.8,-0.2l0,-1.2l0.8,0l1.9,0l0,5.8l0.9,0.2l0,1.2l-2.6,0l-0.1,-0.8z" id="svg_160"/>
    <path class="st42" d="m231.5,353.3l-1.3,0l-0.2,-0.9c-0.1,-0.1 -0.3,-0.2 -0.5,-0.3c-0.2,-0.1 -0.4,-0.1 -0.7,-0.1c-0.3,0 -0.6,0.1 -0.8,0.2c-0.2,0.2 -0.3,0.3 -0.3,0.6c0,0.2 0.1,0.4 0.3,0.5s0.6,0.3 1.1,0.4c0.9,0.2 1.5,0.4 2,0.8s0.6,0.8 0.6,1.4c0,0.6 -0.3,1.2 -0.8,1.6c-0.6,0.4 -1.3,0.6 -2.2,0.6c-0.6,0 -1.1,-0.1 -1.5,-0.2c-0.5,-0.2 -0.9,-0.4 -1.2,-0.7l0,-1.6l1.4,0l0.3,0.9c0.1,0.1 0.3,0.2 0.5,0.2c0.2,0 0.4,0.1 0.6,0.1c0.4,0 0.7,-0.1 0.9,-0.2s0.3,-0.3 0.3,-0.6c0,-0.2 -0.1,-0.4 -0.3,-0.6s-0.6,-0.3 -1.1,-0.4c-0.8,-0.2 -1.5,-0.4 -1.9,-0.8s-0.6,-0.8 -0.6,-1.4c0,-0.6 0.2,-1.1 0.7,-1.6s1.2,-0.7 2.1,-0.7c0.6,0 1.1,0.1 1.6,0.2s0.9,0.3 1.2,0.6l-0.2,2z" id="svg_161"/>
    <path class="st42" d="m235.5,349.1l0,1.8l1.3,0l0,1.4l-1.3,0l0,3.7c0,0.3 0.1,0.5 0.2,0.6c0.1,0.1 0.3,0.2 0.5,0.2c0.1,0 0.2,0 0.3,0c0.1,0 0.2,0 0.3,-0.1l0.2,1.4c-0.2,0.1 -0.4,0.1 -0.6,0.1c-0.2,0 -0.4,0 -0.7,0c-0.7,0 -1.2,-0.2 -1.5,-0.6c-0.4,-0.4 -0.5,-0.9 -0.5,-1.7l0,-3.7l-1.1,0l0,-1.4l1.1,0l0,-1.8l1.8,0l0,0.1z" id="svg_162"/>
    <path class="st42" d="m241.2,358.2c-1,0 -1.9,-0.3 -2.5,-1c-0.6,-0.7 -0.9,-1.5 -0.9,-2.5l0,-0.3c0,-1.1 0.3,-1.9 0.9,-2.6c0.6,-0.7 1.4,-1 2.4,-1c1,0 1.7,0.3 2.3,0.9c0.5,0.6 0.8,1.4 0.8,2.4l0,1.1l-4.3,0l0,0c0,0.5 0.2,0.9 0.5,1.2c0.3,0.3 0.7,0.5 1.1,0.5c0.4,0 0.8,0 1.1,-0.1s0.6,-0.2 0.9,-0.4l0.5,1.2c-0.3,0.2 -0.7,0.4 -1.2,0.6s-1,0 -1.6,0zm-0.2,-6c-0.4,0 -0.6,0.1 -0.8,0.4c-0.2,0.3 -0.3,0.6 -0.4,1.1l0,0l2.4,0l0,-0.2c0,-0.4 -0.1,-0.7 -0.3,-1c-0.2,-0.2 -0.5,-0.3 -0.9,-0.3z" id="svg_163"/>
    <path class="st42" d="m245.1,356.9l0.9,-0.2l0,-4.5l-1,-0.2l0,-1.2l2.8,0l0.1,1c0.2,-0.4 0.4,-0.7 0.7,-0.9c0.3,-0.2 0.6,-0.3 0.9,-0.3c0.1,0 0.2,0 0.3,0c0.1,0 0.2,0 0.3,0.1l-0.2,1.8l-0.8,0c-0.3,0 -0.5,0.1 -0.7,0.2c-0.2,0.1 -0.3,0.3 -0.4,0.5l0,3.5l0.9,0.2l0,1.2l-3.8,0l0,-1.2z" id="svg_164"/>
   </g>
  </g>
  <g id="Layer_14"/>
 </g>
</svg>
