<?xml version="1.0"?>
<svg width="476.1" height="385.3" xmlns="http://www.w3.org/2000/svg" xmlns:svg="http://www.w3.org/2000/svg" xmlns:xlink="http://www.w3.org/1999/xlink">
 <style type="text/css">.st0{fill:#FFFFFF;stroke:#006DE9;stroke-linecap:round;stroke-linejoin:round;stroke-miterlimit:10;}
	.st1{fill:#FFFFFF;stroke:#006DE9;stroke-width:6;stroke-linecap:round;stroke-linejoin:round;stroke-miterlimit:10;}
	.st2{fill:#FFFFFF;stroke:#326DE6;stroke-width:2;stroke-linecap:round;stroke-linejoin:round;stroke-miterlimit:10;}
	.st3{opacity:0.71;fill:#326CE6;}
	.st4{opacity:0.45;fill:#FFFFFF;}
	.st5{fill:#FFFFFF;stroke:#006DE9;stroke-width:2;stroke-linecap:round;stroke-linejoin:round;stroke-miterlimit:10;}
	.st6{fill:#006DE9;}
	.st7{fill:#A0CAEA;}
	.st8{fill:#FFFFFF;}
	.st9{opacity:0.13;}
	.st10{fill:url(#SVGID_1_);}
	.st11{fill:url(#SVGID_2_);}
	.st12{fill:#FFFFFF;stroke:#326DE6;stroke-width:3.2;stroke-linecap:round;stroke-linejoin:round;stroke-miterlimit:10;}
	.st13{fill:#326DE6;}
	.st14{fill:none;stroke:#326DE6;stroke-width:2.4;stroke-miterlimit:10;}
	.st15{fill:#A0CAE9;}
	.st16{fill:#FFFFFF;stroke:#326DE6;stroke-width:1.6;stroke-linecap:round;stroke-linejoin:round;stroke-miterlimit:10;}
	.st17{fill:#FFFFFF;stroke:#326DE6;stroke-width:1.6;stroke-miterlimit:10;}
	.st18{fill:none;stroke:#06F7C9;stroke-width:2;stroke-miterlimit:10;}
	.st19{fill:none;stroke:#06F7C9;stroke-width:2;stroke-miterlimit:10;stroke-dasharray:2.3749,1.5832;}
	.st20{fill:none;stroke:#06F7C9;stroke-width:2;stroke-miterlimit:10;stroke-dasharray:2.4006,1.6004;}
	.st21{fill:none;stroke:#EEF406;stroke-width:2;stroke-miterlimit:10;stroke-dasharray:2.4,1.6;}
	.st22{fill:none;stroke:#EEF406;stroke-width:2;stroke-miterlimit:10;}
	.st23{fill:none;stroke:#EEF406;stroke-width:2;stroke-miterlimit:10;stroke-dasharray:2.3975,1.5984;}
	.st24{fill:none;stroke:#EEF406;stroke-width:2;stroke-miterlimit:10;stroke-dasharray:2.395,1.5966;}
	.st25{fill:none;stroke:#EEF406;stroke-width:2;stroke-miterlimit:10;stroke-dasharray:2.3963,1.5976;}
	.st26{opacity:0.1;fill:#EEF406;}
	.st27{opacity:2.000000e-02;fill:#EEF406;}
	.st28{opacity:0.1;fill:#06F7C9;}
	.st29{fill:none;stroke:#006DE9;stroke-width:0.8;stroke-miterlimit:10;}
	.st30{opacity:0.1;fill:url(#SVGID_3_);}
	.st31{opacity:0.1;fill:url(#SVGID_4_);}
	.st32{opacity:0.1;fill:url(#SVGID_5_);}
	.st33{opacity:0.1;fill:url(#SVGID_6_);}
	.st34{fill:none;stroke:#326DE6;stroke-width:1.2;stroke-miterlimit:10;}
	.st35{opacity:0.1;fill:url(#SVGID_7_);}
	.st36{opacity:0.1;fill:url(#SVGID_8_);}
	.st37{opacity:0.1;fill:url(#SVGID_9_);}
	.st38{opacity:0.1;fill:url(#SVGID_10_);}
	.st39{fill:none;stroke:#326DE6;stroke-width:2;stroke-miterlimit:10;}
	.st40{opacity:0.4;fill:none;stroke:#EEF406;stroke-width:2;stroke-miterlimit:10;}
	.st41{fill:none;stroke:#EEF406;stroke-width:2.4596;stroke-miterlimit:10;}
	.st42{fill:#011F38;}
	.st43{opacity:0.4;}
	.st44{opacity:0.1;}
	.st45{fill:#326DE6;stroke:#EEF406;stroke-width:2;stroke-miterlimit:10;}
	.st46{fill:none;stroke:#FFFFFF;stroke-width:1.2;stroke-linecap:round;stroke-linejoin:round;}
	.st47{fill:#06F7C9;stroke:#FFFFFF;stroke-width:0.3;stroke-linecap:round;stroke-linejoin:round;stroke-miterlimit:10;}
	.st48{fill:none;stroke:#011F38;stroke-width:1.2;stroke-linecap:round;stroke-linejoin:round;}
	.st49{fill:#326DE6;stroke:#06F7C9;stroke-width:2;stroke-miterlimit:10;}
	.st50{fill:#06F7C9;stroke:#011F38;stroke-width:0.8;stroke-linecap:round;stroke-linejoin:round;stroke-miterlimit:10;}
	.st51{fill:#8115FF;stroke:#011F38;stroke-width:0.8;stroke-linecap:round;stroke-linejoin:round;stroke-miterlimit:10;}
	.st52{opacity:0.3;}
	.st53{opacity:0.2;fill:#6D6E71;}
	.st54{fill:#EEF406;}
	.st55{fill:#06F7C9;}
	.st56{fill:#FFFFFF;stroke:#06F7C9;stroke-width:2;stroke-miterlimit:10;stroke-dasharray:2.4,1.6;}
	.st57{fill:#FFFFFF;stroke:#EEF406;stroke-width:1.6;stroke-miterlimit:10;stroke-dasharray:2.4,1.6;}
	.st58{fill:none;stroke:#06F7C9;stroke-width:2;stroke-miterlimit:10;stroke-dasharray:2.4938,1.6626;}
	.st59{fill:none;stroke:#06F7C9;stroke-width:2;stroke-miterlimit:10;stroke-dasharray:2.0084,1.3389;}
	.st60{fill:none;stroke:#06F7C9;stroke-width:2;stroke-miterlimit:10;stroke-dasharray:2.724,1.816;}
	.st61{fill:#011F38;stroke:#414042;stroke-width:0.3;stroke-linecap:round;stroke-linejoin:round;stroke-miterlimit:10;}
	.st62{fill:none;stroke:#011F38;stroke-width:0.3;stroke-linecap:round;stroke-linejoin:round;stroke-miterlimit:10;}
	.st63{fill:none;stroke:#011F38;stroke-width:0.2813;stroke-linecap:round;stroke-linejoin:round;stroke-miterlimit:10;}</style>
 <symbol viewBox="-68.6 -66.9 137.2 133.9" id="master_x5F_level1_1_">
  <g id="svg_1">
   <g id="svg_2">
    <line id="svg_3" y2="0.7" x2="0" y1="-11.1" x1="0" class="st0"/>
    <line id="svg_4" y2="-5.2" x2="-5.9" y1="-5.2" x1="5.9" class="st0"/>
   </g>
   <polygon id="svg_5" points="-29.2,-63.9 -65.6,-18.3 -52.6,38.6 0,63.9 52.6,38.6 65.6,-18.3 29.2,-63.9   " class="st1"/>
  </g>
 </symbol>
 <symbol viewBox="-81 -93 162 186.1" id="node_high_level">
  <polygon id="svg_6" points="-80,-46 -80,46 0,92 80,46 80,-46 0,-92  " class="st2"/>
  <g id="Isolation_Mode_3_"/>
 </symbol>
 <symbol viewBox="-87.5 -100.6 175.1 201.1" id="node_x5F_empty">
  <use transform="matrix(1.0808,0,0,1.0808,-0.00003292006,-0.00003749943) " y="-93" x="-81" id="XMLID_201_" height="186.1" width="162" xlink:href="#node_high_level"/>
  <g id="svg_7">
   <polygon id="svg_8" points="76.8,-28.1 -14,-80.3 0,-88.3 76.7,-44.4   " class="st3"/>
   <polygon id="svg_9" points="76.8,-28.1 32.1,-53.8 38.8,-66.1 76.7,-44.4   " class="st4"/>
  </g>
 </symbol>
 <symbol viewBox="-87.6 -101 175.2 202" id="node_x5F_new">
  <polygon id="svg_10" points="0,-100 -86.6,-50 -86.6,50 0,100 86.6,50 86.6,-50  " class="st5"/>
  <polygon id="svg_11" points="-86.6,-20.2 -86.6,-50 0,-100 25.8,-85.1  " class="st6"/>
  <polygon id="svg_12" points="-40.8,-70.7 -32.9,-57 15.7,-85.1 0,-94.3  " class="st7"/>
  <text id="svg_13" font-family="&#x27;RobotoSlab-Regular'" font-size="11.3632px" class="st8" transform="matrix(0.866,-0.5,-0.5,-0.866,-33.9256,-70.7388) ">Docker</text>
  <text id="svg_14" font-family="&#x27;RobotoSlab-Regular'" font-size="11.3632px" class="st8" transform="matrix(0.866,-0.5,-0.5,-0.866,-76.0668,-46.4087) ">Kubelt</text>
 </symbol>
 <g>
  <title>Layer 1</title>
  <g id="CLUSTER">
   <g class="st9" id="XMLID_296_">
    <g id="svg_15">
     <linearGradient y2="185.2931" x2="343.0902" y1="185.2931" x1="28.6348" gradientUnits="userSpaceOnUse" id="SVGID_1_">
      <stop stop-color="#326DE6" offset="0"/>
      <stop stop-color="#10FFC6" offset="1"/>
     </linearGradient>
     <polygon id="svg_16" points="311.9,92.7 343.1,229.2 255.8,338.6 115.9,338.6 28.6,229.2 59.8,92.7 185.9,32    " class="st10"/>
    </g>
   </g>
  </g>
  <g id="master">
   <use id="svg_17" transform="matrix(0.4,0,0,-0.4,185.8606,187.2514) " y="-66.9" x="-68.6" height="133.9" width="137.2" xlink:href="#master_x5F_level1_1_"/>
   <g id="master_x5F_level1"/>
  </g>
  <g id="description">
   <g id="svg_72">
    <path id="svg_73" d="m374.4,188.6l0,0l-2.8,6.8l-0.8,0l-2.8,-6.8l0,0l0.1,3.5l0,2.5l1,0.2l0,0.7l-3.1,0l0,-0.7l1,-0.2l0,-6.7l-1,-0.2l0,-0.7l1,0l1.5,0l2.7,6.9l0,0l2.7,-6.9l2.4,0l0,0.7l-1,0.2l0,6.7l1,0.2l0,0.7l-3.1,0l0,-0.7l1,-0.2l0,-2.6l0.2,-3.4z" class="st42"/>
    <path id="svg_74" d="m381.5,195.4c0,-0.2 -0.1,-0.3 -0.1,-0.5s0,-0.3 0,-0.4c-0.2,0.3 -0.5,0.5 -0.8,0.7s-0.7,0.3 -1.1,0.3c-0.7,0 -1.2,-0.2 -1.5,-0.5s-0.5,-0.8 -0.5,-1.4c0,-0.6 0.2,-1.1 0.7,-1.4s1.2,-0.5 2,-0.5l1.2,0l0,-0.7c0,-0.4 -0.1,-0.7 -0.4,-0.9s-0.6,-0.3 -1,-0.3c-0.3,0 -0.5,0 -0.8,0.1s-0.4,0.2 -0.5,0.3l-0.1,0.7l-0.9,0l0,-1.2c0.3,-0.2 0.6,-0.4 1,-0.6s0.9,-0.2 1.3,-0.2c0.7,0 1.3,0.2 1.7,0.6s0.7,0.9 0.7,1.6l0,3.1c0,0.1 0,0.2 0,0.2s0,0.2 0,0.2l0.5,0.1l0,0.7l-1.4,0zm-1.9,-0.8c0.4,0 0.7,-0.1 1,-0.3s0.5,-0.4 0.7,-0.7l0,-1l-1.2,0c-0.5,0 -0.8,0.1 -1.1,0.3s-0.4,0.5 -0.4,0.8c0,0.3 0.1,0.5 0.3,0.6s0.4,0.3 0.7,0.3z" class="st42"/>
    <path id="svg_75" d="m388.8,191.1l-0.9,0l-0.2,-0.8c-0.1,-0.1 -0.3,-0.2 -0.5,-0.3s-0.5,-0.1 -0.7,-0.1c-0.4,0 -0.7,0.1 -0.9,0.3s-0.3,0.4 -0.3,0.7c0,0.2 0.1,0.4 0.3,0.6s0.5,0.3 1.1,0.4c0.8,0.2 1.4,0.4 1.8,0.7s0.6,0.7 0.6,1.2c0,0.6 -0.2,1 -0.7,1.4s-1,0.5 -1.8,0.5c-0.5,0 -0.9,-0.1 -1.3,-0.2s-0.7,-0.3 -1,-0.5l0,-1.4l0.9,0l0.2,0.8c0.1,0.1 0.3,0.2 0.5,0.3s0.5,0.1 0.7,0.1c0.4,0 0.7,-0.1 1,-0.2s0.3,-0.4 0.3,-0.7c0,-0.3 -0.1,-0.5 -0.3,-0.6s-0.6,-0.3 -1.1,-0.4c-0.8,-0.2 -1.3,-0.4 -1.7,-0.7s-0.6,-0.7 -0.6,-1.2c0,-0.5 0.2,-1 0.7,-1.3s1,-0.5 1.7,-0.5c0.5,0 0.9,0.1 1.3,0.2s0.7,0.3 1,0.5l-0.1,1.2z" class="st42"/>
    <path id="svg_76" d="m392.1,187.5l0,1.5l1.2,0l0,0.9l-1.2,0l0,3.8c0,0.3 0.1,0.5 0.2,0.6s0.3,0.2 0.5,0.2c0.1,0 0.2,0 0.3,0s0.2,0 0.3,-0.1l0.2,0.8c-0.1,0.1 -0.3,0.1 -0.5,0.2s-0.4,0.1 -0.6,0.1c-0.5,0 -0.8,-0.1 -1.1,-0.4s-0.4,-0.7 -0.4,-1.3l0,-3.8l-1,0l0,-0.9l1,0l0,-1.5l1.1,0l0,-0.1z" class="st42"/>
    <path id="svg_77" d="m397.4,195.5c-0.9,0 -1.6,-0.3 -2.1,-0.9s-0.8,-1.4 -0.8,-2.3l0,-0.3c0,-0.9 0.3,-1.7 0.8,-2.3s1.2,-0.9 1.9,-0.9c0.9,0 1.5,0.3 1.9,0.8s0.7,1.2 0.7,2.1l0,0.7l-4.1,0l0,0c0,0.6 0.2,1.1 0.5,1.5s0.7,0.6 1.2,0.6c0.4,0 0.7,-0.1 1,-0.2s0.5,-0.3 0.8,-0.5l0.5,0.8c-0.2,0.2 -0.5,0.4 -0.9,0.6s-0.9,0.3 -1.4,0.3zm-0.2,-5.6c-0.4,0 -0.7,0.2 -1,0.5s-0.4,0.7 -0.5,1.2l0,0l2.9,0l0,-0.2c0,-0.5 -0.1,-0.8 -0.4,-1.1s-0.5,-0.4 -1,-0.4z" class="st42"/>
    <path id="svg_78" d="m400.9,189.8l0,-0.7l2,0l0.1,0.9c0.2,-0.3 0.4,-0.6 0.7,-0.8s0.6,-0.3 0.9,-0.3c0.1,0 0.2,0 0.3,0s0.2,0 0.2,0l-0.2,1.1l-0.7,0c-0.3,0 -0.6,0.1 -0.8,0.2s-0.4,0.3 -0.5,0.6l0,3.6l1,0.2l0,0.7l-3.1,0l0,-0.7l1,-0.2l0,-4.4l-0.9,-0.2z" class="st42"/>
   </g>
   <g id="svg_79">
    <path id="svg_80" d="m366,230.1l1,-0.2l0,-4.5l-1,-0.2l0,-0.7l2,0l0.1,0.9c0.2,-0.3 0.5,-0.6 0.8,-0.8s0.7,-0.3 1.1,-0.3c0.7,0 1.2,0.2 1.6,0.6s0.6,1 0.6,1.9l0,3.1l1,0.2l0,0.7l-3.2,0l0,-0.7l1,-0.2l0,-3.1c0,-0.6 -0.1,-1 -0.3,-1.2s-0.6,-0.4 -1,-0.4c-0.3,0 -0.6,0.1 -0.9,0.2s-0.5,0.4 -0.6,0.7l0,3.7l1,0.2l0,0.7l-3.2,0l0,-0.6z" class="st42"/>
    <path id="svg_81" d="m373.9,227.6c0,-0.9 0.3,-1.7 0.8,-2.3s1.2,-0.9 2.1,-0.9c0.9,0 1.6,0.3 2.1,0.9s0.8,1.4 0.8,2.3l0,0.1c0,0.9 -0.3,1.7 -0.8,2.3s-1.2,0.9 -2.1,0.9c-0.9,0 -1.6,-0.3 -2.1,-0.9s-0.8,-1.4 -0.8,-2.3l0,-0.1zm1.1,0.1c0,0.7 0.1,1.2 0.4,1.7s0.7,0.7 1.3,0.7c0.5,0 1,-0.2 1.2,-0.7s0.4,-1 0.4,-1.7l0,-0.1c0,-0.7 -0.1,-1.2 -0.4,-1.7s-0.7,-0.7 -1.3,-0.7s-1,0.2 -1.3,0.7s-0.4,1 -0.4,1.7l0,0.1l0.1,0z" class="st42"/>
    <path id="svg_82" d="m384.9,230c-0.2,0.3 -0.5,0.5 -0.8,0.7s-0.6,0.2 -1,0.2c-0.8,0 -1.4,-0.3 -1.8,-0.8s-0.7,-1.3 -0.7,-2.2l0,-0.1c0,-1 0.2,-1.8 0.7,-2.5s1,-0.9 1.8,-0.9c0.4,0 0.7,0.1 1,0.2s0.5,0.3 0.7,0.6l0,-2.6l-1,-0.2l0,-0.7l1,0l1.2,0l0,8.2l1,0.2l0,0.7l-2,0l-0.1,-0.8zm-3.2,-2.1c0,0.6 0.1,1.1 0.4,1.5s0.7,0.6 1.2,0.6c0.3,0 0.6,-0.1 0.9,-0.2s0.4,-0.4 0.6,-0.7l0,-2.9c-0.1,-0.3 -0.3,-0.5 -0.6,-0.6s-0.5,-0.2 -0.9,-0.2c-0.6,0 -1,0.2 -1.2,0.7s-0.4,1.1 -0.4,1.8l0,0z" class="st42"/>
    <path id="svg_83" d="m390.7,230.9c-0.9,0 -1.6,-0.3 -2.1,-0.9s-0.8,-1.4 -0.8,-2.3l0,-0.3c0,-0.9 0.3,-1.7 0.8,-2.3s1.2,-0.9 1.9,-0.9c0.9,0 1.5,0.3 1.9,0.8s0.7,1.2 0.7,2.1l0,0.7l-4.1,0l0,0c0,0.6 0.2,1.1 0.5,1.5s0.7,0.6 1.2,0.6c0.4,0 0.7,-0.1 1,-0.2s0.5,-0.3 0.8,-0.5l0.5,0.8c-0.2,0.2 -0.5,0.4 -0.9,0.6s-0.9,0.3 -1.4,0.3zm-0.2,-5.6c-0.4,0 -0.7,0.2 -1,0.5s-0.4,0.7 -0.5,1.2l0,0l2.9,0l0,-0.2c0,-0.5 -0.1,-0.8 -0.4,-1.1s-0.5,-0.4 -1,-0.4z" class="st42"/>
    <path id="svg_84" d="m397.1,232.5l1,-0.2l0,-7l-1,-0.2l0,-0.7l1.9,0l0.1,0.8c0.2,-0.3 0.5,-0.5 0.8,-0.7s0.7,-0.2 1.1,-0.2c0.8,0 1.4,0.3 1.8,0.9s0.7,1.4 0.7,2.5l0,0.1c0,0.9 -0.2,1.7 -0.7,2.2s-1,0.8 -1.8,0.8c-0.4,0 -0.7,-0.1 -1,-0.2s-0.5,-0.3 -0.8,-0.6l0,2.2l1,0.2l0,0.7l-3.1,0l0,-0.6zm5.2,-4.8c0,-0.7 -0.1,-1.3 -0.4,-1.8s-0.7,-0.7 -1.3,-0.7c-0.3,0 -0.6,0.1 -0.8,0.2s-0.4,0.4 -0.6,0.6l0,3.1c0.1,0.3 0.3,0.5 0.6,0.6s0.5,0.2 0.9,0.2c0.5,0 1,-0.2 1.2,-0.6s0.4,-0.9 0.4,-1.6l0,0z" class="st42"/>
    <path id="svg_85" d="m404.5,225.2l0,-0.7l2,0l0.1,0.9c0.2,-0.3 0.4,-0.6 0.7,-0.8s0.6,-0.3 0.9,-0.3c0.1,0 0.2,0 0.3,0s0.2,0 0.2,0l-0.2,1.1l-0.7,0c-0.3,0 -0.6,0.1 -0.8,0.2s-0.4,0.3 -0.5,0.6l0,3.6l1,0.2l0,0.7l-3.1,0l0,-0.7l1,-0.2l0,-4.5l-0.9,-0.1z" class="st42"/>
    <path id="svg_86" d="m409.3,227.6c0,-0.9 0.3,-1.7 0.8,-2.3s1.2,-0.9 2.1,-0.9c0.9,0 1.6,0.3 2.1,0.9s0.8,1.4 0.8,2.3l0,0.1c0,0.9 -0.3,1.7 -0.8,2.3s-1.2,0.9 -2.1,0.9c-0.9,0 -1.6,-0.3 -2.1,-0.9s-0.8,-1.4 -0.8,-2.3l0,-0.1zm1.2,0.1c0,0.7 0.1,1.2 0.4,1.7s0.7,0.7 1.3,0.7c0.5,0 1,-0.2 1.2,-0.7s0.4,-1 0.4,-1.7l0,-0.1c0,-0.7 -0.1,-1.2 -0.4,-1.7s-0.7,-0.7 -1.3,-0.7s-1,0.2 -1.3,0.7s-0.4,1 -0.4,1.7l0,0.1l0.1,0z" class="st42"/>
    <path id="svg_87" d="m418.9,230c0.4,0 0.7,-0.1 1,-0.4s0.4,-0.5 0.4,-0.9l1,0l0,0c0,0.5 -0.2,1 -0.7,1.5s-1.1,0.6 -1.8,0.6c-0.9,0 -1.6,-0.3 -2.1,-0.9s-0.7,-1.4 -0.7,-2.3l0,-0.2c0,-0.9 0.2,-1.7 0.7,-2.3s1.2,-0.9 2.1,-0.9c0.5,0 1,0.1 1.4,0.3s0.7,0.4 1,0.7l0.1,1.4l-0.9,0l-0.3,-1c-0.1,-0.1 -0.3,-0.2 -0.5,-0.3s-0.5,-0.1 -0.7,-0.1c-0.6,0 -1,0.2 -1.3,0.7s-0.4,1 -0.4,1.6l0,0.2c0,0.6 0.1,1.2 0.4,1.6s0.7,0.7 1.3,0.7z" class="st42"/>
    <path id="svg_88" d="m425.4,230.9c-0.9,0 -1.6,-0.3 -2.1,-0.9s-0.8,-1.4 -0.8,-2.3l0,-0.3c0,-0.9 0.3,-1.7 0.8,-2.3s1.2,-0.9 1.9,-0.9c0.9,0 1.5,0.3 1.9,0.8s0.7,1.2 0.7,2.1l0,0.7l-4.1,0l0,0c0,0.6 0.2,1.1 0.5,1.5s0.7,0.6 1.2,0.6c0.4,0 0.7,-0.1 1,-0.2s0.5,-0.3 0.8,-0.5l0.5,0.8c-0.2,0.2 -0.5,0.4 -0.9,0.6s-0.8,0.3 -1.4,0.3zm-0.1,-5.6c-0.4,0 -0.7,0.2 -1,0.5s-0.4,0.7 -0.5,1.2l0,0l2.9,0l0,-0.2c0,-0.5 -0.1,-0.8 -0.4,-1.1s-0.6,-0.4 -1,-0.4z" class="st42"/>
    <path id="svg_89" d="m433.8,226.5l-0.8,0l-0.2,-0.8c-0.1,-0.1 -0.3,-0.2 -0.5,-0.3s-0.5,-0.1 -0.7,-0.1c-0.4,0 -0.7,0.1 -0.9,0.3s-0.3,0.4 -0.3,0.7c0,0.2 0.1,0.4 0.3,0.6s0.5,0.3 1.1,0.4c0.8,0.2 1.4,0.4 1.8,0.7s0.6,0.7 0.6,1.2c0,0.6 -0.2,1 -0.7,1.4s-1,0.5 -1.8,0.5c-0.5,0 -0.9,-0.1 -1.3,-0.2s-0.7,-0.3 -1,-0.5l0,-1.4l0.9,0l0.2,0.8c0.1,0.1 0.3,0.2 0.5,0.3s0.5,0.1 0.7,0.1c0.4,0 0.7,-0.1 1,-0.2s0.3,-0.4 0.3,-0.7c0,-0.3 -0.1,-0.5 -0.3,-0.6s-0.6,-0.3 -1.1,-0.4c-0.8,-0.2 -1.3,-0.4 -1.7,-0.7s-0.6,-0.7 -0.6,-1.2c0,-0.5 0.2,-1 0.7,-1.3s1,-0.5 1.7,-0.5c0.5,0 0.9,0.1 1.3,0.2s0.7,0.3 1,0.5l-0.2,1.2z" class="st42"/>
    <path id="svg_90" d="m440,226.5l-0.9,0l-0.2,-0.8c-0.1,-0.1 -0.3,-0.2 -0.5,-0.3s-0.5,-0.1 -0.7,-0.1c-0.4,0 -0.7,0.1 -0.9,0.3s-0.3,0.4 -0.3,0.7c0,0.2 0.1,0.4 0.3,0.6s0.5,0.3 1.1,0.4c0.8,0.2 1.4,0.4 1.8,0.7s0.6,0.7 0.6,1.2c0,0.6 -0.2,1 -0.7,1.4s-1,0.5 -1.8,0.5c-0.5,0 -0.9,-0.1 -1.3,-0.2s-0.7,-0.3 -1,-0.5l0,-1.4l0.9,0l0.2,0.8c0.1,0.1 0.3,0.2 0.5,0.3s0.5,0.1 0.7,0.1c0.4,0 0.7,-0.1 1,-0.2s0.3,-0.4 0.3,-0.7c0,-0.3 -0.1,-0.5 -0.3,-0.6s-0.6,-0.3 -1.1,-0.4c-0.8,-0.2 -1.3,-0.4 -1.7,-0.7s-0.6,-0.7 -0.6,-1.2c0,-0.5 0.2,-1 0.7,-1.3s1,-0.5 1.7,-0.5c0.5,0 0.9,0.1 1.3,0.2s0.7,0.3 1,0.5l-0.1,1.2z" class="st42"/>
    <path id="svg_91" d="m444.1,230.9c-0.9,0 -1.6,-0.3 -2.1,-0.9s-0.8,-1.4 -0.8,-2.3l0,-0.3c0,-0.9 0.3,-1.7 0.8,-2.3s1.2,-0.9 1.9,-0.9c0.9,0 1.5,0.3 1.9,0.8s0.7,1.2 0.7,2.1l0,0.7l-4.1,0l0,0c0,0.6 0.2,1.1 0.5,1.5s0.7,0.6 1.2,0.6c0.4,0 0.7,-0.1 1,-0.2s0.5,-0.3 0.8,-0.5l0.5,0.8c-0.2,0.2 -0.5,0.4 -0.9,0.6s-0.9,0.3 -1.4,0.3zm-0.2,-5.6c-0.4,0 -0.7,0.2 -1,0.5s-0.4,0.7 -0.5,1.2l0,0l2.9,0l0,-0.2c0,-0.5 -0.1,-0.8 -0.4,-1.1s-0.5,-0.4 -1,-0.4z" class="st42"/>
    <path id="svg_92" d="m452.5,226.5l-0.9,0l-0.2,-0.8c-0.1,-0.1 -0.3,-0.2 -0.5,-0.3s-0.5,-0.1 -0.7,-0.1c-0.4,0 -0.7,0.1 -0.9,0.3s-0.3,0.4 -0.3,0.7c0,0.2 0.1,0.4 0.3,0.6s0.5,0.3 1.1,0.4c0.8,0.2 1.4,0.4 1.8,0.7s0.6,0.7 0.6,1.2c0,0.6 -0.2,1 -0.7,1.4s-1,0.5 -1.8,0.5c-0.5,0 -0.9,-0.1 -1.3,-0.2s-0.7,-0.3 -1,-0.5l0,-1.4l0.9,0l0.2,0.8c0.1,0.1 0.3,0.2 0.5,0.3s0.5,0.1 0.7,0.1c0.4,0 0.7,-0.1 1,-0.2s0.3,-0.4 0.3,-0.7c0,-0.3 -0.1,-0.5 -0.3,-0.6s-0.6,-0.3 -1.1,-0.4c-0.8,-0.2 -1.3,-0.4 -1.7,-0.7s-0.6,-0.7 -0.6,-1.2c0,-0.5 0.2,-1 0.7,-1.3s1,-0.5 1.7,-0.5c0.5,0 0.9,0.1 1.3,0.2s0.7,0.3 1,0.5l-0.1,1.2z" class="st42"/>
   </g>
   <g id="svg_93">
    <path id="svg_94" d="m374.4,111.8l0,0.7l-1,0.2l0,7.6l-1.2,0l-4.1,-6.6l0,0l0,5.7l1,0.2l0,0.7l-3.1,0l0,-0.7l1,-0.2l0,-6.7l-1,-0.2l0,-0.7l1,0l1.2,0l4.1,6.6l0,0l0,-5.7l-1,-0.2l0,-0.7l2.1,0l1,0z" class="st42"/>
    <path id="svg_95" d="m375.3,117.1c0,-0.9 0.3,-1.7 0.8,-2.3s1.2,-0.9 2.1,-0.9c0.9,0 1.6,0.3 2.1,0.9s0.8,1.4 0.8,2.3l0,0.1c0,0.9 -0.3,1.7 -0.8,2.3s-1.2,0.9 -2.1,0.9c-0.9,0 -1.6,-0.3 -2.1,-0.9s-0.8,-1.4 -0.8,-2.3l0,-0.1zm1.2,0.1c0,0.7 0.1,1.2 0.4,1.7s0.7,0.7 1.3,0.7c0.5,0 1,-0.2 1.2,-0.7s0.4,-1 0.4,-1.7l0,-0.1c0,-0.7 -0.1,-1.2 -0.4,-1.7s-0.7,-0.7 -1.3,-0.7s-1,0.2 -1.3,0.7s-0.4,1 -0.4,1.7l0,0.1l0.1,0z" class="st42"/>
    <path id="svg_96" d="m386.3,119.5c-0.2,0.3 -0.5,0.5 -0.8,0.7s-0.6,0.2 -1,0.2c-0.8,0 -1.4,-0.3 -1.8,-0.8s-0.7,-1.3 -0.7,-2.2l0,-0.1c0,-1 0.2,-1.8 0.7,-2.5s1,-0.9 1.8,-0.9c0.4,0 0.7,0.1 1,0.2s0.5,0.3 0.7,0.6l0,-2.6l-1,-0.2l0,-0.7l1,0l1.2,0l0,8.2l1,0.2l0,0.7l-2,0l-0.1,-0.8zm-3.1,-2.1c0,0.6 0.1,1.1 0.4,1.5s0.7,0.6 1.2,0.6c0.3,0 0.6,-0.1 0.9,-0.2s0.4,-0.4 0.6,-0.7l0,-2.9c-0.1,-0.3 -0.3,-0.5 -0.6,-0.6s-0.5,-0.2 -0.9,-0.2c-0.6,0 -1,0.2 -1.2,0.7s-0.4,1.1 -0.4,1.8l0,0z" class="st42"/>
    <path id="svg_97" d="m392.2,120.4c-0.9,0 -1.6,-0.3 -2.1,-0.9s-0.8,-1.4 -0.8,-2.3l0,-0.2c0,-0.9 0.3,-1.7 0.8,-2.3s1.2,-0.9 1.9,-0.9c0.9,0 1.5,0.3 1.9,0.8s0.7,1.2 0.7,2.1l0,0.7l-4.1,0l0,0c0,0.6 0.2,1.1 0.5,1.5s0.7,0.6 1.2,0.6c0.4,0 0.7,-0.1 1,-0.2s0.5,-0.3 0.8,-0.5l0.5,0.8c-0.2,0.2 -0.5,0.4 -0.9,0.6s-0.9,0.2 -1.4,0.2zm-0.2,-5.6c-0.4,0 -0.7,0.2 -1,0.5s-0.4,0.7 -0.5,1.2l0,0l2.9,0l0,-0.2c0,-0.5 -0.1,-0.8 -0.4,-1.1s-0.5,-0.4 -1,-0.4z" class="st42"/>
   </g>
   <g id="svg_98">
    <g id="svg_99">
     <path id="svg_100" d="m128.4,356.6l1,-0.2l0,-6.9l-1,-0.2l0,-1.2l4,0l0,1.2l-1,0.2l0,2.6l0.8,0l1.9,-2.7l-0.6,-0.1l0,-1.2l3.8,0l0,1.2l-1,0.2l-2.4,3.2l2.7,3.8l1,0.2l0,1.2l-3.8,0l0,-1.2l0.6,-0.1l-1.9,-2.8l-1.1,0l0,2.7l1,0.2l0,1.2l-4,0l0,-1.3z" class="st42"/>
     <path id="svg_101" d="m143,356.9c-0.2,0.3 -0.5,0.6 -0.9,0.8c-0.3,0.2 -0.7,0.3 -1.2,0.3c-0.8,0 -1.4,-0.2 -1.8,-0.7c-0.4,-0.5 -0.6,-1.2 -0.6,-2.3l0,-3l-0.8,-0.2l0,-1.2l0.8,0l1.9,0l0,4.3c0,0.5 0.1,0.9 0.3,1.1c0.2,0.2 0.4,0.3 0.8,0.3c0.3,0 0.6,0 0.8,-0.1s0.4,-0.2 0.5,-0.4l0,-3.8l-0.8,-0.2l0,-1.2l0.8,0l1.9,0l0,5.8l0.9,0.2l0,1.2l-2.6,0l0,-0.9z" class="st42"/>
     <path id="svg_102" d="m153.4,354.4c0,1.1 -0.2,1.9 -0.7,2.6c-0.5,0.6 -1.2,1 -2.1,1c-0.4,0 -0.8,-0.1 -1.1,-0.3c-0.3,-0.2 -0.6,-0.4 -0.8,-0.8l-0.1,0.9l-1.6,0l0,-9l-1,-0.2l0,-1.2l3,0l0,3.9c0.2,-0.3 0.5,-0.5 0.7,-0.7c0.3,-0.2 0.6,-0.2 1,-0.2c0.9,0 1.6,0.3 2.1,1c0.5,0.7 0.7,1.6 0.7,2.8l0,0.2l-0.1,0zm-1.9,-0.1c0,-0.7 -0.1,-1.3 -0.3,-1.7c-0.2,-0.4 -0.6,-0.6 -1.1,-0.6c-0.3,0 -0.6,0.1 -0.8,0.2c-0.2,0.1 -0.4,0.3 -0.5,0.5l0,3c0.1,0.2 0.3,0.4 0.5,0.5c0.2,0.1 0.5,0.2 0.8,0.2c0.5,0 0.8,-0.2 1,-0.5s0.3,-0.9 0.3,-1.5l0,-0.1l0.1,0z" class="st42"/>
     <path id="svg_103" d="m157.8,358c-1,0 -1.9,-0.3 -2.5,-1c-0.6,-0.7 -0.9,-1.5 -0.9,-2.5l0,-0.3c0,-1.1 0.3,-1.9 0.9,-2.6c0.6,-0.7 1.4,-1 2.4,-1c1,0 1.7,0.3 2.3,0.9c0.5,0.6 0.8,1.4 0.8,2.4l0,1.1l-4.3,0l0,0c0,0.5 0.2,0.9 0.5,1.2c0.3,0.3 0.7,0.5 1.1,0.5c0.4,0 0.8,0 1.1,-0.1c0.3,-0.1 0.6,-0.2 0.9,-0.4l0.5,1.2c-0.3,0.2 -0.7,0.4 -1.2,0.6c-0.5,-0.1 -1,0 -1.6,0zm-0.2,-6c-0.4,0 -0.6,0.1 -0.8,0.4c-0.2,0.3 -0.3,0.6 -0.4,1.1l0,0l2.4,0l0,-0.2c0,-0.4 -0.1,-0.7 -0.3,-1s-0.5,-0.3 -0.9,-0.3z" class="st42"/>
     <path id="svg_104" d="m161.7,356.6l0.9,-0.2l0,-4.4l-1,-0.2l0,-1.2l2.8,0l0.1,1c0.2,-0.4 0.4,-0.7 0.7,-0.9c0.3,-0.2 0.6,-0.3 0.9,-0.3c0.1,0 0.2,0 0.3,0c0.1,0 0.2,0 0.3,0.1l-0.2,1.8l-0.8,0c-0.3,0 -0.5,0.1 -0.7,0.2c-0.2,0.1 -0.3,0.3 -0.4,0.5l0,3.5l0.9,0.2l0,1.2l-3.8,0l0,-1.3z" class="st42"/>
     <path id="svg_105" d="m167.2,356.6l0.9,-0.2l0,-4.4l-1,-0.2l0,-1.2l2.8,0l0.1,1c0.2,-0.4 0.5,-0.7 0.9,-0.9s0.7,-0.3 1.2,-0.3c0.7,0 1.3,0.2 1.7,0.7s0.6,1.2 0.6,2.1l0,3.1l0.9,0.2l0,1.2l-3.7,0l0,-1.2l0.8,-0.2l0,-3.1c0,-0.5 -0.1,-0.8 -0.3,-1c-0.2,-0.2 -0.5,-0.3 -0.9,-0.3c-0.3,0 -0.5,0.1 -0.7,0.2c-0.2,0.1 -0.4,0.3 -0.5,0.4l0,3.9l0.8,0.2l0,1.2l-3.7,0l0,-1.2l0.1,0z" class="st42"/>
     <path id="svg_106" d="m179.3,358c-1,0 -1.9,-0.3 -2.5,-1c-0.6,-0.7 -0.9,-1.5 -0.9,-2.5l0,-0.3c0,-1.1 0.3,-1.9 0.9,-2.6c0.6,-0.7 1.4,-1 2.4,-1c1,0 1.7,0.3 2.3,0.9c0.5,0.6 0.8,1.4 0.8,2.4l0,1.1l-4.3,0l0,0c0,0.5 0.2,0.9 0.5,1.2c0.3,0.3 0.7,0.5 1.1,0.5c0.4,0 0.8,0 1.1,-0.1c0.3,-0.1 0.6,-0.2 0.9,-0.4l0.5,1.2c-0.3,0.2 -0.7,0.4 -1.2,0.6c-0.5,-0.1 -1,0 -1.6,0zm-0.2,-6c-0.4,0 -0.6,0.1 -0.8,0.4c-0.2,0.3 -0.3,0.6 -0.4,1.1l0,0l2.4,0l0,-0.2c0,-0.4 -0.1,-0.7 -0.3,-1s-0.5,-0.3 -0.9,-0.3z" class="st42"/>
     <path id="svg_107" d="m186,348.9l0,1.8l1.3,0l0,1.4l-1.3,0l0,3.7c0,0.3 0.1,0.5 0.2,0.6c0.1,0.1 0.3,0.2 0.5,0.2c0.1,0 0.2,0 0.3,0c0.1,0 0.2,0 0.3,-0.1l0.2,1.4c-0.2,0.1 -0.4,0.1 -0.6,0.1c-0.2,0 -0.4,0 -0.7,0c-0.7,0 -1.2,-0.2 -1.5,-0.6c-0.4,-0.4 -0.5,-0.9 -0.5,-1.7l0,-3.7l-1.2,0l0,-1.4l1.1,0l0,-1.8l1.9,0l0,0.1z" class="st42"/>
     <path id="svg_108" d="m191.6,358c-1,0 -1.9,-0.3 -2.5,-1c-0.6,-0.7 -0.9,-1.5 -0.9,-2.5l0,-0.3c0,-1.1 0.3,-1.9 0.9,-2.6c0.6,-0.7 1.4,-1 2.4,-1c1,0 1.7,0.3 2.3,0.9c0.5,0.6 0.8,1.4 0.8,2.4l0,1.1l-4.3,0l0,0c0,0.5 0.2,0.9 0.5,1.2c0.3,0.3 0.7,0.5 1.1,0.5c0.4,0 0.8,0 1.1,-0.1c0.3,-0.1 0.6,-0.2 0.9,-0.4l0.5,1.2c-0.3,0.2 -0.7,0.4 -1.2,0.6c-0.5,-0.1 -1,0 -1.6,0zm-0.1,-6c-0.4,0 -0.6,0.1 -0.8,0.4c-0.2,0.3 -0.3,0.6 -0.4,1.1l0,0l2.4,0l0,-0.2c0,-0.4 -0.1,-0.7 -0.3,-1s-0.5,-0.3 -0.9,-0.3z" class="st42"/>
     <path stroke="null" style="vector-effect: non-scaling-stroke;" id="svg_110" d="m201,353.1l-1.3,0l-0.2,-0.9c-0.1,-0.1 -0.3,-0.2 -0.5,-0.3c-0.2,-0.1 -0.4,-0.1 -0.7,-0.1c-0.3,0 -0.6,0.1 -0.8,0.2s-0.3,0.3 -0.3,0.6c0,0.2 0.1,0.4 0.3,0.5c0.2,0.1 0.6,0.3 1.1,0.4c0.9,0.2 1.5,0.4 2,0.8c0.4,0.3 0.6,0.8 0.6,1.4c0,0.6 -0.3,1.2 -0.8,1.6c-0.6,0.4 -1.3,0.6 -2.2,0.6c-0.6,0 -1.1,-0.1 -1.5,-0.2c-0.5,-0.2 -0.9,-0.4 -1.2,-0.7l0,-1.6l1.4,0l0.3,0.9c0.1,0.1 0.3,0.2 0.5,0.2s0.4,0.1 0.6,0.1c0.4,0 0.7,-0.1 0.9,-0.2c0.2,-0.1 0.3,-0.3 0.3,-0.6c0,-0.2 -0.1,-0.4 -0.3,-0.6c-0.2,-0.2 -0.6,-0.3 -1.1,-0.4c-0.8,-0.2 -1.5,-0.4 -1.9,-0.8c-0.4,-0.3 -0.6,-0.8 -0.6,-1.4c0,-0.6 0.2,-1.1 0.7,-1.6s1.2,-0.7 2.1,-0.7c0.6,0 1.1,0.1 1.6,0.2c0.5,0.2 0.9,0.3 1.2,0.6l-0.2,2z" class="st42"/>
     <path id="svg_111" d="m208.9,356.5c0.3,0 0.6,-0.1 0.8,-0.3c0.2,-0.2 0.3,-0.5 0.3,-0.8l1.8,0l0,0c0,0.7 -0.3,1.3 -0.8,1.8c-0.6,0.5 -1.3,0.7 -2.1,0.7c-1.1,0 -1.9,-0.3 -2.5,-1s-0.9,-1.5 -0.9,-2.6l0,-0.2c0,-1.1 0.3,-1.9 0.9,-2.6s1.4,-1 2.5,-1c0.6,0 1.1,0.1 1.6,0.3c0.5,0.2 0.8,0.4 1.1,0.7l0,1.9l-1.6,0l-0.3,-1.1c-0.1,-0.1 -0.2,-0.2 -0.4,-0.2c-0.1,-0.1 -0.3,-0.1 -0.5,-0.1c-0.5,0 -0.9,0.2 -1.2,0.6s-0.3,0.9 -0.3,1.5l0,0.2c0,0.6 0.1,1.2 0.3,1.6c0.4,0.4 0.8,0.6 1.3,0.6z" class="st42"/>
     <path fill="black" id="svg_112" d="m212.5,348.6l0,-1.2l3,0l0,9l0.9,0.2l0,1.2l-3.8,0l0,-1.2l0.9,-0.2l0,-7.6l-1,-0.2z" class="st42"/>
     <path id="svg_113" d="m222,356.9c-0.2,0.3 -0.5,0.6 -0.9,0.8c-0.3,0.2 -0.7,0.3 -1.2,0.3c-0.8,0 -1.4,-0.2 -1.8,-0.7c-0.4,-0.5 -0.6,-1.2 -0.6,-2.3l0,-3l-0.8,-0.2l0,-1.2l0.8,0l1.9,0l0,4.3c0,0.5 0.1,0.9 0.3,1.1c0.2,0.2 0.4,0.3 0.8,0.3c0.3,0 0.6,0 0.8,-0.1s0.4,-0.2 0.5,-0.4l0,-3.8l-0.8,-0.2l0,-1.2l0.8,0l1.9,0l0,5.8l0.9,0.2l0,1.2l-2.6,0l0,-0.9z" class="st42"/>
     <path id="svg_114" d="m231.4,353.1l-1.3,0l-0.2,-0.9c-0.1,-0.1 -0.3,-0.2 -0.5,-0.3c-0.2,-0.1 -0.4,-0.1 -0.7,-0.1c-0.3,0 -0.6,0.1 -0.8,0.2s-0.3,0.3 -0.3,0.6c0,0.2 0.1,0.4 0.3,0.5c0.2,0.1 0.6,0.3 1.1,0.4c0.9,0.2 1.5,0.4 2,0.8c0.4,0.3 0.6,0.8 0.6,1.4c0,0.6 -0.3,1.2 -0.8,1.6c-0.6,0.4 -1.3,0.6 -2.2,0.6c-0.6,0 -1.1,-0.1 -1.5,-0.2c-0.5,-0.2 -0.9,-0.4 -1.2,-0.7l0,-1.6l1.4,0l0.3,0.9c0.1,0.1 0.3,0.2 0.5,0.2s0.4,0.1 0.6,0.1c0.4,0 0.7,-0.1 0.9,-0.2c0.2,-0.1 0.3,-0.3 0.3,-0.6c0,-0.2 -0.1,-0.4 -0.3,-0.6c-0.2,-0.2 -0.6,-0.3 -1.1,-0.4c-0.8,-0.2 -1.5,-0.4 -1.9,-0.8c-0.4,-0.3 -0.6,-0.8 -0.6,-1.4c0,-0.6 0.2,-1.1 0.7,-1.6s1.2,-0.7 2.1,-0.7c0.6,0 1.1,0.1 1.6,0.2c0.5,0.2 0.9,0.3 1.2,0.6l-0.2,2z" class="st42"/>
     <path id="svg_115" d="m235.4,348.9l0,1.8l1.3,0l0,1.4l-1.3,0l0,3.7c0,0.3 0.1,0.5 0.2,0.6c0.1,0.1 0.3,0.2 0.5,0.2c0.1,0 0.2,0 0.3,0c0.1,0 0.2,0 0.3,-0.1l0.2,1.4c-0.2,0.1 -0.4,0.1 -0.6,0.1c-0.2,0 -0.4,0 -0.7,0c-0.7,0 -1.2,-0.2 -1.5,-0.6c-0.4,-0.4 -0.5,-0.9 -0.5,-1.7l0,-3.7l-1.1,0l0,-1.4l1.1,0l0,-1.8l1.8,0l0,0.1z" class="st42"/>
     <path id="svg_116" d="m241,358c-1,0 -1.9,-0.3 -2.5,-1c-0.6,-0.7 -0.9,-1.5 -0.9,-2.5l0,-0.3c0,-1.1 0.3,-1.9 0.9,-2.6c0.6,-0.7 1.4,-1 2.4,-1c1,0 1.7,0.3 2.3,0.9c0.5,0.6 0.8,1.4 0.8,2.4l0,1.1l-4.3,0l0,0c0,0.5 0.2,0.9 0.5,1.2c0.3,0.3 0.7,0.5 1.1,0.5c0.4,0 0.8,0 1.1,-0.1c0.3,-0.1 0.6,-0.2 0.9,-0.4l0.5,1.2c-0.3,0.2 -0.7,0.4 -1.2,0.6c-0.5,-0.1 -1,0 -1.6,0zm-0.2,-6c-0.4,0 -0.6,0.1 -0.8,0.4c-0.2,0.3 -0.3,0.6 -0.4,1.1l0,0l2.4,0l0,-0.2c0,-0.4 -0.1,-0.7 -0.3,-1s-0.5,-0.3 -0.9,-0.3z" class="st42"/>
     <path id="svg_117" d="m245,356.6l0.9,-0.2l0,-4.4l-1,-0.2l0,-1.2l2.8,0l0.1,1c0.2,-0.4 0.4,-0.7 0.7,-0.9c0.3,-0.2 0.6,-0.3 0.9,-0.3c0.1,0 0.2,0 0.3,0c0.1,0 0.2,0 0.3,0.1l-0.2,1.8l-0.8,0c-0.3,0 -0.5,0.1 -0.7,0.2c-0.2,0.1 -0.3,0.3 -0.4,0.5l0,3.5l0.9,0.2l0,1.2l-3.8,0l0,-1.3z" class="st42"/>
    </g>
   </g>
   <line id="svg_118" y2="191.7" x2="201.6" y1="191.7" x1="360.6" class="st62"/>
   <line id="svg_119" y2="228.8" x2="160" y1="228.8" x1="360.6" class="st62"/>
   <line id="svg_120" y2="118.3" x2="243.4" y1="118.3" x1="360.6" class="st62"/>
  </g>
  <g id="Node">
   <g id="Node_x5F_level3_x5F_1">
    <g id="Isolation_Mode"/>
   </g>
   <polygon id="svg_18" points="182.7,139.9 147.1,160.4 111.4,139.9 111.4,98.7 147.1,78.2 182.7,98.7  " class="st16"/>
   <polygon id="svg_19" points="129.3,150.2 147.1,160.4 182.7,139.9 182.7,119.3  " class="st13"/>
   <polygon id="svg_20" points="163.5,147.7 157.4,137.2 179.9,124.2 179.9,138.3  " class="st7"/>
   <g id="svg_21">
    <path id="svg_22" d="m162.5,139.3c0.4,-0.3 0.9,-0.3 1.3,-0.2c0.4,0.1 0.8,0.4 1,0.8l0.3,0.5c0.3,0.4 0.3,0.9 0.2,1.3c-0.1,0.4 -0.4,0.8 -0.8,1l-1.4,0.8l-0.2,-0.3l0.3,-0.3l-1.6,-2.7l-0.4,0.2l-0.2,-0.3l0.4,-0.2l1.1,-0.6zm-0.4,0.7l1.6,2.7l0.6,-0.3c0.3,-0.2 0.5,-0.4 0.6,-0.8c0.1,-0.3 0,-0.6 -0.2,-1l-0.3,-0.5c-0.2,-0.3 -0.4,-0.5 -0.7,-0.6c-0.3,-0.1 -0.6,-0.1 -0.9,0.1l-0.7,0.4z" class="st8"/>
    <path id="svg_23" d="m165.7,140.3c-0.2,-0.4 -0.3,-0.8 -0.2,-1.1c0.1,-0.4 0.3,-0.6 0.6,-0.9c0.4,-0.2 0.7,-0.2 1.1,-0.1c0.3,0.1 0.6,0.4 0.9,0.8l0,0.1c0.2,0.4 0.3,0.8 0.2,1.1c-0.1,0.4 -0.3,0.6 -0.6,0.8c-0.4,0.2 -0.7,0.2 -1.1,0.1c-0.4,-0.1 -0.7,-0.3 -0.9,-0.8l0,0zm0.5,-0.2c0.2,0.3 0.3,0.5 0.6,0.6c0.2,0.1 0.4,0.1 0.7,0c0.2,-0.1 0.3,-0.3 0.4,-0.6c0,-0.2 -0.1,-0.5 -0.2,-0.8l0,-0.1c-0.2,-0.3 -0.3,-0.5 -0.6,-0.6c-0.2,-0.1 -0.4,-0.1 -0.7,0c-0.2,0.1 -0.3,0.3 -0.4,0.6c-0.1,0.3 0,0.6 0.2,0.9l0,0z" class="st8"/>
    <path id="svg_24" d="m170.1,139.1c0.2,-0.1 0.3,-0.2 0.3,-0.4c0.1,-0.2 0.1,-0.3 0,-0.5l0.4,-0.2l0,0c0.1,0.2 0.2,0.5 0,0.8c-0.1,0.3 -0.3,0.5 -0.6,0.7c-0.4,0.2 -0.7,0.3 -1.1,0.1c-0.3,-0.1 -0.6,-0.4 -0.8,-0.7l-0.1,-0.1c-0.2,-0.4 -0.3,-0.7 -0.2,-1.1s0.3,-0.6 0.6,-0.9c0.2,-0.1 0.4,-0.2 0.6,-0.2c0.2,0 0.4,0 0.6,0l0.3,0.6l-0.4,0.2l-0.3,-0.3c-0.1,0 -0.2,0 -0.3,0c-0.1,0 -0.2,0.1 -0.3,0.1c-0.2,0.1 -0.4,0.3 -0.4,0.6c0,0.2 0.1,0.5 0.2,0.7l0.1,0.1c0.2,0.3 0.3,0.5 0.5,0.6c0.5,0 0.7,0 0.9,-0.1z" class="st8"/>
    <path id="svg_25" d="m169.8,135.2l-0.2,-0.3l0.9,-0.5l1.2,2.1l0.3,-0.2l0.2,-1l-0.3,0.1l-0.2,-0.3l1.1,-0.6l0.2,0.3l-0.3,0.2l-0.2,1.2l1.4,0.6l0.3,-0.1l0.2,0.3l-1.1,0.6l-0.2,-0.3l0.2,-0.2l-1.2,-0.5l-0.3,0.2l0.5,0.8l0.4,-0.2l0.2,0.3l-1.2,0.7l-0.2,-0.3l0.3,-0.3l-1.7,-3l-0.3,0.4z" class="st8"/>
    <path id="svg_26" d="m175.9,136.3c-0.4,0.2 -0.7,0.3 -1.1,0.1s-0.6,-0.4 -0.9,-0.7l-0.1,-0.1c-0.2,-0.4 -0.3,-0.7 -0.2,-1.1c0.1,-0.4 0.3,-0.6 0.6,-0.8c0.3,-0.2 0.7,-0.2 1,-0.1s0.5,0.3 0.7,0.7l0.2,0.3l-1.7,1l0,0c0.1,0.2 0.3,0.4 0.5,0.5c0.2,0.1 0.4,0.1 0.6,-0.1c0.2,-0.1 0.3,-0.2 0.4,-0.3c0.1,-0.1 0.2,-0.2 0.2,-0.4l0.4,0.2c0,0.1 -0.1,0.3 -0.2,0.4c0,0.1 -0.2,0.2 -0.4,0.4zm-1.4,-2.3c-0.2,0.1 -0.3,0.2 -0.3,0.4s0,0.4 0.1,0.6l0,0l1.2,-0.7l0,-0.1c-0.1,-0.2 -0.2,-0.3 -0.4,-0.4c-0.2,0.1 -0.4,0.1 -0.6,0.2z" class="st8"/>
    <path id="svg_27" d="m176,133.1l-0.2,-0.3l0.8,-0.5l0.3,0.3c0,-0.2 0,-0.3 0.1,-0.5c0.1,-0.1 0.2,-0.2 0.3,-0.3c0,0 0.1,0 0.1,-0.1c0,0 0.1,0 0.1,0l0.2,0.5l-0.3,0.1c-0.1,0.1 -0.2,0.2 -0.3,0.3c-0.1,0.1 -0.1,0.2 -0.1,0.4l0.8,1.5l0.4,-0.2l0.2,0.3l-1.2,0.7l-0.2,-0.3l0.3,-0.3l-1.1,-1.8l-0.2,0.2z" class="st8"/>
   </g>
   <g id="svg_28">
    <path id="svg_29" d="m141.1,151.8l-0.2,-0.3l0.9,-0.5l1.2,2.1l0.3,-0.2l0.2,-1l-0.3,0.1l-0.2,-0.3l1.1,-0.6l0.2,0.3l-0.3,0.2l-0.2,1.2l1.4,0.6l0.3,-0.1l0.2,0.3l-1.1,0.6l-0.2,-0.3l0.2,-0.2l-1.2,-0.5l-0.3,0.2l0.5,0.8l0.4,-0.2l0.2,0.3l-1.2,0.7l-0.2,-0.3l0.3,-0.3l-1.7,-3l-0.3,0.4z" class="st8"/>
    <path id="svg_30" d="m147.6,152c0,0.2 0,0.3 -0.1,0.5c-0.1,0.1 -0.2,0.3 -0.4,0.4c-0.3,0.2 -0.5,0.2 -0.8,0.1c-0.3,-0.1 -0.5,-0.3 -0.7,-0.7l-0.7,-1.1l-0.3,0.1l-0.2,-0.3l0.3,-0.2l0.5,-0.3l0.9,1.5c0.2,0.3 0.3,0.4 0.4,0.5s0.3,0 0.5,-0.1c0.2,-0.1 0.3,-0.2 0.4,-0.3c0.1,-0.1 0.1,-0.3 0.1,-0.4l-0.9,-1.5l-0.4,0.1l-0.2,-0.3l0.3,-0.2l0.5,-0.3l1.3,2.2l0.3,-0.1l0.2,0.3l-0.7,0.4l-0.3,-0.3z" class="st8"/>
    <path id="svg_31" d="m150.6,149.2c0.2,0.4 0.3,0.7 0.2,1c0,0.3 -0.2,0.6 -0.5,0.8c-0.2,0.1 -0.3,0.1 -0.5,0.2c-0.2,0 -0.3,0 -0.5,-0.1l0.1,0.4l-0.4,0.2l-1.9,-3.3l-0.4,0.2l-0.2,-0.3l0.9,-0.5l0.8,1.4c0,-0.2 0.1,-0.3 0.1,-0.4c0.1,-0.1 0.2,-0.2 0.4,-0.3c0.3,-0.2 0.6,-0.2 1,0s0.7,0.2 0.9,0.7l0,0zm-0.5,0.2c-0.2,-0.3 -0.4,-0.5 -0.6,-0.6c-0.2,-0.1 -0.4,-0.1 -0.7,0c-0.1,0.1 -0.2,0.2 -0.3,0.3c-0.1,0.1 -0.1,0.3 -0.1,0.4l0.7,1.1c0.1,0.1 0.3,0.1 0.4,0.1c0.1,0 0.3,0 0.4,-0.1c0.2,-0.1 0.3,-0.3 0.4,-0.5c0.1,-0.2 0,-0.4 -0.2,-0.7l0,0z" class="st8"/>
    <path id="svg_32" d="m153,149.5c-0.4,0.2 -0.7,0.3 -1.1,0.1s-0.6,-0.4 -0.9,-0.7l-0.1,-0.1c-0.2,-0.4 -0.3,-0.7 -0.2,-1.1c0.1,-0.4 0.3,-0.6 0.6,-0.8c0.3,-0.2 0.7,-0.2 1,-0.1s0.5,0.3 0.7,0.7l0.2,0.3l-1.7,1l0,0c0.1,0.2 0.3,0.4 0.5,0.5c0.2,0.1 0.4,0.1 0.6,-0.1c0.2,-0.1 0.3,-0.2 0.4,-0.3c0.1,-0.1 0.2,-0.2 0.2,-0.4l0.4,0.2c0,0.1 -0.1,0.3 -0.2,0.4s-0.2,0.2 -0.4,0.4zm-1.4,-2.3c-0.2,0.1 -0.3,0.2 -0.3,0.4c0,0.2 0,0.4 0.1,0.6l0,0l1.2,-0.7l0,-0.1c-0.1,-0.2 -0.2,-0.3 -0.4,-0.4s-0.4,0.1 -0.6,0.2z" class="st8"/>
    <path id="svg_33" d="m152.4,145.2l-0.2,-0.3l0.9,-0.5l1.9,3.3l0.4,-0.2l0.2,0.3l-1.2,0.7l-0.2,-0.3l0.3,-0.3l-1.7,-3l-0.4,0.3z" class="st8"/>
    <path id="svg_34" d="m157.1,147.1c-0.4,0.2 -0.7,0.3 -1.1,0.1s-0.6,-0.4 -0.9,-0.7l-0.1,-0.1c-0.2,-0.4 -0.3,-0.7 -0.2,-1.1c0.1,-0.4 0.3,-0.6 0.6,-0.8c0.3,-0.2 0.7,-0.2 1,-0.1s0.5,0.3 0.7,0.7l0.2,0.3l-1.7,1l0,0c0.1,0.2 0.3,0.4 0.5,0.5c0.2,0.1 0.4,0.1 0.6,-0.1c0.2,-0.1 0.3,-0.2 0.4,-0.3c0.1,-0.1 0.2,-0.2 0.2,-0.4l0.4,0.2c0,0.1 -0.1,0.3 -0.2,0.4s-0.2,0.3 -0.4,0.4zm-1.4,-2.3c-0.2,0.1 -0.3,0.2 -0.3,0.4s0,0.4 0.1,0.6l0,0l1.2,-0.7l0,-0.1c-0.1,-0.2 -0.2,-0.3 -0.4,-0.4c-0.2,0.1 -0.4,0.1 -0.6,0.2z" class="st8"/>
    <path id="svg_35" d="m157.5,142.6l0.4,0.6l0.5,-0.3l0.2,0.3l-0.5,0.3l0.9,1.6c0.1,0.1 0.1,0.2 0.2,0.2c0.1,0 0.2,0 0.2,0c0,0 0.1,-0.1 0.1,-0.1c0,0 0.1,-0.1 0.1,-0.1l0.2,0.3c0,0.1 -0.1,0.1 -0.2,0.2c-0.1,0.1 -0.2,0.1 -0.2,0.2c-0.2,0.1 -0.4,0.1 -0.6,0.1c-0.2,0 -0.3,-0.2 -0.5,-0.4l-0.9,-1.6l-0.4,0.2l-0.2,-0.3l0.4,-0.2l-0.4,-0.6l0.7,-0.4z" class="st8"/>
   </g>
   <polygon id="svg_36" points="225.1,160.4 189.4,139.9 189.4,98.7 225.1,78.2 260.7,98.7 260.7,139.9  " class="st16"/>
   <polygon id="svg_37" points="189.4,119.3 189.4,139.9 225.1,160.4 242.9,150.2  " class="st13"/>
   <polygon id="svg_38" points="208.7,147.7 214.8,137.2 237.3,150.2 225.1,157.2  " class="st7"/>
   <g id="svg_39">
    <path id="svg_40" d="m215.5,142.6c0.5,0.3 0.7,0.6 0.8,1c0.1,0.4 0,0.9 -0.2,1.3l-0.3,0.5c-0.3,0.4 -0.6,0.7 -1,0.8c-0.4,0.1 -0.9,0 -1.3,-0.2l-1.4,-0.8l0.2,-0.3l0.4,0.2l1.6,-2.7l-0.3,-0.3l0.2,-0.3l0.4,0.2l0.9,0.6zm-0.8,0l-1.6,2.7l0.6,0.3c0.3,0.2 0.6,0.2 0.9,0.1c0.3,-0.1 0.6,-0.3 0.7,-0.6l0.3,-0.5c0.2,-0.3 0.2,-0.6 0.2,-1c-0.1,-0.3 -0.3,-0.6 -0.6,-0.8l-0.5,-0.2z" class="st8"/>
    <path id="svg_41" d="m216.2,145.9c0.2,-0.4 0.5,-0.6 0.8,-0.8c0.3,-0.1 0.7,-0.1 1,0.1c0.4,0.2 0.6,0.5 0.6,0.9c0.1,0.4 0,0.7 -0.2,1.1l0,0.1c-0.2,0.4 -0.5,0.6 -0.8,0.8c-0.3,0.1 -0.7,0.1 -1,-0.1c-0.4,-0.2 -0.6,-0.5 -0.6,-0.9c-0.1,-0.4 0,-0.8 0.2,-1.2l0,0zm0.5,0.3c-0.2,0.3 -0.2,0.5 -0.2,0.8c0,0.2 0.1,0.4 0.4,0.6c0.2,0.1 0.4,0.1 0.7,0c0.2,-0.1 0.4,-0.3 0.6,-0.6l0,-0.1c0.2,-0.3 0.2,-0.5 0.2,-0.8c0,-0.2 -0.1,-0.4 -0.4,-0.6c-0.2,-0.1 -0.4,-0.1 -0.7,0c-0.3,0.2 -0.5,0.4 -0.6,0.7l0,0z" class="st8"/>
    <path id="svg_42" d="m219.5,149.1c0.2,0.1 0.3,0.1 0.5,0.1c0.2,0 0.3,-0.1 0.4,-0.2l0.4,0.2l0,0c-0.1,0.2 -0.3,0.4 -0.6,0.4c-0.3,0.1 -0.6,0 -0.9,-0.2c-0.4,-0.2 -0.6,-0.5 -0.6,-0.9c-0.1,-0.4 0,-0.7 0.2,-1.1l0.1,-0.1c0.2,-0.4 0.5,-0.6 0.8,-0.7s0.7,-0.1 1.1,0.1c0.2,0.1 0.4,0.3 0.5,0.4s0.2,0.3 0.2,0.5l-0.3,0.6l-0.4,-0.2l0.1,-0.5c0,-0.1 -0.1,-0.2 -0.1,-0.3c-0.1,-0.1 -0.2,-0.2 -0.3,-0.2c-0.2,-0.1 -0.5,-0.2 -0.7,0c-0.2,0.1 -0.4,0.3 -0.5,0.6l-0.1,0.1c-0.2,0.3 -0.2,0.5 -0.2,0.7c0.1,0.4 0.2,0.6 0.4,0.7z" class="st8"/>
    <path id="svg_43" d="m222.7,146.8l0.2,-0.3l0.9,0.5l-1.2,2.1l0.3,0.2l0.9,-0.4l-0.2,-0.2l0.2,-0.3l1.1,0.6l-0.2,0.3l-0.3,-0.1l-1.1,0.4l0.2,1.5l0.3,0.2l-0.2,0.3l-1.1,-0.6l0.2,-0.3l0.3,0.1l-0.2,-1.2l-0.3,-0.2l-0.5,0.8l0.3,0.3l-0.2,0.3l-1.2,-0.7l0.2,-0.3l0.4,0.2l1.7,-3l-0.5,-0.2z" class="st8"/>
    <path id="svg_44" d="m224.8,152.7c-0.4,-0.2 -0.6,-0.5 -0.6,-0.8s0,-0.7 0.2,-1.1l0.1,-0.1c0.2,-0.4 0.5,-0.6 0.9,-0.7s0.7,-0.1 1,0.1c0.3,0.2 0.5,0.5 0.6,0.8c0.1,0.3 0,0.6 -0.2,1l-0.2,0.3l-1.7,-1l0,0c-0.1,0.2 -0.2,0.5 -0.2,0.7c0,0.2 0.2,0.4 0.4,0.5c0.2,0.1 0.3,0.1 0.5,0.2c0.1,0 0.3,0 0.4,0l0,0.4c-0.1,0 -0.3,0 -0.5,0s-0.4,-0.2 -0.7,-0.3zm1.3,-2.4c-0.2,-0.1 -0.3,-0.1 -0.5,0c-0.2,0.1 -0.4,0.2 -0.5,0.4l0,0l1.2,0.7l0,-0.1c0.1,-0.2 0.1,-0.4 0.1,-0.5c0,-0.2 -0.1,-0.4 -0.3,-0.5z" class="st8"/>
    <path id="svg_45" d="m227.6,151.2l0.2,-0.3l0.8,0.5l-0.2,0.4c0.1,-0.1 0.3,-0.1 0.4,-0.2c0.1,0 0.3,0 0.4,0.1c0,0 0.1,0 0.1,0.1c0,0 0.1,0.1 0.1,0.1l-0.3,0.4l-0.3,-0.2c-0.1,-0.1 -0.2,-0.1 -0.4,-0.1c-0.1,0 -0.2,0.1 -0.3,0.1l-0.8,1.5l0.3,0.3l-0.2,0.3l-1.2,-0.7l0.2,-0.3l0.4,0.2l1.1,-1.8l-0.3,-0.4z" class="st8"/>
   </g>
   <g id="svg_46">
    <path id="svg_47" d="m194,130.3l0.2,-0.3l0.9,0.5l-1.2,2.1l0.3,0.2l0.9,-0.4l-0.2,-0.2l0.2,-0.3l1.1,0.6l-0.2,0.3l-0.3,-0.1l-1.1,0.4l0.2,1.5l0.3,0.2l-0.2,0.3l-1.1,-0.6l0.2,-0.3l0.3,0.1l-0.2,-1.2l-0.3,-0.2l-0.5,0.8l0.3,0.3l-0.2,0.3l-1.2,-0.7l0.2,-0.3l0.4,0.2l1.7,-3l-0.5,-0.2z" class="st8"/>
    <path id="svg_48" d="m197.1,136.1c-0.2,0.1 -0.3,0.1 -0.5,0.1c-0.2,0 -0.3,0 -0.5,-0.1c-0.3,-0.2 -0.4,-0.4 -0.5,-0.6c-0.1,-0.3 0,-0.6 0.2,-1l0.7,-1.1l-0.3,-0.2l0.2,-0.3l0.3,0.2l0.5,0.3l-0.9,1.5c-0.2,0.3 -0.2,0.5 -0.2,0.6c0,0.1 0.1,0.3 0.3,0.4c0.2,0.1 0.3,0.1 0.5,0.1c0.1,0 0.3,-0.1 0.4,-0.1l0.9,-1.5l-0.3,-0.3l0.2,-0.3l0.3,0.2l0.5,0.3l-1.3,2.2l0.3,0.2l-0.2,0.3l-0.7,-0.4l0.1,-0.5z" class="st8"/>
    <path id="svg_49" d="m201,137.3c-0.2,0.4 -0.5,0.6 -0.8,0.7s-0.6,0.1 -0.9,-0.1c-0.2,-0.1 -0.3,-0.2 -0.4,-0.3c-0.1,-0.1 -0.1,-0.3 -0.1,-0.5l-0.2,0.3l-0.4,-0.2l1.9,-3.3l-0.3,-0.3l0.2,-0.3l0.9,0.5l-0.8,1.4c0.1,-0.1 0.3,-0.1 0.5,-0.1s0.3,0.1 0.5,0.2c0.3,0.2 0.5,0.5 0.5,0.8s-0.3,0.7 -0.6,1.2l0,0zm-0.4,-0.4c0.2,-0.3 0.3,-0.6 0.3,-0.8c0,-0.2 -0.1,-0.4 -0.3,-0.6c-0.1,-0.1 -0.3,-0.1 -0.4,-0.1c-0.1,0 -0.3,0.1 -0.4,0.1l-0.7,1.1c0,0.2 0,0.3 0.1,0.4c0.1,0.1 0.2,0.2 0.3,0.3c0.2,0.1 0.4,0.1 0.6,0c0.1,0.1 0.3,-0.1 0.5,-0.4l0,0z" class="st8"/>
    <path id="svg_50" d="m202,139.4c-0.4,-0.2 -0.6,-0.5 -0.6,-0.8c-0.1,-0.4 0,-0.7 0.2,-1.1l0.1,-0.1c0.2,-0.4 0.5,-0.6 0.9,-0.7c0.4,-0.1 0.7,-0.1 1,0.1c0.3,0.2 0.5,0.5 0.6,0.8c0.1,0.3 0,0.6 -0.2,1l-0.2,0.3l-1.7,-1l0,0c-0.1,0.2 -0.2,0.5 -0.2,0.7c0,0.2 0.2,0.4 0.4,0.5c0.2,0.1 0.3,0.1 0.5,0.2c0.1,0 0.3,0 0.4,0l0,0.4c-0.1,0 -0.3,0 -0.5,0c-0.3,-0.1 -0.5,-0.1 -0.7,-0.3zm1.2,-2.3c-0.2,-0.1 -0.3,-0.1 -0.5,0c-0.2,0.1 -0.3,0.2 -0.5,0.4l0,0l1.2,0.7l0,-0.1c0.1,-0.2 0.1,-0.4 0.1,-0.5c0,-0.2 -0.1,-0.4 -0.3,-0.5z" class="st8"/>
    <path id="svg_51" d="m205.3,136.8l0.2,-0.3l0.9,0.5l-1.9,3.3l0.3,0.3l-0.2,0.3l-1.2,-0.7l0.2,-0.3l0.4,0.2l1.7,-3l-0.4,-0.3z" class="st8"/>
    <path id="svg_52" d="m206.1,141.8c-0.4,-0.2 -0.6,-0.5 -0.6,-0.8c-0.1,-0.4 0,-0.7 0.2,-1.1l0.1,-0.1c0.2,-0.4 0.5,-0.6 0.9,-0.7c0.4,-0.1 0.7,-0.1 1,0.1c0.3,0.2 0.5,0.5 0.6,0.8c0.1,0.3 0,0.6 -0.2,1l-0.2,0.3l-1.7,-1l0,0c-0.1,0.2 -0.2,0.5 -0.2,0.7c0,0.2 0.2,0.4 0.4,0.5c0.2,0.1 0.3,0.1 0.5,0.2c0.1,0 0.3,0 0.4,0l0,0.4c-0.1,0 -0.3,0 -0.5,0c-0.3,-0.1 -0.5,-0.2 -0.7,-0.3zm1.2,-2.3c-0.2,-0.1 -0.3,-0.1 -0.5,0c-0.2,0.1 -0.3,0.2 -0.5,0.4l0,0l1.2,0.7l0,-0.1c0.1,-0.2 0.1,-0.4 0.1,-0.5c0,-0.3 -0.1,-0.4 -0.3,-0.5z" class="st8"/>
    <path id="svg_53" d="m210.2,139.9l-0.4,0.6l0.5,0.3l-0.2,0.3l-0.5,-0.3l-0.9,1.6c-0.1,0.1 -0.1,0.2 -0.1,0.3c0,0.1 0.1,0.1 0.2,0.2c0,0 0.1,0 0.1,0.1c0.1,0 0.1,0 0.1,0.1l-0.1,0.4c-0.1,0 -0.1,0 -0.2,0c-0.1,0 -0.2,-0.1 -0.3,-0.1c-0.2,-0.1 -0.3,-0.3 -0.4,-0.4c0,-0.2 0,-0.4 0.1,-0.6l0.9,-1.6l-0.4,-0.2l0.2,-0.3l0.4,0.2l0.4,-0.6l0.6,0z" class="st8"/>
   </g>
   <polygon id="svg_54" points="147.1,296.4 111.4,275.9 111.4,234.7 147.1,214.1 182.7,234.7 182.7,275.9  " class="st16"/>
   <polygon id="svg_55" points="129.3,224.4 147.1,214.1 182.7,234.7 182.7,255.3  " class="st13"/>
   <polygon id="svg_56" points="163.5,226.9 157.4,237.4 179.9,250.4 179.9,236.3  " class="st7"/>
   <g id="svg_57">
    <path id="svg_58" d="m164.2,232.3c0.5,0.3 0.7,0.6 0.8,1c0.1,0.4 0,0.9 -0.2,1.3l-0.3,0.5c-0.3,0.4 -0.6,0.7 -1,0.8c-0.4,0.1 -0.9,0 -1.3,-0.2l-1.4,-0.8l0.2,-0.3l0.4,0.2l1.6,-2.7l-0.3,-0.3l0.2,-0.3l0.4,0.2l0.9,0.6zm-0.8,0l-1.6,2.7l0.6,0.3c0.3,0.2 0.6,0.2 0.9,0.1c0.3,-0.1 0.6,-0.3 0.7,-0.6l0.3,-0.5c0.2,-0.3 0.3,-0.6 0.2,-1c-0.1,-0.3 -0.3,-0.6 -0.6,-0.8l-0.5,-0.2z" class="st8"/>
    <path id="svg_59" d="m164.9,235.6c0.2,-0.4 0.5,-0.6 0.8,-0.8c0.3,-0.1 0.7,-0.1 1,0.1c0.4,0.2 0.6,0.5 0.6,0.9c0.1,0.4 0,0.7 -0.2,1.1l0,0.1c-0.2,0.4 -0.5,0.6 -0.8,0.8c-0.3,0.1 -0.7,0.1 -1,-0.1c-0.4,-0.2 -0.6,-0.5 -0.6,-0.9c-0.1,-0.4 0,-0.8 0.2,-1.2l0,0zm0.5,0.3c-0.2,0.3 -0.2,0.5 -0.2,0.8c0,0.2 0.1,0.4 0.4,0.6c0.2,0.1 0.4,0.1 0.7,0c0.2,-0.1 0.4,-0.3 0.6,-0.6l0,-0.1c0.2,-0.3 0.2,-0.5 0.2,-0.8c0,-0.2 -0.1,-0.4 -0.4,-0.6c-0.2,-0.1 -0.4,-0.1 -0.7,0c-0.2,0.2 -0.4,0.4 -0.6,0.7l0,0z" class="st8"/>
    <path id="svg_60" d="m168.2,238.8c0.2,0.1 0.3,0.1 0.5,0.1c0.2,0 0.3,-0.1 0.4,-0.2l0.4,0.2l0,0c-0.1,0.2 -0.3,0.4 -0.6,0.4c-0.3,0.1 -0.6,0 -0.9,-0.2c-0.4,-0.2 -0.6,-0.5 -0.6,-0.9c-0.1,-0.4 0,-0.7 0.2,-1.1l0.1,-0.1c0.2,-0.4 0.5,-0.6 0.8,-0.7c0.3,-0.1 0.7,-0.1 1.1,0.1c0.2,0.1 0.4,0.3 0.5,0.4s0.2,0.3 0.2,0.5l-0.3,0.7l-0.4,-0.2l0.1,-0.5c0,-0.1 -0.1,-0.2 -0.1,-0.3c-0.1,-0.1 -0.2,-0.2 -0.3,-0.2c-0.2,-0.1 -0.5,-0.2 -0.7,0c-0.2,0.1 -0.4,0.3 -0.5,0.6l-0.1,0.1c-0.2,0.3 -0.2,0.5 -0.2,0.7c0.1,0.3 0.2,0.5 0.4,0.6z" class="st8"/>
    <path id="svg_61" d="m171.4,236.5l0.2,-0.3l0.9,0.5l-1.2,2.1l0.3,0.2l0.9,-0.4l-0.2,-0.2l0.2,-0.3l1.1,0.6l-0.2,0.3l-0.4,0l-1.1,0.4l0.2,1.5l0.3,0.2l-0.2,0.3l-1.1,-0.6l0.2,-0.3l0.3,0.1l-0.2,-1.2l-0.3,-0.2l-0.5,0.8l0.3,0.3l-0.2,0.3l-1.2,-0.7l0.2,-0.3l0.4,0.2l1.7,-3l-0.4,-0.3z" class="st8"/>
    <path id="svg_62" d="m173.6,242.4c-0.4,-0.2 -0.6,-0.5 -0.6,-0.8c-0.1,-0.4 0,-0.7 0.2,-1.1l0.1,-0.1c0.2,-0.4 0.5,-0.6 0.9,-0.7c0.4,-0.1 0.7,-0.1 1,0.1c0.3,0.2 0.5,0.5 0.6,0.8c0.1,0.3 0,0.6 -0.2,1l-0.2,0.3l-1.7,-1l0,0c-0.1,0.2 -0.2,0.5 -0.2,0.7c0,0.2 0.2,0.4 0.4,0.5c0.2,0.1 0.3,0.1 0.5,0.2s0.3,0 0.4,0l0,0.4c-0.1,0 -0.3,0 -0.5,0c-0.3,-0.1 -0.5,-0.2 -0.7,-0.3zm1.2,-2.4c-0.2,-0.1 -0.3,-0.1 -0.5,0c-0.2,0.1 -0.4,0.2 -0.5,0.4l0,0l1.2,0.7l0,-0.1c0.1,-0.2 0.1,-0.4 0.1,-0.5c0,-0.2 -0.1,-0.4 -0.3,-0.5z" class="st8"/>
    <path id="svg_63" d="m176.3,240.9l0.2,-0.3l0.8,0.5l-0.2,0.4c0.1,-0.1 0.3,-0.1 0.4,-0.2c0.2,0 0.3,0 0.4,0.1c0,0 0.1,0 0.1,0.1c0,0 0.1,0.1 0.1,0.1l-0.3,0.4l-0.3,-0.2c-0.1,-0.1 -0.2,-0.1 -0.4,-0.1c-0.1,0 -0.2,0.1 -0.3,0.1l-0.8,1.5l0.3,0.3l-0.2,0.3l-1.2,-0.7l0.2,-0.3l0.4,0.2l1.1,-1.8l-0.3,-0.4z" class="st8"/>
   </g>
   <g id="svg_64">
    <path id="svg_65" d="m142.7,220l0.2,-0.3l0.9,0.5l-1.2,2.1l0.3,0.2l0.9,-0.4l-0.2,-0.2l0.2,-0.3l1.1,0.6l-0.2,0.3l-0.3,-0.1l-1.1,0.4l0.2,1.5l0.3,0.2l-0.2,0.3l-1.1,-0.6l0.2,-0.3l0.3,0.1l-0.2,-1.2l-0.3,-0.2l-0.5,0.8l0.3,0.3l-0.2,0.3l-1.2,-0.7l0.2,-0.3l0.4,0.2l1.7,-3l-0.5,-0.2z" class="st8"/>
    <path id="svg_66" d="m145.8,225.8c-0.2,0.1 -0.3,0.1 -0.5,0.1s-0.3,0 -0.5,-0.1c-0.3,-0.2 -0.4,-0.4 -0.5,-0.6s0,-0.6 0.2,-1l0.7,-1.1l-0.3,-0.2l0.2,-0.3l0.3,0.2l0.5,0.3l-0.9,1.5c-0.2,0.3 -0.2,0.5 -0.2,0.6s0.1,0.3 0.3,0.4c0.2,0.1 0.3,0.1 0.5,0.1c0.1,0 0.3,-0.1 0.4,-0.1l0.9,-1.5l-0.3,-0.3l0.2,-0.3l0.3,0.2l0.5,0.3l-1.3,2.2l0.3,0.2l-0.2,0.3l-0.7,-0.4l0.1,-0.5z" class="st8"/>
    <path id="svg_67" d="m149.8,227c-0.2,0.4 -0.5,0.6 -0.8,0.7c-0.3,0.1 -0.6,0.1 -0.9,-0.1c-0.2,-0.1 -0.3,-0.2 -0.4,-0.3c-0.1,-0.1 -0.1,-0.3 -0.1,-0.5l-0.2,0.3l-0.4,-0.2l1.9,-3.3l-0.3,-0.3l0.2,-0.3l0.9,0.5l-0.8,1.4c0.1,-0.1 0.3,-0.1 0.5,-0.1c0.2,0 0.3,0.1 0.5,0.2c0.3,0.2 0.5,0.5 0.5,0.8c-0.3,0.3 -0.4,0.7 -0.6,1.2l0,0zm-0.5,-0.4c0.2,-0.3 0.3,-0.6 0.3,-0.8c0,-0.2 -0.1,-0.4 -0.3,-0.6c-0.1,-0.1 -0.3,-0.1 -0.4,-0.1c-0.1,0 -0.3,0.1 -0.4,0.1l-0.7,1.1c0,0.2 0,0.3 0.1,0.4s0.2,0.2 0.3,0.3c0.2,0.1 0.4,0.1 0.6,0c0.2,0.1 0.3,0 0.5,-0.4l0,0z" class="st8"/>
    <path id="svg_68" d="m150.7,229.1c-0.4,-0.2 -0.6,-0.5 -0.6,-0.8c-0.1,-0.4 0,-0.7 0.2,-1.1l0.1,-0.1c0.2,-0.4 0.5,-0.6 0.9,-0.7c0.4,-0.1 0.7,-0.1 1,0.1c0.3,0.2 0.5,0.5 0.6,0.8s0,0.6 -0.2,1l-0.2,0.3l-1.7,-1l0,0c-0.1,0.2 -0.2,0.5 -0.2,0.7s0.2,0.4 0.4,0.5c0.2,0.1 0.3,0.1 0.5,0.2c0.1,0 0.3,0 0.4,0l0,0.4c-0.1,0 -0.3,0 -0.5,0c-0.3,-0.1 -0.5,-0.1 -0.7,-0.3zm1.2,-2.3c-0.2,-0.1 -0.3,-0.1 -0.5,0c-0.2,0.1 -0.4,0.2 -0.5,0.4l0,0l1.2,0.7l0,-0.1c0.1,-0.2 0.1,-0.4 0.1,-0.5c0,-0.2 -0.1,-0.4 -0.3,-0.5z" class="st8"/>
    <path id="svg_69" d="m154,226.5l0.2,-0.3l0.9,0.5l-1.9,3.3l0.3,0.3l-0.2,0.3l-1.2,-0.7l0.2,-0.3l0.4,0.2l1.7,-3l-0.4,-0.3z" class="st8"/>
    <path id="svg_70" d="m154.8,231.5c-0.4,-0.2 -0.6,-0.5 -0.6,-0.8c-0.1,-0.4 0,-0.7 0.2,-1.1l0.1,-0.1c0.2,-0.4 0.5,-0.6 0.9,-0.7c0.4,-0.1 0.7,-0.1 1,0.1c0.3,0.2 0.5,0.5 0.6,0.8s0,0.6 -0.2,1l-0.2,0.3l-1.7,-1l0,0c-0.1,0.2 -0.2,0.5 -0.2,0.7s0.2,0.4 0.4,0.5c0.2,0.1 0.3,0.1 0.5,0.2c0.1,0 0.3,0 0.4,0l0,0.4c-0.1,0 -0.3,0 -0.5,0c-0.3,-0.1 -0.5,-0.1 -0.7,-0.3zm1.3,-2.3c-0.2,-0.1 -0.3,-0.1 -0.5,0c-0.2,0.1 -0.4,0.2 -0.5,0.4l0,0l1.2,0.7l0,-0.1c0.1,-0.2 0.1,-0.4 0.1,-0.5c0,-0.2 -0.1,-0.4 -0.3,-0.5z" class="st8"/>
    <path id="svg_71" d="m158.9,229.6l-0.4,0.6l0.5,0.3l-0.2,0.3l-0.5,-0.3l-0.9,1.6c-0.1,0.1 -0.1,0.2 -0.1,0.3c0,0.1 0.1,0.1 0.2,0.2c0,0 0.1,0 0.1,0.1c0.1,0 0.1,0 0.1,0.1l-0.1,0.4c-0.1,0 -0.1,0 -0.2,0c-0.1,0 -0.2,-0.1 -0.3,-0.1c-0.2,-0.1 -0.3,-0.3 -0.4,-0.4c0,-0.2 0,-0.4 0.1,-0.6l0.9,-1.6l-0.4,-0.2l0.2,-0.3l0.4,0.2l0.4,-0.6l0.6,0z" class="st8"/>
   </g>
  </g>
  <g id="service"/>
  <g id="pods"/>
  <g id="IP"/>
  <g id="deployments"/>
  <g id="containers_x2F_volumes"/>
  <g id="labels_x2F_selectors"/>
  <g id="Layer_14"/>
 </g>
</svg>